<svg width="100" height="80" viewBox="0 0 100 80" fill="none" xmlns="http://www.w3.org/2000/svg">
<g clip-path="url(#clip0_28_670)">
<path d="M34.5297 10.2774L5.85236 10.2738C5.16106 10.2737 4.47652 10.3818 3.83794 10.5919C3.19936 10.802 2.6193 11.11 2.13096 11.4983C1.64262 11.8865 1.25561 12.3474 0.992085 12.8546C0.72856 13.3617 0.5937 13.9051 0.595228 14.4536C0.619314 24.7207 0.705176 47.855 0.73153 57.5739C0.734291 58.6758 1.28656 59.7321 2.26767 60.512C3.24878 61.2918 4.579 61.7319 5.96769 61.736C22.7947 61.7877 74.9423 61.704 92.1623 61.6804C93.5551 61.6792 94.8903 61.2391 95.8742 60.4569C96.8582 59.6748 97.4105 58.6145 97.4096 57.5094C97.4036 47.5546 97.3835 23.8656 97.3764 14.4525C97.3762 13.9051 97.2402 13.363 96.976 12.8573C96.7119 12.3516 96.3247 11.8922 95.8368 11.5052C95.3488 11.1182 94.7695 10.8113 94.1321 10.602C93.4946 10.3927 92.8114 10.2851 92.1215 10.2853C86.4453 10.2853 43.879 10.2835 33.605 10.2821" fill="#E2E1E1"/>
<path d="M38.2889 73.4734L64.4326 73.4774C65.2723 73.4774 65.2349 71.746 64.9852 71.3188C64.7356 70.8916 64.2425 70.6157 63.3881 70.4869C60.4283 70.0401 59.6955 68.7719 59.4492 66.5249C59.3441 65.5616 59.235 64.964 59.1752 64.0045C59.1404 63.4424 59.0814 62.8229 58.9842 62.0116L58.9681 61.729L39.0047 61.7495L38.9894 62.0116C38.8922 62.8229 38.8333 63.4433 38.7984 64.0045C38.7387 64.964 38.6284 65.5616 38.5244 66.5249C38.2787 68.7719 37.5457 70.0401 34.5855 70.4869C33.7312 70.6159 33.2378 70.8916 32.9885 71.3188C32.7391 71.746 32.8133 73.4734 33.6334 73.4734H38.2889Z" fill="white"/>
<path d="M58.4182 62.0096C58.597 63.5125 58.7115 65.0193 58.8832 66.5229C58.9994 67.5386 59.1878 68.6295 59.9736 69.4728C60.3402 69.8659 60.8135 70.1887 61.3585 70.4171C62.0288 70.6653 62.7352 70.8465 63.4617 70.9568C63.7622 71.0005 64.0416 71.1095 64.2687 71.2716C64.3645 71.3504 64.4413 71.4423 64.4954 71.543C64.4311 71.4254 64.4881 71.5378 64.4954 71.5619C64.5087 71.6176 64.5283 71.6725 64.5405 71.7287C64.6128 72.1111 64.5872 72.5011 64.4654 72.8755C64.4285 72.9744 64.3849 72.958 64.3481 73.0657C64.3548 73.0526 64.3668 73.0417 64.3822 73.0346C64.3975 73.0275 64.4154 73.0246 64.4331 73.0264C64.3889 73.0242 64.3446 73.0242 64.3005 73.0264C64.1483 73.0234 63.9955 73.0264 63.8431 73.0264H62.2806H57.1014L43.1985 73.0241C40.069 73.0241 36.9393 73.0237 33.8095 73.0228C33.7514 73.0192 33.6931 73.0192 33.635 73.0228C33.6945 73.0149 33.6715 73.0585 33.697 73.0353C33.7112 73.0223 33.7293 73.0884 33.663 73.0043C33.7242 73.0821 33.6296 72.9504 33.6285 72.9486C33.6022 72.9085 33.5813 72.8664 33.5661 72.8229C33.4961 72.6401 33.4537 72.4514 33.4397 72.2607C33.4307 72.146 33.4281 72.0309 33.4327 71.916C33.4327 71.88 33.4358 71.8441 33.4389 71.8083C33.4403 71.7906 33.4672 71.6102 33.4519 71.6849C33.4601 71.6442 33.5429 71.4249 33.4803 71.5443C33.5294 71.4537 33.597 71.3702 33.6803 71.297C33.9408 71.1029 34.2706 70.9776 34.6245 70.9384C35.3286 70.8365 36.0113 70.657 36.6526 70.405C37.191 70.1605 37.659 69.8293 38.0263 69.4327C38.3937 69.036 38.6523 68.5828 38.7856 68.102C38.9502 67.5469 39.0572 66.982 39.1055 66.4129C39.1925 65.6455 39.3073 64.8808 39.3605 64.1113C39.4089 63.4093 39.475 62.7086 39.5589 62.0092C39.5579 61.8902 39.4978 61.7762 39.3918 61.6921C39.2857 61.6079 39.1421 61.5603 38.9922 61.5595C38.8428 61.5619 38.7005 61.6101 38.5948 61.6939C38.4892 61.7777 38.4285 61.8907 38.4254 62.0092C38.2435 63.5382 38.1313 65.0703 37.9516 66.5996C37.8442 67.5154 37.6399 68.5544 36.792 69.218C36.3647 69.5327 35.8487 69.7616 35.287 69.8856C34.478 70.0844 33.6234 70.1183 32.9654 70.5919C32.079 71.2298 32.1374 72.5087 32.5993 73.3137C32.6871 73.4911 32.8397 73.6437 33.0375 73.7518C33.2353 73.86 33.4693 73.9188 33.7095 73.9208C33.8759 73.9246 34.043 73.9208 34.2097 73.9208H35.9317H41.4606L55.678 73.9231H61.4783C62.4492 73.9231 63.428 73.9525 64.3971 73.9231C65.6666 73.8851 65.7799 72.5663 65.687 71.8056C65.6774 71.5672 65.6073 71.3327 65.4806 71.1163C65.354 70.9 65.1736 70.7061 64.9502 70.5464C64.2874 70.1015 63.441 70.072 62.6475 69.8719C62.1095 69.754 61.6182 69.5293 61.2199 69.219C60.8216 68.9087 60.5294 68.5231 60.3709 68.0984C60.1826 67.5837 60.064 67.0545 60.0173 66.5197C59.9294 65.7514 59.8147 64.9849 59.758 64.2148C59.7033 63.4772 59.6398 62.742 59.5523 62.0065C59.5483 61.8882 59.4873 61.7757 59.3818 61.692C59.2764 61.6083 59.1346 61.5599 58.9855 61.5568C58.8355 61.5576 58.692 61.6052 58.5859 61.6894C58.4799 61.7735 58.4198 61.8875 58.4188 62.0065L58.4182 62.0096Z" fill="#211715"/>
<path d="M40.1715 70.3821H57.8336C58.5627 70.3821 58.5641 69.4819 57.8336 69.4819H40.1715C39.4421 69.4819 39.441 70.3821 40.1715 70.3821Z" fill="#211715"/>
<path d="M8.39648 42.7707V45.676C9.92273 45.676 45.9678 45.6661 60.1593 45.6625V42.7583L8.39648 42.7707Z" fill="#B6B2B2"/>
<path d="M60.1602 42.7583C60.1602 35.4024 60.1602 20.1604 60.1602 16.3336L8.39648 16.3359V42.7706L60.1602 42.7583Z" fill="white"/>
<path d="M60.1799 15.8837H55.0593H43.9307H30.241H17.4385H8.39634C8.24669 15.8854 8.10376 15.9333 7.99793 16.0172C7.89211 16.1012 7.83171 16.2146 7.82959 16.3334V42.7706C7.83171 42.8894 7.89211 43.0028 7.99793 43.0867C8.10376 43.1707 8.24669 43.2186 8.39634 43.2203C9.77126 43.2203 11.1463 43.2199 12.5214 43.219L20.6958 43.2158L30.2571 43.2118L38.5421 43.2084C39.9899 43.2084 41.4402 43.228 42.8879 43.2066C42.9318 43.2066 42.976 43.2066 43.0202 43.2066C43.7496 43.2066 43.7508 42.3072 43.0202 42.3072C41.7948 42.3072 40.5691 42.3076 39.3432 42.3085L31.3994 42.3119L21.8517 42.3157L13.3627 42.3193C11.7736 42.3193 10.1845 42.3199 8.59555 42.3209H8.39719L8.96393 42.7706V16.3358L8.39719 16.7856H16.0885H28.5419H42.3087H53.9406H60.1799C60.9093 16.7856 60.9104 15.8861 60.1799 15.8861V15.8837Z" fill="#211715"/>
<path d="M7.82959 42.7706V45.6759C7.83179 45.7947 7.8922 45.908 7.99801 45.992C8.10383 46.076 8.24671 46.1239 8.39634 46.1257C9.77749 46.1257 11.1587 46.1251 12.5401 46.1241L20.9251 46.1207L30.7865 46.1162L39.3588 46.1126C40.8643 46.1126 42.3716 46.1292 43.8772 46.1108C43.9239 46.1108 43.9707 46.1108 44.0189 46.1108C44.7483 46.1108 44.7494 45.2114 44.0189 45.2114C42.742 45.2114 41.4651 45.2119 40.1882 45.213L31.9647 45.2166L22.1127 45.2208L13.3979 45.2247C11.7936 45.2247 10.1893 45.2253 8.58506 45.2265H8.39804L8.96478 45.6762V42.7706C8.96478 42.1918 7.83129 42.1909 7.83129 42.7706H7.82959Z" fill="#211715"/>
<path d="M12.6099 42.4372C12.6099 40.391 12.6237 40.7335 12.6237 39.5125C14.6881 39.5125 18.0866 39.5092 20.9495 39.5092C20.9495 41.0915 20.9594 41.3201 20.9594 42.4323C19.2569 42.4318 15.2625 42.4372 12.6099 42.4372Z" fill="#65A0D4"/>
<path d="M23.7749 42.4372C23.7749 41.5531 23.7845 41.4996 23.7845 40.9723C25.2102 40.9723 27.5571 40.9707 29.5345 40.9707C29.5345 41.6543 29.541 41.9544 29.541 42.435C28.3655 42.435 25.6066 42.4372 23.7749 42.4372Z" fill="white"/>
<path d="M13.177 42.4372C13.177 41.4622 13.1906 40.4875 13.1908 39.5125L12.6241 39.9622C15.3994 39.9622 18.1747 39.9611 20.9499 39.9589L20.3831 39.5092C20.3831 40.4835 20.3928 41.4577 20.393 42.4323L20.9598 41.9826C18.1765 41.9826 15.3933 41.9844 12.6102 41.988C11.8808 41.988 11.8794 42.8874 12.6102 42.8874C15.3933 42.8874 18.1765 42.8856 20.9598 42.882C21.1094 42.8803 21.2524 42.8324 21.3582 42.7484C21.464 42.6644 21.5244 42.551 21.5265 42.4323C21.5265 41.4582 21.5169 40.4839 21.5166 39.5092C21.5145 39.3904 21.4541 39.277 21.3483 39.193C21.2424 39.1091 21.0995 39.0611 20.9499 39.0594C18.1745 39.0594 15.3993 39.0606 12.6241 39.0628C12.4745 39.0646 12.3316 39.1125 12.2258 39.1965C12.12 39.2804 12.0595 39.3938 12.0573 39.5125C12.0573 40.4875 12.0435 41.4622 12.0435 42.4372C12.0418 43.016 13.1752 43.0169 13.177 42.4372Z" fill="#211715"/>
<path d="M15.71 42.4835C15.71 40.1151 15.7136 40.5113 15.7136 39.0983C16.2444 39.0983 17.118 39.0942 17.8542 39.0942C17.8542 40.9259 17.8568 41.1903 17.8568 42.4774C17.4195 42.4774 16.3923 42.4835 15.71 42.4835Z" fill="white"/>
<path d="M16.2766 42.4835C16.2766 41.3552 16.2802 40.2266 16.2802 39.0983L15.7135 39.548C16.427 39.548 17.1406 39.5442 17.8541 39.5439L17.2873 39.0942C17.2873 40.2218 17.2882 41.3495 17.2899 42.4774L17.8566 42.0277C17.1411 42.0277 16.4256 42.0335 15.7098 42.0338C14.9807 42.0338 14.9793 42.9332 15.7098 42.9332C16.4256 42.9332 17.1411 42.9273 17.8566 42.9271C18.0063 42.9254 18.1492 42.8774 18.255 42.7935C18.3608 42.7095 18.4212 42.5961 18.4234 42.4774C18.4234 41.3495 18.4225 40.2218 18.4208 39.0942C18.4187 38.9755 18.3583 38.8621 18.2525 38.7781C18.1467 38.6941 18.0037 38.6462 17.8541 38.6445C17.1406 38.6445 16.427 38.6484 15.7135 38.6486C15.5638 38.6503 15.4209 38.6982 15.3151 38.7822C15.2093 38.8661 15.1489 38.9795 15.1468 39.0983C15.1468 40.2266 15.1431 41.3552 15.1431 42.4835C15.1431 43.0622 16.2766 43.0631 16.2766 42.4835Z" fill="#211715"/>
<path d="M24.3415 42.4372C24.3415 41.9488 24.3508 41.4604 24.3511 40.9723L23.7844 41.422C25.7011 41.422 27.6178 41.4215 29.5343 41.4204L28.9676 40.9707C28.9676 41.4589 28.9738 41.9468 28.9741 42.435L29.5408 41.9852C27.619 41.9852 25.697 41.986 23.7748 41.9875C23.0454 41.9875 23.0442 42.8869 23.7748 42.8869C25.697 42.8869 27.619 42.8862 29.5408 42.8847C29.6905 42.883 29.8334 42.8351 29.9392 42.7511C30.0451 42.6671 30.1054 42.5537 30.1076 42.435C30.1076 41.9468 30.1011 41.4589 30.1011 40.9707C30.0989 40.852 30.0384 40.7386 29.9326 40.6546C29.8268 40.5707 29.6839 40.5227 29.5343 40.521C27.6176 40.521 25.7009 40.5215 23.7844 40.5226C23.6348 40.5243 23.4919 40.5723 23.3861 40.6562C23.2803 40.7402 23.2198 40.8536 23.2176 40.9723C23.2176 41.4604 23.2083 41.9488 23.208 42.4372C23.208 43.016 24.3415 43.0169 24.3415 42.4372Z" fill="#211715"/>
<path d="M47.5587 34.6424C47.1005 34.2343 46.6675 33.886 46.5201 33.3137C46.368 32.7228 45.9868 31.945 45.1985 31.8996C45.0204 31.8884 44.8434 31.9304 44.7023 32.0175C44.5613 32.1045 44.4663 32.2303 44.4362 32.37C44.4362 32.37 44.3829 32.5049 44.2991 32.7262C44.1141 32.669 43.9228 32.6253 43.7278 32.5958C42.3633 32.3817 40.8657 32.6057 40.8062 33.1662C40.739 33.4444 40.8252 33.6933 41.0952 34.1362C40.8484 34.3267 40.6623 34.8783 40.8456 34.999L41.0119 35.2949C40.846 35.2528 40.6685 35.249 40.5 35.284C40.3314 35.319 40.179 35.3913 40.0604 35.4926C39.7753 35.7334 39.5523 36.2571 39.8878 36.4531C40.1618 36.613 40.3775 36.7754 40.6138 36.9186C40.1219 36.3645 38.8997 36.8379 38.9487 37.3458C38.9926 37.5217 39.08 37.689 39.2059 37.8379C39.3318 37.9869 39.4936 38.1145 39.6821 38.2135C40.2576 39.0883 41.0538 39.8598 42.0213 40.4798C42.2642 40.6352 42.5169 40.7807 42.7513 40.9439C43.2594 41.2978 43.6725 41.7292 43.9658 42.2126C45.6754 41.7569 47.3421 41.2055 48.9532 40.5623C48.7622 38.2607 48.7174 35.9497 48.213 35.3113C48.0195 35.0739 47.8006 34.8501 47.5587 34.6424Z" fill="#E5A4A4"/>
<path d="M38.7638 22.8043C39.8973 25.3514 40.9965 27.9085 42.1521 30.4493C42.4944 31.2014 42.8425 31.952 43.1966 32.701C43.2398 32.8144 43.3363 32.9102 43.466 32.9688C43.5957 33.0273 43.7488 33.0442 43.8937 33.0158C44.0381 32.9834 44.1607 32.9072 44.235 32.8037C44.3092 32.7001 44.3291 32.5776 44.2904 32.4625C42.9993 29.7464 41.8066 27.0012 40.6037 24.26C40.3559 23.6953 40.1071 23.1309 39.8576 22.5668C39.6164 22.0245 38.5209 22.2581 38.7646 22.8059L38.7638 22.8043Z" fill="#211715"/>
<path d="M37.527 21.5365L37.9943 22.4861C38.063 22.6258 38.1985 22.7382 38.3712 22.799C38.5439 22.8597 38.7399 22.8638 38.9164 22.8103L39.7263 22.563C39.9025 22.5091 40.0446 22.402 40.1216 22.2652C40.1985 22.1284 40.204 21.9729 40.1369 21.8329C39.8731 21.2818 39.7872 21.1046 39.6798 20.8842C39.4401 20.392 38.6291 19.9464 38.0955 20.0797C37.635 20.1944 37.2459 20.9643 37.527 21.5365Z" fill="#F2635F"/>
<path d="M36.9802 21.6559C37.0701 21.8389 37.1601 22.0218 37.2502 22.2046C37.4356 22.581 37.5781 22.9826 38.0655 23.18C38.3191 23.2829 38.6081 23.3174 38.8887 23.2782C39.1219 23.2344 39.3488 23.1718 39.5659 23.0914C39.7923 23.0373 40.0087 22.9596 40.2092 22.8602C40.4493 22.7245 40.624 22.5279 40.7045 22.3028C40.8349 21.9244 40.6226 21.5862 40.4563 21.2402C40.3574 21.0344 40.2645 20.8255 40.1522 20.6243C39.8122 20.0147 38.8422 19.471 37.9805 19.6376C37.4851 19.7336 37.1785 20.1098 37.0105 20.4642C36.8259 20.8465 36.8152 21.268 36.9802 21.6559C37.0201 21.7709 37.116 21.8686 37.2467 21.9275C37.3775 21.9864 37.5323 22.0017 37.6773 21.97C37.8222 21.9383 37.9453 21.8623 38.0196 21.7585C38.0938 21.6548 38.1131 21.5319 38.0731 21.4169C38.0452 21.3555 38.0226 21.2926 38.0057 21.2287C37.9822 21.143 38.0037 21.213 38.0057 21.2312C38.0031 21.1983 38 21.1657 37.9995 21.1329C37.9992 21.0738 38.0028 21.0147 38.0102 20.9559C38.0003 21.0459 38.006 20.9784 38.0122 20.9595C38.0255 20.9157 38.036 20.8716 38.0516 20.8282C38.0618 20.8001 38.1366 20.6497 38.0822 20.7432C38.1126 20.6901 38.1472 20.6385 38.1856 20.5888C38.2004 20.5703 38.2177 20.5526 38.2321 20.5339C38.1703 20.6139 38.1924 20.571 38.2179 20.5514C38.2423 20.5359 38.2644 20.5184 38.284 20.499C38.3086 20.4669 38.1788 20.5528 38.2803 20.5042C38.3752 20.4592 38.265 20.528 38.2463 20.513C38.2398 20.5078 38.3197 20.5017 38.3191 20.4986C38.3214 20.5139 38.1791 20.5017 38.3024 20.5053C38.3591 20.5071 38.4041 20.4813 38.2916 20.4984C38.3559 20.5012 38.4189 20.5137 38.4772 20.5352C38.5101 20.5424 38.5968 20.5784 38.4874 20.5352C38.5291 20.5514 38.5707 20.5674 38.611 20.5856C38.6677 20.6106 38.7187 20.6389 38.7714 20.667C38.8975 20.7345 38.6997 20.6072 38.8088 20.6922C38.832 20.7102 38.8572 20.7266 38.8808 20.7444C38.9335 20.7846 38.9799 20.8282 39.029 20.8712C39.0893 20.924 38.9626 20.7866 39.0406 20.886C39.0655 20.9175 39.0913 20.9478 39.114 20.9805C39.1287 21.0016 39.1406 21.0238 39.1556 21.045C39.1038 20.971 39.1366 21.0077 39.1483 21.0326C39.1621 21.0623 39.1766 21.0918 39.1913 21.1212C39.2268 21.1942 39.2622 21.2673 39.2973 21.3404C39.4067 21.5669 39.52 21.7926 39.6178 22.022C39.6651 22.1328 39.5895 21.959 39.6178 22.0269C39.6314 22.0607 39.5872 22.1288 39.6235 22.0294C39.6155 22.0519 39.6076 22.0744 39.6002 22.0969C39.632 22.0011 39.6243 22.0784 39.5929 22.0993C39.5362 22.1373 39.7028 22.0582 39.5889 22.1056C39.5742 22.1117 39.4985 22.1657 39.6034 22.1056C39.5781 22.12 39.5523 22.1313 39.5263 22.1438C39.4747 22.1643 39.4713 22.1663 39.5155 22.1483L39.4223 22.1767L38.8603 22.3485C38.7871 22.373 38.7112 22.3924 38.6337 22.4063C38.7603 22.3871 38.6662 22.3997 38.6283 22.3975C38.5848 22.3955 38.5985 22.3973 38.6694 22.4029C38.6479 22.3995 38.6267 22.3951 38.6059 22.3896C38.5322 22.3593 38.7306 22.4195 38.6002 22.3876C38.5558 22.3644 38.5506 22.3633 38.5846 22.3844C38.6175 22.4069 38.613 22.4038 38.5733 22.3757C38.5526 22.3586 38.5311 22.3426 38.5124 22.3242C38.5937 22.4036 38.5178 22.3161 38.5036 22.2934C38.5452 22.3608 38.4911 22.2623 38.4826 22.2455L38.4053 22.0881L38.3078 21.89L38.0748 21.4178C38.032 21.3042 37.9356 21.2082 37.8058 21.1495C37.676 21.0909 37.5227 21.0742 37.3777 21.103C37.2335 21.1355 37.111 21.2117 37.0367 21.315C36.9623 21.4184 36.942 21.5408 36.9802 21.6559Z" fill="#211715"/>
<path d="M41.2742 37.8439C41.2824 37.8531 41.2895 37.8639 41.2983 37.8727C41.3396 37.9134 41.2665 37.7769 41.2781 37.8295C41.2824 37.8481 41.3048 37.9334 41.2923 37.8551C41.2793 37.7721 41.29 37.881 41.2892 37.9001C41.2892 37.9138 41.2855 37.928 41.2858 37.9417C41.2875 37.995 41.3155 37.8416 41.2878 37.9192C41.2781 37.9469 41.2716 37.9752 41.2611 38.0026C41.2611 37.9986 41.2373 38.0564 41.2382 38.0568C41.239 38.0573 41.2903 37.9734 41.2611 38.0145C41.2416 38.0422 41.226 38.0714 41.2045 38.0989C41.1946 38.1093 41.1856 38.1201 41.1775 38.1315C41.1557 38.1728 41.2495 38.0725 41.2084 38.0991C41.1007 38.1688 41.2189 38.0991 41.2203 38.0991C41.2172 38.0975 41.1092 38.1495 41.1053 38.1515C41.0523 38.176 41.1444 38.1353 41.1495 38.1375C41.1299 38.1411 41.1109 38.1464 41.0928 38.1533C41.0398 38.167 40.9854 38.174 40.9319 38.1859C40.867 38.2 40.9792 38.1821 40.9786 38.1823C40.9507 38.1869 40.9221 38.1887 40.8936 38.1875C40.8517 38.1893 40.8103 38.1875 40.7684 38.1875C40.7074 38.1875 40.7247 38.1629 40.7967 38.1935C40.7776 38.1889 40.7579 38.1859 40.738 38.1845C40.6827 38.1737 40.6282 38.1603 40.5748 38.1443C40.5133 38.1274 40.5893 38.1481 40.5972 38.1515C40.5754 38.1423 40.5527 38.1344 40.5309 38.1256C40.4796 38.1047 40.4292 38.0822 40.3798 38.0582C40.2807 38.0103 40.186 37.9567 40.0931 37.9008C40.1781 37.9509 40.0562 37.8783 40.0316 37.861C39.9899 37.8342 39.9488 37.807 39.9092 37.7784C39.8293 37.7204 39.7536 37.6587 39.6825 37.5938C39.6119 37.5302 39.7162 37.6388 39.6584 37.568C39.63 37.5325 39.6003 37.4976 39.5734 37.4603C39.5626 37.4448 39.5524 37.4288 39.5422 37.4131C39.4855 37.3247 39.5481 37.4234 39.5476 37.4234C39.5232 37.4202 39.5173 37.291 39.5025 37.2905C39.5025 37.2905 39.515 37.3717 39.5113 37.3305C39.5132 37.3184 39.5132 37.3062 39.5113 37.2941C39.5141 37.2979 39.483 37.3926 39.5003 37.3537C39.5083 37.3387 39.5134 37.3227 39.5153 37.3065C39.5153 37.2694 39.4935 37.3501 39.4869 37.3562C39.4956 37.3455 39.5028 37.3341 39.5085 37.3222C39.5207 37.3078 39.5318 37.2928 39.5416 37.2772C39.5651 37.235 39.468 37.3359 39.5133 37.3047C39.547 37.2822 39.5771 37.2514 39.6091 37.2262C39.6231 37.2176 39.6365 37.2085 39.6493 37.1988C39.6541 37.2114 39.5334 37.259 39.6363 37.21C39.6728 37.1927 39.7088 37.1745 39.7468 37.159C39.7553 37.1554 39.8122 37.1322 39.8134 37.1336C39.8145 37.1349 39.6915 37.1662 39.7816 37.1468L39.9233 37.1158C39.9406 37.1122 40.0058 37.1061 39.9202 37.1144C39.821 37.1243 39.9406 37.1144 39.9534 37.1144C39.9817 37.1144 40.1132 37.1239 40.0211 37.112C39.929 37.1001 40.0908 37.1286 40.118 37.1358C40.263 37.1666 40.4175 37.1508 40.5479 37.0919C40.6784 37.033 40.7744 36.9357 40.8151 36.821C40.8515 36.706 40.8306 36.5843 40.7566 36.4813C40.6827 36.3782 40.5616 36.3018 40.4184 36.2679C40.1347 36.2055 39.8354 36.2032 39.5502 36.2613C39.2651 36.3193 39.0041 36.4356 38.7932 36.5986C38.5906 36.7433 38.4526 36.9363 38.4002 37.1486C38.3533 37.4314 38.4342 37.7182 38.6286 37.9581C38.7936 38.1677 39.0029 38.3532 39.2472 38.5065C39.4898 38.6742 39.758 38.8171 40.0455 38.9317C40.3393 39.0485 40.6683 39.0981 40.9956 39.0749C41.3431 39.0553 41.6746 38.9513 41.9452 38.7772C42.3887 38.471 42.6046 37.7836 42.2498 37.3831C42.174 37.2802 42.0496 37.2053 41.9042 37.175C41.7588 37.1448 41.6042 37.1616 41.4744 37.2218C41.3446 37.282 41.2502 37.3807 41.2121 37.4961C41.174 37.6115 41.1952 37.7341 41.2711 37.8371L41.2742 37.8439Z" fill="#211715"/>
<path d="M41.6587 35.0233C41.2704 34.842 40.8121 34.7792 40.3697 34.8465C39.999 34.9235 39.6783 35.1081 39.4708 35.3637C39.2589 35.6043 39.1482 35.8918 39.1546 36.1853C39.1595 36.3388 39.2168 36.4884 39.3203 36.6182C39.4576 36.7561 39.6221 36.8754 39.8074 36.9716C40.0869 37.1562 40.3742 37.3246 40.6692 37.4919C40.7029 37.511 40.7355 37.5313 40.7686 37.5508C40.863 37.6064 40.6607 37.4834 40.7593 37.5452L40.816 37.5808C40.954 37.6664 41.092 37.7521 41.2317 37.8362C41.4237 37.9607 41.6309 38.0696 41.8503 38.1613C42.1961 38.285 42.5865 38.3053 42.9498 38.2187C43.1542 38.1794 43.3449 38.1044 43.5081 37.9991C43.6712 37.8938 43.8026 37.7608 43.8925 37.61C44.0034 37.418 44.0489 37.2063 44.0247 36.9959C44.0005 36.7856 43.9074 36.584 43.7545 36.4111C43.6787 36.3081 43.5544 36.2332 43.4089 36.203C43.2635 36.1727 43.1089 36.1895 42.9791 36.2497C42.8493 36.3099 42.755 36.4086 42.7168 36.524C42.6787 36.6394 42.6999 36.7621 42.7758 36.865C42.8001 36.8932 42.822 36.9226 42.8463 36.9507C42.852 36.9572 42.8968 37.0299 42.8653 36.9707C42.8795 36.9975 42.8869 37.0265 42.8979 37.0541C42.9075 37.0778 42.9039 37.1358 42.9024 37.0564C42.9024 37.076 42.9047 37.0955 42.9044 37.1151C42.9044 37.1308 42.8911 37.2104 42.9044 37.1499C42.9177 37.0894 42.8962 37.1654 42.892 37.1798C42.884 37.2068 42.8395 37.275 42.8962 37.1875C42.8693 37.2195 42.8455 37.2531 42.8251 37.288C42.803 37.3449 42.8818 37.2205 42.8415 37.2709C42.8324 37.2821 42.7659 37.3341 42.8214 37.2918C42.8769 37.2495 42.8069 37.2968 42.7897 37.306C42.7724 37.3152 42.7489 37.3217 42.7304 37.3318C42.8055 37.2905 42.7783 37.319 42.7381 37.3291C42.6979 37.3393 42.6636 37.3483 42.6247 37.3559C42.5939 37.362 42.5627 37.3658 42.5321 37.3716C42.4507 37.3872 42.6253 37.3716 42.5431 37.3694C42.491 37.3676 42.4371 37.3707 42.3847 37.3694C42.2643 37.3694 42.4751 37.3867 42.3683 37.3647C42.3093 37.3523 42.5083 37.4207 42.3683 37.3631C42.1989 37.2885 42.0372 37.2033 41.8849 37.1083C41.8404 37.082 41.7964 37.0553 41.7522 37.0287C41.7298 37.0152 41.6672 36.9759 41.7695 37.0393L41.7063 37.0004C41.6006 36.935 41.4952 36.8693 41.389 36.8046C41.245 36.7166 41.0917 36.6418 40.9449 36.5572C40.8673 36.5122 40.9976 36.5912 40.9225 36.5435C40.8925 36.5244 40.8624 36.5051 40.8327 36.4855C40.7797 36.4509 40.7276 36.4158 40.6749 36.3807C40.6131 36.3396 40.551 36.2982 40.4878 36.2577C40.4551 36.2369 40.4223 36.2162 40.3892 36.1957L40.2744 36.1253C40.2178 36.0909 40.2064 36.0839 40.2399 36.1046L40.2566 36.1149C40.2229 36.0868 40.222 36.0877 40.2532 36.1172C40.2759 36.1194 40.2861 36.1554 40.2583 36.1152C40.3195 36.2051 40.2866 36.1723 40.2787 36.1406C40.3042 36.2543 40.2824 36.1968 40.2838 36.1691C40.2838 36.1482 40.2838 36.1253 40.2838 36.1048C40.2838 36.0679 40.3141 36.0463 40.2798 36.1246C40.2988 36.0814 40.3082 36.0347 40.3255 35.9897C40.3538 35.9123 40.3272 35.9818 40.3178 35.998C40.3331 35.9712 40.3495 35.9449 40.3671 35.9191C40.3978 35.8744 40.4322 35.8314 40.47 35.7902C40.3909 35.8757 40.5009 35.7808 40.5317 35.7527C40.576 35.712 40.4507 35.7774 40.515 35.7642C40.5465 35.753 40.5764 35.7393 40.6043 35.7232C40.5864 35.7318 40.4884 35.7513 40.585 35.7304C40.6134 35.7246 40.64 35.7187 40.6672 35.7124C40.765 35.69 40.6703 35.7124 40.6476 35.7124C40.6863 35.7144 40.7251 35.7144 40.7638 35.7124C40.8432 35.7046 40.6774 35.6942 40.7599 35.7095C40.8027 35.7174 40.8449 35.7237 40.8882 35.7334C40.9237 35.7417 40.9602 35.7509 40.9948 35.7619C40.9098 35.7351 41.0835 35.7992 41.0829 35.799C41.2127 35.8592 41.3673 35.876 41.5127 35.8458C41.5847 35.8308 41.6523 35.8047 41.7116 35.769C41.7709 35.7333 41.8208 35.6887 41.8584 35.6377C41.8959 35.5867 41.9205 35.5303 41.9306 35.4718C41.9407 35.4133 41.9362 35.3537 41.9173 35.2966C41.8984 35.2395 41.8655 35.1858 41.8205 35.1388C41.7755 35.0917 41.7193 35.0522 41.655 35.0224L41.6587 35.0233Z" fill="#211715"/>
<path d="M43.2194 36.0306C42.692 35.6817 42.1805 35.3188 41.6608 34.9615C41.558 34.8907 41.4541 34.8203 41.3491 34.7503C41.327 34.7338 41.3038 34.7183 41.2794 34.704C41.1895 34.6579 41.2853 34.7195 41.3018 34.7431L41.3363 34.8119C41.3261 34.778 41.325 34.7818 41.3338 34.8236C41.3338 34.9093 41.3378 34.8032 41.3375 34.7854C41.3372 34.7676 41.3505 34.7013 41.3375 34.7652C41.3213 34.8425 41.3494 34.729 41.3508 34.7233C41.365 34.6761 41.3854 34.6307 41.4026 34.5844C41.4418 34.4774 41.3627 34.6305 41.4058 34.5752C41.4211 34.5556 41.4315 34.5333 41.4454 34.5133C41.4622 34.4895 41.4823 34.467 41.4993 34.4434C41.4568 34.5023 41.4588 34.4846 41.5166 34.4371C41.5013 34.4495 41.4267 34.4796 41.5208 34.4349C41.5492 34.4211 41.5775 34.4081 41.6078 34.3962C41.4789 34.4475 41.7617 34.3694 41.6849 34.3811C41.6024 34.3937 41.7611 34.3789 41.762 34.3789C41.7963 34.3789 41.83 34.3813 41.8643 34.3818C41.7648 34.3804 41.8359 34.3771 41.8662 34.3838C41.9158 34.3948 41.966 34.4034 42.0145 34.4178C41.9088 34.3867 42.0317 34.4277 42.0578 34.4387C42.0944 34.4542 42.1306 34.4702 42.1666 34.4861C42.2452 34.5212 42.3226 34.5576 42.3987 34.5952C42.4718 34.6316 42.5438 34.6691 42.6146 34.7076C42.6452 34.7247 42.6756 34.7418 42.7059 34.7593C42.7283 34.7721 42.7507 34.7852 42.7728 34.7987C42.7382 34.7762 42.7359 34.7762 42.7665 34.7951C43.0289 34.9624 43.272 35.148 43.4928 35.3496C43.5056 35.3613 43.6379 35.4928 43.5755 35.426C43.6264 35.4804 43.6737 35.5369 43.7172 35.5951C43.7524 35.6421 43.7821 35.6909 43.8142 35.7392C43.8909 35.8562 43.7946 35.6943 43.832 35.7698C43.8496 35.8053 43.8677 35.8411 43.8819 35.8773C43.8847 35.8849 43.9062 35.9924 43.9003 35.9223C43.8921 35.8305 43.8958 36.0381 43.9003 35.9495C43.9034 35.882 43.8861 35.9945 43.8839 36.001C43.8799 36.0124 43.8326 36.1089 43.8629 36.0563C43.8977 35.9958 43.8241 36.1087 43.8252 36.1071C43.8105 36.1269 43.7218 36.2112 43.7991 36.1429C43.7773 36.1622 43.7546 36.1802 43.7325 36.1991C43.643 36.2755 43.8102 36.1714 43.6988 36.2216C43.6728 36.2346 43.646 36.2465 43.6183 36.2573C43.6703 36.2407 43.676 36.237 43.6353 36.2463C43.5937 36.2544 43.6013 36.2533 43.6574 36.2434C43.6387 36.2305 43.5818 36.2287 43.6555 36.2449C43.6285 36.2391 43.5078 36.2 43.5934 36.2326C43.5144 36.2 43.4382 36.1634 43.3653 36.1228C43.2276 36.0509 43.4126 36.1545 43.3392 36.1078C43.2981 36.0817 43.2579 36.0549 43.2176 36.0284C43.1098 35.9465 42.9663 35.9008 42.817 35.9008C42.6677 35.9008 42.5241 35.9465 42.4163 36.0284C42.3115 36.1134 42.2529 36.2275 42.2529 36.3463C42.2529 36.4652 42.3115 36.5793 42.4163 36.6643C42.8034 36.9204 43.2474 37.19 43.7844 37.1327C44.0339 37.0976 44.2678 37.0119 44.4633 36.8839C44.6587 36.7559 44.8091 36.5899 44.8998 36.4021C45.2985 35.6529 44.6036 34.9277 43.9524 34.4265C43.6249 34.1744 43.2616 33.9533 42.87 33.7675C42.4447 33.5323 41.9197 33.4396 41.4089 33.5094C41.1868 33.5475 40.9793 33.6271 40.8037 33.7416C40.6282 33.8561 40.4896 34.0022 40.3995 34.1677C40.2295 34.4753 40.0903 34.8828 40.3233 35.1949C40.4548 35.3309 40.6121 35.45 40.7897 35.5477C40.945 35.654 41.0989 35.7617 41.2527 35.8694C41.6367 36.1379 42.023 36.4041 42.4163 36.6643C42.5241 36.7462 42.6677 36.7919 42.817 36.7919C42.9663 36.7919 43.1098 36.7462 43.2176 36.6643C43.3216 36.5796 43.38 36.466 43.3803 36.3477C43.3806 36.2295 43.3229 36.1157 43.2194 36.0306Z" fill="#211715"/>
<path d="M44.9826 32.4897C45.0577 32.308 45.2521 32.3154 45.457 32.4733C45.7234 32.7292 45.8959 33.0383 45.9557 33.3669C46.0763 33.7818 46.3154 34.1692 46.6545 34.4992C46.9676 34.814 47.3406 35.0886 47.6259 35.4198C47.7115 35.5048 47.7772 35.6013 47.82 35.7047C47.8688 35.8313 47.9098 35.9583 47.943 36.088C48.0282 36.4508 48.0877 36.8171 48.1212 37.1851C48.2346 38.2035 48.2836 39.2259 48.3624 40.246C48.4066 40.8212 49.5404 40.8253 49.4959 40.246C49.4231 39.3017 49.3726 38.3541 49.2783 37.41C49.2131 36.7554 49.1737 36.0437 48.8932 35.4195C48.5877 34.7398 47.8178 34.3214 47.3434 33.7302C47.1553 33.4296 47.0161 33.1112 46.9294 32.7827C46.7995 32.4314 46.5701 32.1084 46.2586 31.8383C46.0797 31.6892 45.8568 31.5778 45.61 31.5142C45.3632 31.4506 45.1004 31.4368 44.8452 31.474C44.6127 31.5238 44.4013 31.6223 44.2332 31.7591C44.0651 31.896 43.9465 32.0661 43.8896 32.2518C43.6629 32.8031 44.7565 33.0388 44.9826 32.4908V32.4897Z" fill="#211715"/>
<path d="M43.522 34.1619C43.6292 34.7259 43.8069 35.2801 44.0524 35.8162C44.2437 36.305 44.3948 36.8055 44.2035 37.3002C44.1837 37.3571 44.1783 37.4166 44.1874 37.4752C44.1966 37.5339 44.2203 37.5905 44.257 37.6418C44.2938 37.6932 44.343 37.7383 44.4017 37.7746C44.4604 37.8109 44.5276 37.8376 44.5994 37.8533C44.6711 37.869 44.7461 37.8734 44.82 37.8661C44.8938 37.8588 44.9652 37.84 45.0299 37.8108C45.0946 37.7817 45.1515 37.7427 45.1972 37.6961C45.243 37.6495 45.2767 37.5962 45.2965 37.5392C45.4872 36.9491 45.4576 36.3277 45.2114 35.7507C45.0224 35.2277 44.7266 34.7002 44.6557 34.1624C44.6517 34.0441 44.5907 33.9316 44.4852 33.8479C44.3798 33.7643 44.238 33.7159 44.089 33.7126C43.939 33.7135 43.7955 33.7611 43.6894 33.8453C43.5833 33.9294 43.5233 34.0433 43.5223 34.1624L43.522 34.1619Z" fill="#211715"/>
<path d="M43.0609 34.4508C43.741 34.5442 44.6265 34.6154 45.2086 34.2514C45.3547 34.1554 45.4731 34.0354 45.5555 33.8998C45.6379 33.7641 45.6824 33.616 45.686 33.4654C45.6897 33.3149 45.6523 33.1655 45.5765 33.0274C45.5007 32.8894 45.3883 32.7659 45.2468 32.6655C44.6331 32.2212 43.7282 32.098 42.9263 32.0703C42.2366 32.0463 41.4063 32.098 40.8183 32.4173C40.6544 32.5022 40.5141 32.6127 40.406 32.7422C40.354 32.807 40.3135 32.8771 40.2855 32.9506C40.2677 32.9972 40.2266 33.2263 40.251 33.088C40.1983 33.4804 40.2933 33.8764 40.5241 34.226C40.6008 34.3283 40.7251 34.4026 40.8703 34.4328C41.0154 34.463 41.1697 34.4466 41.2997 34.3872C41.4268 34.325 41.5187 34.2264 41.5566 34.1119C41.5944 33.9973 41.5752 33.8756 41.5029 33.772C41.4512 33.6805 41.4092 33.5857 41.3771 33.4887C41.37 33.4662 41.3468 33.3594 41.3507 33.3949C41.3567 33.4448 41.3507 33.3754 41.3507 33.3711C41.3527 33.3441 41.3507 33.316 41.3507 33.289C41.3507 33.2834 41.3587 33.2157 41.3527 33.2665C41.3422 33.3565 41.4216 33.0867 41.3658 33.1977C41.3201 33.2897 41.4326 33.1233 41.3677 33.2043C41.3029 33.2852 41.4485 33.1368 41.3717 33.2058C41.2949 33.2749 41.4938 33.1294 41.412 33.1784C41.3527 33.2139 41.4624 33.1559 41.4811 33.1469C41.5219 33.1283 41.5638 33.1118 41.6066 33.0961C41.6633 33.0736 41.5942 33.101 41.5862 33.1033C41.6191 33.0941 41.6514 33.0844 41.6848 33.0759C41.7458 33.0601 41.8078 33.0464 41.8699 33.0343C42.103 32.9866 42.343 32.9639 42.5837 32.9668C42.8569 32.961 43.1302 32.9737 43.4007 33.0048C43.5569 33.0243 43.7116 33.0509 43.864 33.0846C43.9838 33.1085 44.1 33.1427 44.2105 33.1865C44.2601 33.2067 44.3094 33.2285 44.3568 33.2524C44.3868 33.2674 44.4795 33.3268 44.4069 33.2769C44.4477 33.305 44.4837 33.3358 44.5225 33.3655C44.5676 33.4003 44.5038 33.345 44.5001 33.3403C44.5125 33.3591 44.5268 33.3771 44.5429 33.394C44.5959 33.441 44.5257 33.3396 44.552 33.4165C44.5546 33.4242 44.5707 33.4882 44.5605 33.4338C44.5503 33.3794 44.5605 33.4433 44.5605 33.4518C44.5344 33.5339 44.5631 33.4658 44.5679 33.4473C44.5628 33.4662 44.5568 33.4849 44.55 33.5033C44.5325 33.5519 44.5585 33.4923 44.5631 33.4858C44.5484 33.5092 44.5316 33.5317 44.5129 33.5532C44.5223 33.5429 44.5667 33.5083 44.5208 33.5388C44.4463 33.5865 44.6325 33.4795 44.4899 33.5588C44.4899 33.5588 44.4095 33.5915 44.4554 33.5757C44.4967 33.5615 44.4092 33.5863 44.4021 33.5876C44.3738 33.5928 44.3454 33.5971 44.3171 33.602C44.1819 33.6256 44.3803 33.602 44.2754 33.6072C43.9702 33.6285 43.6628 33.621 43.3599 33.5847C43.215 33.5565 43.062 33.5734 42.9323 33.632C42.8027 33.6905 42.7062 33.7863 42.6628 33.8995C42.624 34.0146 42.6439 34.1371 42.7181 34.2407C42.7924 34.3442 42.915 34.4203 43.0595 34.4526L43.0609 34.4508Z" fill="#211715"/>
<path d="M39.3975 38.7368C39.8872 39.4001 40.4993 40.0015 41.2133 40.521C41.5769 40.7839 41.9815 41.0056 42.3508 41.263C42.7015 41.5065 43.004 41.7907 43.2479 42.1058C43.6296 42.5978 44.6107 42.1465 44.2267 41.6518C43.9597 41.3033 43.6349 40.9849 43.261 40.7052C42.9008 40.4389 42.4905 40.2197 42.1215 39.9613C41.4312 39.479 40.8421 38.9126 40.3762 38.2832C40.0064 37.7847 39.0262 38.2367 39.3975 38.7372V38.7368Z" fill="#211715"/>
<path d="M82.0813 32.3579C84.8272 33.198 87.0551 31.2451 87.0375 29.6057C87.0298 28.6717 86.8294 27.7451 86.4444 26.8625C85.9558 25.6557 85.0091 23.2041 84.9408 18.8237C85.0236 17.591 85.0013 16.3554 84.8742 15.1251C84.6611 12.752 83.3239 10.1018 81.4001 8.62881C80.226 7.68033 78.8103 6.9417 77.2475 6.46234C75.91 6.05333 74.6663 5.85681 72.3194 5.85681C68.4712 5.85681 65.0463 7.43079 63.5263 8.58429C61.0043 10.4998 59.4055 13.9983 59.6073 18.8228C59.6073 22.3386 59.2703 24.8745 58.7977 26.3156C58.4403 27.5064 58.2365 28.723 58.1896 29.9466C58.1723 31.586 60.2539 33.3841 63.3237 32.8283L82.0813 32.3579Z" fill="#2F2E41"/>
<path d="M84.6754 19.3881C84.663 19.1705 84.5931 18.9573 84.4702 18.7625C84.3642 18.6214 84.2197 18.5009 84.0473 18.4099C83.8748 18.3189 83.6789 18.2598 83.4739 18.2368C83.2649 18.2126 83.0518 18.2244 82.8491 18.2715C82.6463 18.3185 82.4588 18.3997 82.2993 18.5096L81.7 18.9397C81.0925 17.2827 80.0548 15.7448 78.6534 14.4251C78.1052 13.9284 77.3882 13.5675 76.5882 13.3857C75.7882 13.2039 74.9392 13.2089 74.1427 13.4C74.0171 13.4299 73.9469 13.4477 73.9469 13.4477C72.8134 13.7624 71.6575 14.1114 70.5334 14.4932C67.2975 15.5921 64.3343 16.957 63.0104 18.5096H62.6015C62.442 18.3997 62.2545 18.3185 62.0519 18.2715C61.8492 18.2244 61.6361 18.2126 61.4272 18.2368C61.2221 18.2598 61.0261 18.3189 60.8537 18.4099C60.6812 18.5009 60.5366 18.6214 60.4306 18.7625C60.3078 18.9574 60.2379 19.1705 60.2254 19.3881C60.1359 20.2393 60.3431 21.0937 60.8242 21.8579C61.0509 22.2441 61.3802 22.5869 61.7893 22.8627C62.1215 23.0766 62.5179 23.2184 62.9398 23.2745C62.9398 23.2745 63.0815 23.2915 63.315 23.3194C63.6807 24.3973 64.3292 25.4017 65.2181 26.2668C66.0258 27.0704 67.0547 27.7165 68.2259 28.1556C68.2301 28.6952 68.2488 29.3179 68.0105 29.7871C67.875 30.0529 67.3205 30.4152 66.6393 30.7808C66.5328 31.8592 66.5056 32.9417 66.5576 34.0227L67.0312 34.1475C68.798 34.5179 70.6128 34.7249 72.4396 34.7643C74.1642 34.7677 76.6185 34.5513 78.3032 34.0196L78.4449 33.958C78.4449 32.9167 78.4001 31.8772 78.285 30.8401C77.7667 30.5204 77.1379 30.0178 77.0203 29.7871C76.7758 29.3095 76.799 28.6683 76.803 28.1216C79.2272 27.2571 81.1689 24.6764 81.5104 23.9409C81.5625 23.8155 81.6685 23.5791 81.7629 23.2987L81.9598 23.2747C82.3818 23.2186 82.7783 23.0768 83.1106 22.863C83.5197 22.5871 83.8488 22.2443 84.0755 21.8581C84.5571 21.094 84.7647 20.2395 84.6754 19.3881Z" fill="#E5A4A4"/>
<path d="M76.236 28.1716C76.2231 28.5173 76.2376 28.8634 76.2794 29.2077C76.3007 29.5443 76.4234 29.8719 76.6373 30.1631C77.1337 30.732 77.9292 31.1406 78.6393 31.5226C78.7036 31.5524 78.7746 31.5718 78.8483 31.5799C78.9221 31.5879 78.9971 31.5843 79.0691 31.5693C79.1411 31.5543 79.2086 31.5282 79.2679 31.4925C79.3272 31.4568 79.3771 31.4121 79.4146 31.3611C79.4521 31.3101 79.4767 31.2538 79.4868 31.1953C79.4969 31.1368 79.4923 31.0772 79.4734 31.0201C79.4546 30.963 79.4217 30.9094 79.3767 30.8623C79.3316 30.8153 79.2754 30.7757 79.2111 30.7459C78.8751 30.5649 78.541 30.379 78.2516 30.191C78.1153 30.1024 77.9822 30.0111 77.8549 29.9135C77.7997 29.8713 77.7455 29.8276 77.694 29.7824C77.6687 29.76 77.6449 29.7328 77.6175 29.7125C77.563 29.6723 77.6806 29.7926 77.6152 29.7091C77.5869 29.6716 77.5568 29.6349 77.5302 29.5967C77.5035 29.5585 77.5585 29.6756 77.5361 29.6044C77.5248 29.567 77.5047 29.5308 77.4914 29.4937C77.4664 29.4247 77.4463 29.3548 77.4296 29.2842C77.4199 29.2439 77.4109 29.2037 77.4041 29.1632C77.412 29.2109 77.4041 29.1475 77.4012 29.134C77.3638 28.814 77.3661 28.4934 77.3687 28.1725C77.3687 28.0532 77.3089 27.9388 77.2027 27.8545C77.0964 27.7702 76.9522 27.7228 76.8019 27.7228C76.6516 27.7228 76.5074 27.7702 76.4012 27.8545C76.2949 27.9388 76.2352 28.0532 76.2352 28.1725L76.236 28.1716Z" fill="#211715"/>
<path d="M67.6596 28.2059C67.6621 28.5207 67.6596 28.8335 67.6259 29.1472L67.619 29.196C67.6247 29.1649 67.6244 29.1652 67.619 29.196C67.6137 29.2268 67.606 29.2592 67.5986 29.2904C67.5806 29.367 67.5575 29.4428 67.5295 29.5175C67.5162 29.5528 67.4946 29.5892 67.4844 29.625C67.4907 29.6025 67.5289 29.5638 67.4952 29.6041C67.472 29.6317 67.3663 29.7469 67.4626 29.6567C66.9599 30.0794 66.3749 30.4354 65.7301 30.711C65.6658 30.7408 65.6096 30.7804 65.5646 30.8274C65.5196 30.8745 65.4867 30.9281 65.4678 30.9852C65.4489 31.0423 65.4444 31.1019 65.4545 31.1604C65.4646 31.2189 65.4891 31.2752 65.5266 31.3262C65.5642 31.3772 65.614 31.4219 65.6733 31.4576C65.7326 31.4933 65.8001 31.5194 65.8721 31.5344C65.9441 31.5494 66.0191 31.553 66.0929 31.545C66.1666 31.5369 66.2377 31.5175 66.3019 31.4877C66.7015 31.2903 67.0954 31.0854 67.47 30.8581C67.812 30.6665 68.1174 30.4369 68.3768 30.1761C68.585 29.9129 68.708 29.6129 68.7347 29.3028C68.7866 28.9383 68.8061 28.5713 68.7931 28.2046C68.7931 28.0853 68.7333 27.9709 68.6271 27.8866C68.5208 27.8023 68.3766 27.7549 68.2263 27.7549C68.076 27.7549 67.9319 27.8023 67.8256 27.8866C67.7193 27.9709 67.6596 28.0853 67.6596 28.2046V28.2059Z" fill="#211715"/>
<path d="M82.7002 18.8275C82.7925 18.7685 82.8989 18.725 83.0129 18.6996C83.127 18.6742 83.2464 18.6674 83.3639 18.6797C83.4814 18.6919 83.5945 18.723 83.6964 18.7709C83.7984 18.8188 83.887 18.8827 83.9569 18.9586C84.0902 19.1762 84.1488 19.4179 84.127 19.6592C84.1386 19.9363 84.1142 20.2136 84.0541 20.4867C83.8274 21.4713 83.1862 22.6453 81.8095 22.8407C81.6651 22.8731 81.5426 22.9493 81.4684 23.0528C81.3941 23.1563 81.3742 23.2788 81.4128 23.3938C81.4553 23.5076 81.5516 23.6039 81.6815 23.6625C81.8115 23.7212 81.965 23.7377 82.1099 23.7086C84.1284 23.4215 85.0896 21.6092 85.2415 20.1577C85.3183 19.4254 85.257 18.5723 84.4565 18.0951C84.0798 17.8775 83.6206 17.7685 83.1552 17.7861C82.6897 17.8038 82.2458 17.947 81.8968 18.1921C81.7916 18.2769 81.7326 18.3911 81.7326 18.5101C81.7326 18.6291 81.7916 18.7434 81.8968 18.8282C82.0046 18.9102 82.1483 18.956 82.2976 18.956C82.447 18.956 82.5906 18.9102 82.6985 18.8282L82.7002 18.8275Z" fill="#211715"/>
<path d="M81.3791 22.4074C81.3408 22.8229 81.2293 23.2322 81.0482 23.6232C81.0099 23.7158 80.9714 23.8078 80.9263 23.8984C80.9875 23.7759 80.911 23.9223 80.898 23.945C80.8764 23.9801 80.8555 24.0156 80.8334 24.0507C80.517 24.5427 80.1495 25.0128 79.7344 25.4562C78.7769 26.498 77.4782 27.6011 75.8378 27.9056C75.1294 28.0375 75.4283 28.9048 76.1393 28.773C78.0515 28.4178 79.5381 27.1734 80.6625 25.9648C81.6342 24.9204 82.4477 23.7347 82.5135 22.407C82.5418 21.828 81.4083 21.8291 81.38 22.407L81.3791 22.4074Z" fill="#211715"/>
<path d="M63.0021 18.1914C62.6532 17.9464 62.2093 17.8032 61.7439 17.7855C61.2784 17.7679 60.8194 17.8769 60.4427 18.0945C59.6418 18.5707 59.5809 19.4254 59.6574 20.1571C59.8093 21.6085 60.7708 23.4209 62.7893 23.708C62.9342 23.7364 63.0873 23.7196 63.217 23.661C63.3467 23.6024 63.4431 23.5066 63.4864 23.3932C63.525 23.2781 63.505 23.1556 63.4308 23.0521C63.3566 22.9486 63.234 22.8725 63.0896 22.8401C61.713 22.6442 61.0715 21.4707 60.845 20.4861C60.7881 20.2279 60.7634 19.966 60.7711 19.704C60.7497 19.4597 60.8003 19.2148 60.919 18.9887C60.9855 18.9073 61.0728 18.8378 61.1753 18.7849C61.2778 18.7319 61.3932 18.6967 61.514 18.6814C61.6348 18.6661 61.7582 18.6712 61.8764 18.6962C61.9946 18.7213 62.1048 18.7658 62.1998 18.8269C62.308 18.9083 62.4514 18.9536 62.6005 18.9536C62.7496 18.9536 62.893 18.9083 63.0012 18.8269C63.1065 18.7421 63.1654 18.6278 63.1654 18.5088C63.1654 18.3898 63.1065 18.2755 63.0012 18.1907L63.0021 18.1914Z" fill="#211715"/>
<path d="M62.452 22.3217C62.7579 23.8994 63.5878 25.3841 64.8564 26.6229C66.2087 27.8947 68.0019 28.8265 70.1147 29.0051C70.2647 29.0042 70.4082 28.9566 70.5143 28.8724C70.6204 28.7883 70.6804 28.6744 70.6814 28.5553C70.6782 28.4369 70.6174 28.324 70.5119 28.2402C70.4063 28.1564 70.264 28.1082 70.1147 28.1056C68.2691 27.9482 66.7256 27.0182 65.5782 25.9111C64.4481 24.8205 63.8471 23.4579 63.545 22.0827C63.5042 21.9681 63.4082 21.8708 63.2778 21.8119C63.1473 21.753 62.9929 21.7372 62.8479 21.7679C62.7046 21.8017 62.5834 21.8781 62.5094 21.9812C62.4355 22.0843 62.4146 22.206 62.4512 22.321L62.452 22.3217Z" fill="#211715"/>
<path d="M63.1735 32.3947C62.534 32.5245 61.8624 32.5161 61.2283 32.3704C60.5943 32.2247 60.021 31.947 59.5678 31.5661C59.2035 31.2456 58.9475 30.857 58.8237 30.4367C58.7263 29.9436 58.7273 29.4414 58.8265 28.9486C58.9851 27.9022 59.2154 26.8634 59.5166 25.8368C59.7564 24.8394 59.9187 23.8312 60.0025 22.8179C60.1461 21.4206 60.201 20.0185 60.1669 18.6168C60.1102 17.2806 60.2241 15.9433 60.5069 14.6254C60.9564 12.6356 61.8649 10.5971 63.6603 9.11353C64.5337 8.42283 65.5476 7.85386 66.6592 7.43049C68.1138 6.83578 69.6977 6.466 71.3264 6.34085C74.3208 6.13533 77.3339 6.6046 79.7519 8.0765C80.8541 8.73178 81.7847 9.5513 82.4916 10.4892C83.3033 11.6071 83.8624 12.8291 84.1436 14.0999C84.3557 15.1848 84.4515 16.2819 84.4301 17.3796C84.4372 18.0245 84.3652 18.6674 84.3856 19.3113C84.4077 20.0167 84.4542 20.7219 84.5307 21.425C84.7089 23.2274 85.1346 25.009 85.8002 26.7381C86.0162 27.2478 86.1921 27.7677 86.327 28.2947C86.498 28.8714 86.5269 29.4688 86.412 30.0542C86.2857 30.5106 86.0108 30.9327 85.6146 31.2785C85.2185 31.6242 84.715 31.8815 84.1544 32.0246C83.5169 32.158 82.842 32.1228 82.232 31.9243C81.5471 31.7231 81.2513 32.5921 81.9308 32.7916C82.6454 33.004 83.4207 33.0532 84.1688 32.9335C84.9168 32.8138 85.6076 32.5301 86.1627 32.1145C86.6787 31.7303 87.0787 31.2585 87.3327 30.7344C87.5776 30.1814 87.6603 29.5913 87.5744 29.0091C87.4755 27.95 87.0561 26.9724 86.6889 25.9621C86.3848 25.1196 86.1443 24.2635 85.9686 23.3983C85.7049 22.0635 85.5553 20.7161 85.5208 19.3653C85.4979 18.6737 85.573 17.984 85.5625 17.2917C85.5531 16.6902 85.5194 16.0892 85.4718 15.4888C85.2692 12.9432 84.206 10.2034 81.8707 8.36476C80.8184 7.51017 79.5831 6.81066 78.2226 6.2988C76.8812 5.81587 75.4415 5.52806 73.972 5.44908C72.1233 5.31975 70.2604 5.46664 68.4799 5.88215C66.946 6.2529 65.4996 6.82168 64.1987 7.56563C62.0527 8.81065 60.7112 10.6461 59.941 12.6408C59.4665 13.9145 59.1787 15.2273 59.0833 16.5533C58.9541 18.0996 59.062 19.6533 58.9849 21.2021C58.9402 22.396 58.8133 23.587 58.6049 24.7699C58.4134 25.7849 58.0518 26.7698 57.8682 27.7863C57.6619 28.9279 57.3845 30.1709 57.9878 31.263C58.2758 31.7663 58.7062 32.2103 59.2454 32.5603C59.7845 32.9104 60.4181 33.1572 61.0969 33.2815C61.8816 33.4145 62.6936 33.408 63.4747 33.2626C64.1871 33.1399 63.8856 32.2733 63.1735 32.3954V32.3947Z" fill="#211715"/>
<path d="M74.6184 12.8762C72.6897 13.223 70.8175 13.7439 69.0382 14.4288C67.3185 15.0565 65.7074 15.8568 64.2444 16.81C63.5893 17.2372 63.0095 17.7322 62.5207 18.2819C62.1069 18.7604 63.0874 19.2106 63.4994 18.7359C64.6208 17.4399 66.4856 16.5245 68.1881 15.7822C70.2973 14.8499 72.5644 14.1632 74.9199 13.743C75.6323 13.62 75.3308 12.7537 74.6184 12.8758V12.8762Z" fill="#211715"/>
<path d="M73.6071 12.1707C77.5077 13.3273 80.0227 16.0665 81.1876 19.1504C81.3967 19.7033 82.4911 19.4677 82.2806 18.9111C81.3279 16.3874 79.5517 14.0444 76.8106 12.5012C75.9127 12.0039 74.9372 11.6013 73.9086 11.3034C73.2243 11.1011 72.929 11.9694 73.6071 12.1707Z" fill="#211715"/>
<path d="M51.4946 42.8334C51.625 43.0836 51.7564 43.3344 51.8888 43.5858C53.5142 40.3798 53.6956 38.7202 55.1601 35.6865C55.3981 35.1676 55.7653 34.6922 56.2397 34.2883C56.7039 33.8937 57.4228 33.7835 58.0354 33.5488C60.0261 32.7858 63.2226 32.1029 65.1611 31.2795L65.3533 31.1972C65.8067 30.8188 66.2677 30.4635 66.7134 30.158C66.2759 33.4183 66.7443 36.0518 66.9767 39.2373C67.09 40.763 67.351 44.2615 67.351 47.8234C67.354 50.8333 67.0341 53.8379 66.3949 56.8048C66.2349 57.432 66.0197 58.0497 65.7508 58.6531H58.7493C59.2877 55.495 59.917 51.2009 59.917 50.5203C59.917 50.35 59.9123 50.1785 59.9029 50.0058C59.0595 50.8241 57.516 52.5368 56.1275 53.342C55.3956 53.7715 54.5496 54.0626 53.6543 54.1931C52.7589 54.3236 51.8378 54.2901 50.9613 54.095C48.6215 53.6064 47.2885 51.9684 46.314 50.2107C44.9127 47.6809 43.9153 44.9635 42.9209 42.4375C44.9156 42.0943 48.0944 40.939 50.0902 40.1051C50.5793 41.0569 51.0322 41.9448 51.4946 42.8334Z" fill="#A0B7D9"/>
<path d="M68.5126 34.4162C69.8059 34.6248 71.12 34.7412 72.4393 34.7641C74.1639 34.7674 76.6182 34.5511 78.3029 34.0196L78.45 33.9746C78.45 35.7285 78.3219 37.4848 78.1949 39.2362C78.0816 40.7618 77.8206 44.2603 77.8206 47.8223C77.8146 49.9567 77.9755 52.0895 78.3023 54.2081H78.255C76.1793 54.2081 68.7306 54.3363 67.0822 54.3363H66.8444C67.186 52.1759 67.3541 50.0005 67.348 47.8232C67.348 44.2612 67.0861 40.7627 66.9736 39.2371C66.8478 37.5134 66.6959 35.7957 66.6509 34.0715L67.0289 34.1471C67.4814 34.2431 67.985 34.3344 68.5126 34.4162Z" fill="#C9E9D2"/>
<path d="M86.4288 58.5675C85.9017 55.4353 85.2562 51.1923 85.2562 50.5202C85.2894 49.1578 85.5199 47.8029 85.9434 46.4823C86.2109 45.5766 86.4818 44.4519 86.7419 43.2282H93.6749C92.2935 40.3658 92.0509 38.7237 90.6692 35.8613C90.4306 35.3412 90.0625 34.8645 89.5867 34.4598C89.1217 34.064 88.4008 33.9536 87.7867 33.7178C85.7909 32.9533 82.0793 32.1287 80.1356 31.3031C80.1356 31.3031 80.1238 31.2981 80.1022 31.288C79.5001 30.8224 78.8588 30.3898 78.1826 29.9933C78.6431 33.0592 78.4181 36.1554 78.1971 39.2368C78.0837 40.7625 77.8228 44.261 77.8228 47.8229C77.8207 50.8326 78.1393 53.8371 78.7752 56.8042C78.8602 57.1215 79.1118 58.208 79.2427 58.5714L86.4288 58.5675Z" fill="#A0B7D9"/>
<path d="M66.8801 34.5811C68.7863 35.0002 70.7552 35.2125 72.7332 35.2122C74.6437 35.1897 76.6633 35.0072 78.4534 34.4531C78.5961 34.4186 78.7167 34.3421 78.7905 34.2392C78.8643 34.1363 78.8856 34.0149 78.8501 33.9C78.8095 33.7853 78.7135 33.6879 78.583 33.6289C78.4525 33.57 78.298 33.5543 78.153 33.5852C76.4491 34.1125 74.5542 34.2912 72.7341 34.3121C70.8579 34.3127 68.9903 34.1112 67.1825 33.7131C66.4766 33.5649 66.1754 34.4327 66.881 34.5804L66.8801 34.5811Z" fill="#211715"/>
<path d="M64.875 30.8911C63.6689 31.3617 62.4224 31.7641 61.1447 32.0952C60.4825 32.2843 59.8194 32.4725 59.1648 32.6774C58.5643 32.8653 57.986 33.0958 57.3858 33.282C56.7139 33.49 56.1154 33.6975 55.643 34.1468C55.1643 34.6181 54.7905 35.1509 54.5379 35.7221C54.0142 36.8239 53.5807 37.9459 53.1726 39.0765C52.7053 40.3705 52.2188 41.6562 51.614 42.915C51.5753 43.03 51.5953 43.1526 51.6695 43.2561C51.7437 43.3596 51.8663 43.4358 52.0108 43.4681C52.1557 43.4972 52.3092 43.4806 52.4391 43.422C52.569 43.3633 52.6653 43.267 52.7079 43.1533C53.7303 41.0253 54.3594 38.8022 55.3118 36.6564C55.5269 36.0821 55.8328 35.5318 56.2223 35.0185C56.3831 34.8125 56.5857 34.629 56.8219 34.4753C57.0904 34.3362 57.3812 34.2264 57.6864 34.1486C58.2552 33.9727 58.8001 33.7542 59.3671 33.575C60.0008 33.3746 60.6423 33.1909 61.2844 33.0077C62.7098 32.639 64.1007 32.191 65.4466 31.6671C66.0916 31.3973 65.5194 30.6195 64.8745 30.8904L64.875 30.8911Z" fill="#211715"/>
<path d="M54.1001 46.5019C52.877 44.3526 51.7583 42.169 50.637 39.9854C50.612 39.92 50.569 39.8598 50.511 39.8092C50.4529 39.7587 50.3814 39.7191 50.3016 39.6933C50.2217 39.6676 50.1357 39.6563 50.0496 39.6604C49.9636 39.6644 49.8798 39.6837 49.8044 39.7167C48.6502 40.1979 47.4714 40.6447 46.2716 41.0494C45.1441 41.4517 43.9724 41.7712 42.7714 42.0037C42.627 42.0362 42.5045 42.1124 42.4303 42.2159C42.3561 42.3193 42.3361 42.4418 42.3747 42.5569C43.0225 44.2044 43.6464 45.8586 44.3679 47.4872C45.0225 48.9648 45.704 50.4924 46.7244 51.8409C47.6097 53.0101 48.8432 54.0244 50.5103 54.4584C51.4121 54.6908 52.3663 54.7669 53.3083 54.6815C54.2503 54.5962 55.1583 54.3514 55.9709 53.9637C57.6635 53.1462 58.8522 51.7761 60.0591 50.5639C60.1612 50.4778 60.2181 50.3641 60.2181 50.2459C60.2181 50.1277 60.1612 50.0139 60.0591 49.9278C59.9524 49.8442 59.8084 49.7973 59.6584 49.7973C59.5084 49.7973 59.3645 49.8442 59.2577 49.9278C58.2393 50.9505 57.2517 52.0673 55.9547 52.8835C55.2971 53.2935 54.5302 53.5789 53.7125 53.7179C52.8948 53.8569 52.0478 53.8458 51.2363 53.6856C49.7259 53.3933 48.6171 52.5474 47.8106 51.5254C46.8188 50.2694 46.1724 48.8353 45.5493 47.4459C44.7904 45.7532 44.1418 44.0315 43.4676 42.3169L43.0729 42.8708C44.3316 42.6232 45.5592 42.2851 46.7406 41.8607C47.9757 41.4455 49.1878 40.9896 50.3768 40.4932L49.5443 40.2245C50.7027 42.4797 51.8583 44.7355 53.1219 46.9555C53.1984 47.0578 53.3227 47.1322 53.4678 47.1624C53.6129 47.1926 53.7671 47.1763 53.8972 47.1169C54.0244 47.0549 54.1165 46.9563 54.1543 46.8417C54.1922 46.7271 54.1728 46.6053 54.1003 46.5017L54.1001 46.5019Z" fill="#211715"/>
<path d="M80.1097 31.7978C82.439 32.7116 84.999 33.18 87.3496 34.0506C87.9132 34.2595 88.6409 34.3827 89.1099 34.7187C89.6213 35.1319 90.0025 35.635 90.2227 36.1872C90.7433 37.289 91.1737 38.4115 91.5812 39.5413C92.0439 40.8248 92.5282 42.0997 93.1276 43.3481C93.171 43.4615 93.2674 43.5573 93.3972 43.6158C93.5269 43.6744 93.68 43.6912 93.8249 43.6629C93.9694 43.6306 94.092 43.5544 94.1662 43.4509C94.2404 43.3474 94.2604 43.2249 94.2217 43.1098C93.1267 40.8298 92.4727 38.4407 91.4117 36.1521C91.175 35.5697 90.8283 35.019 90.3837 34.519C89.9262 34.0463 89.3024 33.6918 88.591 33.5004C88.0033 33.3194 87.4374 33.0975 86.852 32.9108C86.2286 32.7121 85.5952 32.5286 84.9625 32.3487C83.5058 31.9708 82.0772 31.5279 80.6835 31.0221C80.0318 30.7664 79.4568 31.5419 80.1114 31.7987L80.1097 31.7978Z" fill="#211715"/>
<path d="M56.3628 34.1783C56.7595 37.5015 57.3138 40.8237 58.0514 44.1099C58.4303 45.7963 59.0392 47.4641 59.2594 49.1705C59.4176 50.3935 59.2614 51.5593 59.0934 52.7749C58.8279 54.6973 58.5312 56.6168 58.203 58.5334C58.1683 58.6484 58.19 58.7695 58.2637 58.8723C58.3373 58.975 58.4575 59.0517 58.5997 59.0868C58.7448 59.1176 58.8993 59.1019 59.0299 59.043C59.1604 58.984 59.2564 58.8867 59.2971 58.772C59.5954 57.0162 59.8716 55.258 60.1257 53.4974C60.2895 52.3582 60.5298 51.194 60.4731 50.0443C60.3827 48.2153 59.7607 46.459 59.3314 44.6703C58.9285 42.9924 58.6029 41.3026 58.3073 39.611C57.9916 37.8046 57.7136 35.9927 57.4971 34.1768C57.4932 34.0585 57.4322 33.9459 57.3268 33.8622C57.2213 33.7786 57.0795 33.7302 56.9304 33.7271C56.7804 33.7279 56.6369 33.7755 56.5308 33.8597C56.4247 33.9438 56.3647 34.0577 56.3636 34.1768L56.3628 34.1783Z" fill="#211715"/>
<path d="M66.1052 30.4812C65.9201 32.4496 65.9378 34.4267 66.1582 36.3928C66.3044 38.0044 66.4447 39.6152 66.5481 41.2288C66.7907 45.0088 66.9508 48.8133 66.5198 52.5884C66.3214 54.3142 66.1075 56.0986 65.5147 57.7709C65.3163 58.329 66.4101 58.5671 66.6076 58.0099C67.1418 56.5034 67.3503 54.9069 67.5581 53.3543C67.8006 51.5173 67.9208 49.6715 67.9182 47.8244C67.9199 44.2859 67.6995 40.7436 67.3693 37.2151C67.1594 34.9702 66.982 32.7288 67.2401 30.4812C67.2391 30.3622 67.179 30.2483 67.073 30.1641C66.9669 30.08 66.8234 30.0323 66.6734 30.0315C66.524 30.034 66.3817 30.0821 66.2761 30.1659C66.1704 30.2498 66.1097 30.3627 66.1066 30.4812H66.1052Z" fill="#211715"/>
<path d="M65.3895 45.5415C64.6363 43.7775 63.9528 41.9955 63.2358 40.2223C63.0786 39.8336 62.9162 39.4459 62.7583 39.0571C62.6852 38.8773 62.615 38.6958 62.56 38.5117C62.5327 38.4303 62.512 38.3477 62.4979 38.2643C62.4948 38.2418 62.5175 38.0514 62.4874 38.1652C62.6148 37.8899 62.8055 37.6358 63.0499 37.4159C63.3422 37.1087 63.6587 36.8165 63.9975 36.541C64.1018 36.4558 64.1602 36.3417 64.1602 36.223C64.1602 36.1042 64.1018 35.9901 63.9975 35.9049C63.6667 35.6585 63.353 35.3981 63.0579 35.1247C62.902 34.9794 62.7524 34.8303 62.609 34.6772C62.4985 34.5596 62.5486 34.6163 62.6657 34.4841C63.0839 34.0137 63.5305 33.5586 63.9887 33.1125C65.0037 32.0848 66.1443 31.1392 67.3938 30.2896C67.9574 29.9218 67.1515 29.2886 66.5921 29.6537C65.1806 30.6179 63.903 31.6989 62.781 32.8784C62.5149 33.1464 62.2525 33.4169 61.9969 33.6915C61.7512 33.955 61.4109 34.2435 61.399 34.5882C61.3848 34.9916 61.7957 35.3171 62.0975 35.6099C62.4381 35.9386 62.8048 36.2496 63.1956 36.541V35.9049C62.8173 36.2176 62.4629 36.548 62.1344 36.8943C61.8382 37.1771 61.6001 37.4953 61.429 37.8371C61.3252 38.1951 61.3569 38.5694 61.52 38.9132C61.656 39.309 61.8317 39.6969 61.9913 40.0872C62.7649 41.9841 63.4917 43.8933 64.2979 45.7819C64.5308 46.3269 65.6261 46.0931 65.3909 45.5426L65.3895 45.5415Z" fill="#211715"/>
<path d="M67.0843 54.7889C70.1255 54.7876 73.1675 54.7113 76.2089 54.6764C76.8919 54.6685 77.5751 54.6604 78.258 54.6602C78.9874 54.6602 78.9885 53.76 78.258 53.76C75.1432 53.7614 72.0275 53.8347 68.9129 53.8725C68.3037 53.8797 67.6944 53.8883 67.0852 53.8885C66.3558 53.8885 66.3544 54.7887 67.0852 54.7887L67.0843 54.7889Z" fill="#211715"/>
<path d="M86.9955 58.5676C86.7031 56.8287 86.4282 55.0876 86.1709 53.3442C86.0043 52.2058 85.7702 51.0507 85.843 49.9011C85.9564 48.1297 86.5798 46.4223 86.9896 44.6869C87.384 43.0108 87.7059 41.3238 87.9978 39.6347C88.3112 37.8203 88.5929 36.0017 88.8108 34.1783C88.8098 34.0593 88.7497 33.9454 88.6437 33.8613C88.5376 33.7771 88.3941 33.7295 88.2441 33.7286C88.0947 33.7311 87.9524 33.7793 87.8468 33.8631C87.7411 33.9469 87.6804 34.0599 87.6773 34.1783C87.2843 37.474 86.7342 40.7688 85.9938 44.027C85.6039 45.7433 85.0051 47.4331 84.7807 49.1707C84.6223 50.3962 84.7827 51.5603 84.9555 52.7778C85.2301 54.7105 85.5379 56.6402 85.8623 58.5678C85.867 58.6859 85.9282 58.7982 86.0335 58.8817C86.1388 58.9653 86.2802 59.0138 86.4291 59.0175C86.7036 59.0175 87.0363 58.8102 86.9958 58.5678L86.9955 58.5676Z" fill="#211715"/>
<path d="M79.5537 31.391C80.3899 32.0073 81.1508 32.6848 81.8264 33.4147C82.0015 33.6071 82.1735 33.8014 82.3455 33.9957L82.645 34.333C82.6872 34.3809 82.9196 34.6329 82.921 34.5855C82.9188 34.6572 82.6785 34.8423 82.6232 34.8971C82.5076 35.0122 82.3877 35.1249 82.2653 35.2344C82.0063 35.4678 81.7323 35.69 81.4472 35.9033C81.3429 35.9885 81.2846 36.1026 81.2846 36.2214C81.2846 36.3402 81.3429 36.4543 81.4472 36.5395C81.8804 36.8719 82.2879 37.2248 82.6674 37.5963C82.7485 37.6792 82.8219 37.7667 82.887 37.858C82.9154 37.8971 82.9584 37.9704 82.9567 37.963C82.9423 38.1207 82.9069 38.2767 82.851 38.4285C82.5943 39.3405 82.1794 40.2298 81.8309 41.122C81.6147 41.6763 82.7093 41.9133 82.9239 41.361C83.3078 40.3777 83.7864 39.3924 84.0188 38.3774C84.0806 38.169 84.0816 37.9522 84.0218 37.7434C83.9621 37.5346 83.8431 37.3394 83.674 37.1726C83.2375 36.7228 82.7612 36.2982 82.2486 35.9022V36.5383C82.5791 36.2917 82.8927 36.0312 83.188 35.7579C83.4848 35.5145 83.7405 35.2414 83.9485 34.9457C84.1526 34.5994 83.9888 34.2898 83.7306 33.9975C83.4964 33.7322 83.2613 33.4672 83.0253 33.2026C82.2392 32.3178 81.3447 31.4968 80.3548 30.7517C79.8255 30.3537 79.0229 30.9887 79.5534 31.3878L79.5537 31.391Z" fill="#211715"/>
<path d="M77.6158 29.9937C78.1686 33.7427 77.7291 37.5149 77.4882 41.2681C77.2448 45.0785 77.0887 48.9132 77.5356 52.7173C77.6396 53.6043 77.7753 54.4889 77.9323 55.3705C78.0633 56.2414 78.2681 57.1042 78.5452 57.9532C78.7436 58.5097 79.8363 58.2732 79.6382 57.7142C79.1241 56.2628 78.9278 54.7236 78.7328 53.227C78.4958 51.376 78.3815 49.5163 78.3902 47.6558C78.3981 44.1256 78.6985 40.6118 78.9102 37.0888C79.0519 34.7235 79.0972 32.3488 78.7498 29.993C78.7455 29.8749 78.6844 29.7625 78.579 29.6789C78.4736 29.5953 78.332 29.5468 78.1831 29.5433C78.033 29.544 77.8894 29.5916 77.7833 29.6758C77.6772 29.76 77.6172 29.874 77.6163 29.993L77.6158 29.9937Z" fill="#211715"/>
<path d="M93.5024 49.5623C94.5857 48.7967 98.5181 45.8992 99.4367 45.1698C98.6827 44.5508 97.2417 43.9489 95.5115 43.8207C94.0271 43.6842 92.5243 43.7477 91.0665 44.0084C89.5963 44.3008 87.6924 45.0203 86.6725 45.9485C85.4257 45.0041 83.5769 44.5863 81.9031 44.5427C80.2083 44.5038 78.5217 44.744 76.9497 45.2481C75.6708 45.6528 74.6365 46.2356 73.9272 47.3154C74.908 47.9958 79.3091 50.5002 80.3295 51.1428L93.5024 49.5623Z" fill="#C5D3E8"/>
<path d="M73.7018 45.2522C73.4502 45.4408 73.2171 45.6444 73.0044 45.8611C73.38 46.1727 73.7794 46.4655 74.2005 46.738L74.3178 46.807C74.9776 46.0891 75.895 45.5459 76.9501 45.2483C78.5221 44.7443 80.2086 44.5041 81.9034 44.543C83.5773 44.5866 85.4249 45.0039 86.6729 45.9488C87.693 45.0203 89.5967 44.3001 91.0669 44.0087C92.5246 43.748 94.0274 43.6845 95.5118 43.821C96.4051 43.886 97.2752 44.083 98.0772 44.4018L98.1109 44.3755C98.3708 44.1794 98.8911 43.7668 99.3331 43.3953C97.7338 42.4359 96.8372 42.2935 94.9513 42.1469C93.5163 42.0363 91.8858 41.999 90.4828 42.2769C89.0798 42.5548 87.2807 43.0189 86.2835 43.8994C85.1611 43.2717 83.5915 42.9157 81.9034 42.8716C80.2086 42.8327 78.522 43.073 76.9501 43.5772C76.2276 43.7923 75.5436 44.0814 74.9157 44.4373C74.492 44.6905 74.0867 44.9625 73.7018 45.2522Z" fill="white"/>
<path d="M89.2445 47.6133C89.1853 47.5753 89.1255 47.538 89.0652 47.5009C88.2961 47.0287 87.7384 46.9558 86.9481 47.3061L86.523 47.5985C86.1997 47.3264 85.9257 47.1009 85.8086 47.0204C85.6398 46.8995 85.4345 46.8153 85.2125 46.7759C84.9906 46.7365 84.7596 46.7432 84.542 46.7955C84.0424 46.943 83.8335 47.1598 83.8335 47.4925C83.8335 47.4925 83.8131 47.6126 83.7859 47.7747C83.521 47.5524 83.2827 47.3608 83.1004 47.2313C82.9466 47.1218 82.1956 46.8281 81.6961 47.126C81.5996 47.171 81.516 47.2313 81.4503 47.3032C81.3847 47.3751 81.3385 47.4569 81.3147 47.5436C81.2909 47.6304 81.2899 47.72 81.3119 47.8071C81.3339 47.8941 81.3783 47.9766 81.4424 48.0493C81.4692 48.0851 81.4937 48.122 81.5155 48.1599L81.4039 48.1134C81.2622 48.0513 81.1055 48.0139 80.9441 48.0037C80.7828 47.9935 80.6206 48.0107 80.4683 48.0542C80.316 48.0977 80.1772 48.1666 80.0611 48.2561C79.9451 48.3456 79.8544 48.4537 79.7952 48.5732C79.7162 48.8592 79.7616 49.158 79.9241 49.4209C80.2477 49.9174 81.662 51.1631 82.4254 51.803C84.1747 52.7847 86.9657 52.1012 89.2015 51.6888C89.5156 51.6271 89.8149 51.525 90.0873 51.3864C90.9235 50.9256 91.354 50.3597 92.0372 49.7609C92.3273 49.5389 92.5845 49.2914 92.804 49.0231C93.0653 48.6986 93.1662 48.3088 93.0874 47.9288C93.0368 47.7325 92.8979 47.5576 92.6966 47.4368C92.3639 47.2627 91.919 47.3457 91.5501 47.4651C90.9989 47.6438 90.4864 47.8899 90.0312 48.1943C89.7878 47.9852 89.5249 47.7909 89.2445 47.6133Z" fill="#E5A4A4"/>
<path d="M89.8009 50.9961C89.3257 51.2504 88.7309 51.3131 88.184 51.4177C87.5447 51.54 86.904 51.6601 86.2554 51.7473C85.1318 51.8984 83.862 51.9722 82.8475 51.4863C82.2216 51.1863 81.6511 51.9639 82.2757 52.2629C83.4987 52.8475 84.9652 52.8093 86.3279 52.6438C87.0363 52.5579 87.7337 52.4284 88.4294 52.2955C89.0897 52.1694 89.7981 52.0801 90.3725 51.7727C90.9738 51.4505 90.4073 50.6709 89.8004 50.9961H89.8009Z" fill="#211715"/>
<path d="M90.8472 48.2799C90.3392 47.7314 89.7035 47.2652 88.9744 46.9067C88.6381 46.7392 88.2516 46.6461 87.8548 46.6368C87.4338 46.6487 87.0236 46.7451 86.6623 46.917C86.5336 46.9779 86.4401 47.0765 86.402 47.1916C86.364 47.3067 86.3844 47.429 86.4589 47.5322C86.5368 47.6334 86.6611 47.7067 86.8057 47.7368C86.9503 47.7669 87.1039 47.7514 87.2345 47.6937C87.2696 47.6784 87.305 47.6631 87.3407 47.6487C87.3521 47.6442 87.4824 47.5945 87.4274 47.6141C87.3813 47.6305 87.4756 47.5997 87.4841 47.597C87.5164 47.5878 87.549 47.5792 87.5819 47.5716C87.6521 47.5548 87.7237 47.5418 87.7961 47.5327C87.6743 47.5477 87.8327 47.5358 87.8769 47.5365C87.8933 47.5365 88.0231 47.543 87.9387 47.5365C87.8633 47.5313 87.9622 47.5408 87.9772 47.5435C88.0393 47.5539 88.1005 47.5676 88.1602 47.5846C88.2025 47.5963 88.2586 47.619 88.1886 47.5916C88.22 47.6037 88.2518 47.6156 88.2827 47.6284C88.3572 47.6595 88.4297 47.6939 88.5003 47.7301C88.759 47.8667 89.0022 48.0209 89.2274 48.1908C89.3498 48.2794 89.4679 48.3717 89.5816 48.4676C89.6349 48.5126 89.687 48.5586 89.7378 48.6057C89.7695 48.6349 89.8007 48.6648 89.8316 48.6956C89.8996 48.7617 89.7559 48.6142 89.869 48.7334C89.9475 48.834 90.0717 48.9069 90.216 48.9369C90.3604 48.9669 90.5137 48.9518 90.6443 48.8946C90.7729 48.8336 90.8662 48.735 90.9042 48.6199C90.9422 48.5049 90.9218 48.3826 90.8475 48.2794L90.8472 48.2799Z" fill="#211715"/>
<path d="M88.5825 48.6771C88.0472 48.2776 87.5677 47.8243 87.0653 47.3993C86.8159 47.1884 86.5686 46.9745 86.3064 46.7735C86.0864 46.5962 85.8166 46.4627 85.519 46.3841C85.2215 46.3054 84.9047 46.2837 84.5946 46.3209C84.2351 46.3602 83.9047 46.4992 83.6618 46.7131C83.4189 46.9271 83.2792 47.2023 83.2673 47.4901C83.2508 48.0691 84.3843 48.0691 84.4008 47.4901C84.4005 47.4621 84.4021 47.4341 84.4056 47.4062C84.3959 47.4593 84.3979 47.4602 84.411 47.4092C84.4316 47.36 84.4288 47.3605 84.4027 47.4107C84.4161 47.3882 84.4314 47.3665 84.4486 47.3458C84.3894 47.4258 84.4923 47.3125 84.524 47.2929C84.4433 47.3428 84.6277 47.2513 84.6479 47.2437C84.7406 47.2078 84.843 47.1902 84.9461 47.1925C85.0493 47.1947 85.1503 47.2168 85.2404 47.2567C85.545 47.4165 85.8143 47.615 86.0375 47.8443C86.6176 48.3308 87.1659 48.8534 87.7808 49.3128C87.8335 49.3546 87.896 49.3877 87.9647 49.4103C88.0335 49.4329 88.1072 49.4445 88.1817 49.4445C88.2561 49.4445 88.3298 49.4329 88.3986 49.4103C88.4674 49.3877 88.5299 49.3546 88.5825 49.3128C88.6351 49.271 88.6769 49.2214 88.7054 49.1669C88.7339 49.1123 88.7485 49.0538 88.7485 48.9947C88.7485 48.9357 88.7339 48.8772 88.7054 48.8226C88.6769 48.768 88.6351 48.7184 88.5825 48.6767V48.6771Z" fill="#211715"/>
<path d="M80.7306 50.8251C79.6679 50.1582 78.5599 49.5349 77.4718 48.8966C76.3989 48.267 75.3108 47.6738 74.3297 46.9977L74.4184 47.5427C74.8827 46.839 75.6099 46.2666 76.5004 45.9038C77.5752 45.4783 78.7319 45.1981 79.9229 45.0747C82.0842 44.8256 84.6097 45.0342 86.2736 46.2664C86.3808 46.3494 86.5246 46.3958 86.6743 46.3958C86.824 46.3958 86.9678 46.3494 87.075 46.2664C88.4709 45.0241 90.7588 44.3669 92.8051 44.238C94.9086 44.1056 97.46 44.2214 99.0393 45.4876V44.8517C97.1279 46.3649 95.1197 47.8184 93.1049 49.2442C92.5591 49.6303 93.363 50.2646 93.9063 49.8801C95.9213 48.4543 97.9302 47.0008 99.8407 45.4876C99.9448 45.4023 100.003 45.2883 100.003 45.1696C100.003 45.0509 99.9448 44.9369 99.8407 44.8517C98.0478 43.4126 95.2197 43.1866 92.8065 43.3386C90.4709 43.4857 87.8727 44.2086 86.275 45.6303H87.0764C85.621 44.5526 83.6037 44.1049 81.647 44.0885C79.5906 44.071 77.3114 44.4361 75.5423 45.3027C74.6537 45.7391 73.9282 46.356 73.4411 47.0896C73.3796 47.1759 73.355 47.2756 73.371 47.3739C73.387 47.4722 73.4427 47.5637 73.5298 47.6347C74.5499 48.3374 75.6746 48.955 76.7602 49.5909C77.3991 49.9657 78.0386 50.3404 78.6787 50.7152C78.9337 50.8651 79.1887 51.0154 79.4438 51.1662C79.5458 51.2273 79.6476 51.2883 79.7492 51.3495C79.7705 51.3623 79.9346 51.4619 79.8147 51.3886L79.9332 51.4624C80.0416 51.5434 80.1849 51.5885 80.3338 51.5885C80.4828 51.5885 80.6261 51.5434 80.7345 51.4624C80.8399 51.3777 80.899 51.2634 80.899 51.1444C80.899 51.0254 80.8399 50.9112 80.7345 50.8265L80.7306 50.8251Z" fill="#211715"/>
<path d="M74.4864 46.3497C74.6023 46.4201 74.4691 46.3364 74.4459 46.3204C74.3938 46.284 74.3405 46.2485 74.2883 46.2121C74.1665 46.1271 74.0461 46.0407 73.9273 45.953C73.741 45.8265 73.5663 45.6895 73.4048 45.5431V46.179C74.8783 44.6799 77.0954 43.8252 79.4097 43.4724C81.5917 43.1399 84.1194 43.2591 85.997 44.2878C86.1054 44.3375 86.2313 44.3576 86.3555 44.3449C86.4796 44.3322 86.5951 44.2874 86.6839 44.2174C87.4159 43.5891 88.4408 43.237 89.4488 42.9771C90.5806 42.6762 91.7654 42.5198 92.9589 42.5137C94.1198 42.4997 95.2793 42.5808 96.4192 42.7558C97.3807 42.9385 98.2785 43.2897 99.0466 43.7836L98.9333 43.0774C98.5346 43.4108 98.1296 43.74 97.7111 44.0575C97.1826 44.4582 97.9848 45.0936 98.5125 44.6934C98.931 44.3759 99.3362 44.0467 99.7346 43.7133C99.7941 43.664 99.839 43.6047 99.8659 43.5399C99.8928 43.4751 99.9011 43.4064 99.8903 43.3387C99.8794 43.271 99.8496 43.2061 99.8031 43.1487C99.7566 43.0913 99.6944 43.0429 99.6213 43.007C98.931 42.5738 98.1528 42.237 97.32 42.0111C96.4686 41.8264 95.5945 41.7152 94.713 41.6795C92.6418 41.5014 90.5468 41.702 88.5885 42.2659C87.571 42.5322 86.6455 42.9826 85.8851 43.5815L86.572 43.5111C84.4787 42.3644 81.6696 42.2369 79.2389 42.5863C76.7168 42.9488 74.2081 43.9129 72.6062 45.5431C72.5056 45.6297 72.4497 45.7432 72.4497 45.8611C72.4497 45.9789 72.5056 46.0924 72.6062 46.179C72.9956 46.5339 73.4355 46.8518 73.9171 47.1263C74.0471 47.1858 74.2014 47.2023 74.3466 47.172C74.4918 47.1418 74.616 47.0674 74.6924 46.9649C74.7646 46.8612 74.7838 46.7396 74.746 46.625C74.7081 46.5105 74.6162 46.4119 74.4893 46.3497H74.4864Z" fill="#211715"/>
<path d="M81.6906 47.7231C81.4011 47.5968 81.0719 47.5393 80.7423 47.5575C80.4127 47.5757 80.0967 47.6688 79.832 47.8256C79.6193 47.9475 79.4491 48.1102 79.3373 48.2985C79.2255 48.4868 79.1758 48.6945 79.1927 48.9022C79.2309 49.3237 79.4338 49.7253 79.773 50.051C80.1034 50.4029 80.4596 50.7393 80.8232 51.0698C81.2126 51.4238 81.6109 51.7715 82.0182 52.1129C82.5201 52.5345 83.3217 51.8977 82.8196 51.4768C82.4436 51.1611 82.0753 50.8401 81.7144 50.5138C81.5115 50.3309 81.312 50.1458 81.1159 49.9586C81.0258 49.872 80.9368 49.7846 80.849 49.6967C80.7779 49.6254 80.8734 49.7234 80.8008 49.6474C80.7646 49.6092 80.7283 49.571 80.6929 49.5321C80.5848 49.4241 80.4899 49.3082 80.4095 49.186C80.3511 49.0797 80.3227 48.9646 80.3262 48.8487C80.3262 48.8334 80.3358 48.6927 80.3233 48.7725C80.3259 48.7574 80.3707 48.6183 80.3364 48.6987C80.3021 48.7792 80.367 48.6648 80.3761 48.6495C80.4228 48.5704 80.3075 48.6967 80.3948 48.6302C80.4395 48.5923 80.4868 48.5564 80.5364 48.5227C80.4585 48.5704 80.5753 48.5085 80.5959 48.4984C80.6965 48.4498 80.5574 48.5 80.6634 48.4723C80.6999 48.4626 80.7371 48.4546 80.7748 48.4483C80.7213 48.4508 80.7307 48.4501 80.8031 48.4462C80.9132 48.4388 81.0237 48.4577 81.1202 48.5004C81.2508 48.5577 81.4042 48.5729 81.5486 48.5428C81.693 48.5128 81.8173 48.4399 81.8958 48.3392C81.9702 48.2359 81.9906 48.1136 81.9525 47.9985C81.9145 47.8834 81.8211 47.7848 81.6923 47.7238L81.6906 47.7231Z" fill="#211715"/>
<path d="M86.2035 49.2103C85.7003 48.7776 85.2097 48.3358 84.709 47.9012C84.4616 47.6864 84.2128 47.4726 83.9575 47.2642C83.7638 47.0883 83.5451 46.9307 83.3058 46.7947C82.5256 46.4021 81.4383 46.4688 80.928 47.1292C80.8069 47.2883 80.7398 47.4695 80.7334 47.6553C80.727 47.841 80.7815 48.0249 80.8914 48.189C81.114 48.4913 81.3756 48.7744 81.6721 49.0338C82.1143 49.4603 82.5863 49.8668 83.0859 50.2513C83.6064 50.6576 84.4084 50.022 83.8872 49.6154C83.4936 49.3081 83.1012 49.0002 82.7475 48.6632C82.5662 48.4907 82.3896 48.3151 82.2091 48.1411C82.1042 48.041 82.011 47.9336 81.9306 47.8202C81.9153 47.7989 81.898 47.7784 81.8832 47.7566C81.8379 47.6891 81.8999 47.8043 81.8725 47.7341C81.8682 47.7233 81.8441 47.632 81.856 47.6842C81.8674 47.7312 81.8696 47.6113 81.8535 47.6882C81.8596 47.6586 81.8698 47.6297 81.8841 47.6019C81.8515 47.6612 81.8997 47.5886 81.9056 47.5834C81.8637 47.6192 81.9359 47.5544 81.9359 47.5544C81.9675 47.5272 82.0015 47.5019 82.0377 47.4787C82.0059 47.4993 82.1485 47.4364 82.0875 47.4591C82.066 47.4672 82.0088 47.4856 82.1218 47.4526C82.1363 47.4485 82.2298 47.4402 82.1479 47.4463C82.1972 47.4436 82.2466 47.4436 82.2958 47.4463C82.3927 47.4497 82.2258 47.4335 82.3193 47.4483C82.3477 47.4526 82.376 47.4573 82.4044 47.4629C82.4748 47.4771 82.5441 47.4947 82.6118 47.5158C82.5084 47.4841 82.6554 47.5351 82.6852 47.5486C82.7053 47.5576 82.7266 47.5711 82.7478 47.5785C82.8356 47.6127 82.667 47.511 82.7129 47.5574C82.8702 47.7148 83.0924 47.8481 83.2678 47.9934C83.4911 48.1784 83.7099 48.3666 83.9278 48.5555C84.4208 48.9841 84.9046 49.4196 85.4013 49.8462C85.4539 49.8879 85.5164 49.9211 85.5852 49.9437C85.654 49.9663 85.7277 49.9779 85.8021 49.9779C85.8766 49.9779 85.9503 49.9663 86.0191 49.9437C86.0878 49.9211 86.1503 49.8879 86.203 49.8462C86.2556 49.8044 86.2974 49.7548 86.3258 49.7002C86.3543 49.6457 86.369 49.5872 86.369 49.5281C86.369 49.469 86.3543 49.4105 86.3258 49.356C86.2974 49.3014 86.2556 49.2518 86.203 49.21L86.2035 49.2103Z" fill="#211715"/>
<path d="M90.6795 48.3571C90.9678 48.1956 91.2734 48.0545 91.5928 47.9355C91.7898 47.8629 92.1125 47.7331 92.333 47.7907C92.4869 47.83 92.5455 48.0209 92.5597 48.1376C92.5558 48.3885 92.4599 48.6329 92.2837 48.8412C92.1323 49.0222 91.9557 49.1892 91.7572 49.3388C91.5407 49.5223 91.337 49.7141 91.1363 49.9084C90.7548 50.3165 90.3063 50.6823 89.8028 50.9962C89.676 51.0586 89.5843 51.1572 89.5464 51.2716C89.5086 51.3861 89.5275 51.5077 89.5993 51.6114C89.6761 51.7137 89.8004 51.7879 89.9455 51.8181C90.0905 51.8483 90.2448 51.832 90.3749 51.7729C91.0429 51.3578 91.6403 50.8757 92.1522 50.3387C92.3939 50.1112 92.66 49.9014 92.904 49.6756C93.2015 49.4021 93.4283 49.0848 93.5716 48.7418C93.855 48.0729 93.6025 47.1361 92.6365 46.9259C91.7753 46.7386 90.7861 47.2036 90.1091 47.5807C89.9823 47.643 89.8905 47.7416 89.8526 47.8561C89.8148 47.9705 89.8338 48.0922 89.9056 48.1959C89.9824 48.2978 90.1064 48.3717 90.2511 48.4019C90.3958 48.432 90.5496 48.4159 90.6795 48.3571Z" fill="#211715"/>
<path d="M70.6195 24.8484C71.2162 25.0936 71.8809 25.2161 72.5527 25.2045C73.2548 25.2272 73.9464 25.0636 74.5182 24.7395C74.6244 24.6552 74.6841 24.5408 74.6841 24.4216C74.6841 24.3023 74.6244 24.188 74.5182 24.1036C74.4098 24.0225 74.2665 23.9773 74.1175 23.9773C73.9685 23.9773 73.8252 24.0225 73.7168 24.1036C73.8925 23.995 73.7718 24.0692 73.7267 24.0922C73.6887 24.1115 73.6494 24.1295 73.6094 24.1461C73.5567 24.1686 73.4255 24.1927 73.5842 24.1599C73.5298 24.1711 73.4765 24.1927 73.4227 24.2064C73.2744 24.2428 73.1228 24.2703 72.9693 24.2885C73.0543 24.2777 72.9993 24.2851 72.946 24.2885C72.9015 24.2919 72.8571 24.2948 72.8126 24.297C72.7054 24.3026 72.598 24.3047 72.4909 24.3042C72.395 24.3042 72.299 24.3014 72.203 24.2959C72.1588 24.2936 72.1149 24.2907 72.071 24.2874C72.0511 24.2858 71.8902 24.2633 72.0271 24.284C71.8847 24.2649 71.7437 24.2401 71.6045 24.2096C71.5453 24.1954 71.4875 24.1785 71.4291 24.1628C71.2908 24.1252 71.5303 24.2026 71.4056 24.1558C71.3331 24.1286 71.2617 24.1005 71.1908 24.0708C71.1265 24.041 71.0555 24.0215 70.9818 24.0135C70.908 24.0055 70.833 24.0091 70.761 24.0241C70.689 24.039 70.6214 24.0651 70.5621 24.1008C70.5028 24.1365 70.4529 24.1812 70.4154 24.2322C70.3778 24.2831 70.3533 24.3395 70.3431 24.398C70.333 24.4566 70.3375 24.5161 70.3564 24.5732C70.3753 24.6304 70.4082 24.684 70.4532 24.731C70.4982 24.7781 70.5544 24.8177 70.6187 24.8475L70.6195 24.8484Z" fill="#211715"/>
<path d="M72.2316 21.2695C72.3188 21.5196 72.3887 21.7733 72.441 22.0295L72.4206 21.9101C72.4269 21.9448 72.4282 21.9799 72.4243 22.0148L72.4444 21.8955C72.4414 21.9115 72.4366 21.9273 72.43 21.9427L72.4867 21.8352C72.4807 21.8458 72.4736 21.8559 72.4654 21.8655L72.5541 21.7745C72.5448 21.7835 72.5343 21.7917 72.5229 21.799L72.6377 21.7286C72.6133 21.7406 72.5879 21.7512 72.5617 21.7605L72.6972 21.7156C72.6562 21.7296 72.6132 21.7395 72.5691 21.7453L72.7199 21.7291C72.6799 21.7328 72.6396 21.7328 72.5997 21.7291L72.7505 21.745C72.7051 21.7401 72.6609 21.7313 72.6156 21.7264C72.5423 21.7077 72.464 21.7049 72.3889 21.7185C72.314 21.7211 72.2413 21.7395 72.1783 21.7718C72.1141 21.8016 72.0578 21.8411 72.0128 21.8882C71.9678 21.9352 71.9349 21.9888 71.916 22.0459C71.8971 22.1031 71.8926 22.1626 71.9027 22.2211C71.9128 22.2796 71.9373 22.336 71.9749 22.387C72.0109 22.438 72.0596 22.4826 72.1181 22.5182C72.1766 22.5537 72.2435 22.5795 72.3149 22.5938C72.4246 22.6055 72.5311 22.6274 72.6428 22.6314C72.8138 22.6321 72.9825 22.5999 73.1344 22.5376C73.2317 22.5017 73.3177 22.4491 73.3862 22.3837C73.4548 22.3183 73.5043 22.2416 73.5312 22.1592C73.5665 22.027 73.565 21.8902 73.5266 21.7585C73.4745 21.5136 73.4031 21.271 73.3237 21.0309C73.3041 20.9739 73.2704 20.9205 73.2247 20.8738C73.179 20.8271 73.1222 20.7881 73.0574 20.7588C72.9927 20.7296 72.9213 20.7108 72.8474 20.7034C72.7735 20.6961 72.6985 20.7004 72.6266 20.7161C72.4831 20.7495 72.3614 20.8259 72.2874 20.9291C72.2134 21.0322 72.1928 21.1542 72.2299 21.2692L72.2316 21.2695Z" fill="#211715"/>
<path d="M67.2388 19.1011C67.079 19.5135 67.1821 20.4624 68.168 20.5431C69.4695 20.537 69.5387 19.3898 69.1006 18.8504C68.7418 18.4088 67.6871 18.2251 67.2388 19.1011Z" fill="#211715"/>
<path d="M77.6618 19.1011C77.8219 19.5135 77.7185 20.4624 76.7329 20.5431C75.4314 20.5368 75.362 19.3898 75.8001 18.8504C76.1588 18.4088 77.2135 18.2251 77.6618 19.1011Z" fill="#211715"/>
<path d="M2.28076 60.5218C1.79057 60.1356 1.40138 59.6764 1.13556 59.1705C0.869749 58.6646 0.732548 58.122 0.731847 57.5739C0.729013 56.5308 0.725612 55.3333 0.736381 54.0134C8.14346 54.0134 95.8303 53.9459 97.2979 53.8805L97.4005 53.8789C97.4079 55.2235 97.4087 56.4452 97.4093 57.5099C97.4102 58.615 96.858 59.6752 95.874 60.4574C94.89 61.2396 93.5549 61.6796 92.1621 61.6809C74.9421 61.7045 22.7944 61.7882 5.96744 61.7364C4.58467 61.7335 3.25944 61.2969 2.28076 60.5218Z" fill="white"/>
<path d="M0.743277 54.4639C2.17903 54.4639 3.61403 54.4633 5.04828 54.4621C7.70291 54.4605 10.3572 54.4587 13.0111 54.4567C16.5757 54.4542 20.1403 54.4514 23.705 54.4484C27.8702 54.445 32.0358 54.4413 36.2017 54.4374C40.6752 54.4333 45.1488 54.4289 49.6225 54.4241C54.0605 54.4193 58.4983 54.4142 62.936 54.4088C67.0452 54.4036 71.1541 54.3979 75.2627 54.3919C78.7336 54.3867 82.2047 54.3807 85.6761 54.3739C88.1994 54.3688 90.723 54.3625 93.2469 54.355C94.5136 54.3507 95.7806 54.3523 97.0472 54.3357C97.1303 54.3357 97.2139 54.3357 97.2969 54.3309C98.0223 54.2994 98.0271 53.399 97.2969 53.4308C96.3881 53.4701 95.4689 53.4465 94.5592 53.4501C92.314 53.4588 90.0689 53.4652 87.824 53.4692C84.5558 53.4764 81.2876 53.4825 78.0193 53.4875C74.0374 53.4939 70.0555 53.4996 66.0738 53.5046C61.6707 53.5104 57.2677 53.5157 52.8646 53.5203C48.3839 53.5253 43.9031 53.5299 39.4223 53.5343C35.1573 53.5383 30.8923 53.5422 26.6271 53.5458C22.8866 53.5492 19.1465 53.5523 15.407 53.555L6.69071 53.5608C4.92907 53.5619 3.16744 53.5628 1.4058 53.5635H0.743277C0.0138755 53.5635 0.012742 54.4639 0.743277 54.4639Z" fill="#211715"/>
<path d="M50.8178 57.9074C50.8211 58.0923 50.7764 58.2758 50.6863 58.4464C50.5962 58.617 50.4627 58.771 50.2941 58.8987C50.1255 59.0265 49.9255 59.1252 49.7066 59.1888C49.4878 59.2524 49.2547 59.2794 49.022 59.2682C47.8117 59.2682 47.1872 58.6119 47.1872 57.9067C47.1839 57.7222 47.2273 57.5389 47.3148 57.3679C47.4023 57.1969 47.5321 57.0415 47.6966 56.9109C47.8611 56.7804 48.0569 56.6774 48.2724 56.6079C48.488 56.5384 48.7189 56.504 48.9515 56.5066C49.4316 56.5 49.8959 56.643 50.2447 56.9049C50.5936 57.1668 50.7993 57.5266 50.8178 57.9074Z" fill="#211715"/>
<path d="M61.723 9.83472L37.6386 9.83337H33.6062C32.8768 9.83337 32.8754 10.7336 33.6062 10.7336C40.4292 10.7345 47.2524 10.7349 54.0756 10.7349H61.723C62.4524 10.7349 62.4535 9.83472 61.723 9.83472Z" fill="#211715"/>
<path d="M97.9654 42.4248C97.9603 35.9841 97.9551 29.5433 97.9498 23.1026L97.9439 15.5563C97.9683 15.0315 97.957 14.5061 97.9099 13.9823C97.79 13.0372 97.3048 12.1446 96.5208 11.4267C95.7368 10.7088 94.6923 10.2008 93.5304 9.97226C92.2399 9.72088 90.8063 9.83578 89.4872 9.83578H83.1017C82.3723 9.83578 82.3711 10.7352 83.1017 10.7352C86.108 10.7352 89.1154 10.7143 92.1214 10.7352C93.2055 10.7332 94.2568 11.03 95.0957 11.575C95.9345 12.1199 96.5088 12.8791 96.7203 13.7228C96.8175 14.2454 96.8477 14.7744 96.8104 15.3018C96.8144 20.7118 96.8186 26.1217 96.8232 31.5317C96.8264 35.1627 96.8293 38.7937 96.8319 42.4248C96.8319 43.0034 97.9654 43.0045 97.9654 42.4248Z" fill="#211715"/>
<path d="M34.53 9.82766L7.46789 9.82428C5.75434 9.82428 4.10653 9.8018 2.62222 10.5994C1.84631 11.0156 1.20653 11.5725 0.755872 12.224C0.305218 12.8755 0.0566562 13.6028 0.030774 14.3457C-0.0434697 16.6751 0.0412588 19.0136 0.0483431 21.3422C0.0672346 27.2878 0.0866929 33.2334 0.106718 39.179C0.125609 44.6343 0.143367 50.0894 0.159992 55.5443C0.163109 56.6518 0.00357016 57.8603 0.423812 58.9286C0.701943 59.6273 1.18288 60.2645 1.82792 60.7888C2.47297 61.3132 3.26411 61.71 4.1377 61.9475C5.32078 62.2679 6.60814 62.1883 7.84053 62.191C8.93756 62.1936 10.0345 62.1955 11.1313 62.1967C16.9104 62.2043 22.6896 62.2059 28.4689 62.2014C35.5417 62.1988 42.6145 62.1936 49.6873 62.1856C56.7118 62.1786 63.7363 62.1702 70.7609 62.1605C76.4601 62.1528 82.1591 62.1449 87.8579 62.1366L91.0634 62.1321C92.6013 62.1299 94.0607 62.0647 95.3832 61.3548C96.1389 60.9497 96.7657 60.411 97.2144 59.781C97.6631 59.151 97.9213 58.447 97.9687 57.7243C98.0749 56.046 97.9735 54.3434 97.9724 52.6631C97.9712 50.7077 97.9699 48.7523 97.9684 46.7968C97.9684 46.2181 96.8349 46.2172 96.8349 46.7968L96.8391 52.7991C96.8391 54.403 96.8958 56.0145 96.8391 57.6175C96.8097 58.3217 96.5311 59.0051 96.0353 59.5896C95.5395 60.1741 94.8465 60.6361 94.0355 60.9229C92.8787 61.3276 91.5891 61.2325 90.3559 61.2343L74.7987 61.2568C68.0933 61.2659 61.388 61.2744 54.6826 61.2822C47.6637 61.29 40.6447 61.2961 33.6258 61.3006C27.5115 61.3042 21.3972 61.3048 15.2827 61.3024C12.9455 61.3008 10.6082 61.2978 8.27097 61.2936C7.20832 61.2914 6.03686 61.3879 4.9966 61.2055C4.14793 61.0554 3.36768 60.7229 2.74135 60.2443C2.11501 59.7658 1.66674 59.1597 1.44565 58.4924C1.30462 57.9262 1.25454 57.348 1.2966 56.7718L1.29235 55.2408C1.28895 54.1062 1.28545 52.9716 1.28186 51.8369C1.27317 49.1221 1.2642 46.4071 1.25494 43.6921C1.23511 37.7207 1.21527 31.7491 1.19544 25.7775C1.1875 23.157 1.17966 20.5373 1.17192 17.9184C1.1687 16.8553 1.16587 15.7921 1.16342 14.729C1.16001 13.3399 1.82311 12.0544 3.35587 11.2939C4.77982 10.5874 6.4214 10.7235 8.02642 10.7237H13.4813L27.3969 10.7255H34.53C35.2594 10.7255 35.2605 9.82608 34.53 9.82608V9.82766Z" fill="#211715"/>
</g>
<defs>
<clipPath id="clip0_28_670">
<rect width="100" height="79.3493" fill="white"/>
</clipPath>
</defs>
</svg>
