<svg width="100" height="80" viewBox="0 0 100 80" fill="none" xmlns="http://www.w3.org/2000/svg">
<g clip-path="url(#clip0_28_608)">
<path d="M100 71.6466H0.0249023V79.3492H100V71.6466Z" fill="#E6E6E6"/>
<path d="M99.8613 71.6533H0V71.3956H99.906L99.8613 71.6533Z" fill="#3F3D56"/>
<path d="M78.4344 29.649V52.4512H21.5903V29.649C21.5903 22.0818 24.3638 14.801 29.3429 9.29789C34.3219 3.79476 41.1296 0.485838 48.3715 0.048909C48.9142 0.0159034 49.4611 -0.000397121 50.0124 7.34479e-06C50.3265 7.34479e-06 50.6394 0.00489477 50.95 0.017122C58.1616 0.255182 65.0143 3.35518 70.1094 8.68441C70.2629 8.84457 70.4141 9.00596 70.5653 9.1698C75.6177 14.685 78.4363 22.0204 78.4344 29.649Z" fill="#E6E6E6"/>
<path d="M50.9501 0.0171274V52.4512H48.3716V0.048909C48.9142 0.0159034 49.4612 -0.000397121 50.0124 7.34479e-06C50.3266 7.34479e-06 50.6395 0.00489545 50.9501 0.0171274Z" fill="white"/>
<path d="M72.7511 11.8596H27.2734C27.9504 10.9187 28.6803 10.0205 29.4593 9.1698H70.5652C71.3442 10.0205 72.0741 10.9187 72.7511 11.8596Z" fill="white"/>
<path d="M74.1082 19.5623H53.9619V55.141H74.1082V19.5623Z" fill="white"/>
<path d="M60.9878 25.5729H57.9404V28.7518H60.9878V25.5729Z" fill="#E6E6E6"/>
<path d="M65.8975 25.5729H62.8501V28.7518H65.8975V25.5729Z" fill="#E6E6E6"/>
<path d="M70.8071 25.5729H67.7598V28.7518H70.8071V25.5729Z" fill="#E6E6E6"/>
<path d="M61.0723 32.8138H58.0249V35.9928H61.0723V32.8138Z" fill="#E6E6E6"/>
<path d="M65.9819 32.8138H62.9346V35.9928H65.9819V32.8138Z" fill="#E6E6E6"/>
<path d="M70.8916 32.8138H67.8442V35.9928H70.8916V32.8138Z" fill="#E6E6E6"/>
<path d="M61.1567 40.0547H58.1094V43.2336H61.1567V40.0547Z" fill="#E6E6E6"/>
<path d="M66.0664 40.0547H63.019V43.2336H66.0664V40.0547Z" fill="#E6E6E6"/>
<path d="M70.9761 40.0547H67.9287V43.2336H70.9761V40.0547Z" fill="#E6E6E6"/>
<path d="M61.2417 47.2957H58.1943V50.4746H61.2417V47.2957Z" fill="#E6E6E6"/>
<path d="M66.1514 47.2957H63.104V50.4746H66.1514V47.2957Z" fill="#E6E6E6"/>
<path d="M71.0611 47.2957H68.0137V50.4746H71.0611V47.2957Z" fill="#E6E6E6"/>
<path d="M61.2417 47.2957H58.1943V50.4746H61.2417V47.2957Z" fill="#E6E6E6"/>
<path d="M66.1514 47.2957H63.104V50.4746H66.1514V47.2957Z" fill="#E6E6E6"/>
<path d="M71.0611 47.2957H68.0137V50.4746H71.0611V47.2957Z" fill="#E6E6E6"/>
<path d="M28.3475 45.2168C30.6671 45.2168 32.5476 43.2552 32.5476 40.8355C32.5476 38.4157 30.6671 36.4541 28.3475 36.4541C26.0279 36.4541 24.1475 38.4157 24.1475 40.8355C24.1475 43.2552 26.0279 45.2168 28.3475 45.2168Z" fill="white"/>
<path d="M28.3588 40.8356H28.3704L28.5781 53.2574H28.1396L28.3588 40.8356Z" fill="white"/>
<path d="M29.1237 47.6018L29.0269 47.4099L28.3324 47.7913L28.4293 47.9831L29.1237 47.6018Z" fill="white"/>
<path d="M40.6955 41.0303C44.2229 41.0303 47.0824 38.0474 47.0824 34.3677C47.0824 30.688 44.2229 27.7051 40.6955 27.7051C37.1681 27.7051 34.3086 30.688 34.3086 34.3677C34.3086 38.0474 37.1681 41.0303 40.6955 41.0303Z" fill="white"/>
<path d="M40.7127 34.3677H40.7303L41.0461 53.2574H40.3794L40.7127 34.3677Z" fill="white"/>
<path d="M41.8758 44.657L41.7285 44.3652L40.6725 44.9452L40.8198 45.2369L41.8758 44.657Z" fill="white"/>
<path d="M27.5219 28.0057L28.6009 27.1055C27.7627 27.009 27.4183 27.4859 27.2773 27.8633C26.6225 27.5797 25.9097 27.9514 25.9097 27.9514L28.0684 28.769C27.9595 28.4655 27.77 28.2008 27.5219 28.0057Z" fill="white"/>
<path d="M38.8911 20.6699L39.97 19.7697C39.1318 19.6732 38.7874 20.1501 38.6465 20.5275C37.9917 20.2439 37.2788 20.6156 37.2788 20.6156L39.4376 21.4332C39.3287 21.1297 39.1391 20.8649 38.8911 20.6699Z" fill="white"/>
<path d="M34.5542 27.6389L35.6331 26.7387C34.7949 26.6422 34.4505 27.1191 34.3096 27.4965C33.6548 27.2129 32.9419 27.5846 32.9419 27.5846L35.1007 28.4021C34.9918 28.0987 34.8022 27.8339 34.5542 27.6389Z" fill="white"/>
<path d="M81.4231 49.7614H18.6016V55.141H81.4231V49.7614Z" fill="#E6E6E6"/>
<path d="M9.21886 63.7648C9.21886 63.7648 -3.48858 57.6624 0.975528 53.4306C5.43964 49.1989 9.21886 63.7648 9.21886 63.7648Z" fill="#E6E6E6"/>
<path d="M8.99755 65.1888C8.99755 65.1888 3.15674 45.1694 11.7575 46.1268C20.3584 47.0842 8.99755 65.1888 8.99755 65.1888Z" fill="#E6E6E6"/>
<path d="M4.73877 63.4133L4.98392 66.7622L4.98781 66.82C4.98758 67.343 5.0129 67.8656 5.06369 68.3858C5.39639 71.8016 6.82641 73.3583 8.49768 73.3583C10.169 73.3583 11.5367 71.8016 11.8694 68.3858C11.9202 67.8656 11.9455 67.343 11.9453 66.82L11.9472 66.7733L11.9482 66.7622L12.1943 63.4133H4.73877Z" fill="#E6E6E6"/>
<path d="M11.9482 66.7622L11.9472 66.7734L11.9453 66.8201C11.9455 67.343 11.9202 67.8656 11.8694 68.3859H5.06366C5.01287 67.8656 4.98755 67.343 4.98778 66.8201L4.98389 66.7622H11.9482Z" fill="white"/>
<path d="M94.2423 63.7648C94.2423 63.7648 81.5349 57.6624 85.999 53.4306C90.4631 49.1989 94.2423 63.7648 94.2423 63.7648Z" fill="#E6E6E6"/>
<path d="M94.021 65.1888C94.021 65.1888 88.1802 45.1694 96.781 46.1268C105.382 47.0842 94.021 65.1888 94.021 65.1888Z" fill="#E6E6E6"/>
<path d="M89.7627 63.4133L90.0078 66.7622L90.0117 66.82C90.0115 67.343 90.0368 67.8656 90.0876 68.3858C90.4203 71.8016 91.8503 73.3583 93.5216 73.3583C95.1929 73.3583 96.5606 71.8016 96.8933 68.3858C96.9441 67.8656 96.9695 67.343 96.9692 66.82L96.9712 66.7733L96.9721 66.7622L97.2183 63.4133H89.7627Z" fill="#E6E6E6"/>
<path d="M96.9721 66.7622L96.9711 66.7734L96.9692 66.8201C96.9694 67.343 96.9441 67.8656 96.8933 68.3859H90.0876C90.0368 67.8656 90.0115 67.343 90.0117 66.8201L90.0078 66.7622H96.9721Z" fill="white"/>
<path d="M77.3701 75.8883L76.537 75.9903C75.8789 76.4042 75.1065 76.56 74.2511 76.5283C74.1317 76.5246 74.0153 76.4884 73.9134 76.4233C73.8116 76.3581 73.7278 76.2664 73.6704 76.1571C73.6206 76.0612 73.5927 75.9546 73.5888 75.8457C73.585 75.7367 73.6053 75.6282 73.6482 75.5288C73.6911 75.4293 73.7554 75.3415 73.8361 75.2722C73.9168 75.203 74.0118 75.154 74.1136 75.1293L74.7467 74.9755L76.2742 73.417L77.1957 71.6772L78.5343 71.8374L78.8129 74.0472C78.8483 74.4894 78.7176 74.9286 78.4484 75.2721C78.1791 75.6156 77.7925 75.8365 77.3701 75.8883Z" fill="#FFB8B8"/>
<path d="M64.3945 74.7703L63.578 74.9707C62.9694 75.4601 62.2191 75.7067 61.3657 75.7769C61.2467 75.7874 61.1271 75.7652 61.0188 75.7126C60.9105 75.6601 60.8172 75.5789 60.7483 75.4771C60.6883 75.3878 60.649 75.2852 60.6332 75.1774C60.6175 75.0696 60.6258 74.9594 60.6576 74.8555C60.6893 74.7516 60.7436 74.6568 60.8163 74.5783C60.8889 74.4999 60.9779 74.44 61.0763 74.4033L61.6885 74.1753L63.0358 72.4454L63.7613 70.6074H65.1087L65.6269 72.7698C65.7103 73.2048 65.6284 73.6567 65.3984 74.03C65.1685 74.4032 64.8085 74.6687 64.3945 74.7703Z" fill="#FFB8B8"/>
<path d="M63.7253 70.7296L65.2489 70.9742L67.6516 58.3198L71.8124 50.9229L76.8522 72.4413L78.7274 72.8081C78.5171 60.6902 79.5435 45.4344 77.2038 43.587L67.007 44.8097L62.5532 57.2806L63.7253 70.7296Z" fill="#2F2E41"/>
<path d="M71.1089 24.7584C73.0508 24.7584 74.625 23.1163 74.625 21.0905C74.625 19.0648 73.0508 17.4226 71.1089 17.4226C69.167 17.4226 67.5928 19.0648 67.5928 21.0905C67.5928 23.1163 69.167 24.7584 71.1089 24.7584Z" fill="#FFB8B8"/>
<path d="M76.0315 26.7147L71.8121 27.4483L70.7573 23.5358L73.8046 22.5577L76.0315 26.7147Z" fill="#FFB8B8"/>
<path d="M77.7897 44.0761L66.5381 45.1765C67.4401 41.9045 68.2666 38.6441 67.5929 35.3954C66.7375 32.4951 67.5632 30.7704 69.8198 29.4045L71.3435 25.8588L75.4456 25.3698C76.5319 27.1918 76.9763 29.3515 76.7024 31.4781C76.1179 36.1024 76.2758 40.3936 77.7897 44.0761Z" fill="#C9E9D2"/>
<path d="M71.0301 16.7585C69.8566 17.0382 68.521 17.4344 68.4461 17.8027C67.239 18.1201 66.3279 18.8801 66.1419 20.0389C66.1263 20.139 66.132 20.2415 66.1585 20.3391C66.1851 20.4367 66.2318 20.5271 66.2954 20.6038C66.3591 20.6805 66.438 20.7418 66.5268 20.7832C66.6156 20.8246 66.712 20.8453 66.8092 20.8436C67.4657 20.8348 68.4512 20.7692 69.1019 20.4857C70.9923 21.7563 71.3096 25.0611 70.4841 27.3106L71.7832 27.1864L73.1272 23.0821L73.4705 27.025L76.435 26.6161L76.0532 21.5882C75.9358 20.4031 75.5492 19.2644 74.9254 18.2664C74.8607 18.1662 74.7898 18.0704 74.7133 17.9797C74.2623 17.4482 73.6817 17.054 73.0332 16.839C72.3847 16.6239 71.6925 16.5961 71.0301 16.7585Z" fill="#2F2E41"/>
<path d="M63.5841 77.1494C63.5777 77.2093 63.5834 77.2698 63.6009 77.3272C63.6183 77.3846 63.6471 77.4375 63.6854 77.4826C63.7237 77.5277 63.7706 77.5639 63.8231 77.5889C63.8756 77.6139 63.9325 77.6271 63.9902 77.6277L65.3087 77.6419C65.3798 77.6367 65.4462 77.6036 65.4948 77.5493C65.5433 77.495 65.5703 77.4235 65.5703 77.3493C65.5703 77.2907 65.5535 77.2334 65.522 77.1848C65.4905 77.1363 65.4458 77.0987 65.3936 77.0769L65.0046 76.9146L64.4388 76.0884H63.9862C63.764 76.3975 63.6252 76.7631 63.5843 77.1471L63.5841 77.1494Z" fill="#FFB8B8"/>
<path d="M60.4282 77.1494C60.4345 77.2093 60.4288 77.2698 60.4114 77.3272C60.3939 77.3846 60.3651 77.4375 60.3269 77.4826C60.2886 77.5277 60.2417 77.5639 60.1892 77.5889C60.1367 77.6139 60.0797 77.6271 60.022 77.6277L58.7035 77.6419C58.6325 77.6367 58.566 77.6036 58.5174 77.5493C58.4689 77.495 58.4419 77.4235 58.4419 77.3493C58.4419 77.2906 58.4587 77.2334 58.4902 77.1848C58.5217 77.1363 58.5665 77.0987 58.6186 77.0769L59.0076 76.9146L59.5734 76.0884H60.026C60.2482 76.3975 60.387 76.7631 60.4279 77.1471L60.4282 77.1494Z" fill="#FFB8B8"/>
<path d="M59.4604 76.0884H60.1394L62.5155 65.3472L63.7602 76.2064H64.5522L65.6271 62.2193L60.1394 62.1603L59.4604 76.0884Z" fill="#3F3D56"/>
<path d="M56.4053 56.3766H57.3105V54.1339L57.5164 53.7043C57.5577 53.6181 57.5789 53.5229 57.5783 53.4265C57.5777 53.3301 57.5552 53.2353 57.5128 53.1496C57.4703 53.064 57.4091 52.9901 57.3341 52.9338C57.259 52.8776 57.1723 52.8406 57.081 52.826C56.9974 52.8125 56.912 52.8181 56.8307 52.8424C56.7494 52.8666 56.6741 52.9089 56.6099 52.9663C56.5457 53.0238 56.4942 53.095 56.4589 53.1751C56.4236 53.2553 56.4053 53.3425 56.4053 53.4307V56.3766Z" fill="#FFB8B8"/>
<path d="M61.7798 50.829C62.9359 50.829 63.8731 49.8513 63.8731 48.6453C63.8731 47.4393 62.9359 46.4617 61.7798 46.4617C60.6237 46.4617 59.6865 47.4393 59.6865 48.6453C59.6865 49.8513 60.6237 50.829 61.7798 50.829Z" fill="#FFB8B8"/>
<path d="M60.9312 52.3634H63.0811V49.7666H60.9312V52.3634Z" fill="#FFB8B8"/>
<path d="M59.9129 62.5143C61.8158 63.7393 63.8277 63.6196 65.9099 62.6324L65.4573 51.6551L63.0811 51.5371L60.5918 51.8912L59.3472 52.9535L59.9129 62.5143Z" fill="#C5D3E8"/>
<path d="M57.65 58.6193L60.1393 56.6127L59.3473 52.9536L57.8763 55.7864L57.4237 55.3143L56.0659 56.3766L57.65 58.6193Z" fill="#C5D3E8"/>
<path d="M68.6999 51.8437L67.9082 52.3014L66.866 50.3399L66.4863 50.0682C66.4101 50.0137 66.3473 49.9412 66.303 49.8566C66.2588 49.772 66.2344 49.6776 66.2317 49.5813C66.229 49.4849 66.2482 49.3893 66.2877 49.3021C66.3272 49.215 66.3859 49.1388 66.4589 49.0798C66.5258 49.0258 66.6031 48.9875 66.6855 48.9676C66.7678 48.9477 66.8534 48.9466 66.9362 48.9643C67.019 48.9821 67.0972 49.0184 67.1653 49.0706C67.2335 49.1229 67.29 49.1899 67.331 49.267L67.6578 49.8821L68.6999 51.8437Z" fill="#FFB8B8"/>
<path d="M64.269 55.1372L67.2733 53.4735L68.8516 52.5995L69.0779 51.183L68.0596 50.1207L66.8149 50.947L66.9281 51.8912L65.4571 51.6552L64.269 55.1372Z" fill="#C5D3E8"/>
<path d="M62.2325 50.4158C63.6073 50.4158 64.7218 49.2532 64.7218 47.8191C64.7218 46.3849 63.6073 45.2223 62.2325 45.2223C60.8577 45.2223 59.7432 46.3849 59.7432 47.8191C59.7432 49.2532 60.8577 50.4158 62.2325 50.4158Z" fill="#2F2E41"/>
<path d="M63.5905 46.0486C64.2154 46.0486 64.722 45.5201 64.722 44.8682C64.722 44.2163 64.2154 43.6879 63.5905 43.6879C62.9656 43.6879 62.459 44.2163 62.459 44.8682C62.459 45.5201 62.9656 46.0486 63.5905 46.0486Z" fill="#2F2E41"/>
<path d="M63.5353 45.855C63.7596 45.9772 64.0167 46.0173 64.2655 45.9691C64.5143 45.9209 64.7403 45.787 64.9076 45.5889C65.0749 45.3909 65.1736 45.14 65.1881 44.8765C65.2026 44.613 65.132 44.352 64.9875 44.1353C65.1183 44.2379 65.2262 44.369 65.3037 44.5194C65.3812 44.6699 65.4265 44.8361 65.4364 45.0065C65.4463 45.177 65.4206 45.3477 65.3611 45.5068C65.3016 45.6659 65.2097 45.8096 65.0917 45.928C64.9737 46.0464 64.8325 46.1367 64.6778 46.1926C64.5231 46.2485 64.3586 46.2687 64.1957 46.2518C64.0328 46.2349 63.8753 46.1813 63.7342 46.0947C63.5931 46.0081 63.4717 45.8906 63.3784 45.7502C63.4279 45.7896 63.4803 45.8246 63.5353 45.855Z" fill="#2F2E41"/>
<path d="M70.5231 47.744L70.6009 50.5825C70.6116 50.9738 70.4798 51.3548 70.232 51.6487C69.9842 51.9427 69.6389 52.1277 69.2655 52.1667C69.0264 52.1916 68.785 52.1556 68.5622 52.0617C68.3393 51.9678 68.1417 51.8188 67.9863 51.6276C67.8308 51.4364 67.7223 51.2086 67.6699 50.9639C67.6176 50.7193 67.623 50.465 67.6857 50.2229L68.2962 47.8663L70.0543 37.8407L69.9371 31.972L73.6876 31.8497L72.9844 38.452L70.5231 47.744Z" fill="#FFB8B8"/>
<path d="M73.922 32.461C72.5632 31.9211 71.0615 31.9211 69.7026 32.461L69.9371 27.5705C69.9371 27.0517 70.1346 26.5541 70.4863 26.1872C70.838 25.8204 71.315 25.6143 71.8123 25.6143C72.3097 25.6143 72.7866 25.8204 73.1383 26.1872C73.49 26.5541 73.6876 27.0517 73.6876 27.5705L73.922 32.461Z" fill="#C9E9D2"/>
</g>
<defs>
<clipPath id="clip0_28_608">
<rect width="100" height="79.3493" fill="white"/>
</clipPath>
</defs>
</svg>
