<svg width="56" height="81" viewBox="0 0 56 81" fill="none" xmlns="http://www.w3.org/2000/svg">
<path d="M11.8903 14.6956C10.5099 13.6857 10.0537 12.3071 10.8713 11.6165C11.6888 10.9258 13.4702 11.1848 14.851 12.1951C15.4095 12.5928 15.8389 13.0899 16.1031 13.6447L21.8831 17.9817L19.2369 20.0711L13.8197 15.5737C13.0966 15.4064 12.435 15.1053 11.8903 14.6956Z" fill="#A0616A"/>
<path d="M41.006 15.3638L29.8492 24.7032C29.8492 24.7032 27.3438 26.6524 23.2218 23.8415C19.0998 21.0306 14.5171 16.419 14.5171 16.419L17.0881 14.2189L21.6421 17.4135C21.6421 17.4135 24.3458 18.2689 24.5338 18.8224C24.7218 19.3759 24.1962 19.6048 25.0409 19.4274C25.8857 19.2501 25.9021 18.8544 25.9551 19.4545C26.008 20.0545 25.4921 20.7558 26.468 20.0765C27.4439 19.3973 27.7351 19.8105 27.7351 19.8105L34.8657 12.3837C34.8657 12.3837 39.4734 9.51881 40.798 12.0869C42.1227 14.655 41.006 15.3638 41.006 15.3638Z" fill="#C5D3E8"/>
<path d="M31.6905 17.2848H42.4355V4.80105L31.6905 4.80105V17.2848Z" fill="#2F2E41"/>
<path d="M40.024 13.4784L39.6477 9.90283H34.6443L33.5352 13.6911L40.024 13.4784Z" fill="#A0616A"/>
<path opacity="0.1" d="M40.024 13.4784L39.6477 9.90283H34.6443L33.5352 13.6911L40.024 13.4784Z" fill="black"/>
<path d="M36.3578 11.0402C39.3783 11.0402 41.8269 9.11491 41.8269 6.73995C41.8269 4.36499 39.3783 2.4397 36.3578 2.4397C33.3373 2.4397 30.8887 4.36499 30.8887 6.73995C30.8887 9.11491 33.3373 11.0402 36.3578 11.0402Z" fill="#A0616A"/>
<path d="M34.9785 2.21562C34.9785 2.21562 34.9785 0.450237 37.0634 0.828533C39.1482 1.20683 39.7897 1.83732 39.7897 1.83732C39.7897 1.83732 40.5916 2.84611 41.8746 2.97221C43.1576 3.0983 44.2802 5.99857 44.1198 6.62906C43.9595 7.25955 43.1576 8.89883 44.2802 9.65542C45.4028 10.412 47.0066 11.5469 46.5254 12.6818C46.0443 13.8167 44.601 16.7169 44.601 16.7169C44.601 16.7169 48.6267 17.1796 48.2978 19.155C48.2978 19.155 46.3651 17.9779 43.7991 17.9779C41.2331 17.9779 41.5539 14.3176 41.5539 14.3176C41.5539 14.3176 41.3935 12.0513 40.9124 11.4208C40.4312 10.7903 41.0727 7.25955 38.6671 5.36807C36.2615 3.4766 34.9785 2.21562 34.9785 2.21562Z" fill="#2F2E41"/>
<path d="M35.6197 1.83765C35.6197 1.83765 32.5726 2.34204 31.45 4.73791C30.3273 7.13378 30.8943 7.57959 30.8943 7.57959C30.8943 7.57959 30.6461 9.02228 29.2839 9.52816C27.9217 10.034 29.0443 12.1777 29.0443 12.1777C29.0443 12.1777 28.7236 14.3214 24.3935 15.078C20.0634 15.8346 29.8235 21.6365 29.8235 21.6365C29.8235 21.6365 29.1218 18.8982 33.6123 18.7721C38.1027 18.646 32.7329 12.1777 32.7329 12.1777L32.2518 8.01647C32.2518 8.01647 33.2141 3.22473 36.1008 2.59424C38.9875 1.96374 35.6197 1.83765 35.6197 1.83765Z" fill="#2F2E41"/>
<path d="M39.6161 78.3677L35.8882 78.3674L34.1147 67.0612L39.6169 67.0615L39.6161 78.3677Z" fill="#A0616A"/>
<path d="M26.8438 78.3013C26.7277 78.455 26.6665 78.9511 26.6665 79.1299C26.6665 79.6793 27.233 80.1247 27.9318 80.1247H39.4769C39.9536 80.1247 40.3401 79.8209 40.3401 79.446V79.0681C40.3401 79.0681 40.9112 77.9322 39.7354 76.5322C39.7354 76.5322 38.2739 77.6284 36.0902 75.9114L35.4462 74.9941L30.7848 77.6746L28.2011 77.9247C27.6358 77.9794 27.1346 77.9162 26.8438 78.3013Z" fill="#2F2E41"/>
<path d="M54.3025 74.9134L50.8563 76.0312L43.7319 66.1117L48.8182 64.4618L54.3025 74.9134Z" fill="#A0616A"/>
<path d="M42.4633 78.6827C42.4306 78.8596 42.6147 79.3365 42.7014 79.5018C42.9679 80.0097 43.7077 80.2515 44.3536 80.042L55.0258 76.5793C55.4665 76.4363 55.6763 76.0395 55.4945 75.693L55.3111 75.3437C55.3111 75.3437 55.288 74.1224 53.5219 73.1809C53.5219 73.1809 52.7028 74.6325 49.8512 73.7003L48.8109 73.0455L45.8023 76.9214L43.5353 77.9275C43.0393 78.1476 42.5453 78.2395 42.4633 78.6827Z" fill="#2F2E41"/>
<path d="M41.3269 39.5836L39.8056 44.1506L40.2107 51.5614L40.8825 63.8705L40.9014 64.2176L40.9772 65.6017L41.3269 71.9928H33.831L30.494 54.1383L27.8564 40.0258L28.1333 32.8395L28.1479 32.4637C28.1479 32.4637 41.5542 32.0054 43.0114 33.4949C44.4686 34.9844 41.3269 39.5836 41.3269 39.5836Z" fill="#2F2E41"/>
<path d="M51.7562 67.3985L50.4855 67.9153L45.786 69.8276L45.0982 70.1071L40.9772 65.602L30.494 54.1385L27.8564 40.0261L28.1333 32.8398C29.3195 32.543 30.2681 32.4216 30.749 32.598C32.9144 33.3943 32.811 38.6145 32.811 38.6145L34.1297 43.2205L40.2107 51.5617L51.7562 67.3985Z" fill="#2F2E41"/>
<path d="M33.1751 13.5015L33.3085 13.4718L39.8783 12.012L45.1242 17.6262L41.6269 29.3131L42.9384 34.0108C42.9384 34.0108 32.3008 31.8338 28.0748 33.667C28.0748 33.667 27.7834 32.6223 28.0748 32.1135C28.3663 31.6047 28.8035 29.4872 28.3663 28.5408C27.9291 27.5945 29.2406 23.1259 29.2406 23.1259C29.2406 23.1259 28.8034 20.1469 30.6978 18.6574C32.5922 17.1679 33.1751 13.5015 33.1751 13.5015Z" fill="#C5D3E8"/>
<path d="M27.2086 34.6047L4.12322 25.5839C4.00838 25.5391 3.90805 25.4772 3.82494 25.4003L0.2229 22.0624C-0.0159589 21.841 -0.0676869 21.5286 0.0911977 21.2665L6.84538 10.1245C6.96371 9.92928 7.184 9.7851 7.44975 9.72894C7.71572 9.67288 7.99813 9.71087 8.22504 9.83322L24.5056 18.6141C24.8398 18.7943 24.9892 19.1211 24.8772 19.4274L21.5718 28.4718C21.4814 28.7192 21.5966 28.9891 21.8584 29.1436L28.3974 32.9996C28.7495 33.2073 28.8712 33.586 28.6868 33.9002L28.4799 34.2526C28.3726 34.4355 28.1804 34.573 27.9389 34.6399C27.8365 34.6683 27.731 34.6824 27.6258 34.6824C27.4828 34.6823 27.3408 34.6563 27.2086 34.6047Z" fill="#C9E9D2"/>
<path d="M27.0242 32.4087L20.5979 28.2049C20.5425 28.1682 20.4988 28.1236 20.4682 28.0743C20.4099 27.9815 20.3982 27.8703 20.442 27.7684L24.1039 19.3435C24.1987 19.1258 24.0966 18.8829 23.8547 18.7523L8.59775 10.5394C8.44183 10.4546 8.24656 10.4283 8.06295 10.4661C7.87789 10.5039 7.72487 10.6024 7.64036 10.7365L1.20823 21.006C1.1106 21.1607 1.11789 21.3383 1.22572 21.4861C1.23884 21.5067 1.25487 21.5262 1.27381 21.5445L4.50882 24.9016C4.57148 24.9658 4.65308 25.0185 4.74488 25.054L26.3204 33.2681C26.4107 33.3024 26.5083 33.3196 26.606 33.3196C26.775 33.3196 26.944 33.2681 27.0694 33.1684C27.0839 33.1558 27.0985 33.1443 27.1131 33.1306C27.2151 33.0332 27.2675 32.9083 27.2602 32.7811C27.2515 32.6368 27.1655 32.5015 27.0242 32.4087Z" fill="#F2F2F2"/>
<path d="M3.73935 20.3758C3.79272 20.3758 3.84402 20.3528 3.86963 20.3128L9.09952 12.1432C9.13573 12.0867 9.10677 12.0178 9.03491 11.9894C8.96283 11.9608 8.87545 11.9837 8.83924 12.0402L3.60936 20.2097C3.57314 20.2663 3.6021 20.3352 3.67397 20.3636C3.69503 20.3719 3.71737 20.3758 3.73935 20.3758Z" fill="#65A0D4"/>
<path d="M6.50791 21.7508C6.56128 21.7508 6.61258 21.7278 6.63819 21.6878L11.8681 13.5182C11.9043 13.4617 11.8753 13.3928 11.8035 13.3644C11.7313 13.3357 11.6439 13.3587 11.6078 13.4152L6.37791 21.5847C6.3417 21.6413 6.37066 21.7102 6.44253 21.7386C6.46359 21.7469 6.48593 21.7508 6.50791 21.7508Z" fill="#65A0D4"/>
<path d="M8.83994 22.8966C8.8933 22.8966 8.94461 22.8735 8.97022 22.8335L14.2001 14.664C14.2363 14.6074 14.2074 14.5385 14.1355 14.5101C14.0633 14.4815 13.976 14.5044 13.9398 14.5609L8.70995 22.7305C8.67373 22.787 8.70269 22.8559 8.77455 22.8843C8.79561 22.8927 8.81795 22.8966 8.83994 22.8966Z" fill="#65A0D4"/>
<path d="M22.3513 32.1442C20.4711 32.0328 19.0201 31.1798 19.1104 30.239C19.2008 29.2981 20.798 28.626 22.6788 28.7376C23.4309 28.774 24.161 28.9516 24.8079 29.2554L32.7668 29.8063L32.3584 32.7374L24.5557 31.8831C23.858 32.1073 23.1021 32.1968 22.3513 32.1442Z" fill="#A0616A"/>
<path d="M45.6273 18.375L44.3269 31.1474C44.3269 31.1474 43.9172 33.8998 38.4653 33.7273C33.0135 33.5547 25.772 32.2016 25.772 32.2016L26.0336 29.2209L32.1276 29.4811C32.1276 29.4811 34.9189 28.8222 35.5052 29.1623C36.0915 29.5025 35.8627 29.9393 36.3818 29.3861C36.9009 28.8329 36.5996 28.5157 37.1174 28.9585C37.6352 29.4013 37.7889 30.2024 38.012 29.1927C38.2351 28.183 38.7906 28.3629 38.7906 28.3629L38.4645 19.061C38.4645 19.061 39.7893 14.5612 42.8631 15.9172C45.9369 17.2732 45.6273 18.375 45.6273 18.375Z" fill="#C5D3E8"/>
</svg>
