<svg width="100" height="80" viewBox="0 0 100 80" fill="none" xmlns="http://www.w3.org/2000/svg">
<g clip-path="url(#clip0_28_743)">
<path d="M38.6622 7.16866H26.5298C26.1135 7.16866 25.7749 6.76482 25.7749 6.26847C25.7749 5.77213 26.1135 5.36829 26.5298 5.36829H38.6622C39.0784 5.36829 39.417 5.77213 39.417 6.26847C39.417 6.76482 39.0784 7.16866 38.6622 7.16866Z" fill="#E6E7E8"/>
<path d="M48.1303 10.2155H26.5298C26.1135 10.2155 25.7749 9.8117 25.7749 9.31535C25.7749 8.819 26.1135 8.41516 26.5298 8.41516H48.1303C48.5465 8.41516 48.8852 8.819 48.8852 9.31535C48.8852 9.8117 48.5465 10.2155 48.1303 10.2155Z" fill="#E6E7E8"/>
<path d="M48.1303 13.2348H26.5298C26.1135 13.2348 25.7749 12.831 25.7749 12.3346C25.7749 11.8383 26.1135 11.4344 26.5298 11.4344H48.1303C48.5465 11.4344 48.8852 11.8383 48.8852 12.3346C48.8852 12.831 48.5465 13.2348 48.1303 13.2348Z" fill="#E6E7E8"/>
<path d="M50.4184 28.9038V28.4724C46.2434 28.4724 42.5975 24.4054 41.6282 18.7402L43.2013 19.2228C42.4404 18.3632 41.6718 16.9241 41.195 15.7479C40.9134 17.0105 40.3873 18.5973 39.7769 19.6133L41.2652 18.7725C42.2549 24.6664 46.0575 28.9038 50.4184 28.9038Z" fill="#3F3D56"/>
<path d="M48.8394 12.3966C48.8394 12.8723 48.5148 13.2593 48.1159 13.2593H38.7117C38.3128 13.2593 37.9883 12.8723 37.9883 12.3966C37.9883 11.9209 38.3128 11.5339 38.7117 11.5339H48.1159C48.5148 11.5339 48.8394 11.9209 48.8394 12.3966Z" fill="#65A0D4"/>
<path d="M6.49305 60.4517C6.34989 59.8572 6.10473 59.3502 5.81286 58.9885L4.75241 53.2236L2.44092 53.8989L3.76551 59.674C3.6784 60.1627 3.69583 60.746 3.839 61.3405C4.16605 62.6986 5.0253 63.6006 5.7582 63.3551C6.4911 63.1097 6.8201 61.8098 6.49305 60.4517Z" fill="#FFB6B6"/>
<path d="M6.17347 22.636C6.17347 22.636 3.67683 22.5332 2.23003 24.4742C0.572423 26.8889 -0.560622 36.3505 0.289959 36.9876L2.59449 56.5026L5.8807 55.9641L5.0373 32.5491L6.17347 22.636Z" fill="#C5D3E8"/>
<path d="M23.0281 55.5306L22.43 79.3486H13.8395L13.4923 70.1676L11.9659 79.3486H2.75879L3.90719 63.5659L5.09357 60.2468L5.89655 57.9973L23.0281 55.5306Z" fill="#2F2E41"/>
<path d="M16.2051 18.7454L10.237 18.3141L8.24763 21.3335C6.5295 21.7722 4.97764 22.3385 3.9072 23.2745C4.1633 32.3166 3.60073 44.074 5.89657 46.3511L3.85791 63.5104C3.85791 63.5104 4.68005 62.6704 6.05339 62.967C6.52784 63.0694 7.10058 64.344 7.68357 64.4212C12.1632 65.0147 19.4276 64.4044 23.0281 55.5306L21.6306 42.6848L21.9923 23.9215C20.8616 22.8556 19.4558 22.1629 17.8327 21.7648L16.2051 18.7454Z" fill="#C5D3E8"/>
<path d="M27.6943 13.4963C27.7591 14.244 27.6768 14.9471 27.4875 15.5109L28.4816 22.5874L25.6441 23.0531L24.9412 15.8245C24.6592 15.3188 24.4582 14.6505 24.3934 13.9028C24.2455 12.1946 24.8645 10.7189 25.776 10.6066C26.6875 10.4944 27.5464 11.7881 27.6943 13.4963Z" fill="#FFB6B6"/>
<path d="M18.2606 24.4621C17.9635 24.9849 18.0463 25.5724 17.9754 26.2784C17.6742 29.2754 22.4902 38.1316 25.8226 39.1513C26.2598 39.2851 26.5089 39.8476 26.9503 39.9607C28.2578 40.2958 29.4751 39.0583 29.4046 37.4657L28.4994 17.04L24.6966 18.5868L24.94 29.1914C24.9157 26.9945 23.2241 24.7576 21.9428 23.8272C21.9428 23.8272 19.3474 22.5499 18.2606 24.4621Z" fill="#C5D3E8"/>
<path d="M13.8404 17.7559C16.7438 17.7559 19.0974 14.9492 19.0974 11.4869C19.0974 8.02463 16.7438 5.2179 13.8404 5.2179C10.9371 5.2179 8.5835 8.02463 8.5835 11.4869C8.5835 14.9492 10.9371 17.7559 13.8404 17.7559Z" fill="#FFB6B6"/>
<path d="M18.737 6.88359C18.6917 6.89654 19.4289 6.03964 19.4604 6.02091C20.1838 5.58957 19.4405 9.80591 18.9178 9.68729C17.6319 9.39613 17.0767 8.81814 16.5776 10.261C16.4383 10.6621 16.3515 11.115 16.0802 11.4019C15.7077 11.7922 15.0892 11.7599 14.7854 12.2257C14.5412 12.601 14.6117 13.1531 14.7926 13.5758C14.9734 14.0007 15.2483 14.3608 15.4129 14.7943C15.5974 15.2818 14.8107 16.8324 14.5105 17.7037V17.7059L14.5087 17.711C14.4289 17.9395 14.2393 17.2812 14.0392 17.2155C13.7997 17.1368 13.4469 17.8112 13.0655 17.6886C13.0636 17.6886 13.0618 17.6865 13.06 17.6865C12.6965 17.5657 12.2914 17.4363 11.8899 17.3069H11.8881C10.7578 16.9403 10.472 17.4665 10.4178 17.4514L9.71609 16.5758C9.47528 16.3667 9.5025 15.6917 9.33269 15.5104C9.19382 15.3621 8.84761 15.7047 8.74558 15.5622C8.24528 14.8634 8.13017 14.1644 7.83524 12.7843C7.56577 11.5226 7.00695 7.74627 8.15535 7.57588C9.23864 7.41413 8.44652 5.61545 9.53705 5.68231C9.47195 5.35449 9.59312 5.00294 9.79025 4.76139C9.98556 4.51769 10.246 4.36671 10.5082 4.23732C11.8013 3.60757 11.5861 3.06625 12.9497 3.43288C13.0854 3.20642 14.8247 2.61606 15.0706 2.69156C15.0887 2.69586 14.6913 3.6162 15.6625 3.43288C15.6263 3.69816 16.1557 3.1229 16.205 4.07988C17.2408 3.33857 17.7983 5.11294 17.8327 5.3739C17.8779 5.69957 17.4656 5.5335 17.7405 5.5831C17.9032 5.61329 18.1817 6.00797 18.1546 6.20422C18.2722 6.01443 18.3897 5.8268 18.5091 5.63701C18.5308 5.63917 18.5507 5.64349 18.5724 5.64779C19.1222 5.77289 18.4919 7.9162 18.5145 7.24807C18.5561 6.02091 19.2849 6.73909 18.737 6.88359Z" fill="#2F2E41"/>
<path d="M85.7903 5.59833C85.5961 7.50211 85.3839 9.40328 85.1537 11.3014C85.0602 12.0723 84.9614 12.853 84.7013 13.5675C84.5238 14.0552 84.2751 14.5006 84.0278 14.943C83.7356 15.4658 83.4385 15.9953 83.0417 16.4086C82.6448 16.8218 82.1293 17.112 81.604 17.0634C82.9977 15.9446 83.9344 14.0523 84.0824 12.0566C84.152 11.1185 84.0565 10.1755 84.0382 9.23398C84.0199 8.29246 84.086 7.31817 84.4503 6.48257C84.8145 5.64697 85.5341 4.97808 86.3235 5.00183L85.7903 5.59833Z" fill="#2F2E41"/>
<path d="M71.6654 46.203C70.5314 47.2998 69.1376 47.4913 68.5523 46.6308C67.967 45.7702 68.4118 44.1834 69.5458 43.0865C70.0422 42.6064 70.5884 42.2998 71.0948 42.1789L75.9489 37.6031L77.701 40.3653L72.7298 44.583C72.5261 45.1488 72.1618 45.7229 71.6654 46.203Z" fill="#A0616A"/>
<path d="M72.5825 39.9912L79.8153 31.8069L80.5387 31.1599C80.5387 31.1599 84.6906 26.3362 85.7657 26.2257C86.2211 26.179 86.6765 26.3144 87.0601 26.6116C87.6798 27.0908 88.0008 27.8797 88.0008 28.6748C88.0008 29.3391 87.7764 30.0067 87.3171 30.4983L80.6955 37.5872L77.8785 40.6027L74.3752 44.354L74.0191 43.4889L72.8148 40.5575L72.5825 39.9912Z" fill="#C9E9D2"/>
<path d="M88.048 34.4524L80.8062 37.0975C82.0186 37.5048 82.5262 46.3151 81.3979 46.5888C81.3979 46.5888 93.4 47.6068 92.7451 46.5888C91.9468 45.3478 93.0175 37.1011 93.528 37.0975L88.048 34.4524Z" fill="#A0616A"/>
<path d="M97.6841 79.3493L97.0511 70.2394C97.0511 66.9806 96.8739 64.0367 96.59 61.412C95.4524 50.8766 92.6004 45.4762 92.6004 45.4762H81.9302C81.9157 45.4956 81.9012 45.5107 81.8868 45.5301L81.885 45.5323C79.3675 48.6875 78.0582 56.622 77.4758 61.412C77.1991 63.6917 77.087 65.2596 77.087 65.2596L76.0435 76.3191L76.7976 79.3493H83.0062L82.9086 78.7001L86.9036 61.412L86.9524 61.2007L86.9958 61.412L90.6996 79.3493L97.6841 79.3493Z" fill="#2F2E41"/>
<path d="M82.149 29.1973L84.4037 23.7695L86.3035 19.8261L87.8399 17.959H92.0444L92.4359 19.8261L94.7844 21.3821L95.6151 29.1618L92.6556 46.0412C89.1327 42.6181 81.8718 41.67 81.8718 41.67L80.6953 37.5873L79.9177 32.6689L79.8237 32.0808L82.149 29.1973Z" fill="#C9E9D2"/>
<path d="M81.8787 39.0159C80.4191 38.9665 79.2573 38.0286 79.2836 36.9209C79.31 35.8133 80.5145 34.9554 81.9741 35.0048C82.613 35.0265 83.1948 35.2184 83.6449 35.5202L89.8272 35.822L89.6467 39.2787L83.5713 38.6143C83.1076 38.8852 82.5175 39.0375 81.8787 39.0159Z" fill="#A0616A"/>
<path d="M89.7851 27.2171L95.6168 34.1216L85.4588 35.3621L83.0981 39.3218L97.2567 39.8817C98.5341 40.4242 99.8949 39.3714 100 37.7592C100.035 37.2148 97.1267 23.4016 95.3658 22.1192C93.302 20.6162 89.7851 27.2171 89.7851 27.2171Z" fill="#C9E9D2"/>
<path d="M93.8356 11.1841C93.878 8.04795 91.7805 5.46462 89.1506 5.41405C86.5208 5.36348 84.3545 7.86483 84.3121 11.001C84.2697 14.1371 86.3672 16.7204 88.9971 16.771C91.6269 16.8216 93.7932 14.3202 93.8356 11.1841Z" fill="#A0616A"/>
<path d="M99.528 28.7876C99.4086 29.3267 98.479 29.6049 98.262 30.2972C97.5711 30.7674 97.9455 26.9263 97.667 26.674C97.4518 26.482 97.3939 26.9457 97.3451 26.5467C97.1606 25.05 95.9543 25.3843 95.0609 25.1427C94.9597 24.9077 94.8819 24.679 94.8313 24.4569C94.7408 24.0558 94.3285 23.9156 94.0843 24.211C93.974 24.0946 93.8944 23.6826 93.8167 23.2707C93.7606 22.9709 93.7045 22.6712 93.6394 22.4814L93.0173 20.8078L93.2181 22.0543C92.8111 21.8796 92.4006 22.0608 92.1637 21.4612C91.8599 20.6913 91.7387 19.7898 91.9593 18.981C92.1601 18.2478 92.4983 16.7791 92.8799 15.5627C92.4476 15.9358 91.9286 16.2075 91.3264 16.3434C91.5398 15.8603 91.7568 15.3686 91.8472 14.8316C91.9358 14.2946 91.8816 13.6971 91.5958 13.2701C91.3607 12.9186 91.0135 13.007 90.7205 12.7245C90.4926 12.5045 90.2955 11.9416 90.1581 11.6332C90.744 13.956 91.1871 16.4232 90.442 18.6403C89.9266 20.1759 88.8415 21.4246 87.5393 21.9918C88.232 21.4009 88.9084 20.7711 89.4274 19.9688C89.9826 19.1083 90.3443 18.0213 90.234 16.943C90.0604 15.25 87.4272 9.89489 87.1035 8.84242C87.2807 9.87117 87.212 10.6735 86.7454 11.1156C86.6242 9.62316 85.2606 9.75902 84.5173 9.16162C84.5173 9.16162 83.9422 5.28603 85.2914 5.26231C85.9424 5.25153 86.6242 3.42696 87.2156 3.1013C88.1597 2.58154 88.7384 2.93524 89.7855 2.97406C90.8308 3.01072 91.8345 3.54773 92.4729 4.53334C92.8075 5.0488 92.9305 4.63902 93.4333 4.96037C93.9107 5.26447 94.2326 4.98194 94.7734 5.00134C95.8567 5.03586 96.9074 5.726 97.5151 6.79356C98.1227 7.86328 98.4971 7.76407 98.2566 9.41826C98.253 9.43767 98.253 9.47649 98.2566 9.53472C98.3886 12.14 98.0504 14.7518 97.1841 17.15C96.9165 17.8876 98.2257 18.6489 98.2239 19.5698C98.2221 20.6395 96.7772 21.6144 96.911 22.0716C97.2945 24.2736 99.4484 23.784 98.9402 27.4698C98.8986 27.7696 99.6075 28.4274 99.528 28.7876Z" fill="#2F2E41"/>
<path d="M86.3345 22.0437C86.3742 22.0286 86.414 22.0114 86.4538 21.9919C86.4032 22.0351 86.3543 22.0761 86.3037 22.1193L86.3345 22.0437Z" fill="#2F2E41"/>
<path d="M93.0424 3.8735C92.5243 3.96531 91.998 2.94033 92.2922 1.51892C92.9332 2.68776 93.2608 4.00357 93.3124 5.44889L92.9669 5.57652L93.0424 3.8735Z" fill="#C9E9D2"/>
<path d="M95.6895 2.54675C95.336 4.04062 93.5407 5.04039 93.2236 4.52051L93.1873 5.41136L92.9653 5.07085C93.6092 3.92901 94.4869 3.05307 95.6895 2.54675Z" fill="#C9E9D2"/>
<path d="M56.2666 42.8306C56.2666 42.3343 56.6052 41.9304 57.0215 41.9304H69.1539C69.5701 41.9304 69.9087 42.3343 69.9087 42.8306C69.9087 43.327 69.5701 43.7308 69.1539 43.7308H57.0215C56.6052 43.7308 56.2666 43.327 56.2666 42.8306Z" fill="#E6E7E8"/>
<path d="M56.2666 48.8693C56.2666 48.373 56.6052 47.9691 57.0215 47.9691H69.1539C69.5701 47.9691 69.9087 48.373 69.9087 48.8693C69.9087 49.3657 69.5701 49.7695 69.1539 49.7695H57.0215C56.6052 49.7695 56.2666 49.3657 56.2666 48.8693Z" fill="#E6E7E8"/>
<path d="M47.5532 46.7775C47.137 46.7775 46.7983 46.3737 46.7983 45.8774C46.7983 45.381 47.137 44.9772 47.5532 44.9772H69.1538C69.57 44.9772 69.9086 45.381 69.9086 45.8774C69.9086 46.3737 69.57 46.7775 69.1538 46.7775H47.5532Z" fill="#E6E7E8"/>
<path d="M45.9474 38.1621L44.459 37.3213C45.0695 38.3372 45.5955 39.924 45.8771 41.1866C46.3539 40.0105 47.1226 38.5714 47.8834 37.7117L46.3104 38.1943C47.2797 32.5291 50.9255 28.4621 55.1005 28.4621V28.0308C50.7396 28.0308 46.9371 32.2681 45.9474 38.1621Z" fill="#3F3D56"/>
<path d="M52.7981 46.794H43.3938C42.9949 46.794 42.6704 46.407 42.6704 45.9313C42.6704 45.4556 42.9949 45.0686 43.3938 45.0686H52.7981C53.197 45.0686 53.5215 45.4556 53.5215 45.9313C53.5215 46.407 53.197 46.794 52.7981 46.794Z" fill="#65A0D4"/>
<path d="M55.5447 29.1511C55.7952 27.3102 54.7469 25.5757 53.2032 25.2769C51.6595 24.9782 50.2051 26.2284 49.9546 28.0692C49.7041 29.9101 50.7524 31.6446 52.2961 31.9434C53.8398 32.2421 55.2942 30.9919 55.5447 29.1511Z" fill="#3F3D56"/>
<path d="M37.3769 4.1656C38.3415 4.1656 39.1235 3.2331 39.1235 2.0828C39.1235 0.932502 38.3415 0 37.3769 0C36.4123 0 35.6304 0.932502 35.6304 2.0828C35.6304 3.2331 36.4123 4.1656 37.3769 4.1656Z" fill="#E6E7E8"/>
<path d="M57.8134 40.1824C58.778 40.1824 59.56 39.2499 59.56 38.0996C59.56 36.9493 58.778 36.0168 57.8134 36.0168C56.8489 36.0168 56.0669 36.9493 56.0669 38.0996C56.0669 39.2499 56.8489 40.1824 57.8134 40.1824Z" fill="#E6E7E8"/>
</g>
<defs>
<clipPath id="clip0_28_743">
<rect width="100" height="79.3493" fill="white"/>
</clipPath>
</defs>
</svg>
