<svg width="100" height="80" viewBox="0 0 100 80" fill="none" xmlns="http://www.w3.org/2000/svg">
<g clip-path="url(#clip0_28_786)">
<path d="M40.3875 63.9632C40.201 63.7241 39.3939 63.9801 39.2455 63.7631C39.0976 63.5469 39.8475 63.2174 40.2759 62.4648C40.3532 62.3291 40.8401 61.4738 40.4797 61.2099C39.7965 60.7096 36.6702 62.774 35.5762 62.0984C35.3361 61.9502 35.1684 61.6542 34.4417 61.1737C34.1526 60.9825 33.9778 60.8962 33.8086 60.9283C33.5686 60.9739 33.5495 61.2181 33.2921 61.6982C32.9061 62.4183 32.6778 62.3749 32.4529 62.9494C32.2859 63.3759 32.324 63.6238 32.1276 63.6721C31.8495 63.7405 31.5936 63.2881 31.2413 63.3286C30.8817 63.37 30.6643 63.8967 30.5957 64.291C30.4668 65.0311 30.8244 65.5194 31.0225 66.0329C31.2379 66.5909 31.3657 67.4395 30.8684 68.6409L25.9458 79.1831C27.0326 77.0199 30.1792 71.0899 31.5014 68.8863C31.8831 68.2501 32.3046 67.6049 33.17 67.3502C34.0031 67.105 35.1473 67.2514 36.6061 66.9843C36.7764 66.9531 37.2492 66.8617 37.3087 66.6503C37.3579 66.4756 37.0798 66.378 37.1226 66.2144C37.1799 65.9949 37.7267 65.9922 38.3987 65.7389C38.8726 65.5603 39.1678 65.3479 39.4217 65.1653C39.4982 65.1102 40.6359 64.2815 40.3875 63.9632Z" fill="#F2F2F2"/>
<path d="M21.0209 69.5131C20.8127 69.5137 20.7452 69.8886 20.5622 69.8814C20.3799 69.8742 20.3836 69.4993 20.0212 69.1224C19.9559 69.0544 19.5441 68.626 19.2697 68.6843C18.7495 68.7948 19.1805 70.5567 18.4286 70.77C18.2636 70.8168 18.0241 70.7939 17.5042 70.9264C17.2973 70.9791 17.1911 71.0194 17.1631 71.0918C17.1232 71.1945 17.2754 71.272 17.5112 71.5066C17.8648 71.8584 17.7708 71.931 18.0769 72.1807C18.3041 72.3661 18.4752 72.4234 18.4497 72.5106C18.4136 72.6341 18.0477 72.599 17.9722 72.7421C17.8951 72.8882 18.1725 73.1213 18.4073 73.2607C18.848 73.5223 19.2665 73.5298 19.6552 73.604C20.0777 73.6847 20.6625 73.8818 21.2948 74.414L26.6816 79.2922C25.5984 78.2626 22.6772 75.3777 21.6359 74.2486C21.3352 73.9227 21.0402 73.5793 21.1254 73.183C21.2075 72.8014 21.6322 72.4168 21.8806 71.7955C21.9096 71.7229 21.987 71.5202 21.8677 71.437C21.769 71.3682 21.6258 71.4438 21.5325 71.3806C21.4073 71.2959 21.5633 71.0911 21.5937 70.7674C21.6151 70.539 21.5631 70.3676 21.5184 70.2202C21.5049 70.1758 21.2981 69.5123 21.0209 69.5131Z" fill="#F2F2F2"/>
<path d="M25.1753 70.2218L25.0498 69.3705L25.1071 69.306C25.3724 69.0076 25.5076 68.7162 25.5092 68.4395C25.5094 68.3956 25.5067 68.3516 25.504 68.3068C25.4932 68.1292 25.4797 67.9085 25.6311 67.6512C25.716 67.5077 25.9545 67.1756 26.313 67.2167C26.4095 67.227 26.4825 67.2607 26.538 67.3002C26.5461 67.2903 26.5545 67.2804 26.5634 67.2697C26.675 67.1403 26.7635 67.0848 26.8486 67.0313C26.9141 66.9902 26.9817 66.9479 27.0876 66.8476C27.1341 66.8036 27.1704 66.765 27.2009 66.7325C27.2937 66.6343 27.4148 66.5171 27.6284 66.5192C27.8566 66.5274 27.9761 66.6709 28.0553 66.7658C28.1967 66.9352 28.2608 67.0572 28.3033 67.1382C28.3187 67.1678 28.3362 67.2011 28.3452 67.2114C28.4187 67.2936 29.0165 67.2167 29.2417 67.1888C29.7476 67.1246 30.1854 67.0692 30.3657 67.3117C30.495 67.4851 30.399 67.7145 30.0718 68.0117C29.9699 68.1041 29.8615 68.1744 29.7652 68.2295C29.845 68.2657 29.9163 68.3212 29.9453 68.4083C30.0134 68.6146 29.7801 68.8214 29.252 69.0236C29.1209 69.0742 28.9443 69.1416 28.6969 69.1741C28.5804 69.1893 28.4755 69.193 28.3857 69.195C28.3838 69.2345 28.3717 69.2772 28.34 69.3212C28.2473 69.4507 28.0543 69.5123 27.7633 69.4975C27.4432 69.4848 27.1796 69.4384 26.9471 69.3977C26.744 69.3623 26.5691 69.3323 26.4317 69.3393C26.177 69.3549 25.9807 69.5099 25.7504 69.7109L25.1753 70.2218Z" fill="#F2F2F2"/>
<path d="M25.757 65.1535L24.7056 65.4616L24.6089 65.4358C24.1619 65.3165 23.7567 65.291 23.4043 65.36C23.3483 65.371 23.293 65.3841 23.2367 65.3975C23.0134 65.4505 22.736 65.5164 22.3701 65.4703C22.166 65.4443 21.6829 65.3532 21.6443 65.0792C21.6329 65.0056 21.6573 64.9434 21.6934 64.8926C21.6788 64.8891 21.6641 64.8855 21.6483 64.8816C21.4552 64.8324 21.3621 64.7814 21.2725 64.7324C21.2036 64.6947 21.1326 64.6557 20.9781 64.6032C20.9103 64.5802 20.852 64.5634 20.8029 64.5491C20.6543 64.5059 20.4745 64.4465 20.423 64.2889C20.3756 64.1191 20.5278 63.9948 20.6285 63.9125C20.8082 63.7656 20.9473 63.6875 21.0396 63.6357C21.0733 63.6169 21.1112 63.5955 21.122 63.5864C21.208 63.5114 20.9585 63.0914 20.8658 62.9329C20.6559 62.5772 20.4743 62.2694 20.7372 62.0753C20.9251 61.9363 21.2413 61.9487 21.7025 62.1139C21.846 62.1654 21.963 62.2273 22.0575 62.2841C22.0833 62.2162 22.1358 62.1497 22.2394 62.1063C22.4847 62.0039 22.8069 62.123 23.1982 62.4599C23.2958 62.5435 23.4264 62.6562 23.5305 62.8299C23.5794 62.9117 23.6107 62.9879 23.6361 63.0534C23.6868 63.0448 23.7443 63.0429 23.8083 63.055C23.9966 63.0903 24.124 63.2166 24.179 63.4343C24.2439 63.6729 24.2517 63.8785 24.2589 64.0598C24.2654 64.2181 24.2716 64.3543 24.3153 64.4535C24.3998 64.6368 24.6468 64.7418 24.961 64.8602L25.757 65.1535Z" fill="#F2F2F2"/>
<path d="M25.1753 62.6457L25.0498 61.7945L25.1071 61.7299C25.3724 61.4315 25.5076 61.1401 25.5092 60.8635C25.5094 60.8195 25.5067 60.7755 25.504 60.7307C25.4932 60.5532 25.4797 60.3324 25.6311 60.0751C25.716 59.9317 25.9545 59.5996 26.313 59.6407C26.4095 59.6509 26.4825 59.6846 26.538 59.7241C26.5461 59.7142 26.5545 59.7044 26.5634 59.6937C26.675 59.5642 26.7635 59.5087 26.8486 59.4553C26.9141 59.4142 26.9817 59.3719 27.0876 59.2716C27.1341 59.2276 27.1704 59.1889 27.2009 59.1565C27.2937 59.0582 27.4148 58.9411 27.6284 58.9431C27.8566 58.9514 27.9761 59.0948 28.0553 59.1898C28.1967 59.3591 28.2608 59.4812 28.3033 59.5622C28.3187 59.5918 28.3362 59.625 28.3452 59.6353C28.4187 59.7175 29.0165 59.6407 29.2417 59.6127C29.7476 59.5486 30.1854 59.4931 30.3657 59.7356C30.495 59.9091 30.399 60.1384 30.0718 60.4356C29.9699 60.5281 29.8615 60.5984 29.7652 60.6535C29.845 60.6896 29.9163 60.7451 29.9453 60.8323C30.0134 61.0386 29.7801 61.2453 29.252 61.4476C29.1209 61.4981 28.9443 61.5655 28.6969 61.598C28.5804 61.6132 28.4755 61.6169 28.3857 61.619C28.3838 61.6584 28.3717 61.7012 28.34 61.7452C28.2473 61.8746 28.0543 61.9363 27.7633 61.9215C27.4432 61.9087 27.1796 61.8623 26.9471 61.8216C26.744 61.7863 26.5691 61.7563 26.4317 61.7632C26.177 61.7789 25.9807 61.9338 25.7504 62.1348L25.1753 62.6457Z" fill="#F2F2F2"/>
<path d="M26.3211 79.1692L26.0865 79.0574L25.8128 79.0813C25.8085 79.0619 25.7936 79.0175 25.7712 78.9481C25.6487 78.5675 25.2753 77.4092 24.9639 75.585C24.7465 74.3116 24.6234 73.0025 24.598 71.6933C24.5726 70.3821 24.6543 69.3895 24.7197 68.5917C24.7692 67.9899 24.8292 67.417 24.8881 66.8588C25.045 65.3675 25.1929 63.9589 25.0828 62.3995C25.0585 62.0513 25.0074 61.3267 24.4504 60.5556C24.1273 60.1084 23.6823 59.7113 23.1274 59.3759L23.4724 59.0463C24.0848 59.417 24.5772 59.8568 24.936 60.3534C25.5535 61.2083 25.6092 61.9979 25.636 62.3773C25.7479 63.9643 25.5984 65.3865 25.44 66.8921C25.3816 67.4482 25.3216 68.0187 25.2723 68.618C25.2075 69.4084 25.1266 70.3924 25.1518 71.6868C25.1766 72.9803 25.2983 74.2734 25.5127 75.5308C25.8204 77.3319 26.1884 78.4729 26.3092 78.8478C26.3736 79.048 26.3871 79.0899 26.3211 79.1692Z" fill="#F2F2F2"/>
<path d="M22.1116 60.0447C22.0889 60.0447 22.0659 60.0443 22.0427 60.043C21.5712 60.0237 21.1345 59.8091 20.7446 59.4055C20.5618 59.2156 20.4683 58.999 20.2817 58.567C20.2528 58.5004 20.1122 58.1625 20.0268 57.6977C19.9708 57.3939 19.9778 57.2669 20.057 57.1547C20.1449 57.0297 20.2871 56.9426 20.4472 56.8838C20.4402 56.8435 20.4458 56.802 20.4688 56.7597C20.5632 56.5842 20.8141 56.6072 20.9498 56.6183C21.0185 56.6249 21.1042 56.6335 21.1967 56.6298C21.3422 56.6245 21.4203 56.5916 21.5387 56.5422C21.652 56.495 21.7929 56.4362 22.0019 56.4037C22.4139 56.3384 22.7592 56.4272 22.873 56.4563C23.4719 56.608 23.7672 56.9619 24.1089 57.3717C24.1771 57.4539 24.4109 57.7531 24.5653 58.1634C24.6767 58.4593 24.661 58.5908 24.6275 58.6887C24.5594 58.8896 24.3985 59.0047 23.99 59.2588C23.5633 59.5247 23.3492 59.6579 23.1653 59.7388C22.7373 59.9267 22.4685 60.0447 22.1116 60.0447Z" fill="#F2F2F2"/>
<path d="M48.0496 78.4489L49.4997 78.4487L50.1895 74.1973L48.0493 74.1974L48.0496 78.4489Z" fill="#FFB6B6"/>
<path d="M53.018 78.4239C53.0631 78.4817 53.087 78.6682 53.087 78.7355C53.087 78.9421 52.8666 79.1095 52.5948 79.1095H48.1041C47.9186 79.1095 47.7683 78.9953 47.7683 78.8543V78.7122C47.7683 78.7122 47.5461 78.2851 48.0035 77.7586C48.0035 77.7586 48.572 78.1709 49.4214 77.5252L49.6719 77.1803L51.485 78.1883L52.4901 78.2823C52.7099 78.3029 52.9049 78.2791 53.018 78.4239Z" fill="#2F2E41"/>
<path d="M43.6302 78.4489L45.0803 78.4487L45.7701 74.1973L43.6299 74.1974L43.6302 78.4489Z" fill="#FFB6B6"/>
<path d="M48.5986 78.4239C48.6437 78.4817 48.6675 78.6682 48.6675 78.7355C48.6675 78.9421 48.4472 79.1095 48.1754 79.1095H43.6846C43.4992 79.1095 43.3489 78.9953 43.3489 78.8543V78.7122C43.3489 78.7122 43.1267 78.2851 43.5841 77.7586C43.5841 77.7586 44.1525 78.1709 45.002 77.5252L45.2524 77.1803L47.0656 78.1883L48.0706 78.2823C48.2905 78.3029 48.4855 78.2791 48.5986 78.4239Z" fill="#2F2E41"/>
<path d="M49.7248 60.0885L51.2716 64.6414L50.4982 76.3331L46.8523 76.5186L46.6313 69.7882L46.1893 76.7166L42.4329 76.1227L42.2119 60.8803L49.7248 60.0885Z" fill="#2F2E41"/>
<path d="M34.7513 44.7593C34.2522 44.0936 33.3958 43.7498 32.8385 43.9913C32.2812 44.2328 32.2341 44.9681 32.7335 45.6339C32.9282 45.902 33.2045 46.1307 33.5393 46.301L35.7007 49.1012L37.4079 48.3023L35.0959 45.6265C35.0738 45.3207 34.9556 45.0233 34.7513 44.7593Z" fill="#FFB6B6"/>
<path d="M44.574 54.6448C44.574 54.6448 42.5255 56.7909 41.2725 56.024C40.0196 55.2571 33.0972 46.636 33.0972 46.636L35.8444 45.5168L44.574 54.6448Z" fill="#E2E1E1"/>
<path d="M42.6538 52.0265L45.3054 49.0032L47.9571 49.843L47.2941 52.5303L42.6538 52.0265Z" fill="#FFB6B6"/>
<path d="M42.8752 51.3546L47.5156 51.1866L50.6091 51.8585L51.272 64.2875L41.9913 63.6157V57.0613L40.6655 53.706L42.8752 51.3546Z" fill="#E2E1E1"/>
<path d="M50.533 59.7386C50.37 59.3771 50.305 58.9954 50.3471 58.6146C50.4658 57.54 50.4881 55.4344 49.0471 54.4832L48.2332 53.8129C48.2162 53.799 48.1972 53.7871 48.1799 53.7734L49.5266 51.3673L48.7131 51.1044L47.4632 53.3376C46.9088 53.0812 46.2693 52.9392 45.6078 52.9392C44.8439 52.9392 44.1136 53.1286 43.5102 53.462L42.7478 51.3391L41.895 51.5161L42.8482 53.9371C42.8136 53.9692 42.7757 53.9988 42.7429 54.0323L42.2772 54.5073C42.1638 54.623 42.0387 54.7305 41.9031 54.8314C41.6173 55.0441 41.0596 55.5608 41.0542 56.3562C41.0523 56.6283 40.9788 56.8973 40.8697 57.1564L40.3162 58.4712C40.2642 58.5947 40.2234 58.7204 40.1957 58.8482C39.9517 59.9741 39.1069 65.2782 44.8805 65.172C50.2626 65.0731 50.6168 62.5821 50.5855 61.7547C50.5786 61.5752 50.5999 61.397 50.6439 61.2206C50.7247 60.897 50.7973 60.3243 50.533 59.7386Z" fill="#3F3D56"/>
<path d="M74.847 6.04932L75.3502 11.9559L69.0215 13.0597L69.4623 8.28396L74.847 6.04932Z" fill="#FFB6B6"/>
<path d="M75.3289 77.834L72.4762 77.8338L71.1191 69.4701L75.3294 69.4703L75.3289 77.834Z" fill="#FFB6B6"/>
<path d="M65.5551 77.7848C65.4663 77.8985 65.4194 78.2655 65.4194 78.3977C65.4194 78.8042 65.8529 79.1337 66.3876 79.1337H75.2221C75.5869 79.1337 75.8826 78.9089 75.8826 78.6316V78.3521C75.8826 78.3521 76.3196 77.5118 75.4199 76.4761C75.4199 76.4761 74.3016 77.2871 72.6306 76.0169L72.1378 75.3384L68.5708 77.3213L66.5937 77.5063C66.1612 77.5467 65.7776 77.5 65.5551 77.7848Z" fill="#2F2E41"/>
<path d="M83.0628 77.834L80.2101 77.8338L78.853 69.4701L83.0633 69.4703L83.0628 77.834Z" fill="#FFB6B6"/>
<path d="M73.289 77.7848C73.2002 77.8985 73.1533 78.2655 73.1533 78.3977C73.1533 78.8042 73.5868 79.1337 74.1215 79.1337H82.956C83.3208 79.1337 83.6165 78.9089 83.6165 78.6316V78.3521C83.6165 78.3521 84.0535 77.5118 83.1537 76.4761C83.1537 76.4761 82.0355 77.2871 80.3644 76.0169L79.8717 75.3384L76.3047 77.3213L74.3276 77.5063C73.895 77.5467 73.5115 77.5 73.289 77.7848Z" fill="#2F2E41"/>
<path d="M84.859 38.0858C84.859 38.0858 87.2896 40.4373 86.8477 41.7809C86.4058 43.1246 83.3122 74.0293 83.3122 74.0293L78.8928 73.8613L76.2412 46.1479L75.5592 74.0293L71.3799 73.8613L66.0767 39.2615L84.859 38.0858Z" fill="#2F2E41"/>
<path d="M59.309 45.5833C58.8911 46.8007 57.726 47.6236 56.7068 47.4213C55.6876 47.2191 55.2004 46.0684 55.6186 44.8506C55.7769 44.3624 56.0867 43.9101 56.5221 43.5316L58.3783 38.3905L61.5337 39.104L59.3688 44.0965C59.5054 44.5886 59.4849 45.0985 59.309 45.5833Z" fill="#FFB6B6"/>
<path d="M69.7065 10.9509C73.1936 10.9509 76.0205 8.80217 76.0205 6.15159C76.0205 3.50101 73.1936 1.35229 69.7065 1.35229C66.2194 1.35229 63.3926 3.50101 63.3926 6.15159C63.3926 8.80217 66.2194 10.9509 69.7065 10.9509Z" fill="#FFB6B6"/>
<path d="M68.9491 12.2199L75.5781 11.2122L82.8701 14.0675L84.4169 32.3751L86.4056 39.2615L65.8555 39.4295L66.7394 30.1916L65.4136 15.5791L68.9491 12.2199Z" fill="#C9E9D2"/>
<path d="M67.4024 16.083C67.4024 16.083 63.8669 15.2432 62.5411 16.7548C61.2153 18.2665 58.7847 31.8712 58.7847 31.8712L56.354 42.1168L60.7734 42.6207L68.0653 24.6489L67.4024 16.083Z" fill="#C9E9D2"/>
<path d="M99.5612 39.695C100.282 40.8277 100.097 42.0284 99.1481 42.3768C98.1996 42.7251 96.8471 42.0892 96.1267 40.956C95.8307 40.5064 95.6807 40.0094 95.6893 39.5066L92.7168 34.6779L95.7277 33.6659L98.3384 38.5336C98.8621 38.8409 99.2814 39.2392 99.5612 39.695Z" fill="#FFB6B6"/>
<path d="M80.103 14.2416C80.103 14.2416 83.2781 12.7916 85.0356 14.0228C86.7932 15.2541 93.3774 28.0391 93.3774 28.0391L98.9191 37.5597L94.7809 38.8417L82.1172 22.6847L80.103 14.2416Z" fill="#C9E9D2"/>
<path d="M95.3855 79.1496C95.3855 79.2606 95.2684 79.3497 95.1225 79.3497H0.262953C0.11712 79.3497 0 79.2606 0 79.1496C0 79.0958 0.0265295 79.0488 0.0707121 79.0135H19.896C20.3181 79.0135 20.7313 78.9916 21.1379 78.9496H95.1225C95.2684 78.9496 95.3855 79.0387 95.3855 79.1496Z" fill="#3F3D56"/>
<path d="M56.5465 46.1126C56.9408 45.4075 57.7391 44.9906 58.3295 45.1814C58.9198 45.3722 59.0785 46.0984 58.6839 46.8038C58.5314 47.0872 58.2918 47.3387 57.9851 47.5373L56.2646 50.5089L54.4473 49.8654L56.3363 47.0043C56.3117 46.6986 56.3837 46.3928 56.5465 46.1126Z" fill="#FFB6B6"/>
<path d="M45.0554 51.2354C47.3 51.2354 49.1197 49.8523 49.1197 48.1461C49.1197 46.44 47.3 45.0569 45.0554 45.0569C42.8108 45.0569 40.9912 46.44 40.9912 48.1461C40.9912 49.8523 42.8108 51.2354 45.0554 51.2354Z" fill="#FFB6B6"/>
<path d="M50.167 51.8585L54.1444 50.6828L55.4702 47.1556L58.3428 47.9954L56.1331 53.0342L50.167 54.7667V51.8585Z" fill="#E2E1E1"/>
<path d="M44.5209 51.581L46.9449 50.0819C46.9449 50.0819 46.7155 47.8352 47.5869 47.6331C48.4583 47.431 49.3671 46.624 49.3671 46.624C49.3671 46.624 47.9248 44.1475 45.3861 44.5233C42.8474 44.8991 43.4267 44.3275 41.8622 44.9572C40.2977 45.587 39.9309 46.4273 40.1211 47.3202C40.3114 48.213 39.745 50.4313 41.6399 50.5455C43.5348 50.6597 44.5209 51.581 44.5209 51.581Z" fill="#2F2E41"/>
<path d="M65.882 7.22612C65.4212 6.58744 65.6605 6.28255 65.2447 6.03287C65.2447 6.03287 65.0775 5.9324 63.8181 5.80443C63.6977 4.23811 63.364 4.02878 63.364 4.02877C62.9794 3.78752 62.3674 3.82115 61.9773 3.93074C61.1524 4.1625 61.181 4.77308 60.6332 4.85633C59.8765 4.97132 61.9396 3.988 61.9154 2.94783C61.8957 2.09934 62.6953 1.32497 62.9738 1.38541C63.2499 1.44534 63.9904 0.834142 64.3521 0.866229C64.5991 0.888143 65.6465 0.615178 65.9161 0.657861C66.2105 0.70448 67.1502 1.15298 67.2004 1.06659C67.5492 0.466321 67.4838 0.289918 67.7433 0.12789C68.2031 -0.159221 68.8786 0.101181 69.962 0.284748C72.191 0.662438 72.6438 0.121325 73.7589 0.574447C74.3222 0.803343 74.7557 1.35472 75.5997 2.44814C76.78 3.97727 77.3701 4.74184 77.2856 5.58667C77.1995 6.44824 76.6565 6.36024 76.2815 7.6207C75.864 9.02379 76.3658 9.70744 75.6946 10.1307C75.1758 10.4579 70.8741 10.4831 70.3929 10.1391C69.5691 9.55014 70.8567 8.32785 69.982 7.32462C69.4451 6.70879 68.27 6.37792 67.6892 6.63094C67.0324 6.91703 67.2755 7.88859 66.8282 7.95216C66.4451 8.00659 65.9623 7.33742 65.882 7.22612Z" fill="#2F2E41"/>
<path d="M35.2803 46.27C36.1598 45.7052 35.9263 44.3957 34.7587 43.3451C34.2476 42.8853 33.6422 42.5513 33.0492 42.3684L32.3677 41.7706L23.5673 33.3891C23.5673 33.3891 18.6938 25.0513 17.2551 24.1505C15.8165 23.2497 14.1239 23.7187 14.1239 23.7187L12.8032 24.9607L21.0328 36.6023L29.4553 43.0451L30.5923 43.9461C30.7304 44.421 31.0625 44.9305 31.5736 45.3904C32.7412 46.441 34.4008 46.8348 35.2803 46.27Z" fill="#FFB6B6"/>
<path d="M18.6684 25.7008L20.8737 28.1593L24.0398 31.721L18.351 33.2168L13.3281 26.6657L18.6684 25.7008Z" fill="#E6E6E6"/>
<path d="M20.9071 17.3337L19.3098 21.9624L13.2202 21.0518C13.2202 21.0518 15.6161 17.7131 15.0171 16.1954L20.9071 17.3337Z" fill="#FFB6B6"/>
<path d="M14.4788 77.5855L18.1459 77.5852L19.8903 66.8337L14.478 66.834L14.4788 77.5855Z" fill="#FFB6B6"/>
<path d="M27.0426 77.5223C27.1568 77.6685 27.2171 78.1402 27.2171 78.3102C27.2171 78.8327 26.6598 79.2563 25.9724 79.2563H14.6159C14.1469 79.2563 13.7668 78.9673 13.7668 78.6109V78.2515C13.7668 78.2515 13.205 77.1713 14.3616 75.84C14.3616 75.84 15.7992 76.8825 17.9472 75.2497L18.5807 74.3774L23.166 76.9264L25.7075 77.1642C26.2636 77.2162 26.7566 77.1561 27.0426 77.5223Z" fill="#2F2E41"/>
<path d="M24.6613 46.4705L19.6081 72.6075H13.2683L14.1113 57.6879L14.555 49.8431L13.2683 46.1089C13.2683 46.1089 12.6817 45.2789 12.1875 44.2728C11.6304 43.1374 11.1904 41.7762 11.8436 41.1307C12.0839 40.8928 12.7088 40.7167 13.558 40.5855C14.0768 40.5049 14.6807 40.4422 15.3327 40.3935C19.0819 40.1115 24.4148 40.2876 24.4148 40.2876L24.5503 43.6882L24.6255 45.5871L24.6613 46.4705Z" fill="#2F2E41"/>
<path d="M8.01904 76.3072L11.6472 76.7124L15.4305 66.2682L10.0758 65.67L8.01904 76.3072Z" fill="#FFB6B6"/>
<path d="M20.4615 77.6338C20.5465 77.791 20.5158 78.2644 20.4833 78.4326C20.3833 78.9495 19.7509 79.307 19.0708 79.231L7.83507 77.9754C7.37113 77.9235 7.05031 77.5956 7.11852 77.243L7.18729 76.8874C7.18729 76.8874 6.83817 75.7566 8.23728 74.5673C8.23728 74.5673 9.46006 75.7576 11.8977 74.3797L12.6914 73.5868L16.7401 76.6156L19.2091 77.1319C19.7493 77.2448 20.2486 77.2399 20.4615 77.6338Z" fill="#2F2E41"/>
<path d="M24.7405 42.1116L24.0474 46.6486L20.2677 56.2091L14.0456 71.9491L7.77393 71.2486L13.4027 48.8686L12.8454 45.0311C12.8454 45.0311 12.6639 44.6496 12.4558 44.0912C12.0428 42.9864 11.5248 41.1872 12.0947 40.2694C12.1716 40.1447 12.2682 40.0364 12.3877 39.9488C12.6119 39.7835 13.0674 39.6832 13.6777 39.63C16.2287 39.4108 21.4823 40.0377 23.8201 40.3453L24.7405 42.1116Z" fill="#2F2E41"/>
<path d="M19.9087 20.5966L26.7969 27.1982L25.5605 34.081L24.5009 41.0844L12.0222 39.6427C12.0222 39.6427 14.7176 34.7104 15.0171 34.4828C15.3166 34.2551 16.0688 34.8174 15.543 34.081C15.0171 33.3446 14.4181 33.3446 14.9173 32.9652C15.4164 32.5858 11.0239 27.6535 11.0239 24.9977C11.0239 22.3418 13.1203 20.2172 13.1203 20.2172L19.9087 20.5966Z" fill="#C5D3E8"/>
<path d="M18.3019 18.2079C20.8646 18.2079 22.9421 16.6287 22.9421 14.6808C22.9421 12.7328 20.8646 11.1537 18.3019 11.1537C15.7391 11.1537 13.6616 12.7328 13.6616 14.6808C13.6616 16.6287 15.7391 18.2079 18.3019 18.2079Z" fill="#FFB6B6"/>
<path d="M18.0849 21.4244C18.0849 21.4244 18.7793 17.2483 18.9022 16.0339C19.0251 14.8194 21.2803 12.9233 21.2803 12.9233L22.8781 13.9042C22.8781 13.9042 24.23 13.9042 23.3082 12.4095C22.3865 10.9148 20.6658 10.6813 20.6658 10.6813C20.6658 10.6813 20.4815 8.71948 17.286 8.95303C14.0906 9.18658 12.6772 11.1484 12.6772 11.1484C12.6772 11.1484 12.4929 8.67277 10.465 10.4944C8.43713 12.3161 7.26956 13.0634 9.42034 13.6707C11.5711 14.2779 13.1688 13.8108 13.1688 13.8108C13.1688 13.8108 11.0795 14.1378 11.4482 15.2588C11.8169 16.3798 6.5936 21.4711 8.99018 22.0316C11.3868 22.5921 16.733 23.9467 17.3475 23.0592C17.962 22.1717 18.0849 21.4244 18.0849 21.4244Z" fill="#2F2E41"/>
<path d="M37.213 46.6198C38.0987 46.0607 37.8797 44.7497 36.7237 43.6918C36.2176 43.2286 35.6159 42.8908 35.025 42.7042L34.3502 42.102L25.6425 33.6648C25.6425 33.6648 20.861 25.2962 19.4324 24.3863C18.0037 23.4764 16.306 23.9346 16.306 23.9346L14.9717 25.1681L23.0726 36.8617L31.4238 43.3579L32.5508 44.2662C32.6837 44.742 33.0101 45.2536 33.5162 45.7166C34.6721 46.7746 36.3273 47.179 37.213 46.6198Z" fill="#FFB6B6"/>
<path d="M14.4658 23.2859C14.4658 23.2859 16.5975 31.6942 19.0232 32.9338L23.8569 30.0689C23.8569 30.0689 24.2799 30.055 23.4926 29.3791C22.7054 28.7031 22.9069 27.2516 22.9069 27.2516C22.9069 27.2516 23.2612 27.6 22.4903 27.1163C21.7195 26.6327 22.4371 23.3066 22.4371 23.3066L14.4658 23.2859Z" fill="#C5D3E8"/>
<path d="M49.6721 57.9766C49.5702 57.9766 49.4785 57.9228 49.4563 57.8439L49.2133 56.986C48.8562 55.7243 47.422 54.8029 45.7257 54.7454C44.1541 54.6918 42.6977 55.3994 42.1009 56.5053L41.4913 57.6348C41.4451 57.7208 41.3163 57.7616 41.203 57.7265C41.0901 57.6912 41.0362 57.5931 41.0826 57.5074L41.6922 56.3778C42.3598 55.1412 43.9867 54.3513 45.7456 54.4098C47.6423 54.4742 49.2459 55.5045 49.6453 56.9153L49.8883 57.7732C49.914 57.864 49.838 57.9533 49.7189 57.9728C49.7031 57.9753 49.6874 57.9766 49.6721 57.9766Z" fill="#FFB6B6"/>
<path d="M49.9328 60.709C49.9263 60.709 49.9196 60.7087 49.9129 60.7083L41.736 60.1536C41.6145 60.1453 41.5248 60.0637 41.5355 59.9712C41.5466 59.8788 41.6527 59.8109 41.7753 59.8187L49.9522 60.3734C50.0737 60.3817 50.1635 60.4633 50.1527 60.5558C50.1423 60.6432 50.0461 60.709 49.9328 60.709Z" fill="#FFB6B6"/>
</g>
<defs>
<clipPath id="clip0_28_786">
<rect width="100" height="79.3493" fill="white"/>
</clipPath>
</defs>
</svg>
