<svg width="100" height="80" viewBox="0 0 100 80" fill="none" xmlns="http://www.w3.org/2000/svg">
<path fill-rule="evenodd" clip-rule="evenodd" d="M100 16.6847V66.7386H86.8057L86.8141 79.2521L64.8371 66.7386H47.2555V16.6847H100ZM64.8371 0V12.5135H42.8601L42.86 52.5567L25.2785 62.5675L25.2868 50.054H12.0923V0H64.8371ZM76.2099 29.1982H71.0731L61.3207 54.2251H65.955L68.6536 47.0544H78.5549L81.2722 54.2251H86.1856L76.2099 29.1982ZM73.6043 33.384C74.006 34.6616 74.4314 35.9211 74.8806 37.1626L75.0746 37.6935L77.2893 43.628H69.9006L72.1154 37.6935C72.7358 36.0569 73.2321 34.6204 73.6043 33.384ZM36.2047 6.7532H31.8093L31.8092 8.83866L20.8208 8.83879V13.0099L37.2276 13.0101C36.964 16.5625 36.0143 19.7622 34.3799 22.6287C32.6052 20.3124 31.3827 17.7234 30.7049 14.8457L30.6614 14.6576L26.364 15.5335L26.6865 16.8069C27.6651 20.2927 29.3535 23.4338 31.7436 26.2122C29.1513 28.8668 25.4365 30.7288 20.5309 31.7899L20.344 31.8299L21.2975 35.9017L22.6096 35.602C27.7297 34.3398 31.816 32.2086 34.8159 29.2018C36.9185 30.9227 39.5239 32.5494 42.6316 34.0904L42.8599 34.203L42.8599 29.4531C40.7334 28.2907 38.9402 27.0955 37.48 25.8722C39.9037 22.1345 41.2821 17.9088 41.6178 13.2234L41.6324 13.0101L42.8599 13.0099V8.83866H36.2046L36.2047 6.7532Z" fill="#C5D3E8"/>
<path d="M36.738 42.2216C37.4936 42.424 38.2089 42.1923 38.3357 41.704C38.4625 41.2158 37.9528 40.6561 37.1969 40.4538C36.896 40.3687 36.5795 40.3581 36.2738 40.4227L33.0616 39.6062L32.7163 41.1447L35.9196 41.7863C36.1542 41.9957 36.4349 42.1449 36.738 42.2216Z" fill="#FFB6B6"/>
<path d="M19.0831 34.731C19.0831 34.731 18.4307 36.0022 19.3349 36.6292C20.2392 37.2562 27.7696 40.1622 27.7696 40.1622L35.2479 41.8144L35.5178 39.9693L28.7092 37.7609L23.0313 33.8842L19.0831 34.731Z" fill="#2F2E41"/>
<path d="M27.9881 75.76L29.2564 75.1808L27.2595 69.1208L25.3877 69.9755L27.9881 75.76Z" fill="#FFB6B6"/>
<path d="M33.5429 76.326C33.6443 76.5411 33.5761 76.7885 33.3907 76.8786L30.9013 78.0879C30.9013 78.0879 30.1851 77.2071 28.9835 77.2621L29.5885 78.7256L28.3043 79.3494L27.3762 76.9745C27.3762 76.9745 26.4529 75.9112 26.87 74.9358C27.287 73.9603 26.7504 74.3286 26.7504 74.3286L26.3604 72.7691L28.4101 72.0581L29.4773 74.2852L31.4641 76.0451L33.1719 76.0669C33.3239 76.0688 33.4697 76.1706 33.5429 76.326Z" fill="#2F2E41"/>
<path d="M2.89062 72.6312L4.02402 73.4494L8.1647 68.6368L6.49217 67.4292L2.89062 72.6312Z" fill="#FFB6B6"/>
<path d="M5.21771 77.7832C5.08615 77.9808 4.84142 78.0461 4.67109 77.9292L2.38491 76.3599C2.38491 76.3599 2.7714 75.2873 2.11728 74.2625L1.17936 75.5323L0 74.7228L1.54923 72.7092C1.54923 72.7092 1.98615 71.3629 3.02594 71.2351C4.06575 71.1074 3.48152 70.8235 3.48152 70.8235L4.60968 69.6935L6.25012 71.1296L4.89687 73.1902L4.4055 75.8203L5.25034 77.3272C5.32554 77.4614 5.31272 77.6406 5.21771 77.7832Z" fill="#2F2E41"/>
<path d="M22.9564 26.4926H17.001V34.796H22.9564V26.4926Z" fill="#2F2E41"/>
<path d="M21.6193 31.2383L18.3857 30.2623L17.7739 31.9481L17.6865 42.2404C17.6865 42.2404 22.3184 41.1757 23.3672 42.9502L23.7168 39.7561C23.7168 39.7561 24.8529 38.159 23.8916 36.1183C22.9302 34.0776 22.0239 33.1575 22.0239 33.1575L21.2697 32.7467L21.6193 31.2383Z" fill="#C9E9D2"/>
<path d="M17.9047 40.6875L17.4678 45.2126L23.2358 46.4547C23.2358 46.4547 22.7989 42.5508 23.3232 41.6635L17.9047 40.6875Z" fill="#FFB6B6"/>
<path d="M23.5858 46.3661C23.5858 46.3661 19.9153 43.6156 16.769 44.6803C16.769 44.6803 13.0548 47.0315 14.9775 51.113L12.0497 58.1667L5.49512 67.483L7.33041 69.7012L15.9825 60.5623L18.7791 56.6584L25.8581 71.9193L28.043 70.8546L25.3337 59.1427L23.7169 51.0242L23.5858 46.3661Z" fill="#2F2E41"/>
<path d="M15.0211 51.6008L10.6514 50.1812L14.8463 38.3805L14.4093 32.081L18.1104 31.0211L20.1774 40.3325L15.0211 51.6008Z" fill="#2F2E41"/>
<path d="M21.7822 33.4028L21.1216 32.7321L21.4162 32.1139C21.4162 32.1139 23.3233 34.1221 23.6729 34.6544C24.0225 35.1868 27.2869 48.5577 27.2869 48.5577L22.362 50.6252L23.3233 40.1265L23.6793 37.7651C23.7319 37.4159 23.673 37.0588 23.5113 36.746L21.7822 33.4028Z" fill="#2F2E41"/>
<path d="M20.1748 30.3989C21.7753 30.3989 23.0728 29.0817 23.0728 27.4568C23.0728 25.8319 21.7753 24.5146 20.1748 24.5146C18.5743 24.5146 17.2769 25.8319 17.2769 27.4568C17.2769 29.0817 18.5743 30.3989 20.1748 30.3989Z" fill="#FFB6B6"/>
<path d="M21.9772 26.2542C20.9829 25.581 19.2033 28.2771 18.6592 26.6198C18.5743 26.3614 18.3747 27.5046 18.3017 27.9047C18.209 28.4127 18.4436 28.8184 18.3017 28.9093C18.1413 29.012 17.7486 28.5535 17.6656 28.6222C17.5845 28.6895 17.8452 29.2224 18.3017 29.8422C18.9077 30.6648 19.2875 30.865 19.786 31.4209C20.2502 31.9384 21.109 32.8959 20.9876 33.7171C20.7594 35.2618 17.0443 36.4556 15.8985 35.2958C15.6242 35.0182 15.5705 34.3894 15.4744 33.1431C15.3314 31.2884 15.4394 29.8966 15.4744 29.4834C15.6203 27.7628 15.6933 26.9025 16.0399 26.1824C16.2612 25.7226 17.0067 24.174 18.6551 23.6709C20.4259 23.1304 22.5335 24.0116 23.1081 25.3213C23.2741 25.6998 23.1128 25.6594 23.3201 26.9C23.5656 28.3683 23.7245 29.2493 24.3804 29.7704C24.983 30.2491 25.448 29.9815 25.6527 30.3445C26.1836 31.2858 23.7198 34.2647 22.684 33.8607C22.0599 33.6172 22.0048 32.1654 22.0479 31.4926C22.1407 30.0439 22.8478 29.7364 22.8254 28.407C22.8194 28.0552 22.7984 26.8102 21.9772 26.2542Z" fill="#2F2E41"/>
<path d="M9.35192 50.84C9.22887 51.6235 9.52732 52.323 10.0184 52.4024C10.5096 52.4818 11.0073 51.9111 11.1303 51.1274C11.1837 50.815 11.1625 50.4941 11.0687 50.1917L11.5488 46.8655L10.0065 46.67L9.697 49.9699C9.51517 50.2278 9.39684 50.5262 9.35192 50.84Z" fill="#FFB6B6"/>
<path d="M14.9336 32.2588C14.9336 32.2588 13.6227 31.7264 13.0983 32.7024C12.574 33.6784 10.4765 41.5751 10.4765 41.5751L9.60254 49.2943L11.4378 49.383L12.9235 42.2849L16.1571 36.1628L14.9336 32.2588Z" fill="#2F2E41"/>
</svg>
