<svg width="247" height="622" viewBox="0 0 247 622" fill="none" xmlns="http://www.w3.org/2000/svg">
<path d="M182.01 73.6549L85.0732 85.7265L95.8999 182.918L192.837 170.847L182.01 73.6549Z" fill="#2F2E41"/>
<path d="M132.465 129.681C158.749 129.681 180.056 107.152 180.056 79.362C180.056 51.5717 158.749 29.0432 132.465 29.0432C106.181 29.0432 84.874 51.5717 84.874 79.362C84.874 107.152 106.181 129.681 132.465 129.681Z" fill="#FFB6B6"/>
<path d="M101.087 1.31704C71.4302 10.0223 74.1923 21.7112 65.2061 29.0767C49.3743 42.053 46.1424 74.2343 57.4462 93.7969C60.4664 99.0238 66.376 105.931 64.8224 114.378C63.6296 120.862 58.5951 125.226 57.6469 126.021C49.8858 132.528 54.6287 125.347 51.3552 130.388C47.7421 135.953 55.0037 142.274 52.046 151.802C49.4241 160.249 42.1045 160.475 41.7247 165.628C41.0705 174.503 61.6102 189.625 81.2497 185.789C98.736 182.374 110.072 164.991 112.804 149.61C114.634 139.307 113.996 122.056 105.525 114.684C104.336 113.65 101.129 111.187 97.8551 106.681C95.2644 103.115 91.8538 98.4206 93.1344 94.7275C94.4986 90.7931 99.7568 92.1197 102.572 88.1773C106.39 82.8309 100.314 75.3579 100.21 66.9719C100.034 52.7718 116.952 33.5596 137.172 33.7027C160.109 33.8649 171.296 58.8229 172.47 61.5564C174.904 67.2218 175.503 72.9215 176.701 84.3208C178.42 100.68 179.497 110.933 175.821 122.055C170.532 138.051 161.466 137.523 160.192 149.084C158.206 167.109 178.7 182.411 181.039 184.112C198.378 196.722 222.602 198.146 225.871 191.071C228.817 184.695 211.96 177.448 210.432 158.952C209.108 142.924 220.79 136.533 216.917 125.895C212.654 114.185 197.388 118.879 189.288 106.045C181.728 94.0654 192.257 85.5855 187.512 59.6832C186.509 54.2039 183.1 38.5438 171.679 24.0305C166.648 17.6366 161.531 11.1338 152.998 8.44067C143.445 5.42572 116.775 -3.28772 101.087 1.31704Z" fill="#2F2E41"/>
<path d="M85.9532 47.9925C88.3984 58.7825 104.537 62.2098 111.32 62.7499C114.193 62.9787 123.902 63.7516 132.851 58.2771C136.158 56.2535 137.268 54.6579 140.814 53.7022C145.614 52.4084 148.29 54.0637 156.249 55.3632C165.1 56.8083 169.525 57.5309 171.488 55.2571C174.696 51.5403 170.759 41.1782 165.783 34.468C156.582 22.0603 142.004 19.6788 135.205 18.5679C127.437 17.2987 111.674 14.7232 98.6329 24.9139C96.8893 26.2763 83.469 37.0298 85.9532 47.9925Z" fill="#2F2E41"/>
<path d="M188.172 611.956C164.572 618.008 139.918 621.208 114.562 621.208C87.0967 621.208 60.4479 617.457 35.08 610.386C32.3142 599.564 29.1744 587.579 25.6152 574.324C-6.31576 455.303 58.3735 370.918 58.3735 370.918L74.3334 357.603L217.994 378.025C234.713 464.208 223.832 528.159 188.172 611.956Z" fill="#2F2E41"/>
<path d="M164.77 143.535L97.5636 136.429L48.8389 180.841L63.9603 340.722L57.2397 370.922L216.855 378.028L208.454 335.393L220.215 179.064L164.77 143.535Z" fill="#C9E9D2"/>
<path d="M186.612 227.029H79.082V404.675H186.612V227.029Z" fill="white"/>
<path d="M171.268 250.399H141.223C140.41 250.399 139.749 249.7 139.749 248.841C139.749 247.982 140.41 247.283 141.223 247.283H171.268C172.081 247.283 172.742 247.982 172.742 248.841C172.742 249.7 172.081 250.399 171.268 250.399Z" fill="#C9E9D2"/>
<path d="M171.268 262.384H141.223C140.41 262.384 139.749 261.685 139.749 260.826C139.749 259.967 140.41 259.268 141.223 259.268H171.268C172.081 259.268 172.742 259.967 172.742 260.826C172.742 261.685 172.081 262.384 171.268 262.384Z" fill="#C9E9D2"/>
<path d="M171.268 274.369H141.223C140.41 274.369 139.749 273.67 139.749 272.811C139.749 271.952 140.41 271.253 141.223 271.253H171.268C172.081 271.253 172.742 271.952 172.742 272.811C172.742 273.67 172.081 274.369 171.268 274.369Z" fill="#C9E9D2"/>
<path d="M169.92 316.316H96.8591C94.8831 316.316 93.2754 314.616 93.2754 312.527C93.2754 310.438 94.8831 308.738 96.8591 308.738H169.92C171.896 308.738 173.504 310.438 173.504 312.527C173.504 314.616 171.896 316.316 169.92 316.316Z" fill="#E6E6E6"/>
<path d="M128.819 385.313C143.356 390.13 157.49 386.104 160.388 376.322C163.286 366.54 153.851 354.708 139.308 349.891C133.524 347.883 127.369 347.368 121.358 348.391L59.521 328.802L20.2764 358.487L113.263 375.712C117.649 380.18 122.983 383.472 128.819 385.313Z" fill="#FFB6B6"/>
<path d="M55.1722 177.288C55.1722 177.288 32.6425 190.9 26.2054 219.826L0.45707 335.528C0.45707 335.528 -4.37074 352.543 17.3544 361.051C39.0795 369.558 65.6324 332.976 65.6324 332.976L53.5059 320.154L76.8973 212.169L55.1722 177.288Z" fill="#C9E9D2"/>
<path d="M112.058 368.212C96.9456 370.244 83.7042 363.646 82.4828 353.477C81.2614 343.308 92.5215 333.42 107.639 331.39C113.668 330.491 119.812 331.132 125.559 333.259L189.693 325.505L223.373 362.04L128.971 361.661C123.909 365.242 118.109 367.488 112.058 368.212Z" fill="#FFB6B6"/>
<path d="M219.239 177.174C219.239 177.174 239.146 194.773 240.659 224.445L246.71 343.135C246.71 343.135 248.625 360.784 225.822 365.108C203.018 369.432 182.981 328.473 182.981 328.473L197.056 318.113L192.038 207.459L219.239 177.174Z" fill="#C9E9D2"/>
<path d="M129.486 239.464H90.8428V289.205H129.486V239.464Z" fill="#C9E9D2"/>
<path d="M101.16 276.592L98.5048 288.885L98.4377 289.205H90.877C91.7842 285.155 92.9099 280.145 93.4307 277.747C94.086 274.833 95.7998 272.95 96.8919 272.009C97.4463 271.493 97.8496 271.263 97.8496 271.263L101.16 276.592Z" fill="#E6E6E6"/>
<path d="M126.681 289.205H119.322L118.717 275.864L122.749 271.369L122.867 271.245C122.867 271.245 125.908 273.927 126.126 278.457C126.244 280.713 126.479 285.243 126.681 289.205Z" fill="#E6E6E6"/>
<path d="M117.139 255.454L103.995 257.091L105.463 270.27L118.607 268.633L117.139 255.454Z" fill="#2F2E41"/>
<path d="M110.421 263.051C113.985 263.051 116.874 259.996 116.874 256.228C116.874 252.46 113.985 249.405 110.421 249.405C106.857 249.405 103.968 252.46 103.968 256.228C103.968 259.996 106.857 263.051 110.421 263.051Z" fill="#FFB6B6"/>
<path d="M106.166 245.645C102.145 246.826 102.519 248.411 101.301 249.409C99.1541 251.169 98.7158 255.532 100.249 258.185C100.658 258.894 101.459 259.83 101.249 260.976C101.087 261.855 100.404 262.447 100.276 262.555C99.2234 263.437 99.8665 262.463 99.4227 263.147C98.9327 263.901 99.9174 264.758 99.5163 266.05C99.1608 267.196 98.1683 267.226 98.1168 267.925C98.0281 269.128 100.813 271.179 103.476 270.659C105.847 270.196 107.384 267.839 107.755 265.753C108.003 264.356 107.916 262.017 106.768 261.017C106.607 260.877 106.172 260.543 105.728 259.932C105.377 259.449 104.914 258.812 105.088 258.311C105.273 257.778 105.986 257.958 106.367 257.423C106.885 256.698 106.061 255.685 106.047 254.548C106.023 252.622 108.317 250.017 111.059 250.037C114.169 250.059 115.686 253.443 115.845 253.813C116.175 254.582 116.257 255.355 116.419 256.9C116.652 259.118 116.798 260.509 116.3 262.017C115.583 264.186 114.353 264.114 114.18 265.682C113.911 268.126 116.69 270.201 117.007 270.431C119.358 272.141 122.643 272.334 123.086 271.375C123.486 270.51 121.2 269.528 120.993 267.02C120.813 264.847 122.397 263.98 121.872 262.537C121.294 260.95 119.224 261.586 118.126 259.846C117.101 258.222 118.528 257.072 117.885 253.559C117.749 252.816 117.287 250.693 115.738 248.725C115.056 247.858 114.362 246.976 113.205 246.611C111.91 246.202 108.293 245.021 106.166 245.645Z" fill="#2F2E41"/>
<path d="M104.114 251.974C104.445 253.438 106.634 253.902 107.553 253.976C107.943 254.007 109.259 254.111 110.473 253.369C110.921 253.095 111.072 252.878 111.553 252.749C112.203 252.573 112.566 252.798 113.646 252.974C114.846 253.17 115.446 253.268 115.712 252.96C116.147 252.456 115.613 251.05 114.938 250.141C113.691 248.458 111.714 248.135 110.792 247.985C109.739 247.813 107.601 247.463 105.833 248.845C105.597 249.03 103.777 250.488 104.114 251.974Z" fill="#2F2E41"/>
<path d="M123.018 271.547L121.691 289.205H98.5215L98.5047 288.885L96.8917 272.009L96.875 271.813L101.781 267.355L103.293 265.969L104.318 265.045L106.956 265.329L114.55 266.129H114.567L117.121 267.763L120.935 270.215L122.749 271.369L123.018 271.547Z" fill="#E6E6E6"/>
</svg>
