<svg width="800" height="534" viewBox="0 0 800 534" fill="none" xmlns="http://www.w3.org/2000/svg">
<g clip-path="url(#clip0_28_120)">
<path d="M738.118 257.855H89.4059C80.7106 257.855 73.6365 250.645 73.6365 241.782V16.0727C73.6365 7.21016 80.7106 0 89.4059 0H738.118C746.813 0 753.887 7.21016 753.887 16.0727V241.782C753.887 250.645 746.813 257.855 738.118 257.855ZM89.4059 1.91622C81.7475 1.91622 75.5165 8.26698 75.5165 16.0727V241.782C75.5165 249.588 81.7475 255.939 89.4059 255.939H738.118C745.776 255.939 752.007 249.588 752.007 241.782V16.0727C752.007 8.26698 745.776 1.91622 738.118 1.91622H89.4059Z" fill="#3F3D56"/>
<path d="M800 527.495H0V529.107H800V527.495Z" fill="#E6E6E6"/>
<path d="M800 445.097H0V446.71H800V445.097Z" fill="#E6E6E6"/>
<path d="M415.911 257.595L413.187 191.396C413.187 191.396 410.126 152.095 407.678 138.371C405.23 124.647 388.704 128.39 388.704 128.39L390.541 167.691L398.463 207.91L404.629 262.678C404.312 264.262 404.132 265.984 404.132 267.792C404.132 275.465 407.275 281.685 411.153 281.685C415.031 281.685 418.175 275.465 418.175 267.792C418.175 263.756 417.3 260.133 415.911 257.595Z" fill="#FFB6B6"/>
<path d="M283.295 240.442C286.192 236.925 289.661 234.535 292.777 233.615L329.42 191.396C329.42 191.396 332.48 152.095 334.928 138.371C337.377 124.647 353.902 128.39 353.902 128.39L352.066 167.691L341.661 210.111L298.783 247.214C298.034 248.604 297.116 249.994 296.017 251.329C290.8 257.662 283.723 260.358 280.21 257.352C276.697 254.346 278.078 246.775 283.295 240.442Z" fill="#FFB6B6"/>
<path d="M363.916 123.087L368.167 106.432L384.726 105.62L389.68 128.579L363.916 123.087Z" fill="#FFB6B6"/>
<path opacity="0.1" d="M363.916 123.087L368.167 106.432L384.726 105.62L389.68 128.579L363.916 123.087Z" fill="black"/>
<path d="M321.631 395.946L306.122 395.043L308.156 443.556L318.666 444.169L321.631 395.946Z" fill="#FFB6B6"/>
<path d="M306.812 428.217L312.198 430.721L312.191 434.049C312.191 434.049 313.49 430.198 320.464 429.357L321.296 432.583C321.296 432.583 324.001 435.748 323.537 441.471L321.762 456.799L316.503 456.675L315.653 446.01C315.653 446.01 314.204 443.589 307.53 455.09C307.53 455.09 300.179 456.978 288.795 453.088C287.23 452.553 286.143 451.064 286.163 449.382C286.175 448.454 286.531 447.596 287.673 447.289C290.579 446.505 293.418 447.498 295.295 445.134C297.172 442.769 306.812 428.217 306.812 428.217Z" fill="#2F2E41"/>
<path d="M404.871 395.946L389.361 395.043L391.396 443.556L401.905 444.169L404.871 395.946Z" fill="#FFB6B6"/>
<path d="M390.052 428.217L395.437 430.721L395.43 434.049C395.43 434.049 396.729 430.198 403.703 429.357L404.536 432.583C404.536 432.583 407.241 435.748 406.777 441.471L405.002 456.799L399.742 456.675L398.893 446.01C398.893 446.01 397.444 443.589 390.77 455.09C390.77 455.09 383.418 456.978 372.034 453.088C370.469 452.553 369.382 451.064 369.403 449.382C369.414 448.454 369.77 447.596 370.912 447.289C373.819 446.505 376.657 447.498 378.535 445.134C380.412 442.769 390.052 428.217 390.052 428.217Z" fill="#2F2E41"/>
<path d="M376.648 116.24C386.789 116.24 395.009 107.861 395.009 97.5254C395.009 87.1896 386.789 78.8107 376.648 78.8107C366.507 78.8107 358.286 87.1896 358.286 97.5254C358.286 107.861 366.507 116.24 376.648 116.24Z" fill="#FFB6B6"/>
<path d="M387.06 100.636C387.06 100.636 378.987 87.1732 370.906 88.6592C362.825 90.1452 358.612 91.4868 358.612 91.4868C358.612 91.4868 355.322 80.7525 366.37 75.6025C366.37 75.6025 350.735 62.2599 367.398 53.6971C384.062 45.1343 394.432 53.4331 394.432 53.4331C394.432 53.4331 408.224 65.3547 392.932 76.3878C392.932 76.3878 406.167 91.7538 392.8 106.432C392.8 106.432 395.159 95.2554 391.949 97.5466C388.739 99.8378 387.06 100.636 387.06 100.636Z" fill="#2F2E41"/>
<path d="M389.011 124.335L363.916 121.216L344.637 137.123C344.637 137.123 335.048 164.353 342.188 180.791C342.359 181.185 342.494 208.551 342.494 208.551H395.811C395.811 208.551 395.759 189.924 397.796 183.178C398.087 182.214 398.421 181.493 398.803 181.103C401.864 177.984 409.208 158.021 405.536 149.288C401.864 140.554 389.011 124.335 389.011 124.335Z" fill="#84E09E"/>
<path d="M342.188 207.304L308.525 316.473L301.18 402.561H321.684L339.128 322.711L363.15 276.489L386.868 408.799H407.565L407.066 229.761L395.767 207.304H342.188Z" fill="#2F2E41"/>
<path d="M763.924 336.305L718.5 322.132C717.496 321.819 716.441 321.704 715.394 321.795L485.179 341.765C481.896 342.049 481.071 346.562 484.033 348.032L491.407 351.694H491.21V526.982H498.159V355.047L521.271 366.523C523.039 367.401 525.012 367.759 526.969 367.558L529.428 367.304V526.982H536.377V366.589L714.438 348.257V526.982H721.386V347.542L750.919 344.501V526.982H757.867V343.786L763.255 343.231C767.037 342.842 767.559 337.439 763.924 336.305Z" fill="#3F3D56"/>
<path d="M552.012 341.07C556.355 341.07 620.63 333.103 620.63 333.103L630.185 346.382L563.303 359.662L552.012 341.07Z" fill="white"/>
<path d="M622.555 520.174L611.388 520.154L606.149 476.243L622.631 476.273L622.555 520.174Z" fill="#A0616A"/>
<path d="M584.296 519.849C583.947 520.445 583.76 522.371 583.759 523.066C583.755 525.199 585.449 526.932 587.543 526.935L622.126 526.996C623.554 526.998 624.713 525.82 624.716 524.365L624.718 522.897C624.718 522.897 626.436 518.49 622.923 513.047C622.923 513.047 618.539 517.296 612.009 510.618L610.086 507.053L596.105 517.437L588.364 518.394C586.67 518.604 585.169 518.356 584.296 519.849Z" fill="#2F2E41"/>
<path d="M682.49 499.755L673.679 506.528L643.852 475.115L656.856 465.118L682.49 499.755Z" fill="#A0616A"/>
<path d="M652.154 522.76C652.228 523.441 653.208 525.073 653.614 525.62C654.86 527.303 657.208 527.639 658.86 526.369L686.144 505.391C687.27 504.524 687.495 502.891 686.645 501.743L685.788 500.585C685.788 500.585 684.562 496.068 678.609 493.915C678.609 493.915 677.641 499.929 668.587 498.637L664.985 496.997L660.047 513.679L654.508 519.14C653.296 520.335 651.968 521.052 652.154 522.76Z" fill="#2F2E41"/>
<path d="M659.151 272.812C659.151 283.308 650.803 291.817 640.505 291.817C630.207 291.817 621.859 283.308 621.859 272.812C621.859 262.316 630.207 253.808 640.505 253.808C650.803 253.808 659.151 262.316 659.151 272.812Z" fill="#A0616A"/>
<path d="M657.394 382.388C657.394 382.388 588.742 378.428 584.856 386.349C580.97 394.271 605.864 503.079 605.864 503.079L628.074 498.335L617.239 421.996C617.239 421.996 674.528 437.459 682.3 418.976C690.072 400.493 687.835 393.61 687.835 393.61L657.394 382.388Z" fill="#2F2E41"/>
<path d="M674.984 369.092C674.984 369.092 607.749 383.782 606.057 392.469C604.366 401.156 656.613 499.376 656.613 499.376L676.801 488.813L646.539 418.115C646.539 418.115 705.8 417.581 708.498 397.661C711.196 377.741 707.252 371.707 707.252 371.707L674.984 369.092Z" fill="#2F2E41"/>
<path d="M682.653 294.593H650.352L628.25 331.559C628.25 331.559 623.068 355.448 628.25 358.026C633.431 360.604 633.431 388.329 633.431 388.329L687.835 393.61C687.835 393.61 695.607 310.435 693.016 302.514C690.425 294.593 682.653 294.593 682.653 294.593Z" fill="#C9E9D2"/>
<path d="M631.488 319.017L628.249 358.026L591.825 342.27L583.132 337.814C581.43 335.551 579.22 333.737 576.688 332.523C570.393 329.396 563.709 330.17 561.757 334.252C559.805 338.335 563.324 344.178 569.618 347.303C572.117 348.588 574.881 349.244 577.68 349.216L603.116 363.94L603.146 363.883L603.258 364.088L643.146 381.068L652.323 329.858L631.488 319.017Z" fill="#A0616A"/>
<path d="M627.602 275.449C627.602 275.449 608.172 278.09 615.944 260.926C615.944 260.926 614.759 251.622 620.533 250.993C626.307 250.365 634.079 239.803 634.079 239.803C634.079 239.803 651.897 230.561 661.122 239.803C670.348 249.044 697.55 303.174 697.55 303.174L679.415 322.978C679.415 322.978 668.513 293.766 655.829 297.15C643.146 300.534 631.488 310.623 631.488 310.623C631.488 310.623 618.616 304.057 624.404 298.335C630.193 292.612 627.602 275.449 627.602 275.449Z" fill="#2F2E41"/>
<path d="M653.508 304.494C653.508 304.494 644.441 292.612 637.964 301.854C631.488 311.096 626.306 322.978 626.306 322.978L652.213 332.219L653.508 304.494Z" fill="#C9E9D2"/>
<path d="M751.872 524.354L721.773 426.847L721.777 426.846H721.847L721.725 426.687L721.723 426.684L719.579 419.738L719.58 419.738C722.846 416.869 725.069 412.77 725.512 408.052L711.754 330.925C712.701 320.797 705.083 311.944 695.103 311.581L664.06 311.502C655.235 311.183 647.591 317.681 646.306 326.587L645.619 331.314L636.108 397.26C635.761 399.632 635.9 401.97 636.447 404.156L629.603 405.068L627.527 405.352L619.319 406.44L619.293 406.449L618.268 406.582H617.156V434.911H617.225V525.459C617.225 526.043 617.694 526.522 618.268 526.522C618.85 526.522 619.319 526.043 619.319 525.459V434.911H631.496L643.648 525.353C643.726 525.884 644.169 526.274 644.69 526.274C644.733 526.274 644.786 526.274 644.829 526.265C645.402 526.185 645.802 525.645 645.724 525.061L633.616 434.911H692.045C697.847 434.911 703.223 433.035 707.601 429.822L730.767 525.187C730.888 525.67 731.313 525.99 731.781 525.99C731.866 525.99 731.953 525.98 732.039 525.958C732.599 525.812 732.938 525.232 732.795 524.661L709.405 428.374C709.716 428.109 710.027 427.828 710.321 427.537L719.62 426.979L749.876 524.994C750.016 525.449 750.429 525.741 750.874 525.741C750.978 525.741 751.083 525.725 751.188 525.691C751.739 525.514 752.045 524.916 751.872 524.354ZM717.591 421.251C717.669 421.207 717.738 421.154 717.808 421.11L718.032 421.833L717.591 421.251Z" fill="#E6E6E6"/>
<path d="M161.277 359.076L181.534 345.946L189.769 351.009L161.277 384.378V359.076Z" fill="#FFB6B6"/>
<path d="M133.576 308.255C133.576 308.255 120.121 311.482 126.453 330.035C132.785 348.589 153.362 387.309 159.694 384.889C166.026 382.469 166.817 358.269 166.817 358.269C166.817 358.269 166.026 359.076 162.86 355.849C159.694 352.622 159.694 354.096 159.694 350.536C159.694 346.976 157.105 344.336 157.105 344.336L154.154 338.102C154.154 338.102 154.154 309.062 142.282 307.449C130.41 305.835 133.576 308.255 133.576 308.255Z" fill="#E6E6E6"/>
<path d="M196.437 350.141C201.691 344.786 203.32 337.763 200.074 334.455C196.829 331.148 189.939 332.808 184.684 338.163C179.43 343.518 177.801 350.541 181.047 353.849C184.292 357.157 191.182 355.497 196.437 350.141Z" fill="#FFB6B6"/>
<path d="M81.1699 415.14L94.9922 438.458L175.543 433.6L154.095 405.424L81.1699 415.14Z" fill="#E6E6E6"/>
<path d="M105.239 524.201C104.769 524.201 104.361 523.848 104.295 523.362L80.2255 344.188C80.154 343.656 80.519 343.166 81.0405 343.094C81.5618 343.017 82.0426 343.393 82.1143 343.924L106.184 523.098C106.256 523.63 105.891 524.12 105.369 524.192C105.325 524.198 105.282 524.201 105.239 524.201Z" fill="#E6E6E6"/>
<path d="M81.1698 524.429C80.6434 524.429 80.2166 523.994 80.2166 523.457V344.091C80.2166 343.554 80.6434 343.119 81.1698 343.119C81.6962 343.119 82.1231 343.554 82.1231 344.091V523.457C82.1231 523.994 81.6962 524.429 81.1698 524.429Z" fill="#E6E6E6"/>
<path d="M201.996 523.716C201.591 523.716 201.215 523.45 201.087 523.036L144.129 338.519C143.971 338.007 144.25 337.461 144.752 337.3C145.254 337.139 145.79 337.424 145.948 337.935L202.905 522.452C203.063 522.964 202.784 523.51 202.282 523.671C202.187 523.701 202.09 523.716 201.996 523.716Z" fill="#E6E6E6"/>
<path d="M184.598 523.943C184.173 523.943 183.785 523.651 183.675 523.211L144.115 360.362C143.985 359.842 144.293 359.313 144.803 359.181C145.315 359.049 145.833 359.363 145.962 359.883L185.523 522.732C185.652 523.252 185.344 523.781 184.834 523.913C184.755 523.934 184.676 523.943 184.598 523.943Z" fill="#E6E6E6"/>
<path d="M81.1699 346.948L147.183 345.914L159.338 416.597H82.1232L81.1699 346.948Z" fill="#E6E6E6"/>
<path d="M182.616 450.884L165.98 480.737L185.296 485.071L193.349 463.838L182.616 450.884Z" fill="#FFB6B6"/>
<path d="M171.955 475.101C171.955 475.101 171.309 470.232 167.508 471.777C163.708 473.322 152.739 479.064 152.739 479.064C152.739 479.064 181.348 526.443 186.777 524.236C192.206 522.029 185.707 508.636 185.707 508.636L187.141 484.962L171.955 475.101Z" fill="#2F2E41"/>
<path d="M109.041 392.956C109.041 392.956 103.105 420.786 121.309 430.466C139.512 440.146 201.641 416.349 201.641 416.349L173.149 459.862L192.935 467.976C192.935 467.976 238.048 407.476 234.882 397.796C231.716 388.116 210.347 387.309 210.347 387.309L162.068 389.729L149.405 385.696L109.041 392.956Z" fill="#2F2E41"/>
<path d="M158.004 464.133L131.85 485.77L148.295 496.971L163.376 480.18L158.004 464.133Z" fill="#FFB6B6"/>
<path d="M139.428 482.736C139.428 482.736 140.564 477.962 136.472 477.991C132.381 478.021 120.114 479.3 120.114 479.3C120.114 479.3 129.846 534.042 135.691 534C141.537 533.958 140.264 519.072 140.264 519.072L150.052 497.554L139.428 482.736Z" fill="#2F2E41"/>
<path d="M110.154 382.889C110.154 382.889 94.6891 406.61 108.189 422.378C121.688 438.145 188.054 439.022 188.054 439.022L145.98 468.985L161.513 483.881C161.513 483.881 225.133 444.26 225.64 434.069C226.147 423.879 206.531 415.202 206.531 415.202L160.698 399.55L150.343 391.097L110.154 382.889Z" fill="#2F2E41"/>
<path d="M149.882 327.946C149.882 327.946 134.844 322.3 127.721 322.3C127.041 322.3 126.368 322.38 125.695 322.525C121.136 323.51 116.942 327.503 114.931 329.681C114.148 330.536 113.697 331.108 113.697 331.108C113.697 331.108 113.744 330.552 113.839 329.576C114.306 324.445 116.032 307.61 119.126 296.833C120.234 292.985 121.508 289.912 122.973 288.419C126.384 284.935 127.959 280.756 128.687 277.642C129.304 274.972 129.304 273.093 129.304 273.093L123.535 270.56L122.466 263.445C122.276 264.284 121.398 265.921 118.446 269.059C118.192 269.325 117.915 269.551 117.622 269.745C113.364 272.471 104.682 267.728 100.005 264.744C101.952 257.847 105.482 251.538 111.892 250.506C126.93 248.086 126.93 239.212 136.427 248.893C137.211 249.691 138.002 250.457 138.794 251.2C141.833 257.121 142.941 265.058 143.337 270.576C143.622 274.44 143.55 277.126 143.55 277.126C143.55 277.126 147.508 301.326 153.839 306.166C160.171 311.006 149.882 327.946 149.882 327.946Z" fill="#2F2E41"/>
<path d="M120.598 289.226L109.904 305.214L134.053 311.813V289.226H120.598Z" fill="#FFB6B6"/>
<path opacity="0.1" d="M120.598 289.226L109.904 305.214L134.053 311.813V289.226H120.598Z" fill="black"/>
<path d="M135.555 304.625L112.603 294.945C112.603 294.945 81.7362 308.659 84.1105 335.279C86.4849 361.899 108.646 407.879 108.646 407.879L152.967 388.519L148.218 336.892L135.555 304.625Z" fill="#E6E6E6"/>
<path d="M125.714 296.364C136.897 296.364 145.963 287.124 145.963 275.725C145.963 264.327 136.897 255.086 125.714 255.086C114.531 255.086 105.465 264.327 105.465 275.725C105.465 287.124 114.531 296.364 125.714 296.364Z" fill="#FFB6B6"/>
<path d="M153.048 268.253C149.09 272.286 145.925 276.319 145.925 276.319L144.342 269.866C144.342 269.866 143.978 270.14 143.337 270.576C140.828 272.318 134.092 276.698 128.687 277.642C126.281 278.062 124.144 277.795 122.751 276.319C119.799 273.181 118.92 271.544 118.73 270.705L117.662 277.82L111.892 280.353C111.892 280.353 111.892 289.21 118.224 295.679C118.533 295.994 118.833 296.381 119.126 296.833C122.149 301.479 124.318 312.853 125.695 322.525C126.914 331.125 127.5 338.368 127.5 338.368C127.5 338.368 121.508 330.721 114.931 329.681C114.567 329.624 114.203 329.584 113.839 329.576C113.721 329.56 113.594 329.56 113.475 329.56C106.352 329.56 91.3145 335.206 91.3145 335.206C91.3145 335.206 81.0257 318.266 87.3573 313.426C93.6889 308.586 97.6461 284.386 97.6461 284.386C97.6461 284.386 97.3849 274.028 100.005 264.744C101.952 257.846 105.482 251.538 111.892 250.506C126.93 248.086 126.93 239.212 136.427 248.892C137.211 249.691 138.002 250.457 138.794 251.2C147.642 259.492 156.681 264.55 153.048 268.253Z" fill="#2F2E41"/>
<path d="M64.2361 376.537H56.7158V527.919H64.2361V376.537Z" fill="#3F3D56"/>
<path d="M246.603 376.537H239.082V527.919H246.603V376.537Z" fill="#3F3D56"/>
<path d="M198.661 312.344H148.839V363.124H198.661V312.344Z" fill="#C9E9D2"/>
<path d="M120.122 366.336L140.378 353.206L148.614 358.269L120.122 391.638V366.336Z" fill="#FFB6B6"/>
<path d="M92.4208 315.515C92.4208 315.515 78.9661 318.742 85.2977 337.296C91.6293 355.849 112.207 394.569 118.539 392.149C124.87 389.729 125.662 365.529 125.662 365.529C125.662 365.529 124.87 366.336 121.704 363.109C118.539 359.882 118.539 361.356 118.539 357.796C118.539 354.236 115.949 351.597 115.949 351.597L112.998 345.362C112.998 345.362 112.998 316.322 101.127 314.709C89.255 313.095 92.4208 315.515 92.4208 315.515Z" fill="#E6E6E6"/>
<path d="M155.281 357.402C160.536 352.046 162.164 345.023 158.919 341.715C155.674 338.408 148.783 340.068 143.529 345.423C138.275 350.778 136.646 357.801 139.891 361.109C143.137 364.417 150.027 362.757 155.281 357.402Z" fill="#FFB6B6"/>
<path d="M261.643 370.789H34.155V388.035H261.643V370.789Z" fill="#3F3D56"/>
<path d="M492.769 232.821H459.172C456.509 232.821 454.35 235.021 454.35 237.736V251.859C454.35 254.573 456.509 256.774 459.172 256.774H492.769C495.432 256.774 497.591 254.573 497.591 251.859V237.736C497.591 235.021 495.432 232.821 492.769 232.821Z" fill="#3F3D56"/>
<path d="M563.272 246.944H529.675C527.011 246.944 524.852 249.144 524.852 251.859V251.859C524.852 254.573 527.011 256.774 529.675 256.774H563.272C565.935 256.774 568.094 254.573 568.094 251.859V251.859C568.094 249.144 565.935 246.944 563.272 246.944Z" fill="#C9E9D2"/>
<path d="M595.359 48.8636H466.878C464.458 48.8636 462.496 50.2838 462.496 52.0356V56.2309C462.496 57.9828 464.458 59.4029 466.878 59.4029H595.359C597.779 59.4029 599.741 57.9828 599.741 56.2309V52.0356C599.741 50.2838 597.779 48.8636 595.359 48.8636Z" fill="#C5D3E8"/>
<path d="M261.647 80.4813H133.166C130.746 80.4813 128.784 81.9014 128.784 83.6532V87.8486C128.784 89.6004 130.746 91.0205 133.166 91.0205H261.647C264.067 91.0205 266.029 89.6004 266.029 87.8486V83.6532C266.029 81.9014 264.067 80.4813 261.647 80.4813Z" fill="#C5D3E8"/>
<path d="M595.899 77.607H483.258C481.137 77.607 479.417 79.0271 479.417 80.7789V84.9743C479.417 86.7261 481.137 88.1462 483.258 88.1462H595.899C598.021 88.1462 599.741 86.7261 599.741 84.9743V80.7789C599.741 79.0271 598.021 77.607 595.899 77.607Z" fill="#C5D3E8"/>
<path d="M262.188 109.225H149.547C147.425 109.225 145.705 110.645 145.705 112.397V116.592C145.705 118.344 147.425 119.764 149.547 119.764H262.188C264.309 119.764 266.029 118.344 266.029 116.592V112.397C266.029 110.645 264.309 109.225 262.188 109.225Z" fill="#C5D3E8"/>
<path d="M596.379 106.35H497.819C495.962 106.35 494.457 107.77 494.457 109.522V113.718C494.457 115.469 495.962 116.889 497.819 116.889H596.379C598.236 116.889 599.741 115.469 599.741 113.718V109.522C599.741 107.77 598.236 106.35 596.379 106.35Z" fill="#C5D3E8"/>
<path d="M262.668 137.968H164.107C162.251 137.968 160.746 139.388 160.746 141.14V145.335C160.746 147.087 162.251 148.507 164.107 148.507H262.668C264.524 148.507 266.029 147.087 266.029 145.335V141.14C266.029 139.388 264.524 137.968 262.668 137.968Z" fill="#C5D3E8"/>
<path d="M596.895 151.382H506.926C505.231 151.382 503.858 152.782 503.858 154.509V158.645C503.858 160.373 505.231 161.773 506.926 161.773H596.895C598.589 161.773 599.963 160.373 599.963 158.645V154.509C599.963 152.782 598.589 151.382 596.895 151.382Z" fill="#C5D3E8"/>
<path d="M263.183 182.999H173.214C171.52 182.999 170.146 184.399 170.146 186.127V190.263C170.146 191.99 171.52 193.391 173.214 193.391H263.183C264.878 193.391 266.251 191.99 266.251 190.263V186.127C266.251 184.399 264.878 182.999 263.183 182.999Z" fill="#C5D3E8"/>
</g>
<defs>
<clipPath id="clip0_28_120">
<rect width="800" height="534" fill="white"/>
</clipPath>
</defs>
</svg>
