<svg width="667" height="538" viewBox="0 0 667 538" fill="none" xmlns="http://www.w3.org/2000/svg">
<g clip-path="url(#clip0_1_6621)">
<path d="M420.558 73.2984C414.257 85.6726 402.663 94.8847 390.519 102.383C377.637 110.309 363.788 116.724 349.277 121.489C347.279 122.152 345.262 122.786 343.245 123.382H256.884C256.325 122.776 255.786 122.142 255.266 121.489C249.844 114.691 246.938 106.085 248.026 97.6492C249.455 86.591 258.313 76.4227 269.806 74.0653C281.301 71.7173 294.402 78.2216 297.888 88.8632C299.815 68.3468 302.032 46.9688 313.536 29.4915C323.952 13.6711 342.007 2.34774 361.559 0.32166C373.06 -0.813918 384.663 1.20019 394.994 6.12528C395.942 6.57973 396.881 7.05312 397.799 7.54543C403.999 10.878 409.469 15.303 413.917 20.5824C426.11 35.2195 429.096 56.4933 420.558 73.2984Z" fill="#F2F2F2"/>
<path d="M397.799 7.5458C397.823 7.7943 397.779 8.04449 397.671 8.27187C397.562 8.49925 397.393 8.69602 397.181 8.84292C358.068 39.0396 327.134 77.6611 306.955 121.489C306.655 122.114 306.366 122.748 306.086 123.383H302.112C302.391 122.748 302.671 122.114 302.961 121.489C306.746 113.12 310.93 104.921 315.513 96.8922C325.434 79.558 337.106 63.1778 350.365 47.9822C363.623 32.7681 378.431 18.8306 394.574 6.37186C394.702 6.27302 394.843 6.19029 394.994 6.12571C395.274 6.01109 395.578 5.95785 395.884 5.96994C396.189 5.98204 396.487 6.05917 396.757 6.19558C397.026 6.332 397.26 6.52421 397.441 6.75796C397.621 6.9917 397.744 7.26098 397.799 7.5458Z" fill="white"/>
<path d="M399.447 121.489H18.9738C15.6966 121.486 12.475 122.292 9.62633 123.828C8.94401 124.195 8.28701 124.603 7.65933 125.049C5.28253 126.72 3.35167 128.895 2.02156 131.401C0.691446 133.906 -0.000909988 136.673 8.97627e-07 139.478V326.938C0.00447233 331.707 2.00492 336.28 5.56222 339.653C9.11952 343.025 13.943 344.922 18.9738 344.926H399.447C404.478 344.922 409.302 343.025 412.859 339.653C416.416 336.28 418.417 331.707 418.421 326.938V139.478C418.417 134.708 416.416 130.135 412.859 126.763C409.302 123.39 404.478 121.494 399.447 121.489ZM416.424 326.938C416.417 331.204 414.627 335.295 411.444 338.312C408.262 341.329 403.948 343.026 399.447 343.033H18.9738C14.4733 343.027 10.1589 341.329 6.97659 338.312C3.79425 335.295 2.00361 331.204 1.99724 326.938V139.478C2.01142 136.076 3.1556 132.766 5.26728 130.016C7.37896 127.266 10.3508 125.217 13.7607 124.159C13.9007 124.121 14.0304 124.074 14.1703 124.036C15.7302 123.601 17.3479 123.381 18.9738 123.383H399.447C403.948 123.389 408.262 125.087 411.444 128.104C414.627 131.121 416.417 135.211 416.424 139.478V326.938Z" fill="#3F3D56"/>
<path d="M536.476 366.013C537.79 365.201 538.9 364.126 539.728 362.863C540.557 361.6 541.083 360.181 541.27 358.705C541.457 357.228 541.3 355.731 540.811 354.318C540.321 352.906 539.511 351.612 538.437 350.528L544.401 283.108L527.32 284.89L522.64 350.508C520.839 352.339 519.809 354.733 519.746 357.235C519.682 359.738 520.589 362.176 522.294 364.087C524 365.998 526.386 367.25 528.999 367.605C531.613 367.96 534.273 367.393 536.476 366.013Z" fill="#FFB8B8"/>
<path d="M475.679 526.821L463.436 526.821L457.612 482.05L475.681 482.051L475.679 526.821Z" fill="#FFB8B8"/>
<path d="M454.691 523.504H478.302V537.598H439.825C439.825 535.747 440.209 533.915 440.957 532.205C441.704 530.495 442.799 528.941 444.179 527.632C445.56 526.323 447.199 525.285 449.002 524.577C450.806 523.868 452.739 523.504 454.691 523.504Z" fill="#2F2E41"/>
<path d="M562.559 526.821L550.316 526.821L544.492 482.05L562.561 482.051L562.559 526.821Z" fill="#FFB8B8"/>
<path d="M541.571 523.504H565.182V537.598H526.705C526.705 533.86 528.271 530.275 531.059 527.632C533.847 524.989 537.628 523.504 541.571 523.504Z" fill="#2F2E41"/>
<path d="M475.885 499.092C475.753 499.092 475.619 499.087 475.485 499.077L458.157 497.762C457.47 497.71 456.802 497.523 456.194 497.214C455.586 496.905 455.053 496.48 454.627 495.966C454.201 495.451 453.893 494.859 453.72 494.226C453.548 493.593 453.516 492.933 453.626 492.288L479.898 338.23L481.658 316.501C481.736 315.485 482.159 314.52 482.864 313.752C483.569 312.984 484.518 312.453 485.569 312.239L511.993 306.759C512.965 306.553 513.979 306.629 514.904 306.977C515.83 307.325 516.623 307.929 517.182 308.71L523.625 317.639C526.155 321.11 528.905 324.432 531.858 327.588C536.43 332.524 544.203 343.484 544.9 361.421C545.087 367.314 545.733 373.185 546.831 378.987L568.105 487.639C568.213 488.276 568.182 488.927 568.015 489.552C567.847 490.178 567.547 490.764 567.131 491.275C566.716 491.786 566.195 492.211 565.6 492.525C565.005 492.838 564.349 493.033 563.672 493.097L547.246 494.276C546.071 494.386 544.893 494.096 543.923 493.458C542.953 492.819 542.254 491.875 541.952 490.792L512.815 388.067C512.758 387.866 512.633 387.688 512.458 387.562C512.283 387.435 512.069 387.366 511.85 387.367C511.63 387.367 511.416 387.436 511.242 387.563C511.068 387.69 510.943 387.869 510.886 388.07L480.709 495.576C480.425 496.584 479.798 497.474 478.926 498.11C478.054 498.746 476.985 499.091 475.885 499.092Z" fill="#2F2E41"/>
<path d="M521.965 236.942C535.511 236.942 546.492 226.531 546.492 213.688C546.492 200.846 535.511 190.435 521.965 190.435C508.419 190.435 497.438 200.846 497.438 213.688C497.438 226.531 508.419 236.942 521.965 236.942Z" fill="#FFB8B8"/>
<path d="M480.393 319.996L479.885 286.789C478.017 265.551 487.938 254.399 496.59 248.79C498.821 247.362 501.335 246.379 503.979 245.899C506.623 245.419 509.342 245.453 511.972 245.999L531.275 249.955C533.963 250.51 536.504 251.577 538.745 253.089C540.985 254.602 542.879 256.53 544.312 258.757C545.682 260.858 546.581 263.203 546.954 265.648C547.328 268.092 547.167 270.583 546.481 272.966C545.14 277.426 542.166 281.287 538.093 283.856C521.507 294.956 520.339 313.602 520.329 313.79L520.308 314.175L480.393 319.996Z" fill="#65A0D4"/>
<path d="M540.801 295.304H523.824C522.633 295.302 521.491 294.853 520.648 294.054C519.806 293.256 519.332 292.173 519.331 291.043V263.114C519.331 259.849 520.698 256.719 523.133 254.411C525.568 252.102 528.87 250.806 532.313 250.806C535.756 250.806 539.058 252.102 541.492 254.411C543.927 256.719 545.295 259.849 545.295 263.114V291.043C545.293 292.173 544.82 293.256 543.977 294.054C543.135 294.853 541.992 295.302 540.801 295.304Z" fill="#65A0D4"/>
<path d="M426.82 300.58C425.82 301.712 424.579 302.63 423.178 303.274C421.776 303.917 420.247 304.272 418.69 304.315C417.134 304.358 415.585 304.087 414.147 303.521C412.709 302.955 411.414 302.107 410.346 301.032C400.673 291.414 416.486 276.972 426.196 286.611C426.538 286.943 426.856 287.297 427.147 287.671L476.107 286.517L481.951 276.384L499.911 282.995C496.463 288.065 492.504 307.961 483.486 306.993C482.303 307.023 428.029 300.662 426.82 300.58Z" fill="#FFB8B8"/>
<path d="M492.317 292.913L478.631 283.39C477.671 282.721 477.03 281.718 476.85 280.601C476.669 279.485 476.963 278.346 477.666 277.435L495.096 254.918C496.105 253.615 497.374 252.513 498.832 251.675C500.29 250.837 501.907 250.28 503.593 250.035C505.278 249.789 506.997 249.861 508.653 250.246C510.309 250.631 511.868 251.321 513.243 252.277C514.617 253.234 515.78 254.437 516.663 255.819C517.547 257.202 518.135 258.735 518.394 260.333C518.652 261.93 518.577 263.561 518.171 265.131C517.765 266.7 517.037 268.179 516.028 269.482L498.598 291.999C497.892 292.909 496.835 293.516 495.657 293.687C494.479 293.859 493.278 293.58 492.317 292.913Z" fill="#65A0D4"/>
<path d="M526.878 225.775C527.669 224.209 527.944 222.453 527.666 220.738C527.388 219.022 526.57 217.425 525.32 216.157C520.705 211.746 513.496 214.688 507.26 214.256C496.873 213.537 489.799 201.793 492.9 192.367C496.001 182.941 507.022 177.092 517.417 177.712C527.811 178.332 537.221 184.428 543.486 192.316C547.774 185.773 558.309 185.01 565.108 189.228C571.906 193.445 575.424 201.153 576.878 208.732C578.332 216.311 578.094 224.099 579.319 231.714C582.286 250.174 594.852 267.556 613.035 274.731C631.218 281.907 654.486 277.295 666.381 262.413C668.694 280.448 664.637 298.701 654.843 314.316C645.049 329.931 630.072 342.028 612.255 348.715C602.401 352.412 591.52 354.375 581.147 352.32C564.401 349.002 551.375 335.424 545.698 320.123C540.021 304.822 540.701 288.032 543.458 272.025C545.156 262.165 547.037 250.487 539.452 243.552C537.323 241.872 534.817 240.675 532.127 240.051C530.7 239.645 529.39 238.935 528.296 237.976C527.203 237.017 526.354 235.833 525.816 234.516C525.278 233.199 525.064 231.783 525.19 230.376C525.317 228.969 525.78 227.607 526.546 226.395C526.669 226.189 526.779 225.982 526.878 225.775Z" fill="#2F2E41"/>
<path d="M614.929 538H387.243C386.979 538 386.725 537.9 386.537 537.723C386.35 537.545 386.245 537.304 386.245 537.053C386.245 536.802 386.35 536.561 386.537 536.384C386.725 536.206 386.979 536.106 387.243 536.106H614.929C615.193 536.106 615.447 536.206 615.635 536.384C615.822 536.561 615.927 536.802 615.927 537.053C615.927 537.304 615.822 537.545 615.635 537.723C615.447 537.9 615.193 538 614.929 538Z" fill="#3F3D56"/>
<path d="M208.795 233.128C207.279 233.127 205.789 232.763 204.462 232.069L5.69347 128.348C5.46147 128.227 5.28971 128.023 5.21596 127.782C5.14221 127.541 5.17252 127.282 5.30022 127.062C5.42792 126.842 5.64258 126.679 5.89693 126.609C6.15128 126.539 6.4245 126.568 6.6565 126.689L205.425 230.41C206.438 230.941 207.576 231.224 208.733 231.233C209.891 231.243 211.034 230.979 212.057 230.465L414.097 129.418C414.213 129.359 414.34 129.323 414.471 129.311C414.601 129.3 414.733 129.313 414.859 129.349C414.984 129.386 415.101 129.446 415.202 129.525C415.303 129.604 415.387 129.702 415.448 129.812C415.509 129.922 415.547 130.043 415.559 130.167C415.571 130.291 415.557 130.416 415.518 130.534C415.479 130.653 415.416 130.764 415.332 130.859C415.248 130.955 415.145 131.034 415.029 131.092L212.989 232.14C211.696 232.788 210.257 233.127 208.795 233.128Z" fill="#3F3D56"/>
<path d="M63.4788 297.588H35.5175C33.3987 297.588 31.3667 296.79 29.8685 295.369C28.3703 293.949 27.5286 292.022 27.5286 290.014C27.5286 288.005 28.3703 286.078 29.8685 284.658C31.3667 283.237 33.3987 282.439 35.5175 282.439H63.4788C65.5976 282.439 67.6297 283.237 69.1279 284.658C70.6261 286.078 71.4678 288.005 71.4678 290.014C71.4678 292.022 70.6261 293.949 69.1279 295.369C67.6297 296.79 65.5976 297.588 63.4788 297.588Z" fill="#D9D9D9"/>
<path d="M96.4333 323.15H35.5175C33.3987 323.15 31.3667 322.352 29.8685 320.932C28.3703 319.511 27.5286 317.585 27.5286 315.576C27.5286 313.567 28.3703 311.641 29.8685 310.22C31.3667 308.8 33.3987 308.002 35.5175 308.002H96.4333C98.552 308.002 100.584 308.8 102.082 310.22C103.581 311.641 104.422 313.567 104.422 315.576C104.422 317.585 103.581 319.511 102.082 320.932C100.584 322.352 98.552 323.15 96.4333 323.15Z" fill="#D9D9D9"/>
<path d="M208.715 263.504C226.364 263.504 240.671 249.939 240.671 233.207C240.671 216.475 226.364 202.911 208.715 202.911C191.066 202.911 176.759 216.475 176.759 233.207C176.759 249.939 191.066 263.504 208.715 263.504Z" fill="#84C7AE"/>
</g>
<defs>
<clipPath id="clip0_1_6621">
<rect width="667" height="538" fill="white"/>
</clipPath>
</defs>
</svg>
