<svg width="72" height="121" viewBox="0 0 72 121" fill="none" xmlns="http://www.w3.org/2000/svg">
<path d="M50.8347 56.1741L58.6012 64.1024C66.3486 55.5649 69.5778 50.5938 70.7363 40.9648H59.2484C57.4429 47.7133 55.3826 50.9241 50.8347 56.1741Z" fill="#95CE9B" stroke="#95CE9B"/>
<path d="M21.165 56.1741L13.3986 64.1024C5.65112 55.5649 2.42197 50.5938 1.2635 40.9648H12.7514C14.5569 47.7133 16.6172 50.9241 21.165 56.1741Z" fill="#95CE9B" stroke="#95CE9B"/>
<path d="M70.7363 41.1267H59.0866C59.7107 32.0959 58.7173 27.847 54.718 22.0341L62.9699 13.6205C69.9598 23.7279 71.7545 29.7325 70.7363 41.1267Z" fill="#86ADCE" stroke="#86ADCE"/>
<path d="M1.26367 41.1267H12.9134C12.2893 32.0959 13.2827 27.847 17.282 22.0341L9.03012 13.6205C2.04017 23.7279 0.24548 29.7325 1.26367 41.1267Z" fill="#86ADCE" stroke="#86ADCE"/>
<path d="M62.9698 13.6205L54.8797 21.7105C48.7685 15.5882 44.541 13.6918 35.949 12.3261V1C48.0563 1.76554 53.8803 4.77634 62.9698 13.6205Z" fill="#EB6260" stroke="#EB6260"/>
<path d="M9.03023 13.6205L17.1203 21.7105C23.2315 15.5882 27.459 13.6918 36.051 12.3261V1C23.9437 1.76554 18.1197 4.77634 9.03023 13.6205Z" fill="#F6A10B" stroke="#F6A10B"/>
<path d="M38.7224 75.5903H36.1335V87.24L45.1944 86.7546C48.2579 84.733 49.2578 83.1334 50.0484 79.6353C51.8794 73.078 54.3176 69.8776 58.9475 64.2642L50.6956 56.3359C45.2223 62.3899 42.6306 65.9102 39.855 72.6779C39.5166 74.8995 39.2774 75.6285 38.7224 75.5903Z" fill="#EB6260" stroke="#EB6260"/>
<path d="M33.1985 75.5903H35.7874V87.24L26.7265 86.7546C23.663 84.733 22.6631 83.1334 21.8725 79.6353C20.0415 73.078 17.6033 69.8776 12.9734 64.2642L21.2253 56.3359C26.6986 62.3899 29.2903 65.9102 32.0659 72.6779C32.4043 74.8995 32.6435 75.6285 33.1985 75.5903Z" fill="#F6A10B" stroke="#F6A10B"/>
<rect x="24.2993" y="87.4017" width="23.623" height="4.20683" rx="2.10341" fill="url(#paint0_linear_148_116)"/>
<rect x="24.2993" y="92.903" width="23.623" height="4.20683" rx="2.10341" fill="url(#paint1_linear_148_116)"/>
<rect x="24.2993" y="98.4043" width="23.623" height="4.20683" rx="2.10341" fill="url(#paint2_linear_148_116)"/>
<path d="M30.124 103.906H42.0973C42.0973 106.765 39.7792 109.083 36.9197 109.083H35.3017C32.4421 109.083 30.124 106.765 30.124 103.906Z" fill="url(#paint3_linear_148_116)"/>
<path d="M5.02001 28.4411C5.12314 28.4791 5.23583 28.4978 5.35196 28.4923C5.52613 28.4845 5.6873 28.4233 5.81762 28.3261C5.94813 28.2288 6.04892 28.0955 6.10615 27.9406C6.14442 27.8373 6.16286 27.7247 6.15744 27.6086C6.14959 27.4345 6.08845 27.2732 5.99125 27.143C5.89396 27.0126 5.76048 26.9117 5.60565 26.8542C5.50252 26.8162 5.38981 26.7977 5.27383 26.803C5.09958 26.811 4.93843 26.872 4.80805 26.9692C4.67766 27.0667 4.57679 27.2 4.51952 27.3549C4.48125 27.458 4.46278 27.5708 4.46822 27.6867C4.47614 27.861 4.53719 28.0221 4.63448 28.1525C4.73171 28.2827 4.86525 28.3838 5.02001 28.4411ZM4.86691 27.3765C4.91929 27.2906 4.99641 27.2202 5.08781 27.1766C5.14876 27.1477 5.21607 27.1297 5.28876 27.1264C5.3976 27.1215 5.49799 27.1493 5.58411 27.2019C5.67002 27.2542 5.7403 27.3313 5.78395 27.4228C5.81308 27.4836 5.83085 27.5508 5.83414 27.6236C5.8391 27.7325 5.81122 27.8328 5.75882 27.919C5.70635 28.005 5.62928 28.0751 5.53783 28.1189C5.47691 28.148 5.40966 28.1657 5.33701 28.169C5.22804 28.174 5.12766 28.1459 5.04147 28.0937C4.95562 28.0411 4.88534 27.9642 4.84169 27.8727C4.81258 27.8119 4.79482 27.7445 4.79152 27.672C4.78663 27.5629 4.81453 27.4626 4.86691 27.3765Z" fill="#E6E6E6"/>
<path d="M8.6455 31.9511C8.66245 32.3178 8.97354 32.6014 9.34042 32.5843C9.70708 32.5676 9.9907 32.2564 9.97371 31.8896C9.95676 31.5228 9.64565 31.2391 9.27892 31.2562C8.91213 31.2731 8.62849 31.5842 8.6455 31.9511Z" fill="#E6E6E6"/>
<path d="M7.37625 31.68C7.04724 31.6952 6.7928 31.9744 6.80802 32.3034C6.82324 32.6325 7.10239 32.8869 7.4314 32.8716C7.76039 32.8563 8.01485 32.5773 7.99963 32.2483C7.98441 31.9192 7.70524 31.6648 7.37625 31.68Z" fill="#E6E6E6"/>
<path d="M5.57044 31.9929C5.86351 31.9794 6.09007 31.7308 6.07651 31.4377C6.06297 31.1447 5.81444 30.9181 5.52136 30.9317C5.22823 30.9454 5.00173 31.1939 5.01522 31.4869C5.0288 31.78 5.27731 32.0065 5.57044 31.9929Z" fill="#E6E6E6"/>
<path d="M4.2756 29.9711C4.2862 30.2003 4.48055 30.3774 4.70986 30.3668C4.93897 30.3563 5.11638 30.1619 5.10579 29.9327C5.09519 29.7034 4.90064 29.5263 4.67146 29.5368C4.4422 29.5475 4.26498 29.7417 4.2756 29.9711Z" fill="#E6E6E6"/>
<path d="M8.28927 28.7536L8.28484 28.7399L7.60461 28.2601L7.5903 28.2606C7.24786 28.2681 6.88667 28.4829 6.64785 28.8217C6.42135 29.1431 6.31278 29.4751 6.20772 29.7962C6.13605 30.0151 6.06199 30.2417 5.95061 30.4648C5.85843 30.6495 5.80337 30.7184 5.80321 30.7187L5.74683 30.7856L5.80905 30.8119C6.09847 30.934 6.51353 30.9008 6.94766 30.7214C7.40373 30.5331 7.80503 30.2161 8.0775 29.8298C8.31645 29.4909 8.39748 29.0787 8.28927 28.7536ZM7.67945 29.9642C7.66697 29.9742 7.65377 29.9851 7.64014 29.9975C7.48793 30.1343 7.31498 30.1071 7.4533 29.8521C7.59187 29.5971 7.40917 29.5456 7.23364 29.7244C7.01349 29.9487 6.94078 29.8028 6.99042 29.6883C7.03993 29.5742 7.18834 29.4075 7.09127 29.3256C7.03276 29.2763 6.93781 29.3724 6.78869 29.5055C6.70335 29.5819 6.52806 29.5841 6.63586 29.2818C6.68813 29.1677 6.74952 29.0565 6.82628 28.9475C6.99283 28.7111 7.24616 28.5512 7.48828 28.5292L8.07084 28.9397C8.13154 29.1752 8.06595 29.4674 7.89923 29.704C7.83503 29.7946 7.76117 29.882 7.67945 29.9642Z" fill="#E6E6E6"/>
<path d="M7.99882 28.0903L8.31261 28.3113C8.40906 28.3796 8.5438 28.3847 8.68471 28.326C8.82562 28.2671 8.96069 28.1494 9.05825 28.0004L9.50008 27.3254L8.52884 26.6404L8.04144 27.2834C7.93369 27.4253 7.86837 27.5921 7.86023 27.7446C7.85211 27.8972 7.90235 28.0222 7.99882 28.0903Z" fill="#E6E6E6"/>
<path d="M11.7405 23.7862C11.9234 23.5067 11.9246 23.1876 11.7437 23.0598L11.7413 23.0584C11.5603 22.9308 11.2603 23.0391 11.0585 23.3054L8.70215 26.4119L9.65695 27.0851L11.7405 23.7862Z" fill="#E6E6E6"/>
<path d="M12.8177 28.9934L12.8156 28.9445C12.7989 28.5835 12.7318 28.263 12.616 27.9917C12.5076 27.737 12.3575 27.527 12.1697 27.3675C12.0534 27.2683 11.9239 27.1901 11.7848 27.1352C11.6297 27.074 11.4669 27.0429 11.3009 27.0429C11.2809 27.0429 11.2612 27.0434 11.2414 27.0443C11.0824 27.0517 10.9304 27.0874 10.7894 27.1504C10.6445 27.2157 10.5211 27.3055 10.4226 27.4174C10.2146 27.6541 9.93405 27.8237 9.62239 27.9107L9.41206 28.232C9.34908 28.3282 9.27391 28.413 9.19266 28.4882C9.21297 28.4877 9.23327 28.4877 9.25371 28.4867C9.85705 28.4588 10.4232 28.1922 10.807 27.7555C10.8558 27.7 10.9223 27.6522 10.9991 27.6175C11.0802 27.5812 11.1721 27.5598 11.2652 27.5557L11.301 27.555C11.4175 27.555 11.5309 27.5799 11.6381 27.6291C11.7712 27.6905 11.8882 27.7864 11.9858 27.9145C12.0606 28.0128 12.1233 28.1292 12.1723 28.2604C12.2474 28.4614 12.2919 28.6995 12.3044 28.9682L12.3061 29.0131C12.3363 29.9358 12.1011 30.8364 11.6259 31.6173C11.1601 32.3819 10.4926 32.9887 9.69543 33.3718C9.14448 33.6366 8.55138 33.7856 7.93263 33.8144C7.86047 33.8177 7.78867 33.8193 7.71728 33.8193C6.87539 33.8193 6.0508 33.5879 5.3327 33.1498C4.56923 32.684 3.96237 32.0129 3.57768 31.2088C3.31249 30.655 3.16353 30.0599 3.13482 29.4405C3.08849 28.4326 3.37025 27.4615 3.94963 26.632C4.50609 25.8356 5.32265 25.213 6.24878 24.8788C6.29993 24.8604 6.36251 24.8488 6.42476 24.8462C6.43617 24.8456 6.44774 24.8453 6.45938 24.8453C6.532 24.8453 6.6054 24.8561 6.67141 24.8765C6.75153 24.9007 6.82287 24.9392 6.8778 24.988C6.91616 25.0221 6.94693 25.0608 6.97199 25.1064C7.00964 25.1762 7.03024 25.2569 7.03499 25.3533C7.03814 25.4224 7.03258 25.498 7.01825 25.578C7.00925 25.6296 6.99803 25.6837 6.98533 25.7449C6.97308 25.8039 6.9602 25.866 6.9485 25.9316C6.92895 26.0423 6.90746 26.1903 6.91505 26.3548C6.93571 26.8028 7.08771 27.229 7.35469 27.5871C7.38243 27.6243 7.4117 27.6599 7.44149 27.6952C7.4574 27.4934 7.53263 27.2882 7.65448 27.104C7.63391 27.0679 7.61077 27.0335 7.5928 26.9958C7.49313 26.7876 7.43716 26.5639 7.42634 26.3312C7.4222 26.2428 7.43054 26.1443 7.45264 26.0211C7.46207 25.9671 7.47364 25.9111 7.48726 25.8457C7.49903 25.7888 7.51129 25.7293 7.52237 25.6674C7.54316 25.5503 7.55122 25.4368 7.54626 25.3294C7.53794 25.1382 7.48501 24.9597 7.39309 24.8129C7.30994 24.6789 7.19077 24.5653 7.0486 24.4845C6.96463 24.4363 6.87216 24.399 6.77383 24.3734C6.67154 24.347 6.56512 24.3335 6.4575 24.3335C6.43863 24.3335 6.41985 24.3339 6.40131 24.3347C6.28491 24.3404 6.1751 24.3615 6.075 24.3975C5.03585 24.7723 4.15584 25.4436 3.53003 26.3387C2.88485 27.2609 2.57139 28.3417 2.6235 29.4643C2.67053 30.4854 3.01709 31.457 3.6258 32.2742C4.21978 33.0708 5.02477 33.6735 5.9536 34.0167C6.51824 34.2253 7.11133 34.3311 7.71633 34.3311C7.79597 34.3311 7.87591 34.3293 7.9563 34.3254C8.64398 34.2936 9.30377 34.128 9.91722 33.8331C10.5087 33.5489 11.0339 33.1562 11.4782 32.6659C12.3868 31.6646 12.8624 30.3603 12.8177 28.9934Z" fill="#E6E6E6"/>
<path d="M63.8534 24.3732C63.8784 24.3732 63.9097 24.3858 63.9368 24.4233C63.8158 24.2502 64.0724 24.3253 64.087 24.1605C64.233 24.052 64.1808 23.9811 64.2225 23.9769L64.2684 23.9394C64.1787 23.9728 64.1474 23.979 64.1224 23.979C64.1162 23.979 64.1099 23.979 64.1036 23.979C64.0974 23.979 64.089 23.979 64.0807 23.979C64.0494 23.979 63.9973 23.9853 63.8742 24.0228C63.5926 24.0437 63.3903 24.3482 63.2944 24.3566C63.1964 24.4087 63.2005 24.4191 63.2235 24.4191C63.2297 24.4191 63.2381 24.417 63.2464 24.417C63.2548 24.417 63.261 24.415 63.2673 24.415C63.2902 24.415 63.284 24.4254 63.1505 24.488C63.1818 24.4963 62.9169 24.6131 62.9148 24.7966C62.9064 24.8676 62.9356 24.9155 62.9836 24.9155C63.0253 24.9155 63.0775 24.8842 63.1338 24.805C63.3215 24.5881 63.7178 24.5672 63.8888 24.4358C63.7824 24.4275 63.8033 24.3732 63.8534 24.3732ZM62.9002 24.4462C62.8814 24.4462 62.9064 24.4233 62.9336 24.4003C62.9628 24.3774 62.9961 24.3545 62.9961 24.3545C62.9961 24.3545 62.9961 24.3545 62.994 24.3566C63.1067 24.3127 63.0378 24.3023 63.0983 24.2731C63.0962 24.2731 63.0962 24.2731 63.0942 24.2731C63.0816 24.2731 63.1046 24.2564 63.1254 24.2377C63.1463 24.221 63.1651 24.2022 63.1463 24.2022C63.1359 24.2022 63.1088 24.2085 63.0629 24.2272C63.0775 24.2064 63.1338 24.1918 63.213 24.148C63.0983 24.1855 63.0086 24.2085 62.9982 24.2085C62.9899 24.2085 63.0378 24.1918 63.1818 24.148C63.188 24.148 63.1943 24.1501 63.1984 24.1501C63.213 24.1501 63.2193 24.1459 63.2172 24.1417C63.2151 24.1375 63.2068 24.1355 63.1922 24.1355C62.9857 24.1521 62.8314 24.2815 62.8772 24.2981C62.9044 24.2898 62.9231 24.2856 62.9356 24.2856C62.9628 24.2856 62.9502 24.3086 62.896 24.3419C62.921 24.4003 62.4789 24.5505 62.4288 24.6048C62.4538 24.5902 62.4705 24.586 62.4789 24.586C62.5122 24.586 62.4684 24.6506 62.4246 24.6819C62.4518 24.707 62.4726 24.7153 62.4893 24.7153C62.5331 24.7153 62.5519 24.6548 62.5894 24.636C62.5978 24.6527 62.6061 24.6611 62.6165 24.6611C62.652 24.6611 62.6958 24.5735 62.7312 24.5276C62.7417 24.538 62.7542 24.5464 62.7709 24.5464C62.8042 24.5464 62.8543 24.5192 62.9336 24.4421C62.9169 24.4442 62.9044 24.4462 62.9002 24.4462ZM62.4205 24.83C62.3454 24.8759 62.3058 24.8947 62.2891 24.8947C62.2578 24.8947 62.2995 24.8363 62.337 24.7758C62.3746 24.7174 62.408 24.659 62.36 24.659C62.337 24.659 62.2953 24.6715 62.2286 24.7049C62.0471 24.8258 61.7405 25.1596 61.605 25.1596C61.6008 25.1596 61.5966 25.1596 61.5924 25.1596C61.8114 24.999 61.7468 24.684 62.0534 24.6027C62.3558 24.4296 62.5623 24.4838 62.8314 24.2856C62.7521 24.3253 62.6353 24.3691 62.6082 24.3691C62.5915 24.3691 62.6165 24.3482 62.725 24.2961C62.7146 24.2981 62.7062 24.3002 62.7 24.3002C62.627 24.3002 63.1797 24.1021 63.2068 24.0979C62.9794 24.1292 62.6124 24.319 62.5623 24.319C62.556 24.319 62.556 24.3169 62.556 24.3127C62.5644 24.3065 62.5644 24.3023 62.556 24.3023C62.5289 24.3023 62.4163 24.3399 62.3016 24.3774C62.189 24.415 62.0742 24.4546 62.0492 24.4546C62.0409 24.4546 62.0409 24.4504 62.0534 24.4421C61.0689 25.001 60.2471 25.9438 59.9906 27.0617C60.097 27.3058 60.024 27.7709 60.1992 27.9064C60.3994 28.0754 60.0281 28.5655 60.1262 28.868C60.2263 29.4144 60.658 29.7878 60.7039 30.3467C60.7832 30.7305 61.0731 31.1998 61.1941 31.4438C61.2858 31.5356 61.5382 31.8005 61.582 31.8005C61.5987 31.8005 61.5883 31.7608 61.5215 31.6545C61.4798 31.5356 61.2379 31.2248 61.3547 31.2248C61.3609 31.2248 61.3672 31.2248 61.3755 31.2269C61.2316 31.0809 61.6946 31.1205 61.3714 30.9224C61.3338 30.8765 61.3255 30.8619 61.3338 30.8619C61.3442 30.8619 61.3734 30.8786 61.4068 30.8953C61.4423 30.912 61.484 30.9286 61.5174 30.9286C61.5695 30.9286 61.605 30.8932 61.5841 30.7639C61.5924 30.768 61.6008 30.768 61.607 30.768C61.6613 30.768 61.6425 30.6617 61.6467 30.5553C61.6508 30.4489 61.678 30.3426 61.824 30.3426C61.8406 30.3426 61.8594 30.3446 61.8782 30.3467C62.2161 30.1632 61.922 29.6564 62.3099 29.4707C62.2953 29.0494 61.7301 29.0286 61.5174 28.8575C61.4819 28.8784 61.4485 28.8846 61.4152 28.8846C61.3776 28.8846 61.3442 28.8763 61.315 28.8659C61.2858 28.8575 61.2587 28.8471 61.24 28.8471C61.2358 28.8471 61.2316 28.8471 61.2274 28.8492C61.5904 28.7532 61.3255 28.2485 61.0251 28.2485C61.0189 28.2485 61.0105 28.2485 61.0043 28.2485C60.9813 28.0295 60.8687 28.1129 60.8562 27.9315C60.8374 27.9419 60.8186 27.9461 60.7999 27.9461C60.7498 27.9461 60.7039 27.9106 60.6643 27.8772C60.6247 27.8418 60.5913 27.8084 60.5621 27.8084C60.5392 27.8084 60.5183 27.8314 60.4995 27.8981C60.5204 27.7959 60.5141 27.7625 60.4933 27.7625C60.4724 27.7625 60.4349 27.798 60.3931 27.8334C60.3535 27.8689 60.3076 27.9044 60.2722 27.9044C60.268 27.9044 60.2659 27.9044 60.2617 27.9044C60.0177 27.7312 60.2638 27.4246 60.1345 27.189C60.2179 27.0993 60.2513 26.947 60.2138 26.947C60.195 26.947 60.1575 26.9846 60.0991 27.0868C60.0156 26.874 60.2367 26.3922 60.4244 26.3651C60.4307 26.3651 60.4349 26.363 60.4411 26.363C60.4745 26.363 60.5079 26.3797 60.5371 26.4152C60.5538 26.5132 60.512 26.7197 60.5287 26.7197C60.5371 26.7197 60.5538 26.678 60.5955 26.5695C60.6497 26.3213 61.0293 26.1419 61.0689 25.9897C61.071 25.9918 61.071 25.9918 61.0731 25.9918C61.1169 25.9918 61.3985 25.7436 61.5215 25.7164C61.5695 25.6685 61.6029 25.6518 61.6279 25.6518C61.655 25.6518 61.6696 25.6726 61.68 25.6914C61.6905 25.7123 61.6988 25.731 61.7092 25.731C61.7176 25.731 61.728 25.7185 61.7468 25.6831C61.6821 25.5558 61.849 25.4349 61.8031 25.4349C61.7864 25.4349 61.7364 25.4516 61.6342 25.4933C61.6175 25.5016 61.6091 25.5037 61.605 25.5037C61.5924 25.5037 61.6425 25.4703 61.7155 25.437C61.7885 25.4036 61.8803 25.3702 61.9574 25.3702C61.995 25.3702 62.0284 25.3786 62.0534 25.3994C62.3767 25.3222 62.1994 25.2159 62.2161 25.2159C62.2161 25.2159 62.2182 25.2159 62.2202 25.2159C62.312 25.1616 62.2849 24.9572 62.4205 24.83ZM60.9751 25.6831C60.9709 25.6831 60.9897 25.656 61.0522 25.5788C61.1816 25.4828 61.2858 25.4182 61.167 25.3556C61.2191 25.3327 61.2692 25.3056 61.3171 25.2764C61.315 25.3786 61.2295 25.6268 61.1836 25.6268C61.1732 25.6268 61.1628 25.6122 61.1586 25.5809C61.1857 25.5329 61.1878 25.5141 61.1774 25.5141C61.1607 25.5141 61.1127 25.5558 61.0668 25.5996C61.021 25.6393 60.9792 25.6831 60.9751 25.6831ZM61.094 25.7394C61.0376 25.7394 61.0481 25.7039 61.2212 25.6685C61.2963 25.658 61.2379 25.6622 61.3276 25.6414C61.24 25.7123 61.1419 25.7394 61.094 25.7394ZM64.3372 25.5287C64.3623 25.5246 64.381 25.5246 64.3956 25.5246C64.4561 25.5246 64.429 25.5496 64.3936 25.5746C64.3581 25.5996 64.3143 25.6247 64.3393 25.6247C64.3539 25.6247 64.3936 25.6163 64.4749 25.5934C64.8858 25.5642 64.3143 25.2159 64.4061 25.0991L64.381 25.0907C64.2121 25.3056 64.4937 25.3097 64.3372 25.5287ZM64.1662 25.5371C64.1954 25.5371 64.233 25.5037 64.2726 25.4098C64.3268 25.3452 64.3039 25.3368 64.2455 25.3056C64.0849 25.3473 64.0995 25.5371 64.1662 25.5371ZM65.6054 26.1982C65.5991 26.1982 65.5949 26.2003 65.5908 26.2024C65.6074 26.2066 65.6241 26.2108 65.6408 26.2108C65.6241 26.2024 65.6137 26.1982 65.6054 26.1982ZM68.4065 26.7176C68.4419 26.7948 68.4607 26.826 68.4628 26.826C68.4774 26.826 68.2 26.1503 68.0853 26.0293C67.4867 25.0448 66.5022 24.2919 65.3801 24.0103H65.378C65.3488 24.0103 65.3822 24.0249 65.4218 24.0395C65.4614 24.0541 65.5094 24.0687 65.5094 24.0687C65.5094 24.0687 65.4781 24.0583 65.3822 24.0312C65.2758 23.9999 65.1674 23.9769 65.0568 23.9686C65.038 23.9749 65.5136 24.1626 65.8327 24.2606C65.7263 24.2272 65.6158 24.198 65.5887 24.198C65.5699 24.198 65.5887 24.2105 65.6658 24.2439C65.572 24.2168 65.5324 24.2043 65.5282 24.2043C65.5219 24.2043 65.6533 24.2481 65.7764 24.2919C65.9015 24.3357 66.0204 24.3795 65.987 24.3795C65.9787 24.3795 65.9558 24.3753 65.9203 24.3691C66.0267 24.4275 66.0642 24.4504 66.058 24.4504C66.0475 24.4504 65.9161 24.3878 65.7806 24.3253C65.6471 24.2627 65.5115 24.2001 65.4927 24.2001C65.4823 24.2001 65.5094 24.221 65.6012 24.2752C65.7263 24.3294 65.8515 24.3837 65.816 24.3837C65.7993 24.3837 65.7514 24.3732 65.6575 24.3461C65.8661 24.4525 65.5094 24.4108 65.6304 24.5547C65.5636 24.4921 65.5365 24.4713 65.5303 24.4713C65.524 24.4713 65.5407 24.4963 65.5574 24.5213C65.5741 24.5464 65.5866 24.5714 65.572 24.5714C65.5699 24.5714 65.5699 24.5714 65.5678 24.5714C65.7138 24.7299 65.4656 24.5881 65.6429 24.7299C65.5094 24.6694 65.2821 24.5693 65.3843 24.5693C65.4093 24.5693 65.4573 24.5756 65.5324 24.5922C65.3968 24.4337 65.013 24.4275 65.0047 24.4087C64.9087 24.415 64.9066 24.488 64.9233 24.6214C64.9212 24.8321 64.7148 24.8363 64.7419 24.9572C64.7419 24.9552 64.744 24.9552 64.744 24.9552C64.7481 24.9552 64.7502 24.9969 64.7627 25.0407C64.7773 25.0824 64.8024 25.1262 64.8566 25.1262C64.8858 25.1262 64.9233 25.1137 64.9692 25.0824C65.0339 25.1992 65.0923 25.2409 65.1382 25.2409C65.207 25.2409 65.2487 25.147 65.2445 25.0615C65.1694 25.0198 65.0714 24.6736 65.1799 24.6736C65.1966 24.6736 65.2174 24.6819 65.2445 24.7007C65.0756 25.1158 65.912 24.8384 65.4385 25.0282C65.5449 25.1679 65.3718 25.1616 65.4218 25.3306C65.3405 25.3535 65.2508 25.3744 65.1715 25.3744C65.0547 25.3744 64.965 25.3243 64.9755 25.1491C64.8295 25.2263 65.1215 25.487 64.8316 25.487H64.8149C64.6751 25.7436 64.1516 25.656 64.5625 25.9271C64.5854 26.046 64.5104 26.0668 64.4144 26.0668C64.3894 26.0668 64.3623 26.0648 64.3352 26.0627C64.308 26.0606 64.2809 26.0606 64.2559 26.0606C64.1474 26.0606 64.0703 26.0877 64.137 26.2566C64.089 26.4318 64.2017 26.509 64.3393 26.509C64.5062 26.509 64.7106 26.4006 64.7252 26.2212C64.8149 26.0856 64.9296 26.0293 65.0485 26.0293C65.2362 26.0293 65.4343 26.1711 65.5636 26.3463C65.5741 26.363 65.5824 26.3693 65.5866 26.3693C65.597 26.3693 65.5866 26.3276 65.5824 26.2858C65.5782 26.2525 65.5782 26.2191 65.5908 26.2087C65.4051 26.1565 65.2633 25.9313 65.3259 25.9313C65.3467 25.9313 65.3905 25.9563 65.4614 26.023C65.4656 26.023 65.4698 26.023 65.4719 26.023C65.5887 26.023 65.6804 26.1148 65.7514 26.2066C65.8244 26.2984 65.8786 26.3901 65.9266 26.3901C65.9453 26.3901 65.9641 26.3734 65.9808 26.3359C65.9724 26.3234 65.9516 26.2879 65.9412 26.2525C65.9286 26.2087 65.9286 26.1649 65.985 26.1649C66.0079 26.1649 66.0392 26.1732 66.083 26.1899C66.2248 26.1524 65.9933 25.7832 66.181 25.7832C66.1998 25.7832 66.2227 25.7874 66.2519 25.7957C66.2498 25.8604 66.279 25.8833 66.3062 25.8833C66.3604 25.8833 66.4146 25.8061 66.2832 25.7832C66.3333 25.7352 66.3625 25.7164 66.3833 25.7164C66.4563 25.7164 66.3979 25.9584 66.6503 25.9584C66.7358 26.1607 65.9078 25.973 66.1727 26.3609C66.2332 26.4047 66.3082 26.4131 66.3812 26.4131C66.4042 26.4131 66.425 26.4131 66.4459 26.411C66.4668 26.411 66.4876 26.4089 66.5064 26.4089C66.6357 26.4089 66.7275 26.4402 66.6712 26.7072C66.6023 26.7572 66.5252 26.7739 66.4459 26.7739C66.375 26.7739 66.3041 26.7614 66.2352 26.7489C66.1664 26.7364 66.0997 26.7238 66.0392 26.7238C65.9453 26.7238 65.8702 26.7551 65.8244 26.8636C65.5803 26.7635 65.2591 26.7593 65.2904 26.4569C64.8649 26.5174 64.4207 26.4861 64.1078 26.7468C64.089 27.1285 63.4341 27.2515 63.5926 27.6854C63.4028 28.0858 63.8221 28.6469 64.2496 28.6469C64.2642 28.6469 64.2809 28.6469 64.2955 28.6448C64.5291 28.6427 64.7648 28.5384 64.9713 28.5384C65.0777 28.5384 65.1736 28.5655 65.257 28.649C65.2758 28.6469 65.2925 28.6448 65.3071 28.6448C65.6262 28.6448 65.2049 29.1516 65.5866 29.2371C65.9328 29.5959 65.3738 29.965 65.6471 30.3092C65.6763 30.5782 65.8098 30.8035 65.8098 31.0663C65.8452 31.0705 65.8786 31.0726 65.914 31.0726C66.3541 31.0726 66.6294 30.6888 66.8881 30.3989C66.8088 29.965 67.5034 29.8795 67.2656 29.3936C67.155 28.8617 67.7891 28.5468 67.7536 28.0149C67.7599 27.9398 67.739 27.9169 67.7078 27.9169C67.6765 27.9169 67.6306 27.9398 67.5868 27.9607C67.5409 27.9836 67.4908 28.0045 67.4512 28.0045C67.3991 28.0045 67.3594 27.969 67.3553 27.8522C67.0487 27.5665 66.9089 27.1785 66.6232 26.8636C66.9944 27.043 67.2051 27.4476 67.3761 27.8147C67.3907 27.8188 67.4053 27.8209 67.422 27.8209C67.7244 27.8209 68.1458 27.0972 67.6869 26.922C67.6619 26.9908 67.6285 27.0158 67.5889 27.0158C67.52 27.0158 67.4408 26.9324 67.3845 26.8511C67.3282 26.7676 67.299 26.6842 67.3302 26.6842C67.3511 26.6842 67.397 26.7176 67.4762 26.8052C67.5659 26.8615 67.6535 26.8761 67.7453 26.8761C67.835 26.8761 67.9268 26.8615 68.0227 26.8532C68.1437 26.9011 68.1958 27.0555 68.2334 27.0555C68.2396 27.0555 68.248 27.0492 68.2542 27.0346C68.3502 27.264 68.4607 27.6728 68.5608 27.7834C68.5087 27.433 68.4962 27.0617 68.4065 26.7176ZM67.2426 26.2358C67.007 26.1753 66.9298 25.8833 66.7442 25.7144C66.7421 25.6685 66.8109 25.6768 66.7942 25.5996C67.0445 25.6768 66.9632 25.754 66.9402 25.7686C67.032 25.9208 67.2885 26.0251 67.2426 26.2358ZM64.0035 24.6486C63.7762 24.7153 63.7449 24.6423 63.7845 24.782C63.8012 24.7946 63.8325 24.7987 63.8638 24.7987C63.9743 24.8008 64.1245 24.7362 64.0035 24.6486ZM67.3428 30.3947C67.641 30.1423 67.6786 29.842 67.6932 29.5375C67.5597 29.7982 67.1634 30.086 67.3428 30.3947ZM65.985 26.3276C65.9829 26.3296 65.9829 26.3296 65.9829 26.3317C65.985 26.3359 65.987 26.3359 65.987 26.3359C65.987 26.3359 65.987 26.3338 65.985 26.3276ZM64.2642 23.005C61.315 23.005 58.9248 25.3952 58.9248 28.3444C58.9248 31.2936 61.315 33.6839 64.2642 33.6839C67.2134 33.6839 69.6037 31.2936 69.6037 28.3444C69.6037 25.3952 67.2134 23.005 64.2642 23.005ZM64.2642 33.273C61.5424 33.273 59.3357 31.0663 59.3357 28.3444C59.3357 25.6226 61.5424 23.4159 64.2642 23.4159C66.9861 23.4159 69.1928 25.6226 69.1928 28.3444C69.1928 31.0663 66.9861 33.273 64.2642 33.273Z" fill="#E6E6E6"/>
<g clip-path="url(#clip0_148_116)">
<path d="M57.165 53.1049H59.4168C59.5859 53.1049 59.7533 53.1408 59.9095 53.2107C60.0658 53.2806 60.2077 53.383 60.3273 53.5122C60.4469 53.6413 60.5417 53.7946 60.6064 53.9633C60.6711 54.1321 60.7044 54.3129 60.7044 54.4955H57.165V53.1049Z" stroke="#E6E6E6" stroke-width="2" stroke-miterlimit="10"/>
<path d="M61.992 53.1049H64.2437V54.4955H60.7043C60.7043 54.1267 60.84 53.773 61.0815 53.5122C61.323 53.2514 61.6505 53.1049 61.992 53.1049Z" stroke="#E6E6E6" stroke-width="2" stroke-miterlimit="10"/>
<path d="M57.165 48.5869H59.4168C59.5859 48.5869 59.7533 48.6229 59.9095 48.6928C60.0658 48.7627 60.2077 48.8651 60.3273 48.9942C60.4469 49.1234 60.5417 49.2767 60.6064 49.4454C60.6711 49.6141 60.7044 49.795 60.7044 49.9776V54.4955H57.165V48.5869Z" stroke="#E6E6E6" stroke-width="2" stroke-miterlimit="10"/>
<path d="M63.2797 48.5869H64.2437V54.4955H60.7043V49.9776C60.7043 49.6088 60.84 49.255 61.0815 48.9942C61.323 48.7334 61.6505 48.5869 61.992 48.5869" stroke="#E6E6E6" stroke-width="2" stroke-miterlimit="10"/>
<path d="M63.2799 51.037L62.636 51.7323L61.9922 51.037V47.5457C61.9917 47.4542 62.0081 47.3636 62.0403 47.279C62.0725 47.1944 62.1199 47.1176 62.1798 47.0529C62.2396 46.9883 62.3108 46.9371 62.3891 46.9023C62.4674 46.8675 62.5514 46.8499 62.636 46.8504C62.8068 46.8504 62.9705 46.9236 63.0913 47.054C63.212 47.1844 63.2799 47.3613 63.2799 47.5457V51.037Z" stroke="#E6E6E6" stroke-width="2" stroke-miterlimit="10"/>
</g>
<path d="M54.8847 33.2747C55.5252 33.5457 55.5252 33.9894 54.8847 34.2578L35.659 42.3828C34.9052 42.6535 34.0802 42.6535 33.3265 42.3828L14.1007 34.2604C13.4602 33.9894 13.4602 33.5431 14.1007 33.2747L33.3265 25.1497C34.0802 24.8788 34.9053 24.8788 35.659 25.1497L54.8847 33.2747ZM36.6491 44.7077L47.2787 40.2174V45.7465C47.2787 49.4503 41.5542 52.4527 34.4927 52.4527C27.4312 52.4527 21.7094 49.4503 21.7094 45.7465V40.2147L32.3364 44.705C33.7232 45.2428 35.2622 45.2428 36.6491 44.705V44.7077ZM49.8327 49.1634H54.2148V46.2646C54.2251 45.9716 54.176 45.6795 54.0704 45.4057C53.9649 45.132 53.805 44.8822 53.6004 44.6713C53.3958 44.4604 53.1507 44.2926 52.8796 44.1781C52.6085 44.0635 52.317 44.0044 52.0224 44.0044C51.7279 44.0044 51.4364 44.0635 51.1653 44.1781C50.8942 44.2926 50.649 44.4604 50.4444 44.6713C50.2398 44.8822 50.08 45.132 49.9744 45.4057C49.8689 45.6795 49.8198 45.9716 49.83 46.2646L49.8327 49.1634ZM52.0211 39.5903C52.3136 39.5909 52.5997 39.505 52.8432 39.3436C53.0867 39.1821 53.2766 38.9524 53.3889 38.6835C53.5013 38.4146 53.5309 38.1185 53.4742 37.8328C53.4174 37.5471 53.2768 37.2846 53.0702 37.0785C52.8635 36.8724 52.6001 36.7319 52.3132 36.6749C52.0263 36.6179 51.7289 36.6469 51.4586 36.7582C51.1883 36.8695 50.9572 37.0582 50.7946 37.3003C50.6321 37.5424 50.5453 37.8271 50.5453 38.1184C50.5453 38.5088 50.701 38.8832 50.9783 39.1592C51.2556 39.4352 51.6316 39.5903 52.0238 39.5903H52.0211ZM52.0211 43.3499C52.3135 43.3505 52.5995 43.2647 52.843 43.1033C53.0864 42.942 53.2763 42.7125 53.3887 42.4437C53.5011 42.175 53.5309 41.8791 53.4744 41.5934C53.4178 41.3078 53.2775 41.0453 53.0711 40.839C52.8647 40.6328 52.6015 40.4921 52.3148 40.4348C52.0281 40.3775 51.7308 40.4061 51.4604 40.5171C51.1901 40.628 50.9588 40.8162 50.7959 41.058C50.633 41.2998 50.5458 41.5842 50.5453 41.8753C50.5449 42.0688 50.5829 42.2605 50.6571 42.4394C50.7312 42.6183 50.84 42.7809 50.9774 42.9179C51.1147 43.0548 51.2778 43.1635 51.4574 43.2376C51.6369 43.3118 51.8294 43.3499 52.0238 43.3499H52.0211Z" fill="#6FB0AE"/>
<path d="M9.44877 46.9515H7.42657C6.73907 46.9515 6.17749 47.5106 6.17749 48.2006V50.2228C6.17749 50.9103 6.73655 51.4719 7.42657 51.4719H9.44877C10.1363 51.4719 10.6978 50.9128 10.6978 50.2228V48.2006C10.6953 47.5106 10.1363 46.9515 9.44877 46.9515ZM10.3428 50.2228C10.3428 50.7164 9.93984 51.1193 9.44625 51.1193H7.42405C6.93046 51.1193 6.52753 50.7164 6.52753 50.2228V48.2006C6.52753 47.707 6.93046 47.3041 7.42405 47.3041H9.44877C9.94236 47.3041 10.3453 47.707 10.3453 48.2006V50.2228H10.3428Z" fill="#E6E6E6"/>
<path d="M13.9893 51.4945H11.9671C11.2796 51.4945 10.718 52.0536 10.718 52.7436V54.7658C10.718 55.4533 11.2771 56.0149 11.9671 56.0149H13.9893C14.6768 56.0149 15.2384 55.4558 15.2384 54.7658V52.7411C15.2384 52.0536 14.6793 51.4945 13.9893 51.4945ZM14.8858 54.7633C14.8858 55.2569 14.4829 55.6598 13.9893 55.6598H11.9671C11.4735 55.6598 11.0706 55.2569 11.0706 54.7633V52.7411C11.0706 52.2475 11.4735 51.8446 11.9671 51.8446H13.9893C14.4829 51.8446 14.8858 52.2475 14.8858 52.7411V54.7633Z" fill="#E6E6E6"/>
<path d="M9.79407 55.3702C8.44677 55.0453 7.37397 53.9977 7.00882 52.6706H7.60062C7.69883 52.6706 7.7769 52.5925 7.7769 52.4943C7.7769 52.3961 7.69883 52.318 7.60062 52.318H6.56812L6.61344 52.532C6.94586 54.0909 8.1622 55.34 9.71096 55.7152C9.72607 55.7177 9.73866 55.7202 9.75125 55.7202C9.83184 55.7202 9.90235 55.6648 9.9225 55.5842C9.94768 55.4885 9.88976 55.3928 9.79407 55.3702Z" fill="#E6E6E6"/>
<path d="M11.4209 47.9564C12.7682 48.2812 13.841 49.3288 14.2062 50.656H13.6144C13.5162 50.656 13.4381 50.7341 13.4381 50.8323C13.4381 50.9305 13.5162 51.0085 13.6144 51.0085H14.6494L14.6041 50.7945C14.2716 49.2357 13.0553 47.9866 11.5065 47.6114C11.4109 47.5887 11.3177 47.6466 11.295 47.7423C11.2723 47.838 11.3252 47.9337 11.4209 47.9564Z" fill="#E6E6E6"/>
<path d="M9.48391 48.7395H8.52443V48.1427C8.52443 48.0949 8.48414 48.0546 8.43629 48.0546C8.38845 48.0546 8.34815 48.0949 8.34815 48.1427V48.7395H7.38868C7.34083 48.7395 7.30054 48.7798 7.30054 48.8277C7.30054 48.8755 7.34083 48.9158 7.38868 48.9158H7.71354C7.74628 49.1551 7.89738 49.49 8.1064 49.767C8.15676 49.835 8.22476 49.9156 8.30282 49.9937C8.15928 50.107 7.98552 50.1926 7.79413 50.1926C7.74628 50.1926 7.70598 50.2329 7.70598 50.2807C7.70598 50.3286 7.74628 50.3689 7.79413 50.3689C8.04344 50.3689 8.26001 50.253 8.43629 50.112C8.61006 50.253 8.82915 50.3689 9.07846 50.3689C9.12631 50.3689 9.1666 50.3286 9.1666 50.2807C9.1666 50.2329 9.12631 50.1926 9.07846 50.1926C8.88707 50.1926 8.71331 50.1045 8.56976 49.9937C8.65035 49.9131 8.71582 49.8325 8.76619 49.767C8.97521 49.49 9.12631 49.1576 9.15905 48.9158H9.48391C9.53176 48.9158 9.57205 48.8755 9.57205 48.8277C9.57205 48.7798 9.53176 48.7395 9.48391 48.7395ZM8.62517 49.6587C8.57732 49.7217 8.51184 49.7998 8.43629 49.8753C8.35823 49.7998 8.29527 49.7217 8.24742 49.6587C8.04344 49.3893 7.92256 49.1022 7.89234 48.9133H8.98277C8.95003 49.1022 8.82915 49.3893 8.62517 49.6587Z" fill="#E6E6E6"/>
<path d="M13.0603 52.6857C13.0578 52.6806 13.0578 52.6781 13.0553 52.6756C13.0553 52.6731 13.0528 52.6705 13.0528 52.668C13.0503 52.6655 13.0503 52.663 13.0477 52.6605C13.0452 52.6579 13.0452 52.6554 13.0427 52.6529C13.0402 52.6504 13.0377 52.6504 13.0377 52.6479C13.0351 52.6454 13.0326 52.6428 13.0301 52.6428C13.0276 52.6428 13.0251 52.6403 13.0251 52.6403C13.0226 52.6378 13.02 52.6378 13.015 52.6353C13.0125 52.6353 13.0125 52.6353 13.01 52.6328C13.0074 52.6328 13.0024 52.6302 12.9999 52.6302C12.9974 52.6302 12.9948 52.6302 12.9923 52.6302C12.9898 52.6302 12.9873 52.6302 12.9823 52.6302C12.9797 52.6302 12.9772 52.6302 12.9747 52.6302C12.9722 52.6302 12.9697 52.6302 12.9671 52.6302C12.9646 52.6302 12.9596 52.6328 12.9571 52.6328C12.9546 52.6328 12.9546 52.6328 12.952 52.6353C12.9495 52.6378 12.9445 52.6378 12.942 52.6403C12.9394 52.6403 12.9369 52.6428 12.9369 52.6428C12.9344 52.6454 12.9319 52.6479 12.9294 52.6479C12.9269 52.6504 12.9243 52.6504 12.9243 52.6529C12.9218 52.6554 12.9218 52.6579 12.9193 52.6605C12.9168 52.663 12.9168 52.6655 12.9143 52.668C12.9117 52.6705 12.9117 52.6731 12.9117 52.6756C12.9092 52.6781 12.9092 52.6806 12.9067 52.6831L12.0883 54.7507C12.0706 54.796 12.0933 54.8464 12.1386 54.864C12.1487 54.869 12.1613 54.869 12.1714 54.869C12.2066 54.869 12.2394 54.8489 12.2545 54.8136L12.4836 54.2344H13.4985L13.7277 54.8136C13.7403 54.8489 13.7755 54.869 13.8108 54.869C13.8209 54.869 13.8334 54.8665 13.8435 54.864C13.8888 54.8464 13.9115 54.796 13.8939 54.7507L13.0603 52.6857ZM12.5416 54.0657L12.9797 52.9601L13.4179 54.0657H12.5416Z" fill="#E6E6E6"/>
<path d="M28.569 69.6627C28.2406 69.2161 27.5203 69.2322 27.0168 69.2127C26.4732 69.1917 25.9204 69.2224 25.3748 69.2881C25.4548 69.2445 25.5291 69.2026 25.5945 69.1672C26.3448 68.7616 27.0087 68.2081 27.7767 67.8345C27.8605 67.7937 27.9213 67.6687 27.8835 67.5814C27.5431 66.7941 27.1894 66.0129 26.7601 65.266C26.5049 64.8219 26.1136 64.1092 25.5025 64.1025C24.8024 64.0948 23.9704 64.6465 23.398 64.9702C23.0094 65.19 22.111 65.5978 22.0806 66.1173C22.0772 66.1761 22.1068 66.2233 22.1491 66.2572C22.3966 66.8967 22.6661 67.5196 22.9969 68.1244C23.2082 68.5109 23.4666 69.0389 23.8377 69.3642C23.2276 69.3284 22.6161 69.3081 22.0056 69.3C21.5265 69.2938 20.5375 69.1351 20.1503 69.4991C20.0932 69.5528 20.0873 69.6191 20.1103 69.6755C19.5982 69.4841 19.8109 71.1019 19.8231 71.2531C19.8863 72.036 19.3995 73.4092 20.5659 73.613C20.8005 73.654 21.0585 73.602 21.2916 73.5753C21.791 73.5183 22.3061 73.5511 22.8086 73.5511C23.2181 73.5511 23.7674 73.6447 24.1361 73.4194C24.2178 73.3695 24.2813 73.2943 24.3325 73.2056C24.3551 73.2677 24.3798 73.3287 24.4108 73.386C24.6755 73.8757 25.6107 73.814 26.0648 73.801C26.8958 73.7774 27.7241 73.5818 28.5555 73.6071C28.6899 73.6112 28.7826 73.5006 28.7908 73.3804C28.8681 72.2477 29.3095 70.6699 28.569 69.6627ZM23.1781 67.5494C22.9313 67.1104 22.6897 66.6687 22.4439 66.2292C22.4471 66.2239 22.4518 66.2207 22.4546 66.2149C22.6303 65.8444 23.2904 65.5568 23.6318 65.3555C24.1673 65.0396 24.741 64.7407 25.3463 64.5724C26.1716 64.343 27.07 66.8193 27.3637 67.533C27.3538 67.54 27.3442 67.547 27.3326 67.5559C27.192 67.6327 27.0577 67.7213 26.9228 67.8069C26.6401 67.9865 26.3617 68.1723 26.08 68.3534C25.7245 68.5818 24.7298 69.3679 24.2672 69.142C23.7716 68.8999 23.4281 67.994 23.1781 67.5494ZM23.9596 72.8712C23.8099 73.3813 21.54 73.1039 21.053 73.1595C19.8995 73.2914 20.312 71.5712 20.249 70.9047C20.2345 70.7515 20.3035 70.0342 20.2047 69.7753C20.2403 69.7919 20.2818 69.7986 20.3257 69.7892C21.5264 69.5344 22.983 69.7315 24.2272 69.8237C24.276 70.8582 24.2557 71.862 23.9596 72.8712ZM28.3384 73.1631C27.3885 73.2444 24.9393 73.7983 24.7247 72.9861C24.6511 72.7075 24.6312 72.4057 24.632 72.101C24.7389 71.5333 24.735 70.9436 24.7077 70.3616C24.7072 70.3534 24.7072 70.345 24.7066 70.3369C24.6986 70.1705 24.6894 70.0053 24.6802 69.841C24.6919 69.8405 24.7035 69.8403 24.7158 69.8381C25.5307 69.6934 27.9453 69.2234 28.3409 70.1718C28.71 71.0561 28.4317 72.2102 28.3384 73.1631Z" fill="#E6E6E6"/>
<path d="M22.5976 71.3962C22.5365 70.9774 22.44 70.5401 22.1983 70.1804C22.1217 70.0663 21.9043 70.0329 21.837 70.1804C21.5439 70.8223 21.1367 71.5762 21.1721 72.2951C21.1818 72.4928 21.4618 72.4843 21.4843 72.2951C21.4984 72.1763 21.5223 72.0578 21.5519 71.9396C21.6875 71.9436 21.8275 71.9325 21.9564 71.9309C21.9992 71.9303 22.0421 71.9297 22.0849 71.9291H22.0851C22.1012 71.9324 22.1686 71.9402 22.1802 71.9402C22.1918 71.9402 22.2024 71.9369 22.2137 71.9353C22.2241 72.14 22.2489 72.3474 22.3648 72.4872C22.4355 72.5725 22.5991 72.5449 22.6478 72.4521C22.7941 72.1732 22.6412 71.6953 22.5976 71.3962ZM21.9908 71.6135C21.8759 71.6279 21.7565 71.6362 21.6382 71.6484C21.741 71.3443 21.8781 71.0451 22.0175 70.7565C22.1095 71.0148 22.154 71.2918 22.1907 71.559C22.1915 71.5653 22.1918 71.5724 22.1926 71.5788C22.1234 71.5787 22.0631 71.6045 21.9908 71.6135Z" fill="#E6E6E6"/>
<path d="M27.0292 71.3214C27.2246 71.1653 27.3468 70.9497 27.3038 70.6647C27.2245 70.1371 26.5053 70.1524 26.1271 70.2909C26.0384 70.3233 25.9741 70.389 25.9735 70.4853C25.9713 70.8194 25.9693 71.1548 25.9893 71.4884C26.0051 71.7499 25.9957 72.1198 26.1985 72.3216C26.2285 72.3515 26.2638 72.3621 26.2983 72.3612C26.3809 72.5581 26.6335 72.6597 26.8542 72.6148C27.0923 72.5663 27.2698 72.3841 27.3596 72.1731C27.5356 71.7595 27.3435 71.4717 27.0292 71.3214ZM26.8941 70.7301C27.0433 70.9729 26.5491 71.1504 26.3687 71.2007C26.3751 71.0092 26.3851 70.8182 26.3895 70.6301C26.5736 70.5784 26.7889 70.5588 26.8941 70.7301ZM26.9922 71.9879C26.9643 72.0846 26.8915 72.1622 26.802 72.209C26.7077 72.2585 26.5834 72.1172 26.4929 72.1009C26.47 72.0968 26.4454 72.0975 26.4212 72.1015C26.3877 71.9351 26.3712 71.7652 26.3663 71.5935C26.3758 71.5944 26.3836 71.598 26.3937 71.5975C26.6726 71.5849 27.0979 71.6221 26.9922 71.9879Z" fill="#E6E6E6"/>
<path d="M25.6176 66.972C25.5304 67.1249 25.4519 67.2793 25.3159 67.3981C25.2858 67.4245 25.2664 67.432 25.2329 67.4409C25.2304 67.4415 25.2296 67.4419 25.228 67.4424C25.224 67.4419 25.2181 67.4413 25.2068 67.441C25.2524 67.4422 25.2261 67.4399 25.203 67.4362C25.1945 67.4317 25.1684 67.4208 25.1607 67.416C25.1548 67.4125 25.1533 67.4119 25.1524 67.4116C25.1526 67.4109 25.1502 67.4077 25.1331 67.3922C25.0776 67.3416 25.087 67.3468 25.0496 67.2906C24.9705 67.1717 24.9372 67.0782 24.8939 66.9424C24.8193 66.7089 24.7853 66.4399 24.8264 66.2376C24.8397 66.1722 24.8448 66.1689 24.859 66.1451C24.8647 66.1356 24.8647 66.1331 24.8879 66.1212C24.8602 66.1355 24.9016 66.1214 24.9209 66.1242C24.964 66.1306 24.9975 66.1346 25.0407 66.1243C25.0621 66.1192 25.0719 66.1155 25.0759 66.113C25.0797 66.1155 25.0896 66.1189 25.112 66.1235C25.1645 66.1341 25.2082 66.0838 25.1813 66.0366C25.1736 66.0225 25.1654 66.0086 25.1568 65.9949C25.153 65.9886 25.1505 65.9853 25.1483 65.9826C25.1475 65.9777 25.1469 65.9738 25.1453 65.9663C25.1346 65.917 25.1064 65.8768 25.0629 65.8487C24.9922 65.8029 24.917 65.7766 24.832 65.7713C24.6733 65.7612 24.5401 65.8714 24.4703 65.9987C24.3032 66.3036 24.3673 66.7146 24.4519 67.0329C24.5392 67.3611 24.7181 67.7237 25.0638 67.8547C25.4994 68.0197 25.864 67.5075 26.0097 67.1925C26.1259 66.941 25.7615 66.7198 25.6176 66.972Z" fill="#E6E6E6"/>
<path d="M46.2539 68.5903C46.0305 68.4261 45.8005 68.3537 45.5797 68.3527C45.5751 67.9926 45.5666 67.6321 45.5611 67.2715C45.6798 67.1833 45.795 67.0936 45.9021 66.9995C46.4837 66.4889 46.8668 65.7456 46.8085 64.9587C46.7663 64.3875 46.0923 63.7978 45.5819 64.2808C45.3676 64.4835 45.3345 64.8545 45.3021 65.1279C45.2271 65.7603 45.2444 66.4079 45.2475 67.0434C45.2477 67.0691 45.2476 67.0947 45.2477 67.1204C44.8741 67.4036 44.4779 67.6644 44.1387 67.986C43.5602 68.5345 43.2043 69.3808 43.4958 70.1611C43.7455 70.8298 44.4545 71.1756 45.1314 71.1842C45.1336 71.1842 45.1358 71.184 45.138 71.184C45.1369 71.1988 45.1361 71.2135 45.1351 71.2283C45.103 71.6763 45.0905 72.1303 45.1436 72.5765C44.9622 72.2444 44.6213 71.9886 44.257 71.9486C43.6819 71.8854 43.3784 72.6163 43.4766 73.0869C43.5349 73.3664 43.7494 73.5606 44.0036 73.6668C44.6414 74.0199 45.7613 73.7049 45.4875 72.9135C45.4846 72.905 45.4794 72.899 45.4754 72.8917C45.412 72.3124 45.4257 71.7333 45.4613 71.154C46.0589 71.0433 46.6258 70.6261 46.8338 70.0585C47.0389 69.4992 46.6935 68.9135 46.2539 68.5903ZM45.2437 68.4072C44.8622 68.5344 44.5404 68.872 44.3786 69.3001C44.318 69.4602 44.5842 69.5726 44.6546 69.4168C44.7859 69.1262 44.9597 68.8509 45.2393 68.7308C45.2275 69.4433 45.2028 70.1543 45.1583 70.8699C45.1494 70.8704 45.1403 70.8714 45.1315 70.8718C44.0141 70.9207 43.4455 69.8278 43.8765 68.8719C44.1473 68.2712 44.7067 67.8811 45.2487 67.4972C45.2488 67.8014 45.2471 68.1045 45.2437 68.4072ZM45.6212 65.128C45.6414 64.9222 45.6819 64.714 45.7867 64.534C45.9817 64.199 46.3904 64.6106 46.4604 64.8183C46.5999 65.2317 46.4247 65.7896 46.2052 66.1445C46.0293 66.4287 45.8038 66.6617 45.5566 66.8728C45.553 66.2896 45.5645 65.7072 45.6212 65.128ZM45.4842 70.8125C45.5241 70.2578 45.5728 69.7029 45.5807 69.1475C45.583 68.9881 45.5833 68.8284 45.5826 68.6687C45.9123 68.6845 46.2165 68.9141 46.3993 69.1749C46.9227 69.9212 46.2055 70.6098 45.4842 70.8125Z" fill="#E6E6E6"/>
<path d="M52.5264 67.8643C52.5301 67.5712 52.6918 66.757 52.4239 66.4993C52.4278 66.4599 52.3801 66.4172 52.3388 66.4427C52.338 66.4431 52.3373 66.4437 52.3365 66.4442C52.334 66.4436 52.3315 66.4423 52.329 66.4417C52.3265 66.3682 52.277 66.298 52.1776 66.2954C51.6014 66.2799 50.9568 66.5195 50.4105 66.6747C50.0745 66.7702 49.7391 66.8732 49.4145 67.0031C49.2908 67.0526 49.0587 67.1226 48.9784 67.2578C48.9579 67.2675 48.94 67.2826 48.9292 67.3041C48.816 67.5289 48.8718 67.834 48.8719 68.0805C48.8721 68.4595 48.8785 68.8382 48.8927 69.2169C48.9061 69.5753 48.9321 69.9354 48.9803 70.2908C48.9864 70.3365 48.9919 70.3869 48.9977 70.4394C48.7082 70.2555 48.2467 70.2959 47.8883 70.5075C47.5924 70.6821 47.3614 70.9863 47.3696 71.341C47.3796 71.7722 47.7712 72.1416 48.1892 72.1703C48.6635 72.203 49.1427 71.9371 49.2783 71.4645C49.304 71.3752 49.3127 71.2829 49.3069 71.1926C49.3326 71.1898 49.3561 71.1746 49.3656 71.1445C49.4398 70.9099 49.3258 70.6101 49.2973 70.3714C49.2515 69.9876 49.2277 69.603 49.2112 69.2169C49.1988 68.9268 49.195 68.6365 49.1932 68.3461C49.2851 68.3179 49.3763 68.271 49.4493 68.2422C49.7968 68.1049 50.1433 67.9651 50.4921 67.8311C50.9844 67.6421 51.6377 67.3086 52.1777 67.3297C52.1983 67.3305 52.2184 67.324 52.2361 67.3128C52.228 67.5782 52.2017 67.846 52.2218 68.1023C52.2775 68.8133 52.2878 69.5291 52.3302 70.2411C52.1507 69.9909 51.8484 69.8084 51.5637 69.7873C51.3557 69.772 51.1665 69.8625 51.0131 69.9984C50.4363 70.1954 50.2876 71.1866 50.8435 71.5703C50.9731 71.6597 51.1206 71.7068 51.273 71.7194C51.5025 71.7677 51.7529 71.7488 51.9548 71.6827C52.2942 71.5715 52.5444 71.2331 52.5464 70.9032C52.5685 70.886 52.5851 70.8594 52.5884 70.822C52.6762 69.8323 52.5141 68.8506 52.5264 67.8643ZM48.5438 71.4124C48.5421 71.4146 48.5401 71.4162 48.5383 71.4183C48.6178 71.2856 48.6347 71.1337 48.5202 71.0533C48.5167 71.0434 48.5126 71.0343 48.5076 71.0256C48.5096 71.0247 48.5116 71.0242 48.5136 71.0233C48.5174 71.0264 48.5216 71.0291 48.5252 71.0323C48.5813 71.0817 48.6054 71.1499 48.6097 71.2213C48.6007 71.2995 48.5715 71.3778 48.5438 71.4124Z" fill="#E6E6E6"/>
<path d="M52.2971 9.18063C52.2817 7.89969 52.4887 6.18339 51.4636 5.2106C50.4815 4.2786 48.4549 4.84752 47.2524 4.76653C45.9483 4.6786 41.5396 3.87627 41.6232 6.16741C41.6078 6.18344 41.5952 6.20244 41.5913 6.22758C41.4156 7.34761 41.4416 8.47419 41.4726 9.60451C41.4924 10.3274 41.4587 11.2182 41.8025 11.8845C42.3864 13.0162 43.6526 12.8906 44.7561 12.8523C46.018 12.8085 47.2753 12.8703 48.5363 12.9147C49.3657 12.9439 50.4945 13.1129 51.2668 12.6963C52.5545 12.0016 52.3123 10.4248 52.2971 9.18063ZM50.2757 12.3293C48.4682 12.5359 46.5766 12.2176 44.756 12.2858C43.6849 12.3258 42.5337 12.4975 42.1886 11.2344C41.7887 9.77087 42.0733 8.1223 41.9164 6.59715C42.0004 6.56837 42.074 6.49881 42.0808 6.39849C42.2164 4.42306 45.9666 5.23819 47.2525 5.34028C48.3381 5.4265 49.4164 5.19695 50.5003 5.38345C52.0389 5.64814 51.7126 8.04814 51.6989 9.18063C51.683 10.4934 52.0405 12.1274 50.2757 12.3293Z" fill="#E6E6E6"/>
<path d="M51.1018 6.11689C51.0977 6.06979 51.0753 6.02242 51.0242 5.9867C50.2988 5.47932 48.9018 5.83012 48.0871 5.89365C46.4319 6.0227 44.7048 6.0889 43.0555 5.89109C42.8705 5.86891 42.8238 6.15573 42.9773 6.2237C42.9263 6.23285 42.8783 6.27198 42.8766 6.33227C42.8315 7.99585 42.8856 9.77643 43.046 11.4329C43.055 11.5255 43.1237 11.5708 43.1914 11.5694C43.2155 11.6346 43.2743 11.6882 43.3683 11.6955C43.5762 11.7117 43.8027 11.7345 44.022 11.7292C44.7307 11.9091 45.7426 11.7726 46.2743 11.7566C47.7647 11.7123 49.2484 11.5481 50.7395 11.5121C50.7896 11.5109 50.8274 11.4928 50.8592 11.4691C50.9274 11.4504 50.9853 11.3955 50.9894 11.3003C51.0625 9.61342 50.8524 7.98783 51.1863 6.31606C51.2029 6.23302 51.1615 6.16051 51.1018 6.11689ZM50.6073 11.0914C49.3863 11.0955 48.1654 11.2202 46.9472 11.2901C46.2992 11.3273 45.6504 11.3467 45.0014 11.341C44.5504 11.337 43.9927 11.1716 43.5506 11.2876C43.489 11.2928 43.4274 11.2982 43.3684 11.3028C43.3571 11.3037 43.3491 11.3085 43.3388 11.3106C43.4729 9.70044 43.3841 7.88216 43.0979 6.30247C43.0933 6.2771 43.0809 6.25992 43.0659 6.24673C45.6276 6.72698 48.2531 5.88432 50.7931 6.28381C50.1822 7.66177 50.4968 9.60512 50.6073 11.0914Z" fill="#E6E6E6"/>
<path d="M45.602 9.21549C45.4097 9.09657 45.1405 9.07069 44.8692 9.07973C45.0231 8.84826 45.1098 8.57219 45.1019 8.28645C45.0848 7.6705 44.5088 7.54412 44.0337 7.78248C43.8672 7.86603 43.9846 8.12583 44.1582 8.07777C44.4659 7.99252 44.7058 8.00657 44.6826 8.37506C44.6625 8.69333 44.4115 9.0352 44.1205 9.15799C43.907 9.24808 43.9006 9.64649 44.1815 9.60878C44.4274 9.57574 44.6721 9.55822 44.9202 9.55765C45.1328 9.55714 45.35 9.61561 45.5568 9.5622C45.7198 9.52017 45.7386 9.30001 45.602 9.21549Z" fill="#E6E6E6"/>
<path d="M47.7689 8.56735C47.6046 8.35197 47.345 8.44411 47.1049 8.46566C47.0445 8.47106 46.9836 8.47527 46.9231 8.48011C46.8976 8.28838 46.8541 8.08864 46.7356 7.95157C46.6283 7.82753 46.4747 7.96585 46.4921 8.0933C46.5112 8.23327 46.5246 8.37193 46.5341 8.5111C46.3455 8.52606 46.1571 8.54273 45.9701 8.56644C45.7778 8.59084 45.7753 8.84553 45.9701 8.86748C46.1597 8.88892 46.3521 8.8904 46.5445 8.88688C46.5362 9.03646 46.5149 9.19991 46.6378 9.30786C46.715 9.37566 46.8151 9.37605 46.8922 9.30786C47.0112 9.2027 46.9982 9.03225 46.9745 8.87618C46.9842 8.87601 46.9941 8.87561 47.0038 8.87539C47.2552 8.87089 47.6031 8.96132 47.7689 8.73417C47.7997 8.69197 47.801 8.60944 47.7689 8.56735Z" fill="#E6E6E6"/>
<path d="M49.856 8.92634C49.6912 8.83949 49.4851 8.87606 49.3053 8.88846C49.2543 8.89199 49.2031 8.89682 49.1521 8.90251C49.2694 8.56962 49.2928 8.19112 49.223 7.8708C49.1817 7.68101 49.0432 7.47376 48.8383 7.44475C48.5624 7.40579 48.3451 7.62323 48.1892 7.82252C48.0783 7.9643 48.2468 8.13999 48.3883 8.02158C48.4283 7.98808 48.6785 7.75671 48.7528 7.81757C48.8332 7.88354 48.8268 8.06287 48.8286 8.15466C48.8346 8.47174 48.741 8.84495 48.5188 9.0795C48.3654 9.24154 48.515 9.55833 48.7491 9.47512C48.955 9.40198 49.1653 9.37576 49.3825 9.36262C49.5426 9.35301 49.7103 9.37957 49.856 9.30245C49.9977 9.2276 49.9981 9.00124 49.856 8.92634Z" fill="#E6E6E6"/>
<path d="M26.2416 9.16148C26.2196 9.16318 26.2012 9.1697 26.1844 9.17809C26.157 9.13901 26.122 9.10465 26.1052 9.05308C26.0753 8.96177 26.1235 8.86635 26.1703 8.79072C26.2172 8.71503 26.107 8.62833 26.0465 8.69519C25.9555 8.79565 25.9008 8.91513 25.9066 9.05253C25.9091 9.11013 25.9298 9.18521 25.9661 9.2466C25.6694 9.28211 25.3743 9.46215 25.1583 9.64761C24.7163 10.0269 24.4706 10.4762 24.4193 11.0579C24.394 11.3443 24.4355 11.6168 24.5284 11.8656C24.5056 11.8832 24.4845 11.9043 24.4632 11.924C24.3596 12.0197 24.2426 12.101 24.1279 12.1827C23.9061 12.3411 23.6729 12.486 23.4634 12.6609C23.3878 12.7241 23.4865 12.8494 23.5681 12.7966C23.8061 12.6423 24.0469 12.4921 24.2847 12.3376C24.3612 12.2878 24.5295 12.205 24.6367 12.1041C24.7092 12.2378 24.7971 12.3626 24.8983 12.4759C24.7382 12.5925 24.5788 12.762 24.4741 12.9346C23.8306 12.7623 22.5789 14.039 22.6686 14.6561C22.7581 15.271 23.4703 14.8788 23.7419 14.6712C24.1534 14.3565 24.7171 13.845 24.848 13.3177C24.868 13.2371 24.8227 13.1668 24.7472 13.14C24.7396 13.1373 24.7325 13.1352 24.7252 13.1326C24.7214 13.1262 24.7175 13.1201 24.7136 13.114C24.7874 13.0373 24.86 12.9594 24.9319 12.881C24.9981 12.8088 25.0738 12.7408 25.0608 12.6382C25.3887 12.9314 25.8136 13.1232 26.2713 13.1643C27.371 13.263 28.1703 12.2181 28.1823 11.2063C28.1933 10.2858 27.2144 9.08618 26.2416 9.16148ZM26.38 12.8737C25.4248 12.9178 24.7292 12.0568 24.7085 11.1644C24.6865 10.216 25.5016 9.5808 26.3654 9.4542C27.1159 9.49416 27.8087 10.4015 27.8838 11.0938C27.9817 11.9966 27.2829 12.8321 26.38 12.8737Z" fill="#E6E6E6"/>
<path d="M26.5097 11.3974C26.4705 11.2752 26.4483 11.1529 26.4367 11.0251C26.4268 10.9156 26.4476 10.7679 26.4069 10.665C26.3575 10.5396 26.1941 10.5341 26.1464 10.665C26.1048 10.7793 26.141 10.949 26.1541 11.0663C26.1627 11.1447 26.1723 11.2264 26.1909 11.3052C26.0136 11.3082 25.8204 11.3144 25.6806 11.3913C25.6461 11.4103 25.6322 11.4516 25.641 11.4885C25.6368 11.4708 25.6451 11.5151 25.6574 11.5294C25.6671 11.5406 25.6788 11.5428 25.6896 11.5403C25.7638 11.5765 25.8916 11.5506 25.9592 11.5507C26.0997 11.5509 26.2408 11.5571 26.3809 11.5662C26.4659 11.5718 26.535 11.4767 26.5097 11.3974Z" fill="#E6E6E6"/>
<path d="M26.1287 6.66664C26.0771 6.52288 25.9358 6.44889 25.8164 6.36427C25.5594 6.18237 25.287 6.02283 25.0253 5.84756C24.7145 5.63946 24.3951 5.44435 24.0852 5.23471C23.7831 5.03045 23.4919 4.76168 23.1645 4.60115C23.1507 4.59436 23.1367 4.59496 23.1249 4.59984C23.0945 4.56915 23.0476 4.55227 23.006 4.56262C22.8634 4.59808 22.749 4.72518 22.6313 4.80947C22.416 4.96359 22.1909 5.10389 21.9647 5.24118C21.5299 5.50502 21.0789 5.73361 20.6199 5.95076C20.5132 6.00123 20.5947 6.13852 20.6922 6.12641C20.6968 6.1468 20.7085 6.16549 20.7297 6.17754C20.8907 6.26891 21.0481 6.36575 21.2034 6.46566C21.5132 6.75624 21.9049 6.98385 22.2489 7.20259C22.2712 7.21678 22.2941 7.23004 22.3165 7.24407C22.72 7.54249 23.1798 7.96521 23.6699 8.08995C23.7162 8.10174 23.7616 8.07746 23.7882 8.0415C23.8006 8.04359 23.8139 8.04364 23.8282 8.03953C24.2774 7.91227 24.7208 7.71546 25.1404 7.51295C25.3686 7.40279 26.0226 7.14383 25.9929 6.81949C26.0087 6.82102 26.0251 6.82075 26.0441 6.81554C26.1042 6.79921 26.151 6.72868 26.1287 6.66664ZM22.2605 6.43267C22.1495 6.50441 22.0393 6.57686 21.9304 6.6503C21.8255 6.57982 21.7196 6.5111 21.6121 6.44494C21.5835 6.42445 21.5556 6.4028 21.5271 6.38197C22.0668 5.90976 22.8302 5.68697 23.4492 5.33698C23.5437 5.41804 23.6384 5.49877 23.7332 5.5795C23.2125 5.81369 22.721 6.09725 22.2605 6.43267Z" fill="#E6E6E6"/>
<path d="M23.3104 8.2587C23.1574 8.09767 22.9347 7.98647 22.7508 7.86858C22.4782 7.69386 22.2023 7.52418 21.927 7.35373C21.6462 7.17983 21.3652 7.00637 21.0847 6.83203C20.8436 6.68225 20.6046 6.48632 20.3381 6.38684C20.3379 6.38679 20.3377 6.38679 20.3375 6.38673C20.2876 6.36498 20.2232 6.37084 20.183 6.4268C19.9781 6.71141 19.8497 7.18652 20.0972 7.47519C20.0869 7.4942 20.0868 7.51766 20.1074 7.53547C20.6174 7.97584 21.1741 8.3677 21.7271 8.75107C22.0356 8.96493 22.3488 9.17445 22.6771 9.35701C22.7982 9.42437 23.0083 9.56517 23.1376 9.44333C23.1769 9.40623 23.1721 9.36129 23.1468 9.32906C23.1466 9.3267 23.1473 9.32473 23.147 9.32232C23.0971 8.97945 23.1844 8.69227 23.4342 8.45107C23.531 8.35751 23.4163 8.22258 23.3104 8.2587Z" fill="#E6E6E6"/>
<path d="M23.0921 9.85091C23.0878 9.85596 23.084 9.86182 23.0798 9.86703C22.875 9.66896 22.5598 9.51967 22.3385 9.3821C21.66 8.96042 20.9394 8.60742 20.2501 8.20399C20.2495 8.2036 20.2489 8.20371 20.2483 8.20333C20.2297 8.18563 20.2044 8.17357 20.1807 8.17099C19.9555 8.14677 19.8783 8.49742 19.8612 8.65904C19.8396 8.86364 19.8956 9.07289 20.0194 9.23341C20.0238 9.24985 20.0359 9.26427 20.0541 9.27578C20.079 9.30351 20.1057 9.32993 20.1351 9.35366C20.1572 9.37136 20.1856 9.37158 20.2085 9.36177C20.372 9.47752 20.5393 9.58686 20.7091 9.69241C20.6944 9.72903 20.7087 9.78043 20.7536 9.79578C20.8663 9.8342 20.9774 9.87651 21.0876 9.92057C21.7389 10.3028 22.4085 10.6561 23.0147 11.1128C23.0739 11.1574 23.1475 11.1167 23.175 11.0579C23.2302 11.0571 23.2809 10.9937 23.2445 10.9403C23.0481 10.6522 23.0725 10.2723 23.2793 9.99522C23.3603 9.88665 23.1796 9.74881 23.0921 9.85091Z" fill="#E6E6E6"/>
<path d="M23.1811 11.6267C23.1692 11.6105 23.1539 11.5958 23.1359 11.5781C23.1323 11.5745 23.1284 11.5731 23.1246 11.5703C22.8799 11.3136 22.4805 11.1184 22.1919 10.9466C21.5826 10.5836 20.9703 10.2276 20.3365 9.90843C20.3051 9.87106 20.2511 9.84952 20.1942 9.87352C19.7567 10.0584 19.5793 10.8601 20.0397 11.1223C20.5444 11.5556 21.1722 11.8883 21.7375 12.2215C22.0738 12.4198 22.4126 12.6168 22.7637 12.7881C22.8895 12.8494 23.0816 12.9707 23.2126 12.8623C23.2243 12.8526 23.2311 12.8403 23.2359 12.8272C23.2477 12.807 23.2513 12.7809 23.2393 12.7548C23.09 12.4313 23.093 12.1154 23.2835 11.8089C23.3398 11.7181 23.2633 11.6333 23.1811 11.6267Z" fill="#E6E6E6"/>
<path d="M26.2022 7.86727C26.2143 7.83187 26.202 7.78846 26.1564 7.77635C26.019 7.73985 25.9129 7.67178 25.9157 7.51832C25.9169 7.4531 25.9553 7.39315 25.9987 7.34788C26.05 7.29438 26.1235 7.28348 26.1415 7.20373C26.1491 7.17014 26.1371 7.13501 26.1063 7.11725C25.9021 6.99942 25.7256 7.36481 25.7141 7.51832C25.6966 7.75196 25.9067 7.91528 26.1224 7.91633C25.9845 8.01794 25.8663 8.15227 25.7238 8.25097C25.4668 8.42893 25.1871 8.57543 24.9084 8.71584C24.4202 8.96175 23.9145 9.15073 23.3982 9.326C23.2763 9.36738 23.2894 9.56808 23.4299 9.56002C23.985 9.52807 24.5663 9.20783 25.0555 8.96762C25.4154 8.79087 26.2456 8.45891 26.3617 8.01761C26.3864 7.92361 26.2912 7.83439 26.2022 7.86727Z" fill="#E6E6E6"/>
<path d="M24.1517 10.4695C24.0354 10.4546 23.9123 10.5495 23.8148 10.6048C23.6826 10.6797 23.5594 10.7671 23.4395 10.86C23.3735 10.9111 23.4576 11.01 23.526 10.9721C23.6388 10.9095 23.7524 10.848 23.8682 10.7913C23.9784 10.7372 24.1315 10.7168 24.2173 10.6277C24.2783 10.5641 24.2288 10.4793 24.1517 10.4695Z" fill="#E6E6E6"/>
<path d="M24.2357 11.3259C24.2013 11.285 24.1451 11.2902 24.1019 11.3086C23.9852 11.3584 23.8735 11.4186 23.7634 11.4815C23.7059 11.5143 23.6467 11.5491 23.5953 11.5911C23.5585 11.6211 23.5245 11.6747 23.5161 11.6864C23.4856 11.7286 23.5437 11.779 23.5846 11.7549C23.5846 11.7549 23.5847 11.7548 23.5848 11.7548C23.5861 11.7548 23.5865 11.755 23.5881 11.755C23.6118 11.755 23.6336 11.7435 23.6545 11.7338C23.7132 11.7064 23.7719 11.679 23.8308 11.6519C23.9448 11.5998 24.0634 11.5364 24.1869 11.5103C24.2212 11.5031 24.2578 11.4684 24.264 11.4333C24.2719 11.389 24.2646 11.3604 24.2357 11.3259Z" fill="#E6E6E6"/>
<path d="M3.12256 118.767C3.12256 118.855 3.10352 118.917 3.06543 118.952C3.03027 118.984 2.96875 119 2.88086 119H1.94482C1.85693 119 1.79395 118.984 1.75586 118.952C1.7207 118.917 1.70312 118.855 1.70312 118.767V113.876C1.70312 113.583 1.72949 113.352 1.78223 113.182C1.83789 113.009 1.94336 112.886 2.09863 112.812C2.25684 112.736 2.48682 112.698 2.78857 112.698H3.95312C5.48242 112.698 6.24707 113.286 6.24707 114.46C6.24707 114.818 6.18701 115.111 6.06689 115.339C5.94678 115.568 5.79736 115.747 5.61865 115.875C5.43994 116.001 5.26416 116.097 5.09131 116.161V116.183C5.2876 116.312 5.47363 116.482 5.64941 116.693C5.82812 116.901 5.98926 117.128 6.13281 117.374C6.27637 117.617 6.39795 117.859 6.49756 118.099C6.59717 118.336 6.66602 118.549 6.7041 118.736C6.72168 118.824 6.72168 118.89 6.7041 118.934C6.68945 118.978 6.63965 119 6.55469 119H5.53955C5.46338 119 5.396 118.984 5.3374 118.952C5.28174 118.919 5.23047 118.845 5.18359 118.728C4.96094 118.168 4.70459 117.712 4.41455 117.361C4.12451 117.006 3.84473 116.722 3.5752 116.508C3.40234 116.371 3.31592 116.272 3.31592 116.214C3.31592 116.167 3.34375 116.103 3.39941 116.021C3.43457 115.971 3.48584 115.911 3.55322 115.84C3.62061 115.77 3.6792 115.717 3.729 115.682C3.77881 115.647 3.81836 115.625 3.84766 115.616C3.87988 115.607 3.92822 115.603 3.99268 115.603C4.20947 115.603 4.38965 115.528 4.5332 115.379C4.67969 115.229 4.75293 114.994 4.75293 114.671C4.75293 114.367 4.67529 114.144 4.52002 114.003C4.36768 113.86 4.15674 113.788 3.88721 113.788H3.62354C3.43018 113.788 3.29834 113.829 3.22803 113.911C3.15771 113.993 3.12256 114.134 3.12256 114.333V118.767ZM8.65967 119C8.35791 119 8.12793 118.962 7.96973 118.886C7.81445 118.81 7.70898 118.685 7.65332 118.512C7.60059 118.339 7.57422 118.109 7.57422 117.822V113.876C7.57422 113.583 7.60059 113.352 7.65332 113.182C7.70898 113.009 7.81445 112.886 7.96973 112.812C8.12793 112.736 8.35791 112.698 8.65967 112.698H10.7251C10.7954 112.698 10.8481 112.71 10.8833 112.733C10.9595 112.786 11.0386 112.849 11.1206 112.922C11.2026 112.996 11.2891 113.083 11.3799 113.186C11.4092 113.224 11.4238 113.255 11.4238 113.278C11.4238 113.305 11.4092 113.334 11.3799 113.366C11.2891 113.469 11.2026 113.557 11.1206 113.63C11.0386 113.703 10.9595 113.766 10.8833 113.819C10.8423 113.842 10.7896 113.854 10.7251 113.854H9.49463C9.30127 113.854 9.16943 113.895 9.09912 113.977C9.02881 114.059 8.99365 114.2 8.99365 114.399V115.251H10.5713C10.6416 115.251 10.6943 115.263 10.7295 115.287C10.8057 115.339 10.8848 115.402 10.9668 115.476C11.0488 115.549 11.1353 115.637 11.2261 115.739C11.2554 115.777 11.27 115.808 11.27 115.832C11.27 115.858 11.2554 115.887 11.2261 115.919C11.1353 116.022 11.0488 116.11 10.9668 116.183C10.8848 116.256 10.8057 116.319 10.7295 116.372C10.6885 116.396 10.6357 116.407 10.5713 116.407H8.99365V117.295C8.99365 117.491 9.02881 117.632 9.09912 117.717C9.16943 117.802 9.30127 117.844 9.49463 117.844H10.8701C10.9404 117.844 10.9932 117.856 11.0283 117.879C11.1045 117.932 11.1836 117.995 11.2656 118.068C11.3477 118.142 11.4341 118.229 11.5249 118.332C11.5542 118.37 11.5688 118.401 11.5688 118.424C11.5688 118.451 11.5542 118.48 11.5249 118.512C11.4341 118.615 11.3477 118.703 11.2656 118.776C11.1836 118.849 11.1045 118.912 11.0283 118.965C10.9873 118.988 10.9346 119 10.8701 119H8.65967ZM13.9507 118.653C13.7163 118.284 13.4863 117.871 13.2607 117.414C13.0381 116.954 12.8359 116.482 12.6543 115.999C12.4727 115.512 12.3276 115.045 12.2192 114.597C12.1108 114.146 12.0566 113.743 12.0566 113.388C12.0566 113.312 12.0728 113.252 12.105 113.208C12.1724 113.114 12.2544 113.018 12.3511 112.918C12.4507 112.815 12.5679 112.708 12.7026 112.597C12.7466 112.562 12.7876 112.544 12.8257 112.544C12.8638 112.544 12.9019 112.562 12.9399 112.597C13.0776 112.708 13.1948 112.815 13.2915 112.918C13.3882 113.018 13.4702 113.114 13.5376 113.208C13.5698 113.252 13.5859 113.316 13.5859 113.401V113.384C13.5859 113.633 13.6196 113.933 13.687 114.285C13.7573 114.633 13.8525 115.001 13.9727 115.388C14.0957 115.771 14.2349 116.145 14.3901 116.508C14.5483 116.869 14.7168 117.184 14.8955 117.453H14.9219C15.1182 117.184 15.2954 116.87 15.4536 116.513C15.6147 116.152 15.7524 115.78 15.8667 115.396C15.9839 115.013 16.0732 114.646 16.1348 114.298C16.1992 113.946 16.2314 113.643 16.2314 113.388V113.401C16.2314 113.316 16.2461 113.252 16.2754 113.208C16.416 113.015 16.6094 112.811 16.8555 112.597C16.9023 112.562 16.9434 112.544 16.9785 112.544C17.0107 112.544 17.0488 112.562 17.0928 112.597C17.2246 112.708 17.3374 112.815 17.4312 112.918C17.5249 113.018 17.6055 113.114 17.6729 113.208C17.7021 113.255 17.7168 113.318 17.7168 113.397C17.7168 113.664 17.6787 113.973 17.6025 114.324C17.5293 114.673 17.4282 115.042 17.2993 115.432C17.1704 115.821 17.0239 116.211 16.8599 116.601C16.6958 116.99 16.5229 117.362 16.3413 117.717C16.1597 118.068 15.978 118.38 15.7964 118.653C15.644 118.884 15.436 119 15.1724 119H14.5659C14.3022 119 14.0972 118.884 13.9507 118.653ZM12.0566 113.384V113.388V113.401V113.384ZM17.7168 113.388V113.401V113.397V113.388ZM21.7686 113.045C21.9297 113.271 22.0938 113.562 22.2607 113.92C22.4307 114.274 22.5947 114.664 22.7529 115.089C22.9111 115.514 23.0532 115.949 23.1792 116.394C23.3081 116.836 23.4136 117.263 23.4956 117.673C23.5776 118.083 23.6245 118.448 23.6362 118.767C23.6392 118.922 23.5688 119 23.4253 119H22.3618C22.2241 119 22.1523 118.931 22.1465 118.793C22.1348 118.465 22.082 118.067 21.9883 117.598H19.5889C19.5068 118.055 19.46 118.454 19.4482 118.793C19.4424 118.931 19.3677 119 19.2241 119H18.1826C18.1299 119 18.0859 118.985 18.0508 118.956C18.0156 118.924 17.9995 118.87 18.0024 118.793C18.0171 118.468 18.064 118.099 18.1431 117.686C18.2251 117.27 18.3306 116.839 18.4595 116.394C18.5884 115.949 18.7319 115.514 18.8901 115.089C19.0483 114.661 19.2124 114.27 19.3823 113.916C19.5522 113.561 19.7178 113.271 19.8789 113.045C19.9639 112.925 20.0532 112.837 20.147 112.782C20.2437 112.726 20.3623 112.698 20.5029 112.698H21.1357C21.2793 112.698 21.3994 112.726 21.4961 112.782C21.5928 112.837 21.6836 112.925 21.7686 113.045ZM20.7754 114.087C20.582 114.395 20.4048 114.762 20.2437 115.19C20.0825 115.618 19.9434 116.057 19.8262 116.508H21.7334C21.6104 116.057 21.4683 115.618 21.3071 115.19C21.146 114.762 20.9775 114.395 20.8018 114.087H20.7754ZM26.0093 118.767C26.0093 118.855 25.9917 118.917 25.9565 118.952C25.9243 118.984 25.8657 119 25.7808 119H24.8975C24.8154 119 24.7568 118.984 24.7217 118.952C24.6865 118.917 24.6689 118.855 24.6689 118.767V113.199C24.6689 113.026 24.7026 112.9 24.77 112.821C24.8374 112.739 24.9561 112.698 25.126 112.698H25.5347C25.6841 112.698 25.8247 112.719 25.9565 112.76C26.0913 112.798 26.2334 112.886 26.3828 113.023C26.5352 113.161 26.7109 113.375 26.9102 113.665C27.1123 113.952 27.3555 114.345 27.6396 114.843C27.9121 115.317 28.1304 115.697 28.2944 115.981C28.4614 116.265 28.5903 116.482 28.6812 116.631C28.772 116.781 28.8394 116.888 28.8833 116.952C28.9302 117.017 28.9683 117.069 28.9976 117.11V113.401C28.9976 113.316 29.0107 113.252 29.0371 113.208C29.1631 113.015 29.3374 112.811 29.5601 112.597C29.604 112.562 29.6406 112.544 29.6699 112.544C29.7021 112.544 29.7373 112.562 29.7754 112.597C29.8955 112.708 29.9966 112.815 30.0786 112.918C30.1636 113.018 30.2368 113.114 30.2983 113.208C30.3247 113.255 30.3379 113.319 30.3379 113.401V118.635C30.3379 118.767 30.313 118.861 30.2632 118.917C30.2134 118.972 30.1226 119 29.9907 119H29.5688C29.4429 119 29.314 118.979 29.1821 118.938C29.0503 118.895 28.9009 118.798 28.7339 118.648C28.5669 118.496 28.3691 118.26 28.1406 117.941C27.9121 117.622 27.6367 117.185 27.3145 116.631C27.042 116.16 26.8237 115.785 26.6597 115.506C26.4985 115.228 26.3755 115.019 26.2905 114.878C26.2056 114.734 26.144 114.635 26.106 114.579C26.0679 114.521 26.0356 114.477 26.0093 114.447V118.767ZM35.1367 113.045C35.2979 113.271 35.4619 113.562 35.6289 113.92C35.7988 114.274 35.9629 114.664 36.1211 115.089C36.2793 115.514 36.4214 115.949 36.5474 116.394C36.6763 116.836 36.7817 117.263 36.8638 117.673C36.9458 118.083 36.9927 118.448 37.0044 118.767C37.0073 118.922 36.937 119 36.7935 119H35.73C35.5923 119 35.5205 118.931 35.5146 118.793C35.5029 118.465 35.4502 118.067 35.3564 117.598H32.957C32.875 118.055 32.8281 118.454 32.8164 118.793C32.8105 118.931 32.7358 119 32.5923 119H31.5508C31.498 119 31.4541 118.985 31.4189 118.956C31.3838 118.924 31.3677 118.87 31.3706 118.793C31.3853 118.468 31.4321 118.099 31.5112 117.686C31.5933 117.27 31.6987 116.839 31.8276 116.394C31.9565 115.949 32.1001 115.514 32.2583 115.089C32.4165 114.661 32.5806 114.27 32.7505 113.916C32.9204 113.561 33.0859 113.271 33.2471 113.045C33.332 112.925 33.4214 112.837 33.5151 112.782C33.6118 112.726 33.7305 112.698 33.8711 112.698H34.5039C34.6475 112.698 34.7676 112.726 34.8643 112.782C34.9609 112.837 35.0518 112.925 35.1367 113.045ZM34.1436 114.087C33.9502 114.395 33.7729 114.762 33.6118 115.19C33.4507 115.618 33.3115 116.057 33.1943 116.508H35.1016C34.9785 116.057 34.8364 115.618 34.6753 115.19C34.5142 114.762 34.3457 114.395 34.1699 114.087H34.1436ZM41.9438 118.767C41.9438 118.855 41.9248 118.917 41.8867 118.952C41.8516 118.984 41.79 119 41.7021 119H40.7661C40.6782 119 40.6152 118.984 40.5771 118.952C40.542 118.917 40.5244 118.855 40.5244 118.767V113.401C40.5244 113.316 40.5391 113.252 40.5684 113.208C40.7002 113.015 40.8848 112.811 41.1221 112.597C41.166 112.562 41.2041 112.544 41.2363 112.544C41.2715 112.544 41.3081 112.562 41.3462 112.597C41.4751 112.708 41.5835 112.815 41.6714 112.918C41.7593 113.018 41.8354 113.114 41.8999 113.208C41.9292 113.255 41.9438 113.319 41.9438 113.401V115.225H42.0449C42.4111 115.225 42.7085 115.175 42.937 115.076C43.1655 114.973 43.3413 114.837 43.4644 114.667C43.5874 114.494 43.6709 114.302 43.7148 114.091C43.7617 113.88 43.7852 113.665 43.7852 113.445V113.401C43.7852 113.316 43.7998 113.252 43.8291 113.208C43.9609 113.015 44.1455 112.811 44.3828 112.597C44.4268 112.562 44.4648 112.544 44.4971 112.544C44.5322 112.544 44.5688 112.562 44.6069 112.597C44.7358 112.708 44.8442 112.815 44.9321 112.918C45.02 113.018 45.0962 113.114 45.1606 113.208C45.1899 113.255 45.2046 113.319 45.2046 113.401V113.445C45.2046 113.683 45.1812 113.929 45.1343 114.184C45.0874 114.436 45.0039 114.674 44.8838 114.9C44.7666 115.125 44.5996 115.319 44.3828 115.48C44.1689 115.638 43.8921 115.742 43.5522 115.792V115.823C43.8569 115.919 44.1279 116.081 44.3652 116.306C44.6055 116.529 44.812 116.784 44.9849 117.071C45.1606 117.358 45.3042 117.646 45.4155 117.937C45.5269 118.227 45.606 118.486 45.6528 118.714C45.6763 118.823 45.6763 118.897 45.6528 118.938C45.6294 118.979 45.5737 119 45.4858 119H44.4092C44.2598 119 44.1719 118.931 44.1455 118.793C44.1016 118.571 44.0151 118.32 43.8862 118.042C43.7603 117.761 43.6021 117.49 43.4116 117.229C43.2212 116.968 43.0088 116.753 42.7744 116.583C42.543 116.413 42.2998 116.328 42.0449 116.328H41.9438V118.767ZM50.6011 113.401C50.6011 113.316 50.6157 113.252 50.645 113.208C50.7769 113.015 50.9614 112.811 51.1987 112.597C51.2427 112.562 51.2808 112.544 51.313 112.544C51.3481 112.544 51.3848 112.562 51.4229 112.597C51.5518 112.708 51.6602 112.815 51.748 112.918C51.8359 113.018 51.9121 113.114 51.9766 113.208C52.0059 113.255 52.0205 113.319 52.0205 113.401V118.767C52.0205 118.855 52.0015 118.917 51.9634 118.952C51.9282 118.984 51.8667 119 51.7788 119H50.8428C50.7549 119 50.6919 118.984 50.6538 118.952C50.6187 118.917 50.6011 118.855 50.6011 118.767V116.434H47.9907V118.767C47.9907 118.855 47.9717 118.917 47.9336 118.952C47.8984 118.984 47.8369 119 47.749 119H46.813C46.7251 119 46.6621 118.984 46.624 118.952C46.5889 118.917 46.5713 118.855 46.5713 118.767V112.931C46.5713 112.843 46.5889 112.783 46.624 112.751C46.6621 112.716 46.7251 112.698 46.813 112.698H47.749C47.8369 112.698 47.8984 112.716 47.9336 112.751C47.9717 112.783 47.9907 112.843 47.9907 112.931V115.212H50.6011V113.401ZM54.8462 118.767C54.8462 118.855 54.8271 118.917 54.7891 118.952C54.7539 118.984 54.6924 119 54.6045 119H53.6685C53.5806 119 53.5176 118.984 53.4795 118.952C53.4443 118.917 53.4268 118.855 53.4268 118.767V113.401C53.4268 113.316 53.4414 113.252 53.4707 113.208C53.6025 113.015 53.7871 112.811 54.0244 112.597C54.0684 112.562 54.1064 112.544 54.1387 112.544C54.1738 112.544 54.2104 112.562 54.2485 112.597C54.3774 112.708 54.4858 112.815 54.5737 112.918C54.6616 113.018 54.7378 113.114 54.8022 113.208C54.8315 113.255 54.8462 113.319 54.8462 113.401V118.767ZM57.3423 119C57.0405 119 56.8105 118.962 56.6523 118.886C56.4971 118.81 56.3916 118.685 56.3359 118.512C56.2832 118.339 56.2568 118.109 56.2568 117.822V113.876C56.2568 113.583 56.2832 113.352 56.3359 113.182C56.3916 113.009 56.4971 112.886 56.6523 112.812C56.8105 112.736 57.0405 112.698 57.3423 112.698H58.5508C59.2539 112.698 59.7944 112.827 60.1724 113.085C60.5503 113.343 60.7393 113.706 60.7393 114.175C60.7393 114.406 60.6865 114.617 60.5811 114.808C60.4756 114.998 60.3364 115.161 60.1636 115.295C59.9937 115.43 59.8076 115.531 59.6055 115.599V115.616C59.8633 115.651 60.0962 115.736 60.3042 115.871C60.5122 116.003 60.6777 116.176 60.8008 116.39C60.9268 116.601 60.9897 116.844 60.9897 117.119C60.9897 117.529 60.8901 117.875 60.6909 118.156C60.4946 118.435 60.2222 118.646 59.8735 118.789C59.5278 118.93 59.1294 119 58.6782 119H57.3423ZM57.6763 117.405C57.6763 117.601 57.7114 117.742 57.7817 117.827C57.8521 117.912 57.9839 117.954 58.1772 117.954H58.5112C58.8071 117.954 59.0444 117.878 59.2231 117.726C59.4048 117.573 59.4956 117.365 59.4956 117.102C59.4956 116.85 59.4077 116.652 59.2319 116.508C59.0562 116.365 58.8291 116.293 58.5508 116.293H58.5552C58.4849 116.293 58.4321 116.283 58.397 116.262C58.3208 116.212 58.2417 116.155 58.1597 116.091C58.0806 116.023 57.9941 115.943 57.9004 115.849C57.8711 115.811 57.8564 115.783 57.8564 115.766C57.8564 115.742 57.8711 115.714 57.9004 115.682C57.9941 115.588 58.0806 115.508 58.1597 115.44C58.2417 115.373 58.3208 115.316 58.397 115.269C58.438 115.249 58.4907 115.238 58.5552 115.238H58.5508C58.7236 115.238 58.8818 115.174 59.0254 115.045C59.1719 114.916 59.2451 114.714 59.2451 114.438C59.2451 114.16 59.1675 113.976 59.0122 113.885C58.8569 113.791 58.6577 113.744 58.4146 113.744H58.1772C57.9839 113.744 57.8521 113.785 57.7817 113.867C57.7114 113.949 57.6763 114.09 57.6763 114.289V117.405ZM64.7515 119.11C64.1421 119.11 63.6118 118.993 63.1606 118.758C62.7095 118.524 62.3594 118.171 62.1104 117.699C61.8643 117.228 61.7412 116.639 61.7412 115.933C61.7412 114.811 62.0151 113.974 62.563 113.423C63.1108 112.87 63.874 112.593 64.8525 112.593C65.7695 112.593 66.4946 112.864 67.0278 113.406C67.561 113.945 67.8276 114.745 67.8276 115.805C67.8276 116.555 67.7031 117.175 67.4541 117.664C67.2051 118.15 66.8506 118.514 66.3906 118.754C65.9307 118.991 65.3843 119.11 64.7515 119.11ZM64.7778 117.923C65.3052 117.923 65.6963 117.734 65.9512 117.356C66.2061 116.979 66.3335 116.488 66.3335 115.884C66.3335 115.184 66.2134 114.658 65.9731 114.307C65.7329 113.955 65.3462 113.779 64.813 113.779C63.7612 113.779 63.2354 114.472 63.2354 115.858C63.2354 116.476 63.3613 116.976 63.6133 117.356C63.8682 117.734 64.2563 117.923 64.7778 117.923Z" fill="black"/>
<defs>
<linearGradient id="paint0_linear_148_116" x1="24.2993" y1="89.5051" x2="47.9223" y2="89.5051" gradientUnits="userSpaceOnUse">
<stop stop-color="#CCCCCC"/>
<stop offset="1" stop-color="#E1E1E1"/>
</linearGradient>
<linearGradient id="paint1_linear_148_116" x1="24.2993" y1="95.0064" x2="47.9223" y2="95.0064" gradientUnits="userSpaceOnUse">
<stop stop-color="#CCCCCC"/>
<stop offset="1" stop-color="#E1E1E1"/>
</linearGradient>
<linearGradient id="paint2_linear_148_116" x1="24.2993" y1="100.508" x2="47.9223" y2="100.508" gradientUnits="userSpaceOnUse">
<stop stop-color="#CCCCCC"/>
<stop offset="1" stop-color="#E1E1E1"/>
</linearGradient>
<linearGradient id="paint3_linear_148_116" x1="36.1107" y1="103.906" x2="36.1107" y2="109.083" gradientUnits="userSpaceOnUse">
<stop stop-color="#C9CDCC"/>
<stop offset="1" stop-color="#E3E3E3"/>
</linearGradient>
<clipPath id="clip0_148_116">
<rect width="8.09006" height="8.73726" fill="white" transform="translate(56.6594 46.3043)"/>
</clipPath>
</defs>
</svg>
