<svg width="605" height="183" viewBox="0 0 605 183" fill="none" xmlns="http://www.w3.org/2000/svg">
<g clip-path="url(#clip0_28_262)">
<path d="M78.996 172.004C78.4782 172.018 77.9656 171.937 77.5276 171.772C77.0896 171.607 76.7475 171.366 76.5475 171.081C76.3475 170.796 76.2994 170.481 76.4096 170.18C76.5199 169.878 76.7831 169.604 77.1638 169.394C77.2275 169.243 77.2733 169.135 77.337 168.984C77.3142 168.951 77.2913 168.918 77.2682 168.885C76.7465 168.152 75.8724 167.526 74.7556 167.087C73.6388 166.648 72.3291 166.415 70.991 166.418C69.653 166.421 68.3462 166.66 67.2349 167.103C66.1236 167.547 65.2573 168.177 64.7448 168.913C62.6966 171.852 60.0888 174.795 59.4467 177.902C59.1639 179.275 59.2832 180.667 59.7992 182.016C54.9884 175.766 52.4903 168.972 52.4742 162.095C52.4732 160.37 52.6342 158.646 52.9563 156.931C53.2226 155.525 53.592 154.129 54.0645 152.743C56.643 145.224 62.1791 138.177 70.2182 132.18C74.1091 130.915 77.2557 128.97 79.2341 126.608C79.9508 125.759 80.4573 124.852 80.7379 123.916C80.299 123.951 79.8529 123.972 79.414 123.989C79.2773 123.993 79.1334 123.998 78.9966 124.002L78.9451 124.003C78.4627 124.016 77.9843 123.946 77.5676 123.801C77.1508 123.655 76.8135 123.441 76.5961 123.185C76.3788 122.928 76.2907 122.639 76.3424 122.353C76.3942 122.067 76.5836 121.796 76.8879 121.573C77.0774 121.434 77.267 121.295 77.4568 121.156C77.7446 120.942 78.0396 120.732 78.3274 120.518C78.3606 120.497 78.3919 120.476 78.421 120.453C78.752 120.209 79.0829 119.969 79.414 119.725C78.8098 119.166 77.9972 118.698 77.0395 118.358C73.7224 117.2 69.146 118.002 66.7499 119.789C64.3467 121.576 63.8934 124.083 64.728 126.316C65.5488 128.216 66.9066 130.019 68.7431 131.648C68.5632 131.785 68.3761 131.918 68.1962 132.055C64.9079 134.574 62.0418 137.278 59.6392 140.13C60.2235 136.935 59.5262 133.704 57.6045 130.701C55.657 127.902 52.0066 125.546 48.792 123.126C44.9307 120.22 37.0128 121.489 36.3325 125.172C36.3259 125.208 36.3195 125.244 36.3132 125.279C36.7907 125.44 37.2581 125.61 37.7154 125.79C38.2899 126.019 38.735 126.345 38.9925 126.727C39.25 127.109 39.3078 127.529 39.1584 127.93C39.0089 128.332 38.6592 128.698 38.155 128.979C37.6508 129.26 37.0157 129.445 36.3328 129.507L36.2629 129.514C36.433 130.539 36.7336 131.555 37.1623 132.552C38.4043 135.338 40.5992 137.941 43.6092 140.198C46.6192 142.455 50.3795 144.317 54.6544 145.667C54.935 145.753 55.2085 145.839 55.4891 145.92C53.0752 149.995 51.561 154.239 50.9847 158.547C50.6585 161.088 50.6778 163.641 51.0424 166.18L51.0208 166.09C50.0997 163.266 47.5708 160.718 43.8613 158.877C38.3516 156.181 30.5676 155.188 24.6237 153.021C23.992 152.78 23.2575 152.651 22.5068 152.649C21.7561 152.648 21.0206 152.775 20.3869 153.015C19.7533 153.255 19.2479 153.597 18.9305 154.003C18.613 154.408 18.4968 154.859 18.5954 155.302C18.6034 155.333 18.6115 155.365 18.6197 155.396C19.5058 155.611 20.3685 155.859 21.2028 156.138C21.6803 156.298 22.1477 156.469 22.605 156.649C23.1795 156.877 23.6247 157.204 23.8821 157.586C24.1396 157.968 24.1974 158.387 24.048 158.789C23.8985 159.191 23.5488 159.556 23.0446 159.838C22.5404 160.119 21.9053 160.303 21.2224 160.366L21.1524 160.372C21.1021 160.377 21.0589 160.381 21.0086 160.385C22.5226 162.538 24.6474 164.52 27.2902 166.244C30.5549 168.331 34.5007 169.998 38.8857 171.144C43.2707 172.29 48.0024 172.891 52.7909 172.909H52.7981C54.0979 176.273 55.9813 179.548 58.4177 182.681H78.493C78.565 182.548 78.6297 182.411 78.6945 182.278C76.8363 182.347 74.9707 182.281 73.1395 182.081C74.629 180.992 76.1185 179.895 77.6079 178.806C77.6412 178.786 77.6724 178.764 77.7015 178.742C78.457 178.185 79.2197 177.632 79.9752 177.075L79.9756 177.074C80.0159 175.366 79.6869 173.662 78.9967 172.004L78.996 172.004Z" fill="#F2F2F2"/>
<path d="M479.277 164.88C479.658 165.09 480.137 165.224 480.651 165.266C481.165 165.307 481.687 165.254 482.148 165.113C482.609 164.971 482.986 164.749 483.228 164.476C483.469 164.203 483.564 163.892 483.5 163.586C483.614 163.446 483.696 163.345 483.81 163.205C483.863 163.189 483.916 163.173 483.969 163.156C485.162 162.795 486.507 162.651 487.836 162.743C489.165 162.835 490.419 163.16 491.44 163.675C492.46 164.19 493.203 164.874 493.573 165.64C493.944 166.405 493.927 167.219 493.523 167.979C491.915 171.013 490.73 174.266 487.863 176.889C486.596 178.049 485 179.068 483.147 179.903C493.584 176.964 502.838 172.723 510.281 167.467C512.147 166.147 513.887 164.765 515.494 163.33C516.809 162.152 518.035 160.942 519.171 159.7C525.324 152.958 528.704 145.442 529.033 137.77C527.422 135.31 527.115 132.616 528.155 130.049C528.524 129.124 529.116 128.236 529.913 127.413C530.211 127.607 530.53 127.795 530.847 127.976C530.947 128.032 531.052 128.09 531.152 128.146L531.19 128.167C531.546 128.362 531.988 128.491 532.464 128.54C532.94 128.588 533.429 128.554 533.873 128.441C534.317 128.328 534.696 128.14 534.966 127.902C535.235 127.663 535.383 127.383 535.392 127.095C535.397 126.916 535.402 126.737 535.406 126.558C535.418 126.284 535.419 126.01 535.43 125.736C535.427 125.708 535.426 125.679 535.428 125.651C535.439 125.337 535.445 125.026 535.456 124.713C536.522 124.517 537.649 124.47 538.75 124.577C542.539 124.963 545.175 127.331 545.077 129.617C544.985 131.907 542.622 133.999 539.57 135.388C536.889 136.527 533.901 137.386 530.736 137.929C530.725 138.103 530.725 138.276 530.714 138.45C530.509 141.638 529.779 144.807 528.536 147.91C531.542 145.241 535.568 143.036 540.283 141.475C544.798 140.08 550.139 139.676 555.213 139.057C561.309 138.314 565.997 142.32 562.537 145.4C562.504 145.43 562.47 145.46 562.436 145.489C561.897 145.429 561.356 145.38 560.811 145.343C560.124 145.297 559.431 145.377 558.821 145.57C558.211 145.764 557.714 146.062 557.394 146.427C557.074 146.792 556.947 147.206 557.028 147.614C557.11 148.023 557.397 148.407 557.852 148.717L557.898 148.749C556.661 149.468 555.333 150.13 553.926 150.73C549.965 152.385 545.473 153.536 540.73 154.108C535.988 154.681 531.098 154.665 526.367 154.059C526.059 154.017 525.757 153.978 525.455 153.933C522.898 157.976 519.47 161.805 515.256 165.322C512.76 167.392 509.986 169.338 506.963 171.141L507.077 171.081C510.833 169.273 515.522 168.293 520.351 168.306C527.481 168.355 534.511 170.58 541.401 171.201C542.145 171.258 542.847 171.441 543.423 171.728C543.998 172.015 544.424 172.394 544.65 172.821C544.876 173.247 544.892 173.703 544.697 174.135C544.502 174.567 544.104 174.957 543.549 175.258C543.509 175.279 543.469 175.3 543.429 175.321C542.518 175.146 541.59 175.004 540.651 174.898C540.112 174.838 539.57 174.789 539.025 174.751C538.339 174.706 537.645 174.785 537.035 174.979C536.425 175.172 535.928 175.471 535.608 175.836C535.288 176.201 535.161 176.615 535.243 177.023C535.324 177.432 535.611 177.816 536.066 178.126L536.113 178.158C536.147 178.18 536.175 178.2 536.209 178.223C532.723 179.29 528.956 179.992 525.07 180.298C520.317 180.643 515.495 180.406 510.901 179.602C506.307 178.797 502.037 177.443 498.353 175.62L498.347 175.618C493.717 177.694 488.736 179.478 483.486 180.941L468.124 173.244C468.212 173.114 468.311 172.985 468.405 172.858C469.752 173.624 471.251 174.288 472.869 174.837C472.905 173.433 472.951 172.022 472.988 170.618C472.985 170.59 472.984 170.561 472.986 170.533C473.01 169.817 473.024 169.101 473.048 168.385L473.048 168.385C474.863 167.062 476.956 165.884 479.276 164.88L479.277 164.88Z" fill="#F2F2F2"/>
<path d="M147.409 100.201C146.847 100.12 146.321 99.9668 145.869 99.752C145.417 99.5373 145.049 99.266 144.792 98.9575C144.535 98.649 144.395 98.3106 144.381 97.9663C144.367 97.622 144.48 97.28 144.713 96.9646L134.399 91.276L141.493 90.2384L150.199 95.7994C151.063 96.0668 151.732 96.5136 152.08 97.0553C152.428 97.5969 152.43 98.1957 152.086 98.7382C151.742 99.2807 151.076 99.7292 150.214 99.9987C149.352 100.268 148.354 100.34 147.409 100.201Z" fill="#FFB6B6"/>
<path d="M115.936 84.686L105.126 65.8903C104.272 64.3999 104.445 62.7686 105.608 61.3542C106.771 59.9398 108.828 58.8579 111.328 58.3459C112.713 58.0634 114.185 57.9659 115.64 58.0604C117.096 58.1548 118.498 58.439 119.748 58.8926C120.998 59.3462 122.065 59.9582 122.874 60.6851C123.682 61.412 124.212 62.236 124.426 63.0986L128.746 80.5492L146.821 91.5749L142.067 95.6098L115.936 84.686Z" fill="#3F3D56"/>
<path d="M98.0908 173.358H105.808L109.48 155.628H98.0894L98.0908 173.358Z" fill="#FFB6B6"/>
<path d="M95.4776 171.09L107.677 170.657V173.77L119.275 178.541C119.848 178.777 120.279 179.115 120.506 179.507C120.733 179.899 120.744 180.324 120.537 180.72C120.33 181.116 119.915 181.462 119.355 181.708C118.794 181.953 118.116 182.086 117.42 182.086H93.9395L95.4776 171.09Z" fill="#2F2E41"/>
<path d="M104.833 90.0761C104.833 90.0761 102.427 88.5749 97.8162 92.1216C93.5563 95.3333 93.7681 95.9602 94.3178 100.04C94.7656 102.958 90.3775 117.62 94.7506 120.112L98.277 167.074C98.277 167.074 108.976 168.862 109.479 165.861L137.103 106.147L133.802 90.8791L104.833 90.0761Z" fill="#2F2E41"/>
<path d="M155.927 172.914L162.69 170.699L151.566 154.109L141.585 157.377L155.927 172.914Z" fill="#FFB6B6"/>
<path d="M151.803 171.676L162.142 167.796L164.66 170.524L178.683 171.376C179.375 171.418 180.027 171.591 180.543 171.869C181.059 172.148 181.412 172.517 181.551 172.924C181.69 173.33 181.607 173.752 181.314 174.128C181.021 174.504 180.534 174.815 179.924 175.015L167.197 179.183L164.147 180.182L159.349 181.753L151.803 171.676Z" fill="#2F2E41"/>
<path d="M94.4732 97.9997C94.4732 97.9997 94.3336 105.565 93.1618 109.996C92.0266 114.033 93.4976 118.176 97.2793 121.593C100.031 124.021 104.085 126.285 109.933 127.214L151.007 167.353C151.007 167.353 161.829 165.85 159.843 163.076L135.749 102.822L120.508 90.39L94.4732 97.9997Z" fill="#2F2E41"/>
<path d="M94.1409 76.5971L92.9185 100.04L133.678 93.3217L134.395 92.1626L136.142 88.2152C136.142 88.2152 132.101 82.5361 132.925 69.3121L122.629 52.9613L106.321 52.7628L106.23 52.817C101.079 55.8797 97.2801 59.6536 95.1709 63.8026C93.0617 67.9516 92.7078 72.3469 94.1409 76.5971Z" fill="#3F3D56"/>
<path d="M176.135 86.2316C175.582 86.3319 174.999 86.3586 174.426 86.31C173.854 86.2614 173.306 86.1387 172.822 85.9504C172.338 85.7621 171.929 85.5128 171.624 85.2202C171.319 84.9276 171.125 84.5987 171.057 84.2567L157.325 82.4683L162.556 79.4316L174.794 81.5955C175.766 81.565 176.723 81.7481 177.484 82.1099C178.245 82.4717 178.756 82.9872 178.922 83.5587C179.087 84.1301 178.895 84.7179 178.381 85.2105C177.868 85.7032 177.069 86.0665 176.135 86.2316Z" fill="#FFB6B6"/>
<path d="M135.802 82.3641L110.485 69.4283C108.48 68.4017 107.241 66.9432 107.039 65.373C106.837 63.8027 107.689 62.2489 109.409 61.0525C110.362 60.3908 111.548 59.8621 112.882 59.504C114.217 59.146 115.668 58.9674 117.131 58.9808C118.595 58.9943 120.036 59.1995 121.351 59.5819C122.667 59.9643 123.825 60.5145 124.743 61.1935L143.322 74.9297L168.287 78.9742L167.623 83.8878L135.802 82.3641Z" fill="#3F3D56"/>
<path d="M131.401 36.9432C131.399 39.6021 129.7 42.1611 126.649 44.1017C123.597 46.0423 119.421 47.2195 114.967 47.3948C110.513 47.57 106.114 46.7302 102.66 45.0456C99.2067 43.3609 96.9574 40.9573 96.368 38.3217C95.7786 35.6861 96.8931 33.0156 99.4858 30.8512C102.079 28.6868 105.956 27.1903 110.331 26.665C114.707 26.1397 119.255 26.6247 123.053 28.0219C126.851 29.4191 129.615 31.6239 130.786 34.1897C131.195 35.0872 131.402 36.0132 131.401 36.9432Z" fill="#FFB8B8"/>
<path d="M124.997 23.1478C123.571 23.1225 124.06 21.5215 122.911 21.0108C122.906 21.0263 122.9 21.0418 122.894 21.0572C122.743 21.403 122.41 21.7109 121.944 21.9355C121.477 22.1601 120.902 22.2896 120.303 22.3048C119.704 22.32 119.112 22.2202 118.615 22.0201C118.118 21.82 117.742 21.5301 117.543 21.1932C117.352 20.8034 117.007 20.4466 116.537 20.1528C116.067 19.8589 115.485 19.6367 114.84 19.5046C114.769 20.9886 112.884 22.2765 110.636 22.9174C108.388 23.5584 105.825 23.665 103.333 23.687C100.841 23.7089 98.3126 23.6592 95.896 24.0225C93.4794 24.3857 91.1288 25.2397 90.0963 26.5909C89.0638 27.9421 89.8005 29.8024 92.0582 30.4313C90.3092 30.4368 88.8251 31.2965 88.2203 32.274C87.7246 33.2767 87.5953 34.331 87.8411 35.366C88.3326 39.1982 89.531 43.324 94.2159 45.9669C97.7864 47.9812 102.897 48.7926 107.815 48.7809C112.732 48.7691 111.868 48.4999 116.623 47.7523C116.623 47.7523 121.143 40.0331 120.005 39.2738C118.866 38.5144 117.921 37.5427 118.127 36.5322C118.333 35.5216 120.156 34.6163 121.739 35.001C121.473 34.5958 121.272 34.5186 121.147 34.5392C121.227 34.4241 121.296 34.3065 121.356 34.187C121.654 33.5782 122.19 33.0201 122.92 32.5587C123.651 32.0973 124.555 31.7458 125.558 31.533C126.571 31.3371 127.66 31.3307 128.68 31.5144C129.699 31.6982 130.6 32.0634 131.261 32.561C136.467 29.6525 133.237 23.2935 124.997 23.1478Z" fill="#2F2E41"/>
<path d="M427.455 100.201C428.017 100.12 428.543 99.9668 428.995 99.752C429.447 99.5372 429.815 99.266 430.072 98.9575C430.329 98.649 430.469 98.3106 430.483 97.9663C430.497 97.622 430.383 97.28 430.151 96.9646L440.465 91.276L433.371 90.2384L424.665 95.7994C423.801 96.0668 423.132 96.5136 422.784 97.0553C422.436 97.5969 422.434 98.1957 422.778 98.7382C423.122 99.2807 423.788 99.7292 424.65 99.9987C425.512 100.268 426.51 100.34 427.455 100.201Z" fill="#9E616A"/>
<path d="M432.797 95.6098L428.042 91.5749L446.117 80.5492L450.438 63.0986C450.652 62.236 451.182 61.412 451.99 60.6851C452.798 59.9582 453.865 59.3462 455.116 58.8926C456.366 58.439 457.768 58.1548 459.223 58.0604C460.678 57.9659 462.151 58.0634 463.536 58.3459C466.036 58.8579 468.093 59.9398 469.256 61.3542C470.419 62.7686 470.592 64.3999 469.738 65.8903L458.928 84.686L432.797 95.6098Z" fill="#E6E6E6"/>
<path d="M476.773 173.358H469.055L465.384 155.628H476.774L476.773 173.358Z" fill="#9E616A"/>
<path d="M480.924 182.086H457.444C456.748 182.086 456.07 181.953 455.509 181.708C454.948 181.462 454.534 181.116 454.327 180.72C454.12 180.324 454.13 179.899 454.357 179.507C454.584 179.115 455.016 178.777 455.589 178.541L467.187 173.77V170.657L479.386 171.09L480.924 182.086Z" fill="#2F2E41"/>
<path d="M470.031 90.0762C470.031 90.0762 476.272 96.6652 480.883 100.212C485.143 103.424 484.594 105.129 484.044 109.209C483.597 112.126 484.486 117.62 480.113 120.112L476.587 167.074C476.587 167.074 465.888 168.862 465.384 165.861L437.761 106.147L441.061 90.8791L470.031 90.0762Z" fill="#2F2E41"/>
<path d="M418.937 172.914L412.174 170.699L423.298 154.109L433.279 157.377L418.937 172.914Z" fill="#9E616A"/>
<path d="M415.515 181.753L410.717 180.182L407.666 179.183L394.94 175.015C394.33 174.815 393.843 174.504 393.55 174.128C393.257 173.752 393.174 173.33 393.313 172.924C393.452 172.517 393.805 172.148 394.321 171.869C394.837 171.591 395.489 171.418 396.181 171.376L410.204 170.524L412.722 167.796L423.061 171.676L415.515 181.753Z" fill="#2F2E41"/>
<path d="M480.391 97.9997C480.391 97.9997 480.53 105.565 481.702 109.996C482.837 114.033 481.366 118.176 477.585 121.593C474.832 124.021 470.779 126.285 464.931 127.214L423.857 167.353C423.857 167.353 413.035 165.85 415.021 163.076L439.114 102.822L454.356 90.39L480.391 97.9997Z" fill="#2F2E41"/>
<path d="M468.634 52.8169L468.543 52.7627L452.235 52.9612L441.939 69.312C442.763 82.536 438.722 88.2151 438.722 88.2151L440.469 92.1625L435.066 111.71L487.009 105.45L480.723 76.597C482.156 72.3468 481.802 67.9515 479.693 63.8025C477.584 59.6535 473.785 55.8796 468.634 52.8169Z" fill="#E6E6E6"/>
<path d="M398.729 86.2316C399.282 86.3319 399.865 86.3586 400.438 86.31C401.01 86.2614 401.558 86.1387 402.042 85.9504C402.526 85.7621 402.935 85.5128 403.24 85.2202C403.545 84.9276 403.739 84.5987 403.807 84.2567L417.539 82.4683L412.308 79.4316L400.07 81.5955C399.098 81.565 398.141 81.7481 397.38 82.1099C396.619 82.4717 396.107 82.9872 395.942 83.5587C395.777 84.1301 395.969 84.7179 396.483 85.2105C396.996 85.7032 397.795 86.0665 398.729 86.2316Z" fill="#9E616A"/>
<path d="M407.24 83.8878L406.577 78.9742L431.542 74.9297L450.121 61.1935C451.039 60.5145 452.197 59.9643 453.513 59.5819C454.828 59.1995 456.269 58.9943 457.732 58.9808C459.196 58.9674 460.647 59.146 461.981 59.504C463.316 59.8621 464.502 60.3908 465.455 61.0525C467.174 62.2489 468.027 63.8027 467.825 65.373C467.623 66.9432 466.384 68.4017 464.379 69.4283L439.062 82.3641L407.24 83.8878Z" fill="#E6E6E6"/>
<path d="M444.078 34.1897C445.249 31.6239 448.013 29.4191 451.811 28.0219C455.609 26.6247 460.156 26.1397 464.532 26.665C468.908 27.1903 472.785 28.6868 475.378 30.8512C477.971 33.0156 479.085 35.6861 478.496 38.3217C477.906 40.9573 475.657 43.3609 472.203 45.0456C468.75 46.7302 464.351 47.57 459.896 47.3948C455.442 47.2195 451.266 46.0423 448.215 44.1017C445.164 42.1611 443.465 39.6021 443.462 36.9432C443.462 36.0132 443.669 35.0872 444.078 34.1897Z" fill="#9E616A"/>
<path d="M449.867 23.1477C451.293 23.1225 469.039 23.665 471.531 23.6869C474.023 23.7088 476.551 23.6591 478.968 24.0224C481.384 24.3856 483.735 25.2397 484.767 26.5909C485.8 27.9421 486.039 31.2964 486.643 32.274C487.139 33.2767 487.268 34.331 487.023 35.3659C486.531 39.1981 485.333 43.324 480.648 45.9669C477.077 47.9811 471.967 48.7925 467.049 48.7808C462.131 48.7691 462.996 48.4999 458.241 47.7522C458.241 47.7522 453.721 40.0331 454.859 39.2737C455.997 38.5144 456.943 37.5427 456.737 36.5321C456.531 35.5215 454.707 34.6162 453.125 35.0009C453.391 34.5958 453.592 34.5186 453.717 34.5392C453.637 34.424 453.567 34.3065 453.508 34.187C453.21 33.5781 452.674 33.02 451.943 32.5587C451.213 32.0973 450.309 31.7457 449.306 31.5329C448.293 31.3371 447.204 31.3306 446.184 31.5144C445.165 31.6981 444.264 32.0634 443.603 32.561C438.397 29.6524 441.627 23.2935 449.867 23.1477Z" fill="#2F2E41"/>
<path d="M174.91 85.4705C197.708 83.6912 223.158 81.8775 243.107 90.2529C251.142 93.626 257.43 98.5048 259.348 104.325C260.561 108.005 260.175 111.785 260.253 115.511C260.323 118.848 260.827 122.178 262.715 125.341C265.908 130.69 272.164 135.232 279.904 138.493C288.302 141.976 298.25 143.894 308.482 144.002C331.137 144.339 351.793 137.022 366.215 127.042C381.704 116.322 390.589 103.029 398.343 89.8359C399.365 88.0964 400.377 86.3547 401.379 84.6109C401.819 83.8484 399.793 83.5209 399.355 84.2785C391.606 97.6898 383.66 111.375 369.216 122.837C355.968 133.349 336.709 141.706 314.125 142.672C303.829 143.112 293.47 141.904 284.527 138.782C276.317 135.915 269.439 131.597 265.635 126.371C263.588 123.406 262.495 120.238 262.412 117.032C262.184 113.322 262.642 109.593 261.874 105.898C260.642 99.9759 255.593 94.8095 248.012 90.95C240.352 87.1449 231.159 84.5964 221.339 83.5565C209.111 82.1842 196.593 82.6613 184.314 83.5146C181.176 83.7327 178.043 83.9757 174.91 84.2202C173.59 84.3233 173.573 85.5749 174.91 85.4705Z" fill="#3F3D56"/>
<path d="M362.334 55.2004C358.338 57.726 352.531 59.0638 346.724 59.3306C342.561 59.5214 338.376 59.2016 334.429 58.391C330.482 57.5804 326.856 56.2961 323.775 54.6177C320.694 52.9392 318.224 50.9022 316.517 48.6325C314.811 46.3629 313.904 43.9089 313.852 41.4221C313.789 38.6298 314.811 35.85 314.58 33.0576C314.006 26.1602 305.876 19.892 306.743 13.0029L312.313 14.0323C308.577 13.3321 304.84 12.6319 301.104 11.9318C299.822 11.7278 298.594 11.4208 297.451 11.0191C294.191 9.74376 293.232 6.93059 294.8 4.80092C296.374 2.67124 300.005 1.24591 303.833 0.770792C306.437 0.47624 309.113 0.486152 311.711 0.799969C312.955 0.932033 314.184 1.10879 315.392 1.32926C318.913 0.637921 322.653 0.433239 326.328 0.730741C330.002 1.02824 333.515 1.82012 336.599 3.04634C340.348 4.58127 343.3 6.71075 345.121 9.19363C346.286 10.76 346.966 12.4387 347.129 14.1489C347.549 18.8001 344.219 23.6179 344.694 28.1106C344.797 29.3394 345.258 30.5481 346.059 31.6823C350.187 37.4045 363.166 39.6675 366.42 45.5898C368.232 48.8864 366.329 52.6748 362.334 55.2004Z" fill="#2F2E41"/>
<path d="M365.368 144.628L360.01 147.936L336.04 137.199L343.948 132.317L365.368 144.628Z" fill="#9E616A"/>
<path d="M378.796 148.909L374.994 151.256L372.577 152.748L362.493 158.974C362.01 159.272 361.379 159.471 360.693 159.541C360.006 159.61 359.301 159.548 358.679 159.362C358.056 159.176 357.55 158.876 357.234 158.506C356.918 158.137 356.809 157.717 356.922 157.308L359.21 149.023L355.449 146.862L364.443 141.934L378.796 148.909Z" fill="#2F2E41"/>
<path d="M313.864 150.93L306.917 152.931L290.65 137.923L300.903 134.969L313.864 150.93Z" fill="#9E616A"/>
<path d="M323.982 157.71L319.053 159.13L315.919 160.033L302.845 163.8C302.218 163.981 301.511 164.037 300.827 163.962C300.142 163.886 299.516 163.682 299.04 163.379C298.565 163.076 298.264 162.691 298.181 162.279C298.099 161.868 298.24 161.451 298.583 161.09L305.536 153.787L303.26 150.984L314.559 148.211L323.982 157.71Z" fill="#2F2E41"/>
<path d="M325.195 67.9875C325.195 67.9875 331.436 74.5766 336.047 78.1233C340.307 81.3349 339.759 83.0405 339.209 87.1205C338.761 90.0378 339.651 95.5316 335.278 98.0239L333.367 123.475L356.94 139.567C356.94 139.567 347.409 147.635 346.906 144.634L312.006 125.305L292.926 84.058L296.226 68.7905L325.195 67.9875Z" fill="#2F2E41"/>
<path d="M335.555 75.9111C335.555 75.9111 335.695 83.4761 336.867 87.9072C338.002 91.944 336.531 96.0872 332.749 99.5047C329.997 101.933 325.944 104.196 320.096 105.125L300.1 124.666L311.207 143.598C311.207 143.598 295.242 149.075 297.228 146.301L277.903 121.687L294.279 80.733L309.52 68.3014L335.555 75.9111Z" fill="#2F2E41"/>
<path d="M323.798 30.7284L323.707 30.6742L307.399 30.8727L297.103 47.2235C297.927 60.4475 293.886 66.1266 293.886 66.1266L295.633 70.074L296.351 71.2331L342.173 83.3611L335.887 54.5085C337.321 50.2583 336.967 45.863 334.857 41.714C332.748 37.565 328.949 33.7911 323.798 30.7284Z" fill="#C5D3E8"/>
<path d="M253.893 64.143C254.446 64.2432 255.029 64.27 255.602 64.2214C256.174 64.1728 256.722 64.05 257.206 63.8617C257.69 63.6735 258.099 63.4242 258.404 63.1316C258.709 62.839 258.903 62.5101 258.971 62.1681L272.703 60.3797L267.472 57.343L255.234 59.5069C254.262 59.4764 253.305 59.6594 252.544 60.0213C251.783 60.3831 251.272 60.8986 251.106 61.47C250.941 62.0415 251.133 62.6293 251.647 63.1219C252.16 63.6146 252.96 63.9779 253.893 64.143Z" fill="#9E616A"/>
<path d="M262.405 61.7992L261.742 56.8856L286.706 52.8411L305.285 39.1048C306.204 38.4259 307.362 37.8756 308.677 37.4932C309.993 37.1108 311.433 36.9056 312.897 36.8922C314.361 36.8787 315.811 37.0574 317.146 37.4154C318.481 37.7735 319.667 38.3021 320.62 38.9639C322.339 40.1603 323.191 41.7141 322.989 43.2844C322.788 44.8546 321.548 46.3131 319.543 47.3397L294.226 60.2755L262.405 61.7992Z" fill="#C5D3E8"/>
<path d="M359.556 84.0744C359.779 83.7567 359.882 83.4136 359.858 83.0695C359.835 82.7253 359.685 82.3885 359.419 82.0826C359.153 81.7767 358.778 81.5093 358.32 81.2991C357.862 81.089 357.332 80.9412 356.767 80.8662L355.16 72.5487L349.562 75.3434L351.947 82.8134C351.798 83.3865 352.007 83.9722 352.535 84.4594C353.063 84.9467 353.873 85.3016 354.811 85.4571C355.749 85.6125 356.75 85.5576 357.624 85.3028C358.499 85.048 359.186 84.6109 359.556 84.0744Z" fill="#9E616A"/>
<path d="M356.496 78.7945L348.222 78.6936L343.976 63.4922L322.899 51.1013C321.857 50.4888 321.054 49.7472 320.548 48.9292C320.041 48.1111 319.843 47.2367 319.968 46.368C320.093 45.4992 320.537 44.6575 321.269 43.9025C322.001 43.1475 323.004 42.4978 324.205 41.9995C326.376 41.1009 329.057 40.752 331.66 41.0294C334.262 41.3068 336.574 42.1879 338.087 43.4792L357.15 59.783L356.496 78.7945Z" fill="#C5D3E8"/>
<path d="M299.243 12.1011C300.413 9.53527 303.178 7.33044 306.976 5.93326C310.773 4.53608 315.321 4.05103 319.697 4.57637C324.073 5.10171 327.95 6.59817 330.542 8.76257C333.135 10.927 334.25 13.5975 333.66 16.2331C333.071 18.8687 330.822 21.2723 327.368 22.9569C323.915 24.6416 319.515 25.4814 315.061 25.3061C310.607 25.1309 306.431 23.9537 303.38 22.0131C300.328 20.0724 298.629 17.5135 298.627 14.8546C298.626 13.9246 298.833 12.9986 299.243 12.1011Z" fill="#9E616A"/>
<path d="M297.007 72.8818C293.936 72.8754 290.912 72.427 288.194 71.575C285.477 70.7229 283.144 69.4924 281.397 67.9881C280.428 67.1173 279.591 66.0373 280.156 64.9817C280.308 64.6111 280.68 64.2859 281.204 64.0661C281.727 63.8463 282.367 63.7469 283.004 63.7863C284.386 63.9015 285.574 64.5308 286.501 65.1078C287.753 65.9319 288.903 66.8096 289.941 67.7338C291.584 69.1166 294.782 71.3552 292.31 73.0113C290.23 74.4041 286.733 74.5221 283.933 75.0243C280.908 75.567 277.811 76.7844 277.54 78.838C277.275 80.8352 280.496 82.1826 283.467 82.472C285.243 82.6227 287.054 82.5117 288.741 82.1488C290.428 81.7859 291.94 81.1822 293.145 80.3904C295.501 78.7679 296.787 76.6908 296.764 74.5457C296.759 74.3835 296.649 74.2288 296.457 74.1141C296.264 73.9994 296.004 73.9337 295.732 73.9309C295.46 73.928 295.196 73.9883 294.997 74.0989C294.798 74.2095 294.679 74.3619 294.665 74.5238C294.613 76.4776 293.538 78.4731 291.109 79.8422C288.834 81.124 285.219 81.7348 282.255 80.9799C280.789 80.6065 279.426 79.8205 279.653 78.7979C279.861 77.8594 281.141 77.1244 282.478 76.7007C285.504 75.7424 289.137 75.8272 292.087 74.7214C294.901 73.667 296.023 71.9027 294.744 70.0322C293.94 68.9944 292.94 68.0146 291.763 67.1117C290.684 66.1633 289.51 65.2547 288.247 64.3911C286.351 63.1495 283.378 61.9463 280.523 62.8327C277.268 63.8428 277.485 66.376 278.991 68.033C282.424 71.8115 289.891 74.1159 296.97 74.1322C297.243 74.1294 297.502 74.0637 297.695 73.9491C297.887 73.8344 297.998 73.6797 298.002 73.5176C298.007 73.3554 297.906 73.1985 297.72 73.0799C297.535 72.9613 297.279 72.8903 297.007 72.8818Z" fill="#2F2E41"/>
<path d="M344.694 28.1106L316.805 24.714C315.79 21.5257 325.159 17.2289 327.594 11.9901C323.242 11.6776 317.414 11.1566 312.369 10.4773C307.324 9.79379 303.056 8.95609 301.824 8.0017C302.719 5.40251 305.309 3.12114 309.026 1.65898C312.743 0.196815 317.282 -0.326513 321.647 0.204006L325.068 0.620772C325.18 0.633275 325.292 0.649946 325.404 0.666617C329.598 1.22557 333.269 2.72566 335.654 4.85511C339.159 6.00902 342.35 7.47171 345.121 9.19365C346.286 10.76 346.966 12.4387 347.129 14.149C347.549 18.8001 344.219 23.6179 344.694 28.1106Z" fill="#2F2E41"/>
<path d="M605 182.504C605 182.569 604.979 182.634 604.937 182.694C604.896 182.754 604.834 182.809 604.757 182.855C604.679 182.901 604.588 182.938 604.486 182.963C604.385 182.987 604.277 183 604.167 183H0.832631C0.611804 183 0.400029 182.948 0.243881 182.855C0.0877328 182.762 0 182.636 0 182.504C0 182.372 0.0877328 182.246 0.243881 182.153C0.400029 182.06 0.611804 182.008 0.832631 182.008H604.167C604.277 182.008 604.385 182.021 604.486 182.045C604.588 182.07 604.679 182.107 604.757 182.153C604.834 182.199 604.896 182.254 604.937 182.314C604.979 182.374 605 182.439 605 182.504Z" fill="#CCCCCC"/>
</g>
<defs>
<clipPath id="clip0_28_262">
<rect width="605" height="183" fill="white"/>
</clipPath>
</defs>
</svg>
