<svg width="1000" height="412" viewBox="0 0 1000 412" fill="none" xmlns="http://www.w3.org/2000/svg">
<path d="M643.559 223.433L530.057 202.59L551.206 95.4995L687.543 120.52L670.682 205.886L643.559 223.433Z" fill="#C9E9D2"/>
<path d="M643.559 224.408H643.318L529.913 203.612C529.335 203.519 528.997 203.008 529.046 202.451L550.195 95.3138C550.339 94.8032 550.821 94.4319 551.399 94.4783L687.736 119.499C688.314 119.591 688.651 120.102 688.603 120.659L671.741 206.118C671.693 206.397 671.501 206.629 671.26 206.768L644.137 224.315C643.992 224.361 643.8 224.408 643.559 224.408ZM531.31 201.848L643.318 222.365L669.67 205.329L686.242 121.309L552.073 96.7064L531.31 201.848Z" fill="#093F68"/>
<path d="M680.509 216.423L565.225 223.433L558.144 114.624L696.648 106.176L702.285 193.028L680.509 216.423Z" fill="white"/>
<path d="M565.225 224.408C564.695 224.408 564.214 223.99 564.214 223.479L557.132 114.625C557.084 114.346 557.228 114.067 557.421 113.882C557.614 113.65 557.855 113.557 558.144 113.557L696.648 105.108C697.178 105.062 697.66 105.433 697.756 105.944C697.756 105.99 697.756 105.99 697.756 106.037L703.441 192.842C703.489 193.121 703.345 193.399 703.152 193.538L681.425 216.98C681.28 217.166 680.991 217.305 680.75 217.305L565.225 224.408ZM559.252 115.553L566.237 222.319L680.028 215.449L701.177 192.656L695.588 107.337L559.252 115.553Z" fill="#093F68"/>
<path d="M680.509 216.423L679.546 194.374L702.285 193.028L680.509 216.423Z" fill="#68E1FD"/>
<path d="M680.509 217.398C680.413 217.398 680.269 217.398 680.172 217.352C679.787 217.259 679.498 216.888 679.498 216.47L678.486 194.42C678.486 193.863 678.871 193.446 679.45 193.353L702.188 191.96C702.718 191.914 703.2 192.285 703.296 192.796C703.296 192.842 703.296 192.842 703.296 192.889C703.345 193.167 703.2 193.446 703.007 193.585L681.28 217.027C681.088 217.306 680.799 217.445 680.509 217.398ZM680.654 195.302L681.521 213.87L699.828 194.142L680.654 195.302Z" fill="#093F68"/>
<path d="M579.726 135.746C579.148 135.746 578.666 135.235 578.715 134.678C578.715 134.167 579.148 133.75 579.678 133.703L674.776 127.901C675.306 127.854 675.788 128.226 675.836 128.783V128.829C675.885 129.386 675.451 129.85 674.873 129.897L579.726 135.699V135.746Z" fill="#DFEAEF"/>
<path d="M580.834 153.246C580.256 153.2 579.823 152.735 579.823 152.178C579.823 151.668 580.256 151.25 580.786 151.203L675.884 145.401C676.463 145.355 676.944 145.772 676.993 146.329C677.041 146.886 676.607 147.351 676.029 147.397L580.931 153.2H580.882V153.246H580.834Z" fill="#DFEAEF"/>
<path d="M581.99 170.746C581.412 170.746 580.93 170.282 580.979 169.725C580.979 169.214 581.412 168.797 581.942 168.75L677.041 162.948C677.619 162.948 678.101 163.366 678.101 163.923C678.101 164.433 677.715 164.851 677.185 164.944L582.087 170.746H582.039H581.99Z" fill="#DFEAEF"/>
<path d="M583.147 188.2C582.569 188.2 582.087 187.69 582.135 187.132C582.135 186.622 582.568 186.204 583.098 186.158L678.197 180.448C678.727 180.402 679.209 180.773 679.305 181.284C679.305 181.33 679.305 181.33 679.305 181.376C679.353 181.933 678.92 182.398 678.341 182.444L583.195 188.154H583.147V188.2Z" fill="#DFEAEF"/>
<path d="M584.255 205.747C583.676 205.793 583.147 205.375 583.098 204.818C583.05 204.261 583.484 203.751 584.062 203.704C584.11 203.704 584.158 203.704 584.206 203.704L650.785 199.666C651.315 199.619 651.797 199.991 651.893 200.501C651.893 200.548 651.893 200.548 651.893 200.594C651.941 201.151 651.508 201.615 650.93 201.662L584.351 205.7H584.303L584.255 205.747Z" fill="#DFEAEF"/>
<path d="M537.476 188.803C541.547 188.803 544.847 186.06 544.847 182.676C544.847 179.292 541.547 176.549 537.476 176.549C533.406 176.549 530.105 179.292 530.105 182.676C530.105 186.06 533.406 188.803 537.476 188.803Z" fill="#FFC9B0"/>
<path d="M537.476 189.778C532.851 189.778 529.094 186.575 529.094 182.676C529.094 178.777 532.851 175.62 537.476 175.62C542.101 175.62 545.859 178.777 545.859 182.676C545.859 186.575 542.101 189.778 537.476 189.778ZM537.476 177.523C533.959 177.523 531.069 179.844 531.069 182.676C531.069 185.508 533.959 187.829 537.476 187.829C540.993 187.829 543.884 185.508 543.884 182.676C543.884 179.844 540.993 177.523 537.476 177.523Z" fill="#093F68"/>
<path d="M569.08 156.402C575.391 166.893 579.726 160.951 581.027 158.863V181.191C581.027 192.331 572.211 201.569 560.697 202.544V207.186C560.697 209.228 559.011 210.853 556.891 210.853C554.868 210.853 553.23 209.367 553.085 207.464V202.869C539.596 202.405 532.996 191.171 532.996 181.237L536.465 161.369C536.513 161.369 545.377 168.007 569.08 156.402Z" fill="#FFC9B0"/>
<path d="M556.939 211.781C554.29 211.781 552.17 209.739 552.122 207.186V203.797C546.244 203.472 540.8 200.687 537.235 196.184C533.863 191.867 532.032 186.622 532.032 181.237V181.098L535.501 161.23C535.549 160.905 535.79 160.627 536.127 160.487C536.465 160.348 536.802 160.441 537.091 160.627C537.187 160.673 545.907 166.661 568.598 155.567C569.079 155.335 569.658 155.474 569.898 155.938C572.066 159.559 574.234 161.462 576.065 161.509H576.113C577.51 161.509 578.859 160.487 580.16 158.445C580.401 157.981 581.027 157.841 581.461 158.12C581.461 158.12 581.461 158.12 581.509 158.12C581.798 158.306 581.99 158.584 581.99 158.909V181.237C581.942 192.517 573.271 201.987 561.66 203.472V207.186C561.66 209.739 559.541 211.781 556.939 211.781ZM534.056 181.283C534.104 191.217 540.656 201.43 553.182 201.894C553.711 201.894 554.145 202.312 554.145 202.822V202.869V207.186C554.241 208.671 555.59 209.832 557.132 209.739C558.577 209.646 559.685 208.578 559.782 207.186V202.59C559.733 202.08 560.167 201.662 560.697 201.615C571.681 200.641 580.063 191.821 580.112 181.191V161.694C579.1 162.762 577.655 163.365 576.161 163.412C573.704 163.365 571.199 161.462 568.742 157.702C550.098 166.568 540.56 164.294 537.284 162.855L534.056 181.283Z" fill="#093F68"/>
<path d="M544.558 262.611C543.98 262.611 543.546 262.193 543.546 261.636V219.719C543.595 219.208 544.076 218.791 544.606 218.837C545.088 218.883 545.473 219.255 545.522 219.719V261.59C545.57 262.1 545.233 262.518 544.703 262.565C544.654 262.611 544.606 262.611 544.558 262.611Z" fill="#093F68"/>
<path d="M604.296 225.197C605.163 223.711 605.838 222.133 606.271 220.462C607.138 217.259 608.487 214.706 610.029 215.402C610.944 215.82 609.643 220.044 609.643 220.044C609.643 220.044 612.486 214.334 614.702 214.752C616.918 215.17 619.905 218.512 618.7 220.462C617.496 222.411 612.582 230.628 612.582 230.628L604.296 225.197Z" fill="#FFC9B0"/>
<path d="M612.63 231.556C612.437 231.556 612.245 231.51 612.1 231.37L603.766 225.986C603.332 225.707 603.188 225.104 603.477 224.686C604.296 223.247 604.922 221.762 605.356 220.183C606.223 217.027 607.331 215.123 608.632 214.52C609.21 214.242 609.932 214.242 610.51 214.52C610.992 214.752 611.329 215.216 611.378 215.727C612.437 214.52 613.69 213.545 614.991 213.777C616.725 214.056 618.748 215.727 619.616 217.584C620.194 218.605 620.194 219.858 619.664 220.926C618.459 222.876 613.594 230.953 613.545 231.046C613.401 231.278 613.16 231.463 612.919 231.51C612.823 231.556 612.727 231.556 612.63 231.556ZM605.597 224.918L612.293 229.235C613.594 227.053 616.918 221.529 617.881 219.951C618.17 219.441 617.929 218.791 617.737 218.373C617.159 217.12 615.665 215.82 614.557 215.634C613.786 215.495 611.859 217.769 610.559 220.415C610.318 220.88 609.691 221.065 609.21 220.833C608.776 220.601 608.583 220.137 608.68 219.719C609.017 218.605 609.258 217.398 609.354 216.238C608.824 216.563 607.957 217.862 607.234 220.647C606.849 222.133 606.319 223.572 605.597 224.918Z" fill="#093F68"/>
<path d="M612.63 230.581C610.559 238.287 604.44 245.946 595.624 245.946C594.853 245.946 594.083 245.9 593.312 245.761C589.361 245.157 585.652 243.532 582.569 241.026V261.636H536.465V216.934C536.465 212.431 540.27 208.764 544.943 208.764H572.114C574.812 208.764 581.075 210.249 583.917 216.33C585.941 220.694 592.348 232.577 595.528 231.603C598.707 230.628 603.14 224.964 603.14 224.964L612.63 230.581Z" fill="#C9E9D2"/>
<path d="M582.569 262.611H536.465C535.886 262.611 535.453 262.193 535.453 261.636V216.934C535.453 211.92 539.692 207.835 544.895 207.789H572.066C575.15 207.789 581.75 209.507 584.785 215.913C588.59 223.99 593.649 231.138 595.191 230.628C597.551 229.885 601.164 225.846 602.32 224.361C602.61 223.943 603.188 223.85 603.621 224.129L613.112 229.746C613.497 229.978 613.69 230.396 613.545 230.813C611.426 238.798 605.018 246.921 595.576 246.921C594.757 246.921 593.938 246.875 593.119 246.735C589.65 246.225 586.374 244.925 583.532 242.975V261.636C583.58 262.147 583.147 262.565 582.665 262.565C582.617 262.611 582.617 262.611 582.569 262.611ZM537.476 260.708H581.605V241.072C581.605 240.562 581.99 240.144 582.52 240.097C582.761 240.097 583.002 240.19 583.195 240.329C586.134 242.697 589.699 244.275 593.456 244.879C594.179 244.971 594.901 245.018 595.624 245.064C603.718 245.064 609.354 238.148 611.474 231.092L603.38 226.311C602.031 227.935 598.611 231.695 595.817 232.577C591.336 234.016 584.351 219.673 583.002 216.795C581.027 212.663 576.836 209.971 572.114 209.785H544.943C540.8 209.785 537.476 212.988 537.476 216.98V260.708Z" fill="#093F68"/>
<path d="M582.569 242.001C581.99 242.001 581.557 241.583 581.557 241.026V228.91C581.557 228.399 581.99 227.935 582.52 227.935C583.002 227.935 583.436 228.307 583.532 228.771V241.072C583.532 241.583 583.099 242.001 582.569 242.001Z" fill="#093F68"/>
<path d="M582.039 167.497C581.942 167.543 581.846 167.636 581.75 167.682C580.208 168.564 576.98 168.518 575.198 168.843C571.151 172.649 573.126 178.962 570.718 183.512C568.212 188.2 565.081 190.66 568.068 196.231C569.128 198.227 570.573 200.083 571.344 202.219C573.415 208.021 570.043 214.613 564.792 218.094C556.698 223.479 546.485 221.947 537.236 222.551C529.431 223.061 519.266 222.179 514.786 215.031C512.136 210.806 513.1 204.911 516.713 201.383C518.351 199.805 520.519 198.412 520.76 196.184C520.904 194.699 520.085 193.353 519.459 192.006C517.917 188.618 517.58 184.394 520.037 181.515C521.097 180.309 522.494 179.519 523.795 178.498C527.986 175.156 528.082 172.139 528.082 167.543C528.034 161.23 531.695 151.157 537.091 147.258C540.126 145.029 544.462 144.194 547.882 145.865C548.942 143.915 551.014 142.662 553.182 142.105C560.263 140.202 567.972 139.877 574.186 144.287C580.304 148.604 582.906 156.449 582.906 163.551C582.858 165.129 583.099 166.661 582.039 167.497Z" fill="#725858"/>
<path d="M533.719 223.665C524.084 223.665 517.291 220.88 513.919 215.588C511.076 211.085 511.992 204.725 515.99 200.78C516.327 200.408 516.713 200.083 517.098 199.759C518.399 198.598 519.603 197.53 519.748 196.184C519.844 195.209 519.362 194.188 518.832 193.12C518.736 192.935 518.64 192.703 518.543 192.517C517.002 189.128 516.376 184.347 519.266 181.051C520.037 180.216 520.952 179.473 521.916 178.823C522.349 178.545 522.735 178.266 523.12 177.941C526.926 174.924 527.07 172.371 527.022 167.729C526.974 161.044 530.78 150.739 536.417 146.654C539.741 144.287 544.028 143.59 547.401 144.797C548.749 143.08 550.676 141.826 552.844 141.316C561.757 138.902 569.128 139.691 574.716 143.637C580.401 147.675 583.821 155.149 583.821 163.644V164.387C583.869 165.733 583.918 167.311 582.617 168.332C582.472 168.425 582.376 168.518 582.231 168.611C580.979 169.307 579.004 169.493 577.269 169.678C576.739 169.725 576.161 169.771 575.631 169.864C573.753 171.814 573.463 174.506 573.174 177.384C572.934 179.659 572.693 182.026 571.585 184.115C571.055 185.09 570.525 185.925 570.043 186.761C568.116 189.917 566.815 191.96 568.983 195.952C569.32 196.602 569.754 197.252 570.139 197.902C571.007 199.201 571.729 200.64 572.307 202.08C574.62 208.671 570.573 215.588 565.418 219.069C558.963 223.386 551.351 223.433 543.932 223.526C541.764 223.526 539.5 223.572 537.332 223.711C536.031 223.618 534.875 223.665 533.719 223.665ZM543.836 146.051C541.571 146.097 539.403 146.793 537.621 148.14C532.611 151.76 528.949 161.416 528.997 167.682C529.046 171.953 529.094 175.667 524.373 179.38L523.072 180.355C522.205 180.912 521.434 181.562 520.759 182.258C518.447 184.904 519.073 188.989 520.326 191.728C520.422 191.914 520.519 192.146 520.615 192.331C521.193 193.538 521.819 194.884 521.675 196.416C521.482 198.505 519.844 199.944 518.399 201.244C518.013 201.569 517.676 201.894 517.339 202.219C514.015 205.468 513.196 210.946 515.557 214.659C519.796 221.39 529.624 222.179 537.091 221.715C539.307 221.576 541.571 221.529 543.787 221.529C550.869 221.483 558.192 221.39 564.117 217.445C568.694 214.381 572.307 208.346 570.284 202.637C569.754 201.29 569.08 199.991 568.261 198.784C567.875 198.087 567.442 197.438 567.056 196.741C564.406 191.821 566.141 188.943 568.164 185.693C568.646 184.904 569.176 184.069 569.658 183.14C570.573 181.376 570.814 179.287 571.055 177.106C571.392 173.949 571.729 170.653 574.331 168.239C574.475 168.1 574.668 168.007 574.861 167.961C575.439 167.868 576.209 167.775 576.932 167.729C578.377 167.589 580.208 167.45 581.075 166.94C581.123 166.893 581.172 166.893 581.22 166.847C581.75 166.429 581.75 165.686 581.701 164.433V163.644C581.701 155.752 578.57 148.836 573.415 145.169C568.357 141.594 561.564 140.898 553.278 143.173C551.11 143.776 549.424 144.983 548.605 146.468C548.364 146.933 547.738 147.118 547.256 146.886C546.244 146.283 545.04 146.004 543.836 146.051Z" fill="#093F68"/>
<path d="M573.801 175.62C570.573 175.62 567.971 178.359 567.971 181.748C567.971 185.136 570.573 187.875 573.801 187.875" fill="#FFC9B0"/>
<path d="M573.801 188.85C570.043 188.85 566.96 185.647 566.96 181.747C566.96 177.848 570.043 174.692 573.801 174.692C574.331 174.738 574.764 175.202 574.716 175.713C574.668 176.177 574.282 176.548 573.801 176.595C571.151 176.595 568.983 178.916 568.983 181.747C568.983 184.579 571.151 186.9 573.801 186.9C574.379 186.9 574.812 187.318 574.812 187.875C574.812 188.432 574.379 188.85 573.801 188.85Z" fill="#093F68"/>
<path d="M635.562 122.469C637.296 122.469 638.693 121.077 638.693 119.406C638.693 118.431 638.211 117.502 637.392 116.945L625.83 108.961C624.433 107.986 622.458 108.311 621.446 109.658C620.434 111.004 620.772 112.907 622.169 113.882L633.731 121.866C634.261 122.237 634.935 122.469 635.562 122.469Z" fill="#093F68"/>
<path d="M626.875 113.943C633.366 106.473 634.411 97.016 629.209 92.8189C624.007 88.6219 614.528 91.2746 608.037 98.7438C601.546 106.213 600.501 115.67 605.703 119.867C610.905 124.065 620.384 121.412 626.875 113.943Z" fill="#F56132"/>
<path d="M605.066 120.613C602.272 118.338 601.02 114.764 601.453 110.4C601.887 106.223 603.958 101.813 607.234 98.0527C610.51 94.2926 614.605 91.5539 618.796 90.3934C623.084 89.1865 627.035 89.7435 629.829 91.9717C635.417 96.5208 634.454 106.64 627.613 114.485C624.337 118.245 620.242 120.984 616.05 122.145C614.653 122.516 613.208 122.748 611.763 122.748C609.306 122.887 606.945 122.145 605.066 120.613ZM619.375 92.343C615.617 93.4107 611.907 95.8709 608.872 99.3524C605.837 102.834 603.958 106.78 603.573 110.586C603.188 114.207 604.151 117.178 606.415 119.034C608.68 120.891 611.907 121.309 615.569 120.241C619.326 119.22 623.132 116.713 626.071 113.232C632.189 106.223 633.297 97.3564 628.528 93.5499C626.986 92.343 625.059 91.7395 623.084 91.786C621.832 91.8788 620.579 92.0645 619.375 92.343Z" fill="#093F68"/>
<path d="M603.91 87.5151L620.001 96.6599C620.001 96.6599 621.254 100.559 617.448 105.805C613.449 111.329 608.342 110.261 608.342 110.261L594.372 96.4742L603.91 87.5151Z" fill="#F56132"/>
<path d="M608.102 111.329C607.909 111.282 607.716 111.189 607.572 111.05L593.601 97.2634C593.215 96.8456 593.215 96.2422 593.601 95.8244L603.14 86.8653C603.477 86.5404 604.007 86.494 604.392 86.6796L620.531 95.8244C620.772 95.9172 620.965 96.1493 621.013 96.3814C621.061 96.5207 622.41 100.838 618.267 106.408C615.135 110.772 611.281 111.375 609.354 111.375C608.921 111.375 608.535 111.375 608.102 111.329ZM604.007 88.7685L595.817 96.4743L608.776 109.333C609.788 109.425 613.401 109.425 616.484 105.248C619.327 101.348 619.182 98.2846 618.989 97.3098L604.007 88.7685Z" fill="#093F68"/>
<path d="M601.875 93.5919C606.205 88.3607 607.051 82.0726 603.764 79.547C600.477 77.0214 594.303 79.2148 589.973 84.446C585.644 89.6772 584.798 95.9654 588.084 98.4909C591.371 101.017 597.545 98.8232 601.875 93.5919Z" fill="#F56132"/>
<path d="M587.482 99.3059C583.725 96.3815 584.447 89.5578 589.217 83.8017C591.24 81.295 593.89 79.3454 596.925 78.1385C599.864 77.0708 602.513 77.3029 604.44 78.7419C608.198 81.6199 607.475 88.4437 602.706 94.1533C599.382 98.1919 595.094 100.513 591.481 100.513C590.036 100.606 588.59 100.141 587.482 99.3059ZM600.393 79.4846C599.43 79.5311 598.466 79.7167 597.599 80.0417C594.901 81.1093 592.541 82.8269 590.806 85.055C586.904 89.7434 585.941 95.5459 588.735 97.6812C591.529 99.8166 597.117 97.6348 601.02 92.9464C604.922 88.258 605.885 82.4555 603.091 80.3202C602.32 79.7167 601.357 79.4382 600.393 79.4846Z" fill="#093F68"/>
<path d="M686.772 92.5748C689.938 92.5748 692.505 90.1016 692.505 87.0508C692.505 84 689.938 81.5269 686.772 81.5269C683.606 81.5269 681.039 84 681.039 87.0508C681.039 90.1016 683.606 92.5748 686.772 92.5748Z" fill="#FFBC0E"/>
<path d="M686.772 93.689C682.966 93.689 679.883 90.6717 679.883 87.0045C679.883 83.3373 683.014 80.3665 686.82 80.3665C690.626 80.3665 693.709 83.3837 693.709 87.0509C693.709 90.7181 690.578 93.689 686.772 93.689ZM686.772 82.641C684.219 82.641 682.195 84.6371 682.195 87.0509C682.195 89.4648 684.267 91.4608 686.772 91.4608C689.277 91.4608 691.349 89.4648 691.349 87.0509C691.349 84.5907 689.277 82.641 686.772 82.641Z" fill="#093F68"/>
<path d="M686.82 88.2578C694.673 88.2578 701.032 94.3852 701.032 101.952V115.646H672.657V101.952C672.609 94.3852 678.968 88.2578 686.82 88.2578Z" fill="#FFBC0E"/>
<path d="M700.984 116.713H672.609C671.982 116.713 671.452 116.203 671.452 115.599V101.905C671.452 93.7355 678.342 87.0974 686.82 87.0974C695.299 87.0974 702.188 93.7355 702.188 101.905V115.599C702.188 116.249 701.658 116.713 700.984 116.713C701.032 116.713 701.032 116.713 700.984 116.713ZM673.765 114.485H699.828V101.952C699.828 95.0352 693.999 89.4184 686.82 89.4184C679.642 89.4184 673.813 95.0352 673.813 101.952V114.485H673.765Z" fill="#093F68"/>
<path d="M686.772 125.812C689.938 125.812 692.505 123.338 692.505 120.288C692.505 117.237 689.938 114.764 686.772 114.764C683.606 114.764 681.039 117.237 681.039 120.288C681.039 123.338 683.606 125.812 686.772 125.812Z" fill="#FFBC0E"/>
<path d="M686.772 126.926C682.966 126.926 679.883 123.908 679.883 120.241C679.883 116.574 683.014 113.603 686.82 113.603C690.626 113.603 693.709 116.62 693.709 120.288C693.709 123.955 690.578 126.972 686.772 126.926C686.772 126.972 686.772 126.972 686.772 126.926ZM686.772 115.878C684.219 115.878 682.195 117.874 682.195 120.288C682.195 122.701 684.267 124.697 686.772 124.697C689.325 124.697 691.349 122.701 691.349 120.288C691.349 117.827 689.277 115.878 686.772 115.878Z" fill="#093F68"/>
<path d="M672.078 111.329H701.417C703.874 111.329 705.898 113.232 705.898 115.646C705.898 118.013 703.922 119.963 701.417 119.963H672.078C669.622 119.963 667.598 118.06 667.598 115.646C667.646 113.232 669.622 111.329 672.078 111.329Z" fill="#FFBC0E"/>
<path d="M701.417 121.03H672.078C668.947 120.937 666.538 118.431 666.635 115.46C666.731 112.582 669.14 110.261 672.078 110.214H701.417C704.549 110.307 706.958 112.814 706.861 115.785C706.813 118.663 704.404 120.937 701.417 121.03ZM672.078 112.443C670.248 112.443 668.803 113.882 668.803 115.599C668.803 117.363 670.296 118.756 672.078 118.756H701.417C703.248 118.756 704.693 117.317 704.693 115.599C704.693 113.835 703.2 112.443 701.417 112.443H672.078Z" fill="#093F68"/>
<path d="M670.055 87.7009C669.718 87.7009 669.429 87.5616 669.188 87.3295L664.37 82.2698C663.937 81.8056 663.985 81.1093 664.419 80.6915C664.9 80.2737 665.623 80.3201 666.057 80.7379L670.874 85.7977C671.308 86.2619 671.26 86.9582 670.826 87.376C670.633 87.5616 670.344 87.7009 670.055 87.7009Z" fill="#093F68"/>
<path d="M666.298 95.5922C666.153 95.5922 666.057 95.5922 665.96 95.5458L659.697 93.5961C659.071 93.4105 658.734 92.807 658.927 92.2035C659.119 91.6001 659.746 91.2751 660.372 91.4608H660.42L666.683 93.4105C667.309 93.5961 667.646 94.246 667.454 94.8031C667.261 95.3137 666.779 95.5922 666.298 95.5922Z" fill="#093F68"/>
<path d="M702.574 87.7007C701.947 87.7007 701.417 87.1901 701.417 86.5866C701.417 86.3081 701.514 86.0296 701.707 85.8439L706.524 80.7841C706.958 80.3199 707.68 80.3199 708.162 80.7377C708.644 81.1555 708.644 81.8518 708.21 82.316L703.393 87.3757C703.248 87.5614 702.911 87.7007 702.574 87.7007Z" fill="#093F68"/>
<path d="M706.331 95.5922C705.705 95.5922 705.175 95.0816 705.175 94.4781C705.175 93.9675 705.512 93.5497 705.994 93.4105L712.257 91.4608C712.883 91.2751 713.509 91.6001 713.75 92.2035C713.991 92.807 713.606 93.4105 712.979 93.6426L706.717 95.5922C706.62 95.5922 706.476 95.5922 706.331 95.5922Z" fill="#093F68"/>
<path d="M787.227 208.555C788.241 207.971 789.098 207.198 789.737 206.289C790.377 205.381 790.783 204.36 790.927 203.298C791.072 202.236 790.951 201.158 790.573 200.142C790.195 199.126 789.57 198.195 788.741 197.415L793.345 148.911L780.158 150.193L776.545 197.401C775.155 198.718 774.36 200.44 774.311 202.241C774.262 204.041 774.962 205.795 776.279 207.17C777.595 208.545 779.437 209.445 781.455 209.701C783.472 209.956 785.526 209.548 787.227 208.555Z" fill="#FFB8B8"/>
<path d="M740.292 324.247L730.841 324.246L726.345 292.036L740.294 292.037L740.292 324.247Z" fill="#FFB8B8"/>
<path d="M724.09 321.86H742.318V332H712.614C712.614 330.668 712.911 329.35 713.487 328.119C714.064 326.889 714.909 325.771 715.975 324.83C717.041 323.888 718.306 323.141 719.698 322.632C721.091 322.122 722.583 321.86 724.09 321.86Z" fill="#2F2E41"/>
<path d="M807.361 324.247L797.91 324.246L793.414 292.036L807.363 292.037L807.361 324.247Z" fill="#FFB8B8"/>
<path d="M791.16 321.86H809.387V332H779.683C779.683 329.311 780.892 326.731 783.044 324.83C785.197 322.928 788.116 321.86 791.16 321.86Z" fill="#2F2E41"/>
<path d="M740.451 304.297C740.349 304.297 740.246 304.293 740.143 304.286L726.766 303.34C726.235 303.303 725.719 303.169 725.25 302.946C724.781 302.724 724.369 302.418 724.04 302.048C723.712 301.678 723.473 301.252 723.34 300.796C723.207 300.341 723.183 299.866 723.268 299.402L743.549 188.567L744.908 172.934C744.968 172.204 745.294 171.51 745.839 170.957C746.383 170.404 747.116 170.022 747.927 169.869L768.326 165.926C769.076 165.778 769.859 165.833 770.573 166.083C771.288 166.333 771.9 166.768 772.331 167.33L777.305 173.753C779.259 176.25 781.381 178.641 783.661 180.911C787.191 184.463 793.191 192.347 793.729 205.252C793.874 209.491 794.372 213.715 795.22 217.889L811.643 296.057C811.727 296.515 811.703 296.984 811.573 297.434C811.444 297.884 811.212 298.305 810.892 298.673C810.571 299.041 810.169 299.347 809.71 299.572C809.25 299.798 808.744 299.938 808.221 299.984L795.541 300.832C794.634 300.911 793.724 300.703 792.975 300.244C792.226 299.784 791.687 299.105 791.453 298.326L768.961 224.422C768.917 224.277 768.82 224.149 768.685 224.058C768.55 223.967 768.385 223.918 768.215 223.918C768.045 223.918 767.88 223.968 767.746 224.059C767.611 224.151 767.515 224.279 767.471 224.424L744.175 301.768C743.956 302.492 743.472 303.133 742.799 303.591C742.126 304.048 741.301 304.296 740.451 304.297Z" fill="#2F2E41"/>
<path d="M776.024 115.697C786.481 115.697 794.958 108.207 794.958 98.9677C794.958 89.7283 786.481 82.2383 776.024 82.2383C765.567 82.2383 757.089 89.7283 757.089 98.9677C757.089 108.207 765.567 115.697 776.024 115.697Z" fill="#FFB8B8"/>
<path d="M743.931 175.45L743.539 151.56C742.097 136.28 749.756 128.257 756.435 124.222C758.158 123.194 760.098 122.487 762.139 122.142C764.18 121.796 766.28 121.821 768.31 122.213L783.211 125.06C785.286 125.459 787.248 126.226 788.978 127.315C790.707 128.403 792.17 129.79 793.275 131.392C794.333 132.904 795.027 134.591 795.316 136.35C795.604 138.108 795.479 139.9 794.95 141.615C793.915 144.823 791.619 147.601 788.475 149.449C775.671 157.435 774.769 170.85 774.761 170.985L774.745 171.262L743.931 175.45Z" fill="#65A0D4"/>
<path d="M790.565 157.685H777.459C776.54 157.684 775.658 157.361 775.007 156.786C774.357 156.211 773.991 155.432 773.99 154.62V134.526C773.99 132.178 775.046 129.925 776.926 128.265C778.805 126.604 781.354 125.671 784.012 125.671C786.67 125.671 789.219 126.604 791.099 128.265C792.978 129.925 794.034 132.178 794.034 134.526V154.62C794.033 155.432 793.667 156.211 793.017 156.786C792.366 157.361 791.485 157.684 790.565 157.685Z" fill="#65A0D4"/>
<path d="M702.574 161.481C701.802 162.295 700.844 162.956 699.762 163.419C698.68 163.882 697.5 164.137 696.298 164.168C695.096 164.199 693.901 164.004 692.791 163.597C691.68 163.19 690.68 162.58 689.857 161.806C682.389 154.887 694.596 144.497 702.092 151.431C702.356 151.67 702.601 151.925 702.826 152.194L740.623 151.364L745.134 144.073L758.999 148.83C756.337 152.477 753.281 166.792 746.319 166.095C745.406 166.116 703.507 161.54 702.574 161.481Z" fill="#FFB8B8"/>
<path d="M753.136 155.965L742.57 149.114C741.829 148.633 741.335 147.911 741.195 147.108C741.056 146.305 741.283 145.485 741.826 144.83L755.281 128.63C756.06 127.693 757.04 126.9 758.166 126.297C759.291 125.694 760.54 125.293 761.841 125.117C763.141 124.94 764.469 124.992 765.747 125.269C767.025 125.546 768.229 126.043 769.29 126.731C770.351 127.418 771.249 128.284 771.931 129.279C772.613 130.273 773.067 131.376 773.267 132.526C773.467 133.675 773.408 134.848 773.095 135.977C772.781 137.107 772.219 138.171 771.441 139.108L757.985 155.307C757.44 155.962 756.624 156.399 755.715 156.522C754.805 156.645 753.878 156.445 753.136 155.965Z" fill="#65A0D4"/>
<path d="M779.817 107.663C780.428 106.537 780.64 105.274 780.425 104.039C780.211 102.805 779.579 101.656 778.614 100.744C775.052 97.5704 769.487 99.687 764.673 99.3763C756.654 98.8588 751.193 90.4104 753.587 83.6288C755.98 76.8473 764.489 72.6391 772.513 73.0853C780.537 73.5315 787.802 77.9171 792.638 83.5919C795.948 78.8846 804.081 78.3357 809.33 81.37C814.578 84.4044 817.294 89.9497 818.416 95.4021C819.538 100.855 819.355 106.458 820.3 111.936C822.591 125.217 832.292 137.722 846.329 142.884C860.366 148.047 878.328 144.729 887.511 134.022C889.297 146.997 886.164 160.129 878.604 171.363C871.043 182.597 859.481 191.3 845.726 196.11C838.12 198.771 829.72 200.183 821.712 198.704C808.784 196.317 798.728 186.549 794.346 175.541C789.963 164.533 790.488 152.454 792.617 140.937C793.927 133.844 795.379 125.443 789.524 120.453C787.88 119.245 785.946 118.383 783.869 117.934C782.767 117.642 781.756 117.131 780.912 116.441C780.068 115.751 779.413 114.9 778.997 113.952C778.582 113.005 778.416 111.986 778.514 110.974C778.612 109.961 778.97 108.982 779.561 108.11C779.656 107.962 779.741 107.813 779.817 107.663Z" fill="#2F2E41"/>
<path d="M483.209 279.628C482.609 279.828 481.909 279.928 481.309 280.128C474.409 282.228 467.709 286.828 464.309 293.328C461.409 298.628 462.509 304.328 462.509 310.228C462.509 328.028 476.109 342.828 493.809 344.428V351.728C493.709 354.928 496.209 357.728 499.409 357.828C502.609 357.928 505.409 355.428 505.509 352.228C505.509 352.028 505.509 351.928 505.509 351.728V344.828C526.309 344.028 536.509 326.128 536.509 310.228C536.509 299.828 533.609 286.428 523.109 281.828C519.309 280.128 515.009 279.628 510.909 279.228C501.709 278.228 492.209 277.428 483.209 279.628Z" fill="#FFC9B0"/>
<path d="M499.709 359.428C495.509 359.428 492.009 356.028 492.009 351.728V346.028C474.109 343.528 460.809 328.328 460.709 310.228C460.709 309.028 460.709 307.828 460.609 306.628C460.409 302.028 460.209 297.228 462.809 292.528C466.309 286.028 472.909 280.928 480.909 278.528C481.609 278.328 482.209 278.128 482.909 277.928C491.909 275.628 501.409 276.428 511.209 277.428C515.209 277.828 519.809 278.328 524.009 280.228C537.009 285.928 538.409 303.128 538.409 310.228C538.409 327.228 527.809 344.828 507.409 346.528V351.728C507.309 355.928 503.909 359.428 499.709 359.428ZM496.109 280.028C491.909 280.028 487.809 280.428 483.709 281.428C483.109 281.628 482.509 281.728 481.909 281.928C474.909 284.028 468.909 288.728 465.909 294.228C463.909 298.028 464.009 302.128 464.209 306.428C464.209 307.628 464.309 308.928 464.309 310.228C464.409 327.028 477.209 341.028 494.009 342.628C494.909 342.728 495.709 343.528 495.709 344.428V351.728C495.709 353.928 497.509 355.728 499.709 355.728C501.909 355.728 503.709 353.928 503.709 351.728V344.828C503.709 343.828 504.509 343.028 505.409 343.028C524.609 342.328 534.609 325.928 534.609 310.228C534.609 305.228 533.709 288.528 522.309 283.528C518.609 281.928 514.309 281.428 510.609 281.028C505.909 280.428 501.009 280.128 496.109 280.028Z" fill="#093F68"/>
<path d="M461.809 320.928C466.78 320.928 470.809 316.541 470.809 311.128C470.809 305.716 466.78 301.328 461.809 301.328C456.839 301.328 452.809 305.716 452.809 311.128C452.809 316.541 456.839 320.928 461.809 320.928Z" fill="#FFC9B0"/>
<path d="M461.809 322.728C455.809 322.728 451.009 317.528 451.009 311.128C451.009 304.728 455.809 299.528 461.809 299.528C467.809 299.528 472.609 304.728 472.609 311.128C472.609 317.528 467.809 322.728 461.809 322.728ZM461.809 303.128C457.809 303.128 454.609 306.728 454.609 311.128C454.609 315.528 457.809 319.128 461.809 319.128C465.809 319.128 469.009 315.528 469.009 311.128C469.009 306.728 465.809 303.128 461.809 303.128Z" fill="#093F68"/>
<path d="M538.709 320.928C543.68 320.928 547.709 316.541 547.709 311.128C547.709 305.716 543.68 301.328 538.709 301.328C533.739 301.328 529.709 305.716 529.709 311.128C529.709 316.541 533.739 320.928 538.709 320.928Z" fill="#FFC9B0"/>
<path d="M538.709 322.728C532.709 322.728 527.909 317.528 527.909 311.128C527.909 304.728 532.809 299.528 538.709 299.528C544.609 299.528 549.509 304.728 549.509 311.128C549.509 317.528 544.609 322.728 538.709 322.728ZM538.709 303.128C534.709 303.128 531.509 306.728 531.509 311.128C531.509 315.528 534.709 319.128 538.709 319.128C542.709 319.128 545.909 315.528 545.909 311.128C545.909 306.728 542.609 303.128 538.709 303.128Z" fill="#093F68"/>
<path d="M542.109 397.128V364.628C542.109 357.028 534.909 350.928 526.109 350.928H474.409C465.509 350.928 458.409 357.028 458.409 364.628V397.128H542.109Z" fill="#C9E9D2"/>
<path d="M542.109 398.928H458.409C457.409 398.928 456.609 398.128 456.609 397.128V364.628C456.609 356.128 464.609 349.128 474.509 349.128H526.109C535.909 349.128 544.009 356.128 544.009 364.628V397.128C544.009 398.128 543.109 398.928 542.109 398.928ZM460.209 395.328H540.309V364.628C540.309 358.028 533.909 352.728 526.109 352.728H474.409C466.509 352.728 460.209 358.028 460.209 364.628V395.328Z" fill="#093F68"/>
<path d="M479.009 373.028C478.009 373.028 477.209 372.228 477.209 371.228V362.328C477.209 361.328 478.009 360.528 479.009 360.528C480.009 360.528 480.809 361.328 480.809 362.328V371.228C480.809 372.228 480.009 373.028 479.009 373.028Z" fill="#093F68"/>
<path d="M521.609 373.028C520.609 373.028 519.809 372.228 519.809 371.228V362.328C519.809 361.328 520.609 360.528 521.609 360.528C522.609 360.528 523.409 361.328 523.409 362.328V371.228C523.409 372.228 522.609 373.028 521.609 373.028Z" fill="#093F68"/>
<path d="M512.609 344.528H487.909V350.928H512.609V344.528Z" fill="#68E1FD"/>
<path d="M512.609 352.728H487.909C486.909 352.728 486.109 351.928 486.109 350.928V344.528C486.109 343.528 486.909 342.728 487.909 342.728H512.609C513.609 342.728 514.409 343.528 514.409 344.528V350.928C514.409 351.928 513.609 352.728 512.609 352.728ZM489.709 349.128H510.809V346.328H489.709V349.128Z" fill="#093F68"/>
<path d="M532.109 355.028C535.909 355.028 539.609 354.928 543.409 354.728C544.109 354.728 544.809 354.628 545.509 354.328C546.409 353.828 547.009 353.028 547.309 352.028C550.509 343.428 539.709 334.328 542.509 325.628C543.109 323.628 544.509 321.728 544.509 319.628C544.509 315.828 540.309 313.428 538.509 310.028C536.509 306.128 538.109 301.428 538.709 297.028C540.009 286.528 535.109 276.228 527.009 269.828C519.509 263.928 508.609 260.428 501.309 268.628C492.909 261.428 480.409 262.428 473.209 270.828C472.309 271.828 471.609 272.928 470.909 274.128C470.709 274.428 470.609 274.728 470.409 275.028C467.409 281.128 467.709 288.428 464.509 294.328C463.309 296.528 461.709 298.428 460.609 300.728C458.409 305.428 458.809 310.828 458.909 315.928C459.009 322.228 458.409 328.828 455.609 334.528C454.409 336.528 453.509 338.728 452.709 340.928C451.309 345.728 453.509 350.928 457.109 354.528H492.109C505.309 354.228 518.909 355.028 532.109 355.028Z" fill="#725858"/>
<path d="M530.509 356.828C524.109 356.828 517.509 356.628 511.209 356.428C504.909 356.228 498.509 356.028 492.209 356.028H457.209C456.709 356.028 456.309 355.828 455.909 355.528C451.409 351.028 449.609 345.328 451.009 340.128C451.509 338.428 452.209 336.828 453.109 335.328C453.409 334.728 453.709 334.128 454.009 333.528C456.209 328.928 457.209 323.328 457.109 315.828V313.928C457.009 309.228 456.909 304.328 459.009 299.828C459.709 298.528 460.409 297.228 461.209 296.028C461.809 295.128 462.409 294.228 462.809 293.428C464.409 290.528 465.009 287.328 465.809 283.928C466.409 280.528 467.409 277.328 468.709 274.128C468.909 273.828 469.009 273.428 469.209 273.128C475.009 262.628 488.209 258.828 498.709 264.628C499.509 265.028 500.209 265.528 501.009 266.128C509.209 258.528 520.509 262.428 528.009 268.328C537.009 275.428 541.709 286.428 540.309 297.228C540.209 298.228 540.009 299.228 539.809 300.328C539.209 303.628 538.709 306.728 539.909 309.228C540.609 310.428 541.409 311.528 542.409 312.428C544.109 314.328 546.109 316.528 546.109 319.628C546.009 321.328 545.609 322.928 544.809 324.328C544.509 324.928 544.209 325.528 544.009 326.228C542.809 329.928 544.609 333.828 546.409 338.028C548.509 342.828 550.609 347.628 548.709 352.728C548.309 354.128 547.309 355.328 546.009 356.028C545.109 356.428 544.209 356.628 543.209 356.628C539.709 356.828 536.009 356.928 531.909 356.928H530.409L530.509 356.828ZM458.009 352.428H492.309C498.609 352.428 505.109 352.628 511.409 352.828C518.209 353.028 525.309 353.228 532.109 353.228C536.209 353.228 539.809 353.128 543.309 352.928C543.809 352.928 544.209 352.828 544.709 352.728C545.109 352.428 545.509 351.928 545.609 351.428C547.009 347.728 545.209 343.728 543.409 339.428C541.409 334.828 539.309 330.028 540.909 325.028C541.209 324.228 541.509 323.528 541.809 322.728C542.309 321.728 542.709 320.628 542.809 319.528C542.809 317.828 541.509 316.428 540.009 314.728C538.809 313.528 537.809 312.228 537.009 310.728C535.209 307.128 535.909 303.228 536.509 299.528C536.709 298.528 536.809 297.628 537.009 296.628C538.209 287.128 534.009 277.328 526.009 271.028C519.109 265.528 509.309 262.328 502.809 269.628C502.109 270.328 501.009 270.428 500.309 269.828C492.709 263.328 481.309 264.228 474.809 271.828C474.009 272.728 473.309 273.728 472.709 274.828C472.609 275.128 472.409 275.328 472.309 275.628C471.109 278.528 470.209 281.428 469.609 284.528C469.009 288.128 467.909 291.728 466.309 295.028C465.709 296.028 465.109 297.028 464.509 297.928C463.809 299.028 463.109 300.128 462.509 301.328C460.809 305.028 460.909 309.528 460.909 313.828V315.828C461.009 323.928 459.909 330.028 457.409 335.228C457.109 335.828 456.809 336.528 456.409 337.128C455.609 338.428 455.009 339.828 454.609 341.228C453.509 344.728 454.809 349.028 458.009 352.428Z" fill="#093F68"/>
<path d="M474.509 349.428H526.109C529.809 349.428 532.809 352.428 532.809 356.128V397.128H467.809V356.128C467.809 352.428 470.809 349.428 474.509 349.428Z" fill="#DBD0B5"/>
<path d="M532.709 398.928H467.809C466.809 398.928 466.009 398.128 466.009 397.128V361.528C466.009 353.828 472.209 347.628 479.909 347.628H520.709C528.409 347.628 534.609 353.828 534.609 361.528V397.128C534.509 398.128 533.709 398.928 532.709 398.928ZM469.609 395.328H530.909V361.528C530.909 355.828 526.309 351.328 520.709 351.328H479.909C474.209 351.328 469.709 355.928 469.609 361.528V395.328Z" fill="#093F68"/>
<path d="M650.309 317.228C655.556 317.228 659.809 313.557 659.809 309.028C659.809 304.499 655.556 300.828 650.309 300.828C645.062 300.828 640.809 304.499 640.809 309.028C640.809 313.557 645.062 317.228 650.309 317.228Z" fill="#FFC9B0"/>
<path d="M650.309 319.028C644.109 319.028 639.009 314.528 639.009 309.028C639.009 303.528 644.109 299.028 650.309 299.028C656.509 299.028 661.609 303.528 661.609 309.028C661.609 314.528 656.609 319.028 650.309 319.028ZM650.309 302.628C646.109 302.628 642.609 305.528 642.609 309.028C642.609 312.528 646.109 315.428 650.309 315.428C654.509 315.428 658.009 312.528 658.009 309.028C658.009 305.528 654.609 302.628 650.309 302.628Z" fill="#093F68"/>
<path d="M609.609 273.928C601.409 287.928 595.909 280.028 594.209 277.228V307.128C594.209 322.028 605.609 334.428 620.409 335.728V341.828C620.309 344.528 622.409 346.828 625.109 346.928C627.809 347.028 630.109 344.928 630.209 342.228C630.209 342.128 630.209 341.928 630.209 341.828V336.028C647.609 335.428 656.109 320.428 656.109 307.028L651.609 280.528C651.509 280.528 640.109 289.428 609.609 273.928Z" fill="#FFC9B0"/>
<path d="M625.209 348.528C621.509 348.528 618.509 345.528 618.509 341.828V337.328C603.509 335.128 592.409 322.328 592.309 307.128V277.228C592.309 276.228 593.109 275.428 594.109 275.428C594.709 275.428 595.309 275.728 595.709 276.328C597.209 278.828 598.909 280.228 600.509 280.228C602.709 280.228 605.409 277.628 608.009 273.028C608.509 272.228 609.509 271.928 610.409 272.328C639.309 286.928 650.409 279.228 650.509 279.128C651.009 278.728 651.709 278.628 652.309 278.928C652.909 279.128 653.309 279.728 653.409 280.328L657.909 306.928C657.909 307.028 657.909 307.128 657.909 307.228C657.909 321.528 649.009 336.328 632.009 337.928V341.928C631.909 345.428 628.909 348.528 625.209 348.528ZM596.009 282.128V307.128C596.109 321.028 606.709 332.628 620.509 333.928C621.409 334.028 622.209 334.828 622.209 335.728V341.828C622.309 343.528 623.809 344.828 625.509 344.728C627.109 344.628 628.309 343.428 628.409 341.828V336.028C628.409 335.028 629.209 334.228 630.109 334.228C645.909 333.628 654.209 320.228 654.309 307.228L650.209 283.228C645.309 285.128 633.109 287.428 610.309 276.228C607.109 281.228 603.909 283.728 600.609 283.728C598.809 283.728 597.209 283.228 596.009 282.128Z" fill="#093F68"/>
<path d="M599.709 316.028C603.851 316.028 607.209 312.357 607.209 307.828C607.209 303.299 603.851 299.628 599.709 299.628C595.567 299.628 592.209 303.299 592.209 307.828C592.209 312.357 595.567 316.028 599.709 316.028Z" fill="#FFC9B0"/>
<path d="M599.709 317.828C594.609 317.828 590.409 313.328 590.409 307.828C590.409 302.328 594.609 297.828 599.709 297.828C604.809 297.828 609.009 302.328 609.009 307.828C609.009 313.328 604.909 317.828 599.709 317.828ZM599.709 301.428C596.609 301.428 594.009 304.328 594.009 307.828C594.009 311.328 596.609 314.228 599.709 314.228C602.809 314.228 605.409 311.328 605.409 307.828C605.409 304.328 602.909 301.428 599.709 301.428Z" fill="#093F68"/>
<path d="M602.609 308.028C600.009 302.028 599.009 295.928 597.809 289.628C596.009 289.828 594.109 289.228 592.809 288.028C591.609 286.728 590.809 285.028 590.509 283.228C589.609 278.428 590.809 273.528 593.809 269.628C596.209 266.528 599.409 264.128 603.209 262.928C604.309 262.628 613.709 262.528 613.509 263.028C615.209 258.928 619.209 256.028 623.309 254.428C639.409 247.928 655.409 254.928 661.909 270.728C665.009 278.228 665.709 286.428 665.509 294.428C665.309 302.828 664.009 311.328 659.709 318.528C651.509 332.328 633.009 334.728 619.509 327.528C611.609 323.328 606.109 316.128 602.609 308.028Z" fill="#2F2E41"/>
<path d="M635.309 333.128C629.509 333.128 623.709 331.728 618.609 329.028C611.109 325.028 605.009 318.028 601.009 308.628C598.609 302.928 597.509 297.328 596.409 291.328C594.609 291.228 592.909 290.428 591.609 289.128C590.109 287.528 589.109 285.528 588.809 283.428C587.809 278.128 589.109 272.628 592.409 268.328C595.009 264.928 598.609 262.328 602.709 261.028C605.909 260.728 609.209 260.628 612.409 260.828C614.309 257.328 617.909 254.428 622.609 252.528C639.409 245.728 656.609 253.028 663.509 269.828C666.309 276.628 667.509 284.628 667.309 294.328C667.009 304.928 665.109 312.828 661.209 319.328C655.509 328.928 645.409 333.128 635.309 333.128ZM604.309 307.328C608.009 315.928 613.509 322.328 620.309 325.928C632.309 332.328 650.209 330.928 658.109 317.628C661.609 311.728 663.409 304.328 663.609 294.428C663.809 285.228 662.709 277.728 660.109 271.428C653.909 256.328 639.009 249.928 623.909 256.128C621.409 257.128 616.909 259.528 615.109 263.728C614.709 264.628 613.709 265.128 612.709 264.728H612.609C609.609 264.528 606.609 264.528 603.609 264.828C600.309 265.928 597.309 268.028 595.209 270.828C592.509 274.228 591.409 278.728 592.209 282.928C592.409 284.328 593.109 285.728 594.009 286.828C595.009 287.728 596.309 288.128 597.609 287.928C598.509 287.828 599.409 288.428 599.609 289.428L599.809 290.328C601.009 296.228 602.009 301.828 604.309 307.328Z" fill="#093F68"/>
<path d="M641.209 398.428C640.209 398.428 639.409 397.628 639.409 396.628V357.428C639.409 356.428 640.209 355.628 641.209 355.628C642.209 355.628 643.009 356.428 643.009 357.428V396.628C643.009 397.628 642.209 398.428 641.209 398.428Z" fill="#093F68"/>
<path d="M601.109 342.828H640.609C646.609 342.828 651.509 347.728 651.509 353.728V396.628H581.209L590.109 353.728C590.209 347.728 595.109 342.828 601.109 342.828Z" fill="#C9E9D2"/>
<path d="M651.609 398.428H581.309C580.309 398.428 579.509 397.628 579.509 396.628C579.509 396.528 579.509 396.428 579.509 396.228L588.409 353.528C588.509 346.628 594.209 341.028 601.109 341.028H640.709C647.709 341.028 653.409 346.728 653.409 353.728V396.628C653.409 397.628 652.609 398.428 651.609 398.428ZM583.509 394.828H649.809V353.728C649.809 348.728 645.709 344.628 640.709 344.628H601.109C596.109 344.628 592.009 348.728 592.009 353.728C592.009 353.828 592.009 353.928 592.009 354.128L583.509 394.828Z" fill="#093F68"/>
<path d="M601.309 398.428C601.209 398.428 601.009 398.428 600.909 398.328C599.909 398.128 599.309 397.128 599.609 396.128L605.509 372.228C605.709 371.228 606.609 370.628 607.609 370.828C608.609 371.028 609.209 371.928 609.009 372.928C609.009 373.028 609.009 373.028 609.009 373.128L603.109 397.028C602.909 397.828 602.209 398.428 601.309 398.428Z" fill="#093F68"/>
<path d="M621.709 348.928H673.309C677.009 348.928 680.009 351.928 680.009 355.628V396.628H615.109V355.628C615.109 351.828 618.009 348.928 621.709 348.928Z" fill="#DBD0B5"/>
<path d="M680.009 398.428H615.109C614.109 398.428 613.309 397.628 613.309 396.628V361.028C613.309 353.328 619.509 347.128 627.209 347.128H668.009C675.709 347.128 681.909 353.328 681.909 361.028V396.628C681.809 397.628 681.009 398.428 680.009 398.428ZM616.809 394.828H678.109V361.028C678.109 355.328 673.509 350.828 667.909 350.828H627.109C621.409 350.828 616.909 355.428 616.909 361.028L616.809 394.828Z" fill="#093F68"/>
<path d="M348.509 320.528C353.535 320.528 357.609 317.036 357.609 312.728C357.609 308.421 353.535 304.928 348.509 304.928C343.483 304.928 339.409 308.421 339.409 312.728C339.409 317.036 343.483 320.528 348.509 320.528Z" fill="#FFC9B0"/>
<path d="M348.509 322.328C342.509 322.328 337.609 318.028 337.609 312.728C337.609 307.428 342.509 303.128 348.509 303.128C354.509 303.128 359.409 307.428 359.409 312.728C359.409 318.028 354.509 322.328 348.509 322.328ZM348.509 306.728C344.509 306.728 341.309 309.428 341.309 312.728C341.309 316.028 344.509 318.728 348.509 318.728C352.509 318.728 355.709 316.028 355.709 312.728C355.709 309.428 352.509 306.728 348.509 306.728Z" fill="#093F68"/>
<path d="M387.309 279.229C395.109 292.529 400.409 285.028 402.009 282.428V310.828C402.009 325.028 391.209 336.829 377.109 338.029V343.828C377.109 346.428 375.009 348.529 372.409 348.529C369.809 348.529 367.709 346.428 367.709 343.828V338.328C351.209 337.728 343.109 323.528 343.109 310.828L347.409 285.529C347.409 285.529 358.309 294.029 387.309 279.229Z" fill="#FFC9B0"/>
<path d="M372.409 350.329C368.809 350.329 365.909 347.429 365.909 343.829V340.029C349.709 338.529 341.309 324.429 341.309 310.829C341.309 310.729 341.309 310.629 341.309 310.529L345.609 285.229C345.709 284.629 346.109 284.029 346.709 283.829C347.309 283.629 348.009 283.729 348.509 284.129C348.609 284.229 359.109 291.529 386.509 277.629C387.409 277.229 388.409 277.529 388.909 278.329C391.409 282.729 394.009 285.129 396.009 285.129C397.509 285.129 399.009 283.929 400.509 281.529C401.009 280.629 402.109 280.429 403.009 280.929C403.509 281.229 403.909 281.829 403.909 282.529V310.929C403.809 325.329 393.209 337.629 379.009 339.729V343.929C378.809 347.429 376.009 350.329 372.409 350.329ZM344.909 310.929C345.009 323.229 352.809 335.929 367.809 336.529C368.809 336.529 369.509 337.329 369.509 338.329V343.829C369.509 345.429 370.809 346.629 372.409 346.629C374.009 346.629 375.209 345.329 375.209 343.829V338.029C375.209 337.129 375.909 336.329 376.909 336.229C390.009 335.029 400.109 324.029 400.209 310.829V287.229C399.009 288.129 397.509 288.629 396.009 288.729C392.809 288.729 389.809 286.329 386.709 281.629C365.209 292.129 353.509 290.129 348.809 288.229L344.909 310.929Z" fill="#093F68"/>
<path d="M357.309 398.928C356.309 398.928 355.509 398.128 355.509 397.128V359.828C355.509 358.828 356.309 358.028 357.309 358.028C358.309 358.028 359.109 358.828 359.109 359.828V397.028C359.109 398.128 358.309 398.928 357.309 398.928Z" fill="#093F68"/>
<path d="M430.509 366.829C431.609 364.929 432.409 362.929 432.909 360.829C434.009 356.729 435.609 353.529 437.509 354.429C438.609 354.929 437.109 360.329 437.109 360.329C437.109 360.329 440.609 353.129 443.309 353.529C446.009 353.929 449.709 358.329 448.209 360.829C446.709 363.329 440.709 373.729 440.709 373.729L430.509 366.829Z" fill="#FFC9B0"/>
<path d="M440.709 375.528C440.309 375.528 440.009 375.428 439.709 375.228L429.509 368.328C428.709 367.828 428.509 366.728 428.909 365.928C429.909 364.128 430.609 362.328 431.109 360.328C432.809 353.928 434.809 353.028 435.409 352.728C436.309 352.328 437.309 352.328 438.209 352.728C438.609 352.928 439.009 353.228 439.209 353.628C440.509 352.328 442.009 351.428 443.509 351.728C445.809 352.128 448.509 354.328 449.609 356.928C450.409 358.428 450.409 360.228 449.609 361.728C448.109 364.228 442.109 374.628 442.109 374.628C441.809 375.028 441.409 375.328 441.009 375.528C441.009 375.528 440.909 375.528 440.709 375.528ZM432.909 366.228L440.209 371.128C442.009 368.128 445.609 361.728 446.809 359.928C447.009 359.428 446.909 358.928 446.609 358.528C445.909 357.028 444.709 355.928 443.109 355.428C442.309 355.528 440.209 358.328 438.809 361.228C438.409 362.128 437.309 362.528 436.409 362.128C435.609 361.728 435.209 360.828 435.409 360.028C435.609 359.428 435.709 358.828 435.809 358.228C435.309 359.328 435.009 360.428 434.709 361.528C434.209 362.928 433.609 364.628 432.909 366.228Z" fill="#093F68"/>
<path d="M440.709 373.628C438.209 383.428 430.709 393.228 419.809 393.228C418.809 393.228 417.909 393.128 417.009 393.028C412.109 392.228 407.609 390.128 403.809 387.028V397.228H347.309V356.428C347.309 350.728 352.009 346.028 357.709 346.028H391.109C397.309 346.228 402.909 349.928 405.509 355.628C408.009 361.128 415.809 376.328 419.709 375.028C423.609 373.728 429.009 366.628 429.009 366.628L440.709 373.628Z" fill="#C9E9D2"/>
<path d="M403.909 398.928H347.309C346.309 398.928 345.509 398.128 345.509 397.128V356.328C345.509 349.628 351.009 344.128 357.709 344.128H391.109C398.109 344.328 404.309 348.528 407.209 354.828C411.409 364.228 417.309 373.128 419.309 373.228C421.709 372.428 425.709 368.028 427.709 365.428C428.309 364.728 429.309 364.528 430.109 364.928L441.709 372.028C442.409 372.428 442.709 373.228 442.509 374.028C439.809 384.428 431.809 394.928 419.909 394.928C418.909 394.928 417.809 394.828 416.809 394.728C412.809 394.128 409.009 392.628 405.709 390.428V397.028C405.709 398.128 404.909 398.928 403.909 398.928ZM349.109 395.328H402.009V386.928C402.009 385.928 402.809 385.128 403.809 385.128C404.209 385.128 404.709 385.328 405.009 385.528C408.509 388.528 412.809 390.428 417.309 391.228C418.209 391.328 419.009 391.428 419.909 391.428C429.409 391.428 436.009 383.128 438.609 374.528L429.509 368.928C427.609 371.128 423.709 375.628 420.309 376.728C414.709 378.628 406.909 363.128 403.909 356.328C401.609 351.328 396.609 348.028 391.109 347.728H357.709C353.009 347.728 349.109 351.528 349.109 356.328V395.328Z" fill="#093F68"/>
<path d="M403.909 388.729C402.909 388.729 402.109 387.929 402.109 386.929V371.529C402.009 370.529 402.809 369.629 403.809 369.629C404.809 369.529 405.709 370.329 405.709 371.329C405.709 371.429 405.709 371.529 405.709 371.629V387.029C405.709 387.929 404.909 388.729 403.909 388.729Z" fill="#093F68"/>
<path d="M403.209 293.329C403.109 293.429 403.009 293.529 402.909 293.529C401.009 294.629 397.009 294.629 394.809 295.029C389.909 299.929 392.309 307.929 389.309 313.729C386.309 319.529 382.409 322.829 386.109 329.929C387.409 332.529 389.209 334.829 390.109 337.529C392.609 344.929 388.509 353.329 382.109 357.729C372.109 364.629 359.609 362.629 348.309 363.429C338.709 364.029 326.309 362.929 320.709 353.829C317.409 348.429 318.609 340.929 323.009 336.529C325.009 334.529 327.709 332.729 328.009 329.929C328.209 328.029 327.209 326.329 326.409 324.629C324.509 320.329 324.109 314.929 327.109 311.329C328.509 309.929 330.009 308.629 331.609 307.529C336.709 303.329 336.909 299.429 336.809 293.529C336.709 285.429 341.209 272.629 347.809 267.729C351.609 264.929 356.909 263.829 361.009 265.929C362.409 263.529 364.809 261.729 367.509 261.129C376.209 258.729 385.709 258.329 393.309 263.929C400.909 269.529 404.009 279.429 404.009 288.429C404.209 290.329 404.509 292.229 403.209 293.329Z" fill="#FFBC0E"/>
<path d="M343.909 365.428C331.909 365.428 323.309 361.828 319.109 354.828C315.509 348.828 316.609 340.428 321.709 335.328C322.109 334.828 322.609 334.428 323.109 334.028C324.609 332.628 326.009 331.328 326.109 329.828C326.109 328.528 325.709 327.328 325.109 326.228L324.709 325.428C322.709 320.928 322.009 314.628 325.709 310.228C326.709 309.128 327.809 308.128 329.009 307.328C329.509 306.928 330.009 306.628 330.509 306.228C334.909 302.528 335.109 299.428 335.109 293.728C335.009 285.028 339.809 271.728 346.909 266.428C350.809 263.428 355.809 262.428 360.509 263.828C362.209 261.728 364.609 260.228 367.209 259.528C378.309 256.428 387.509 257.428 394.509 262.528C401.509 267.628 405.909 277.528 405.909 288.528C405.909 288.828 405.909 289.128 405.909 289.428C405.909 291.228 406.009 293.428 404.209 294.928C404.009 295.028 403.809 295.228 403.609 295.328C401.909 296.328 399.509 296.528 397.209 296.728C396.609 296.828 396.009 296.828 395.509 296.928C393.509 299.228 393.109 302.528 392.809 306.028C392.509 309.028 392.209 312.028 390.809 314.828C390.209 316.028 389.509 317.228 388.909 318.228C386.509 322.228 385.109 324.628 387.609 329.328C388.009 330.128 388.509 330.928 389.009 331.828C390.109 333.528 391.009 335.328 391.709 337.328C394.609 345.928 389.609 355.128 383.009 359.628C374.909 365.228 365.509 365.328 356.309 365.428C353.509 365.428 350.909 365.528 348.209 365.628C346.809 365.428 345.409 365.428 343.909 365.428ZM356.409 266.628C353.809 266.628 351.209 267.528 349.109 269.128C343.109 273.628 338.709 285.728 338.809 293.528C338.809 299.128 338.909 304.028 332.909 308.928C332.409 309.328 331.809 309.728 331.309 310.128C330.309 310.828 329.409 311.628 328.509 312.528C325.809 315.728 326.609 320.628 328.109 323.928L328.409 324.628C329.309 326.328 329.809 328.228 329.809 330.128C329.509 333.028 327.409 334.928 325.609 336.628C325.209 337.028 324.709 337.428 324.309 337.828C320.409 341.828 319.509 348.428 322.209 352.928C327.209 361.228 339.009 362.228 348.109 361.628C350.809 361.428 353.609 361.428 356.409 361.428C365.009 361.328 373.909 361.228 381.009 356.328C386.309 352.628 390.709 345.028 388.309 338.228C387.709 336.528 386.909 334.928 385.909 333.428C385.409 332.528 384.909 331.728 384.409 330.828C381.009 324.228 383.309 320.328 385.809 316.128C386.409 315.128 387.009 314.028 387.609 312.928C388.709 310.828 389.009 308.228 389.209 305.428C389.609 301.328 390.109 297.028 393.409 293.728C393.709 293.428 394.009 293.328 394.409 293.228C395.109 293.128 396.009 293.028 397.009 292.928C398.709 292.728 400.909 292.528 401.809 292.028L403.109 293.328L402.009 291.928C402.409 291.628 402.409 290.728 402.409 289.328C402.409 289.028 402.409 288.628 402.409 288.328C402.409 278.428 398.709 269.828 392.409 265.328C386.309 260.828 378.209 260.028 368.209 262.828C366.009 263.328 364.009 264.728 362.809 266.728C362.309 267.628 361.309 267.928 360.409 267.528C359.209 267.028 357.809 266.628 356.409 266.628Z" fill="#093F68"/>
<path d="M382.109 397.128H320.409V358.128C320.409 354.628 323.209 351.828 326.709 351.828H375.809C379.309 351.828 382.109 354.628 382.109 358.128V397.128Z" fill="#DBD0B5"/>
<path d="M382.109 398.928H320.409C319.409 398.928 318.609 398.128 318.609 397.128V363.228C318.609 355.928 324.609 349.928 331.909 349.928H370.709C378.009 349.928 384.009 355.928 384.009 363.228V397.128C383.909 398.128 383.109 398.928 382.109 398.928ZM322.109 395.328H380.209V363.228C380.209 357.928 375.909 353.528 370.509 353.528H331.809C326.509 353.528 322.109 357.828 322.109 363.228V395.328Z" fill="#093F68"/>
<path d="M393.109 303.729C389.109 303.729 386.009 307.229 386.009 311.529C386.009 315.829 389.209 319.328 393.109 319.328" fill="#FFC9B0"/>
<path d="M393.109 321.128C388.209 321.128 384.109 316.828 384.109 311.528C384.109 306.228 388.109 301.928 393.109 301.928C394.109 301.928 394.909 302.728 394.909 303.728C394.909 304.728 394.109 305.528 393.109 305.528C390.209 305.528 387.809 308.228 387.809 311.528C387.809 314.828 390.209 317.528 393.109 317.528C394.109 317.628 394.909 318.428 394.809 319.428C394.709 320.328 394.009 321.128 393.109 321.128Z" fill="#093F68"/>
<path d="M253.393 306.314C251.934 302.818 251.773 298.915 252.941 295.311C254.108 291.707 256.527 288.64 259.759 286.662C260.836 286.008 259.852 284.313 258.77 284.97C255.062 287.184 252.295 290.679 250.992 294.795C249.689 298.91 249.941 303.361 251.7 307.303C252.195 308.459 253.884 307.462 253.393 306.314Z" fill="#3F3D56"/>
<path d="M253.954 308.95C251.31 304.267 251.932 298.664 252.883 293.6C253.876 288.314 255.177 282.947 254.051 277.571C253.541 274.961 252.332 272.538 250.554 270.56C249.697 269.63 248.314 271.019 249.167 271.946C252.493 275.556 252.878 280.793 252.339 285.444C251.703 290.93 249.9 296.276 250.124 301.851C250.182 304.678 250.915 307.451 252.261 309.939C252.397 310.154 252.611 310.308 252.858 310.368C253.105 310.428 253.366 310.39 253.586 310.262C253.805 310.134 253.966 309.925 254.035 309.68C254.104 309.435 254.075 309.173 253.954 308.95Z" fill="#3F3D56"/>
<path d="M268.143 323.902H234.819C234.039 323.901 233.292 323.591 232.741 323.04C232.19 322.489 231.88 321.742 231.879 320.963V311.178C231.882 308.663 232.882 306.252 234.661 304.474C236.439 302.696 238.851 301.696 241.366 301.693H246.254C246.514 301.693 246.763 301.59 246.947 301.406C247.13 301.223 247.234 300.973 247.234 300.714V296.141C247.234 295.708 247.407 295.293 247.713 294.987C248.019 294.681 248.434 294.509 248.867 294.508H254.095C254.528 294.509 254.943 294.681 255.249 294.987C255.555 295.293 255.728 295.708 255.728 296.141V300.714C255.729 300.973 255.832 301.223 256.016 301.406C256.199 301.59 256.449 301.693 256.708 301.693H261.596C264.111 301.696 266.523 302.696 268.301 304.474C270.08 306.252 271.081 308.663 271.083 311.178V320.963C271.083 321.742 270.773 322.489 270.221 323.04C269.67 323.591 268.923 323.901 268.143 323.902Z" fill="#CCCCCC"/>
<path d="M251.993 265.14C252.695 268.863 251.826 272.151 250.053 272.485C248.28 272.819 246.274 270.072 245.572 266.35C244.87 262.627 247.028 256.438 247.028 256.438C247.028 256.438 251.291 261.418 251.993 265.14Z" fill="#C9E9D2"/>
<path d="M265.449 282.458C263.227 285.526 260.241 287.156 258.78 286.099C257.318 285.041 257.935 281.696 260.156 278.628C262.378 275.56 268.358 272.871 268.358 272.871C268.358 272.871 267.671 279.39 265.449 282.458Z" fill="#C9E9D2"/>
<path d="M191.972 71.1627C190.513 67.6665 190.353 63.7639 191.52 60.16C192.688 56.556 195.106 53.4883 198.339 51.5111C199.415 50.8568 198.431 49.1615 197.349 49.819C193.642 52.0321 190.874 55.5274 189.572 59.6431C188.269 63.7588 188.521 68.2092 190.28 72.1517C190.774 73.3077 192.463 72.3105 191.972 71.1627Z" fill="#3F3D56"/>
<path d="M192.533 73.7981C189.889 69.1157 190.511 63.5122 191.462 58.4487C192.455 53.1628 193.756 47.7959 192.63 42.4198C192.12 39.8097 190.911 37.3867 189.133 35.4086C188.276 34.4788 186.893 35.8673 187.747 36.7942C191.072 40.4045 191.457 45.6417 190.918 50.2929C190.282 55.7788 188.479 61.1246 188.703 66.6993C188.761 69.5269 189.494 72.2997 190.84 74.7872C190.976 75.0022 191.19 75.156 191.437 75.2163C191.684 75.2766 191.945 75.2386 192.165 75.1103C192.384 74.9819 192.545 74.7734 192.614 74.5286C192.683 74.2838 192.654 74.0219 192.533 73.7981Z" fill="#3F3D56"/>
<path d="M206.722 88.7509H173.398C172.619 88.75 171.871 88.44 171.32 87.889C170.769 87.3379 170.459 86.5908 170.458 85.8115V76.0263C170.461 73.5118 171.461 71.1011 173.24 69.3231C175.018 67.5451 177.43 66.545 179.945 66.5421H184.833C185.093 66.5418 185.342 66.4385 185.526 66.2548C185.709 66.0711 185.813 65.8221 185.813 65.5623V60.9899C185.813 60.557 185.986 60.1419 186.292 59.8358C186.598 59.5296 187.013 59.3574 187.446 59.3569H192.674C193.107 59.3574 193.522 59.5296 193.828 59.8358C194.135 60.1419 194.307 60.557 194.307 60.9899V65.5623C194.308 65.8221 194.411 66.0711 194.595 66.2548C194.778 66.4385 195.028 66.5418 195.287 66.5421H200.175C202.69 66.545 205.102 67.5451 206.881 69.3231C208.659 71.1011 209.66 73.5118 209.663 76.0263V85.8115C209.662 86.5908 209.352 87.3379 208.8 87.889C208.249 88.44 207.502 88.75 206.722 88.7509Z" fill="#CCCCCC"/>
<path d="M190.572 29.9887C191.274 33.7111 190.405 36.9995 188.632 37.3335C186.859 37.6675 184.853 34.9206 184.151 31.1982C183.45 27.4758 185.608 21.2859 185.608 21.2859C185.608 21.2859 189.871 26.2664 190.572 29.9887Z" fill="#C9E9D2"/>
<path d="M204.029 47.3068C201.807 50.3751 198.821 52.005 197.359 50.9474C195.898 49.8897 196.514 46.5449 198.736 43.4765C200.958 40.4082 206.938 37.7195 206.938 37.7195C206.938 37.7195 206.25 44.2384 204.029 47.3068Z" fill="#C9E9D2"/>
<path d="M125.699 189.67H98.9092V199.468H125.699V189.67Z" fill="#C9E9D2"/>
<path d="M125.699 221.677H98.9092V231.475H125.699V221.677Z" fill="#C9E9D2"/>
<path d="M289.052 399.347H89.108C86.163 399.344 83.3396 398.173 81.2571 396.091C79.1747 394.009 78.0033 391.186 78 388.242V23.1044C78.0033 20.1603 79.1747 17.3378 81.2571 15.256C83.3396 13.1743 86.163 12.0033 89.108 12H289.052C291.997 12.0033 294.821 13.1743 296.903 15.2561C298.986 17.3378 300.157 20.1603 300.16 23.1044V388.242C300.157 391.186 298.986 394.009 296.903 396.091C294.821 398.172 291.997 399.343 289.052 399.347ZM89.108 13.3064C86.5095 13.3093 84.0182 14.3426 82.1808 16.1794C80.3433 18.0162 79.3098 20.5067 79.3068 23.1044V388.242C79.3098 390.84 80.3433 393.331 82.1808 395.167C84.0182 397.004 86.5095 398.037 89.108 398.04H289.052C291.651 398.037 294.142 397.004 295.979 395.167C297.817 393.331 298.85 390.84 298.853 388.242V23.1044C298.85 20.5067 297.817 18.0162 295.979 16.1794C294.142 14.3426 291.651 13.3093 289.052 13.3064H89.108Z" fill="#3F3D56"/>
<path d="M299.507 87.4136H78.6533V88.72H299.507V87.4136Z" fill="#3F3D56"/>
<path d="M299.507 165.818H78.6533V167.125H299.507V165.818Z" fill="#3F3D56"/>
<path d="M299.507 244.222H78.6533V245.529H299.507V244.222Z" fill="#3F3D56"/>
<path d="M299.507 322.627H78.6533V323.933H299.507V322.627Z" fill="#3F3D56"/>
<path d="M123.739 245.845H101.523C100.657 245.844 99.8263 245.5 99.2139 244.887C98.6014 244.275 98.2569 243.445 98.2559 242.579V179.219C98.2569 178.353 98.6014 177.523 99.2139 176.911C99.8263 176.298 100.657 175.954 101.523 175.953H123.739C124.605 175.954 125.436 176.298 126.048 176.911C126.66 177.523 127.005 178.353 127.006 179.219V242.579C127.005 243.445 126.66 244.275 126.048 244.887C125.436 245.5 124.605 245.844 123.739 245.845ZM101.523 177.259C101.003 177.26 100.505 177.467 100.137 177.834C99.77 178.201 99.5633 178.699 99.5627 179.219V242.579C99.5633 243.099 99.77 243.597 100.137 243.964C100.505 244.332 101.003 244.538 101.523 244.539H123.739C124.259 244.538 124.757 244.332 125.124 243.964C125.492 243.597 125.699 243.099 125.699 242.579V179.219C125.699 178.699 125.492 178.201 125.124 177.834C124.757 177.467 124.259 177.26 123.739 177.259H101.523Z" fill="#3F3D56"/>
<path d="M166.864 189.67H140.074V199.468H166.864V189.67Z" fill="#C9E9D2"/>
<path d="M166.864 221.677H140.074V231.475H166.864V221.677Z" fill="#C9E9D2"/>
<path d="M164.904 245.845H142.688C141.822 245.844 140.991 245.5 140.379 244.887C139.766 244.275 139.422 243.445 139.421 242.579V179.219C139.422 178.353 139.766 177.523 140.379 176.911C140.991 176.298 141.822 175.954 142.688 175.953H164.904C165.77 175.954 166.601 176.298 167.213 176.911C167.826 177.523 168.17 178.353 168.171 179.219V242.579C168.17 243.445 167.826 244.275 167.213 244.887C166.601 245.5 165.77 245.844 164.904 245.845ZM142.688 177.259C142.168 177.26 141.67 177.467 141.303 177.834C140.935 178.201 140.728 178.699 140.728 179.219V242.579C140.728 243.099 140.935 243.597 141.303 243.964C141.67 244.332 142.168 244.538 142.688 244.539H164.904C165.424 244.538 165.922 244.332 166.289 243.964C166.657 243.597 166.864 243.099 166.864 242.579V179.219C166.864 178.699 166.657 178.201 166.289 177.834C165.922 177.467 165.424 177.26 164.904 177.259H142.688Z" fill="#3F3D56"/>
<path d="M232.205 110.633H205.416V120.431H232.205V110.633Z" fill="#C9E9D2"/>
<path d="M232.205 142.64H205.416V152.438H232.205V142.64Z" fill="#C9E9D2"/>
<path d="M230.245 166.808H208.029C207.163 166.807 206.332 166.463 205.72 165.85C205.107 165.238 204.763 164.408 204.762 163.542V100.182C204.763 99.3159 205.107 98.4857 205.72 97.8735C206.332 97.2612 207.163 96.9168 208.029 96.9158H230.245C231.111 96.9168 231.942 97.2612 232.554 97.8735C233.167 98.4857 233.511 99.3159 233.512 100.182V163.542C233.511 164.408 233.167 165.238 232.554 165.85C231.942 166.463 231.111 166.807 230.245 166.808ZM208.029 98.2222C207.509 98.2227 207.011 98.4294 206.644 98.7968C206.276 99.1641 206.069 99.6622 206.069 100.182V163.542C206.069 164.062 206.276 164.56 206.644 164.927C207.011 165.294 207.509 165.501 208.029 165.502H230.245C230.765 165.501 231.263 165.294 231.631 164.927C231.998 164.56 232.205 164.062 232.205 163.542V100.182C232.205 99.6622 231.998 99.1641 231.631 98.7967C231.263 98.4294 230.765 98.2227 230.245 98.2222H208.029Z" fill="#3F3D56"/>
<path d="M273.37 110.633H246.581V120.431H273.37V110.633Z" fill="#C9E9D2"/>
<path d="M273.37 142.64H246.581V152.438H273.37V142.64Z" fill="#C9E9D2"/>
<path d="M271.41 166.808H249.194C248.328 166.807 247.497 166.463 246.885 165.85C246.273 165.238 245.928 164.408 245.927 163.542V100.182C245.928 99.3159 246.273 98.4857 246.885 97.8735C247.497 97.2612 248.328 96.9168 249.194 96.9158H271.41C272.276 96.9168 273.107 97.2612 273.719 97.8735C274.332 98.4857 274.676 99.3159 274.677 100.182V163.542C274.676 164.408 274.332 165.238 273.719 165.85C273.107 166.463 272.276 166.807 271.41 166.808ZM249.194 98.2222C248.674 98.2227 248.176 98.4294 247.809 98.7967C247.441 99.1641 247.234 99.6622 247.234 100.182V163.542C247.234 164.062 247.441 164.56 247.809 164.927C248.176 165.294 248.674 165.501 249.194 165.502H271.41C271.93 165.501 272.428 165.294 272.796 164.927C273.163 164.56 273.37 164.062 273.37 163.542V100.182C273.37 99.6622 273.163 99.1641 272.796 98.7967C272.428 98.4294 271.93 98.2227 271.41 98.2222H249.194Z" fill="#3F3D56"/>
<path d="M199.724 183.819L174.646 193.239L178.094 202.411L203.172 192.99L199.724 183.819Z" fill="#C9E9D2"/>
<path d="M210.986 213.78L185.908 223.2L189.356 232.372L214.434 222.952L210.986 213.78Z" fill="#C9E9D2"/>
<path d="M195.708 245.115C195.044 245.114 194.395 244.911 193.85 244.532C193.304 244.154 192.886 243.618 192.652 242.996L170.357 183.685C170.053 182.875 170.084 181.976 170.442 181.188C170.8 180.399 171.456 179.785 172.266 179.48L193.062 171.668C193.464 171.517 193.891 171.446 194.32 171.461C194.749 171.475 195.171 171.573 195.562 171.751C195.952 171.928 196.304 172.18 196.597 172.493C196.891 172.807 197.119 173.175 197.27 173.576L219.564 232.887C219.868 233.698 219.838 234.596 219.48 235.385C219.122 236.173 218.466 236.787 217.656 237.093L196.859 244.905C196.491 245.044 196.101 245.115 195.708 245.115ZM194.213 172.764C193.977 172.764 193.743 172.807 193.522 172.89L172.726 180.702C172.24 180.886 171.846 181.254 171.631 181.728C171.416 182.201 171.398 182.74 171.58 183.226L193.875 242.537C193.965 242.778 194.103 242.999 194.278 243.187C194.454 243.375 194.665 243.526 194.9 243.632C195.134 243.739 195.387 243.798 195.645 243.806C195.902 243.815 196.158 243.773 196.399 243.682L217.196 235.87C217.682 235.687 218.076 235.318 218.29 234.845C218.505 234.372 218.523 233.833 218.341 233.346L196.047 174.035C195.906 173.663 195.655 173.341 195.328 173.114C195 172.887 194.611 172.765 194.213 172.764Z" fill="#3F3D56"/>
<path d="M109.553 106.088L84.4756 115.508L87.9232 124.68L113.001 115.26L109.553 106.088Z" fill="#C9E9D2"/>
<path d="M120.815 136.049L95.7375 145.47L99.1852 154.642L124.263 145.221L120.815 136.049Z" fill="#C9E9D2"/>
<path d="M105.537 167.385C104.873 167.383 104.225 167.18 103.679 166.801C103.133 166.423 102.715 165.887 102.481 165.266L80.1861 105.955C79.8825 105.144 79.9129 104.246 80.2708 103.457C80.6286 102.669 81.2847 102.054 82.0951 101.749L102.891 93.9369C103.293 93.786 103.721 93.7156 104.149 93.7298C104.578 93.7441 105 93.8426 105.391 94.0198C105.781 94.1971 106.133 94.4495 106.427 94.7628C106.72 95.076 106.948 95.4439 107.099 95.8454L129.394 155.156C129.697 155.967 129.667 156.865 129.309 157.654C128.951 158.442 128.295 159.057 127.485 159.362L106.688 167.174C106.32 167.313 105.93 167.384 105.537 167.385ZM104.042 95.0334C103.806 95.0337 103.572 95.0765 103.351 95.1597L82.5549 102.972C82.0686 103.155 81.675 103.524 81.4602 103.997C81.2455 104.47 81.2272 105.009 81.4094 105.495L103.704 164.806C103.795 165.047 103.932 165.268 104.108 165.456C104.283 165.644 104.495 165.795 104.729 165.902C104.963 166.008 105.217 166.067 105.474 166.076C105.731 166.084 105.988 166.042 106.229 165.951L127.025 158.14C127.511 157.956 127.905 157.587 128.119 157.114C128.334 156.641 128.352 156.102 128.17 155.616L105.876 96.3047C105.735 95.9318 105.484 95.6105 105.157 95.3834C104.829 95.1563 104.44 95.0343 104.042 95.0334Z" fill="#3F3D56"/>
</svg>
