<svg width="2361" height="1371" viewBox="0 0 2361 1371" fill="none" xmlns="http://www.w3.org/2000/svg">
<path d="M732.037 934.097C728.783 934.097 724.105 937.554 721.054 938.978L712.918 943.046C712.918 943.046 707.426 963.386 704.375 970.912C701.324 978.438 689.933 994.71 694.001 1000.81C698.069 1006.91 708.036 1011.39 718.206 1005.69C728.376 999.998 728.173 981.082 732.037 973.76C735.088 967.658 733.664 954.843 733.664 951.996C733.868 945.894 733.461 939.995 732.037 934.097Z" fill="#311E69"/>
<path d="M647.016 897.078C643.761 897.078 639.083 900.536 636.235 901.96L628.099 906.028C628.099 906.028 625.252 928.198 619.557 933.894C613.861 939.589 591.894 951.386 595.759 957.488C600.844 965.421 611.421 967.861 619.557 962.98C629.93 957.285 636.642 945.691 643.965 942.64C650.27 940.199 647.626 923.724 647.829 918.232C648.236 908.672 648.643 906.638 647.016 897.078Z" fill="#311E69"/>
<path d="M632.371 689.407C632.371 689.407 618.336 764.461 619.557 805.548C620.777 846.635 621.591 897.078 624.642 919.452C624.642 919.452 651.897 923.317 661.254 915.181C661.254 915.181 664.101 770.97 664.101 771.784C668.373 790.7 687.899 887.925 689.933 894.434C691.967 900.943 702.137 951.996 702.137 951.996C702.137 951.996 720.646 958.098 740.986 945.487C740.986 945.487 737.529 871.653 731.223 850.906C724.918 830.16 702.951 699.78 692.17 689.61" fill="#68E1FD"/>
<path opacity="0.67" d="M632.371 689.407C632.371 689.407 618.336 764.461 619.557 805.548C620.777 846.635 621.591 897.078 624.642 919.452C624.642 919.452 651.897 923.317 661.254 915.181C661.254 915.181 664.101 770.97 664.101 771.784C668.373 790.7 687.899 887.925 689.933 894.434C691.967 900.943 702.137 951.996 702.137 951.996C702.137 951.996 720.646 958.098 740.986 945.487C740.986 945.487 737.529 871.653 731.223 850.906C724.918 830.16 702.951 699.78 692.17 689.61" fill="#311E69"/>
<path d="M691.357 695.305C691.357 695.305 715.561 625.132 705.798 609.064C696.035 592.995 656.982 580.384 638.269 582.012C619.557 583.639 631.557 694.492 634.608 695.305C637.659 696.119 665.118 715.239 691.357 695.305Z" fill="#A6AEBF"/>
<path d="M699.493 601.945L670.203 589.741C664.915 615.573 659.423 641.201 653.728 666.829L694.611 673.948C694.611 673.948 719.019 660.524 722.68 639.37C726.341 618.217 700.51 602.962 699.493 601.945Z" fill="#A6AEBF"/>
<path d="M640.303 624.319C640.303 624.319 636.439 586.079 636.439 582.622C625.048 585.876 614.472 591.368 605.115 598.69C600.437 602.351 595.962 606.419 591.894 610.894C589.047 613.538 586.809 616.589 584.979 620.047C583.352 623.912 583.962 628.387 584.572 632.455C586.402 642.014 589.657 651.167 594.132 659.71C598.81 669.677 604.709 679.033 611.624 687.779C613.658 690.424 620.777 700.187 625.252 698.56C634.201 695.305 638.066 684.932 638.066 684.932C638.066 684.932 633.998 676.796 629.32 666.626C626.676 660.524 614.675 646.896 613.048 637.54C614.268 635.912 615.489 634.489 616.912 633.065C623.014 627.166 632.981 628.183 640.303 624.319Z" fill="#A6AEBF"/>
<path d="M643.762 584.859L649.66 614.963L658 605.199L664.305 617.403L681.187 594.419C681.187 594.419 655.152 582.215 643.762 584.859Z" fill="#A6AEBF"/>
<path d="M640.304 553.943C640.304 553.943 640.304 595.029 655.355 597.674C671.831 600.521 681.187 581.808 681.187 581.808C681.187 581.808 683.221 545.603 666.949 542.349C650.677 539.094 640.711 548.858 640.304 553.943Z" fill="#FBB5AD"/>
<path d="M669.593 577.74C669.593 577.74 673.661 562.079 677.932 567.164C682.204 572.249 670.813 583.639 670.813 583.639" fill="#FBB5AD"/>
<path d="M673.458 537.264C673.458 537.264 688.103 538.891 692.374 550.485C696.646 562.078 685.662 585.469 677.729 589.131L687.289 568.791L686.882 554.959L673.458 537.264Z" fill="#56403D"/>
<path d="M692.171 555.773C690.951 547.637 685.662 543.569 678.543 539.501C677.933 539.094 677.323 538.891 676.713 538.484C678.136 537.467 679.153 536.043 679.967 534.416C680.17 533.806 680.17 533.196 679.56 532.992C679.357 532.992 679.153 532.789 678.95 532.789C677.119 532.789 675.289 533.806 674.068 535.23C673.255 533.602 672.034 531.975 670.814 530.755C670.407 530.348 669.594 530.348 669.187 530.755C669.187 530.958 669.187 530.958 669.187 531.162C668.577 532.789 668.577 534.619 669.39 536.043C662.068 534.416 654.339 535.636 647.83 539.298C645.389 540.721 643.355 542.755 641.931 544.993C639.897 544.789 637.863 545.196 636.033 546.01C631.965 547.84 629.727 552.112 630.541 556.587C631.558 561.468 636.846 563.095 641.321 562.282C643.558 561.875 645.592 560.858 647.423 559.434C645.999 561.672 645.389 564.519 649.66 565.536C657.186 567.163 660.847 562.689 661.254 566.553C661.661 569.604 665.932 571.231 668.983 571.435C669.187 571.842 669.797 573.062 670.407 574.893C671.831 574.486 673.458 574.282 675.085 574.689C675.492 574.282 676.306 574.282 676.713 574.689L676.916 574.893C679.56 579.367 678.95 584.249 677.933 589.334C682.001 585.876 685.255 581.605 687.696 576.927C690.951 570.011 693.188 562.689 692.171 555.773ZM670.814 533.806L671.017 534.213C671.017 534.416 671.017 534.416 671.017 534.619C671.221 535.026 671.221 535.23 671.424 535.636C671.221 535.23 671.017 534.619 670.814 533.806Z" fill="#56403D"/>
<path d="M651.897 612.318L656.372 621.064L662.474 613.945L657.999 605.199L651.897 612.318Z" fill="white"/>
<path d="M656.372 621.064C656.372 621.064 662.678 664.592 668.169 692.865L660.237 707.916L649.863 695.102C649.66 695.102 645.389 665.406 656.372 621.064Z" fill="white"/>
<path d="M657.186 695.306L651.287 631.845L607.76 632.862L613.862 695.306H657.186Z" fill="#68E1FD"/>
<path d="M672.034 670.287L653.118 656.049V661.338C653.118 661.338 636.033 653.609 635.016 657.066C633.999 660.931 637.253 671.508 640.101 672.525C642.948 673.542 655.152 677.406 655.152 677.406L664.712 680.457L672.034 670.287Z" fill="#FBB5AD"/>
<path d="M722.68 631.845C722.68 631.845 735.088 679.44 726.545 689.204C718.002 698.967 663.084 688.39 662.474 683.508C661.864 678.627 669.593 662.558 669.593 662.558L700.306 665.813" fill="#A6AEBF"/>
<path d="M628.914 695.305C628.914 695.305 640.304 693.271 642.745 699.78C643.965 703.238 635.016 699.78 635.016 699.78L628.71 718.493C626.88 716.052 625.659 713.204 625.659 710.153C625.659 705.882 626.066 701.611 626.88 697.339L628.914 695.305Z" fill="#FBB5AD"/>
<path d="M287.607 1006.1C293.913 1010.37 298.794 1012.81 298.794 1012.81C303.879 1012.81 313.236 1013.83 310.388 1007.32C313.643 1012.81 317.914 1017.69 322.796 1021.97C328.287 1026.64 359.001 1031.12 348.424 1049.42C342.932 1058.78 289.641 1031.93 288.218 1025.42C286.794 1018.91 287.607 1006.1 287.607 1006.1Z" fill="#42210B"/>
<path d="M310.592 975.184C309.575 984.337 308.354 993.693 309.778 1002.85C309.982 1004.88 310.388 1006.91 310.795 1009.15L287.404 1005.29V975.387H310.592V975.184Z" fill="#FBB5AD"/>
<path d="M287.607 999.795C293.913 1004.07 298.794 1006.51 298.794 1006.51C303.879 1006.51 313.236 1007.52 310.388 1001.02C313.643 1006.51 317.914 1011.39 322.796 1015.66C328.287 1020.34 359.204 1035.59 346.187 1043.53C336.627 1049.42 289.641 1025.42 288.218 1018.91C286.794 1012.41 287.607 999.795 287.607 999.795Z" fill="#56403D"/>
<path d="M297.574 1006.71C297.371 1005.08 293.913 996.54 296.76 994.506C299.608 992.472 311.405 989.625 312.422 992.879C313.439 996.134 312.422 1007.93 312.422 1007.93" fill="#56403D"/>
<path d="M332.152 988.608C338.458 992.88 343.339 995.321 343.339 995.321C348.424 995.321 357.781 996.338 354.933 989.829C358.188 995.321 362.459 1000.2 367.341 1004.47C372.832 1009.15 403.546 1013.63 392.969 1031.93C387.477 1041.29 334.186 1014.44 332.763 1007.93C331.339 1001.42 332.152 988.608 332.152 988.608Z" fill="#42210B"/>
<path d="M355.34 957.691C354.323 966.844 353.103 976.201 354.526 985.354C354.73 987.388 355.137 989.422 355.543 991.659L332.152 987.795V957.691H355.34Z" fill="#FBB5AD"/>
<path d="M332.152 982.303C338.458 986.574 343.339 989.015 343.339 989.015C348.424 989.015 357.781 990.032 354.933 983.523C358.188 989.015 362.459 993.897 367.341 998.168C372.832 1002.85 403.749 1018.1 390.732 1026.03C381.172 1031.93 334.186 1007.93 332.763 1001.42C331.339 994.914 332.152 982.303 332.152 982.303Z" fill="#56403D"/>
<path d="M342.119 989.421C341.915 987.794 338.458 979.251 341.305 977.217C344.153 975.183 355.95 972.336 356.967 975.59C357.984 978.845 356.967 990.642 356.967 990.642" fill="#56403D"/>
<path d="M371.001 716.866C371.001 716.866 378.324 893.824 363.882 968.268C363.882 968.268 361.035 976.607 326.457 971.726L324.219 987.184C324.219 987.184 300.015 993.693 277.031 984.337C277.031 984.337 267.471 812.464 296.15 712.594" fill="#311E69"/>
<path d="M368.357 656.253C374.256 654.219 362.662 622.692 361.442 618.827C360.832 616.386 360.018 613.946 358.594 611.912C354.526 606.216 346.39 609.064 340.695 609.064C332.966 609.064 325.44 609.878 317.914 611.098C313.643 611.912 309.575 613.335 305.914 615.369C294.116 632.048 290.048 652.592 288.828 672.728C288.218 683.712 288.218 694.899 288.218 706.086C288.218 713.205 288.625 720.12 289.438 727.239C289.642 728.867 290.659 730.494 292.082 731.307C296.354 733.748 301.032 735.375 305.914 735.579C326.66 736.392 352.085 735.579 368.357 721.951C369.374 720.527 370.391 719.103 371.205 717.476L368.357 656.253Z" fill="#A0616A"/>
<path d="M348.628 684.322V660.931L396.223 640.794L409.648 646.082V712.391L358.187 735.985L347.407 729.07" fill="#42210B"/>
<path d="M288.014 706.085C275.81 695.915 268.488 686.966 279.472 647.71C289.031 614.149 317.711 611.098 317.711 611.098" fill="#A0616A"/>
<path d="M352.696 576.723C352.696 576.723 361.849 610.284 346.797 617.606C331.746 624.929 320.966 613.945 316.491 603.979C312.016 594.012 313.643 570.621 333.17 568.18C350.052 565.943 352.696 576.723 352.696 576.723Z" fill="#FBB5AD"/>
<path d="M355.747 570.214C357.374 566.146 357.984 558.824 353.306 556.587C349.645 555.163 345.373 555.976 342.526 558.621C340.899 557.197 338.865 556.383 336.627 555.773C328.898 553.536 320.559 555.366 314.457 560.655C314.253 560.858 313.846 561.061 313.643 561.265C313.236 561.468 312.626 561.468 312.219 561.468C300.422 561.672 297.778 575.096 299.812 584.249C301.846 593.809 306.931 602.352 314.253 608.86C317.508 611.505 321.169 613.335 325.033 614.352C325.44 614.556 326.05 614.149 326.05 613.742C326.05 613.539 326.05 613.539 326.05 613.335C326.661 612.928 326.661 612.318 326.457 611.708C325.44 609.674 325.033 607.437 325.44 605.199C325.44 604.792 325.44 604.589 325.237 604.386C325.644 603.979 325.644 603.369 325.237 602.962C325.033 602.758 324.627 602.758 324.423 602.758C321.779 603.165 319.338 602.148 317.508 600.318C316.287 599.097 315.474 596.86 317.711 596.453C318.525 596.25 319.338 596.453 320.152 597.063C320.559 597.673 320.762 598.08 321.372 598.69C321.576 598.894 321.779 598.894 321.982 599.097C322.796 599.301 323.813 598.69 323.203 597.877C322.796 597.267 322.389 596.656 321.982 596.046C320.559 593.605 320.965 590.351 323.203 588.317C326.05 585.876 328.491 587.097 331.746 587.3C333.78 587.503 335.61 586.283 336.22 584.452C336.22 583.029 336.017 581.808 335.814 580.384C335.814 578.35 336.831 576.52 338.865 575.706C342.322 574.282 344.56 577.333 347.001 578.961C349.035 580.588 351.679 580.995 354.323 580.384C357.577 579.571 359.408 576.113 358.594 572.859C358.391 572.045 357.984 571.435 357.577 570.825C356.56 570.214 356.154 570.214 355.747 570.214ZM335 575.096C335.407 574.486 336.017 574.079 336.627 573.672C336.831 573.672 337.034 573.469 337.237 573.265H337.441L337.848 573.469C336.831 573.876 335.814 574.282 335 575.096ZM354.323 567.977C354.323 567.57 354.526 567.163 354.526 566.96C354.323 567.163 354.323 567.57 354.323 567.977Z" fill="#56403D"/>
<path d="M329.711 971.726C333.373 923.927 336.22 876.128 338.051 828.126C338.864 810.837 339.271 793.548 339.881 776.055C339.881 775.445 339.271 774.835 338.661 774.835C338.051 774.835 337.441 775.445 337.441 776.055C335.813 837.686 332.559 899.316 328.084 960.946C327.881 964.404 327.474 967.862 327.271 971.319L329.711 971.726Z" fill="#EFEFEF"/>
<path d="M373.646 696.119C373.646 696.119 375.884 690.831 372.222 688.797C368.561 686.763 351.476 688.797 351.476 688.797L354.73 682.898C355.137 681.678 354.527 681.271 353.103 681.067C349.238 680.457 345.984 685.135 344.357 687.983C343.746 689 343.34 690.22 343.136 691.441C342.933 692.458 343.136 693.882 342.323 694.288C341.509 694.288 340.492 694.085 339.678 693.882C338.458 700.187 337.034 706.289 335.61 712.391L342.933 714.425C342.933 714.425 366.527 721.951 368.968 719.713C370.392 718.086 371.409 716.256 371.816 714.018L374.663 711.374C377.511 708.73 373.443 704.865 373.443 704.865C375.884 704.662 377.714 703.035 378.324 700.797C379.545 696.729 373.646 696.119 373.646 696.119Z" fill="#FBB5AD"/>
<path d="M353.712 693.678C360.425 694.695 367.34 695.305 374.052 695.305C374.663 695.305 374.663 696.322 373.849 696.322C367.137 696.322 360.221 695.916 353.509 694.695C352.899 694.695 353.102 693.475 353.712 693.678Z" fill="#42210B"/>
<path d="M352.086 700.797C359.205 703.238 366.731 704.662 374.256 705.272C374.46 705.272 374.663 705.679 374.663 705.882C374.663 706.086 374.46 706.289 374.256 706.289C366.731 705.679 359.205 704.052 351.882 701.814C351.069 701.611 351.476 700.594 352.086 700.797Z" fill="#42210B"/>
<path d="M352.492 708.526C358.797 710.357 365.306 713.001 372.018 713.611C372.222 713.611 372.425 714.018 372.425 714.222C372.425 714.425 372.222 714.628 372.018 714.628C365.306 714.018 358.594 711.374 352.288 709.34C351.475 709.34 351.678 708.323 352.492 708.526Z" fill="#42210B"/>
<path d="M341.916 684.118C331.746 682.288 321.779 679.033 312.626 674.152C313.033 673.948 313.44 673.338 313.44 672.931C313.44 667.643 314.05 662.354 315.271 657.066C315.677 655.032 312.626 654.218 312.22 656.252C310.999 661.744 310.389 667.236 310.186 672.931C309.575 672.728 308.965 672.321 308.558 672.118C306.728 671.101 305.304 673.745 306.931 674.762C317.101 680.457 328.085 684.525 339.679 686.762C338.255 696.322 336.628 705.882 334.797 715.442C334.797 715.849 334.797 716.255 335 716.662C329.305 716.255 306.524 714.425 287.812 705.882L289.032 727.036C289.032 727.036 316.694 729.476 335.611 717.069C336.221 717.476 337.034 717.272 337.441 716.662C337.441 716.459 337.645 716.459 337.645 716.255C339.679 706.289 341.306 696.119 342.73 685.949C343.136 685.339 342.73 684.525 341.916 684.118Z" fill="#311E69"/>
<path d="M642.743 755.919C642.743 754.495 641.726 753.071 640.303 752.664C639.286 752.258 638.065 752.258 637.048 752.054C638.675 750.834 639.286 749.613 638.065 748.19C631.963 740.867 596.775 756.732 593.317 750.224C592.91 749.41 592.504 748.596 591.893 747.986C591.487 747.173 591.283 746.359 590.876 745.545C589.656 742.901 588.639 740.257 585.995 739.037C584.368 738.223 582.334 738.833 581.317 740.46C580.91 741.274 580.706 742.088 580.91 742.901C582.13 748.19 583.961 753.478 586.605 758.36C585.588 766.089 583.961 773.615 581.723 780.937C580.503 785.005 586.808 786.836 588.232 782.768C588.639 783.174 589.046 783.378 589.656 783.581C590.673 784.598 592.097 784.802 593.317 784.395C593.114 786.225 594.334 787.853 596.165 788.056C597.995 788.259 599.623 787.039 599.826 785.208C602.063 778.293 604.911 770.767 611.42 767.106H614.471C621.386 767.106 628.302 766.902 635.218 766.496C637.252 766.292 638.675 764.665 638.472 762.631C638.472 762.021 638.269 761.411 637.862 761.004C640.506 760.597 642.743 759.173 642.743 755.919Z" fill="#FBB5AD"/>
<path d="M497.516 1147.06C497.313 1137.29 486.126 1136.68 483.278 1129.97C482.465 1127.33 482.058 1124.48 482.465 1121.84C480.024 1121.84 478.193 1120 478.193 1117.56V1117.36C478.6 1112.48 479.414 1107.6 481.041 1102.92L465.786 1088.88C465.786 1088.88 453.582 1108.41 452.361 1112.68C451.141 1116.95 450.327 1149.29 451.344 1152.55C452.361 1155.8 457.853 1154.99 460.497 1154.18C463.142 1153.36 460.497 1128.75 463.142 1129.97C465.786 1131.19 467.413 1152.55 470.871 1157.43C474.329 1162.31 495.686 1160.07 495.686 1160.07C495.686 1160.07 497.72 1156.82 497.516 1147.06Z" fill="#311E69"/>
<path d="M481.854 1118.17C479.21 1099.87 485.515 1066.92 485.515 1066.92L460.294 1068.95L456.226 1105.77C456.632 1106.38 457.039 1106.99 457.039 1107.8C457.039 1108 457.039 1108.21 457.243 1108.21C457.446 1108.41 457.446 1108.61 457.649 1109.02C459.277 1110.85 463.751 1111.05 465.785 1112.28C470.26 1114.72 471.074 1118.58 471.481 1123.26C472.498 1131.39 472.498 1143.8 494.668 1140.55C494.872 1140.34 484.498 1136.48 481.854 1118.17Z" fill="#FBB5AD"/>
<path d="M533.722 1162.11C532.908 1152.35 521.925 1152.35 518.67 1145.84C517.653 1143.19 517.246 1140.55 517.45 1137.7C515.212 1137.9 513.178 1136.07 512.975 1133.63C512.975 1133.43 512.975 1133.43 512.975 1133.23C512.975 1128.34 513.789 1123.46 515.212 1118.78L499.347 1105.56C499.347 1105.56 488.16 1125.7 487.143 1129.97C486.126 1134.24 486.94 1166.79 487.957 1169.84C488.974 1172.89 494.466 1171.87 497.313 1171.06C500.161 1170.24 496.093 1145.63 498.737 1146.65C501.381 1147.67 504.025 1169.02 507.687 1173.5C511.348 1177.97 532.705 1174.92 532.705 1174.92C532.705 1174.92 534.535 1171.87 533.722 1162.11Z" fill="#311E69"/>
<path d="M516.839 1134.04C513.178 1115.73 518.059 1082.58 518.059 1082.58L493.041 1085.63L490.804 1122.65C491.211 1123.26 491.617 1123.87 491.821 1124.68C491.821 1124.89 491.821 1125.09 492.024 1125.09L492.431 1125.9C494.058 1127.73 498.533 1127.73 500.567 1128.75C505.042 1130.99 506.262 1134.85 506.872 1139.33C508.296 1147.46 508.906 1159.87 530.874 1155.4C530.67 1155.4 520.297 1152.14 516.839 1134.04Z" fill="#FBB5AD"/>
<path d="M460.904 747.783C460.904 747.783 446.463 752.054 439.751 787.649C433.039 823.244 429.174 843.177 436.7 853.958C444.226 864.738 470.261 882.027 470.261 882.027L500.974 840.94" fill="#C9E9D2"/>
<path d="M467.82 833.007C467.82 833.007 433.038 760.19 460.904 747.783C488.77 735.375 523.551 753.681 529.246 771.987C534.942 790.293 526.602 845.618 526.602 845.618C526.602 845.618 489.787 846.635 467.82 833.007Z" fill="#C9E9D2"/>
<path d="M524.569 763.444C524.569 763.444 548.774 803.921 567.283 798.429L583.148 762.631C583.148 762.631 615.082 772.597 612.234 791.92C612.234 791.92 583.758 840.736 563.215 843.584C542.672 846.432 517.653 820.396 517.653 820.396" fill="#C9E9D2"/>
<path d="M458.463 1091.12C485.719 1105.16 501.177 1118.78 531.484 1111.87C540.026 1109.83 547.552 987.998 547.552 981.692C547.756 941.622 553.247 915.994 543.077 877.145C541.654 871.653 533.721 841.55 527.416 840.736L467.819 833.007C467.819 833.007 456.226 853.347 455.615 897.078C455.209 926.164 459.277 955.25 459.887 984.336C460.294 1001.22 457.853 1018.1 454.802 1034.78C453.175 1043.32 450.327 1052.68 448.293 1062.04C447.073 1069.15 446.259 1076.48 446.056 1083.6C450.124 1086.44 454.192 1088.88 458.463 1091.12Z" fill="#68E1FD"/>
<path d="M470.057 753.274C468.837 752.664 463.142 741.681 470.871 738.833C478.6 735.985 504.432 738.63 504.229 743.511C504.025 748.393 504.229 755.308 504.229 755.308C493.042 759.376 480.634 758.766 470.057 753.274Z" fill="#C9E9D2"/>
<path d="M468.633 830.16C460.701 811.65 456.226 791.921 455.412 771.784C455.412 769.547 451.955 769.547 452.158 771.784C452.972 792.531 457.65 812.871 465.989 831.787C466.599 833.821 469.447 831.99 468.633 830.16Z" fill="#311E69"/>
<path d="M440.157 723.375C433.242 735.375 449.514 759.58 433.242 766.495C429.581 767.716 425.716 768.326 421.851 768.326C413.309 768.733 405.579 771.174 400.088 777.886C391.341 788.259 391.952 805.345 399.884 816.125C408.834 828.329 424.089 829.956 437.106 824.261C468.023 810.43 448.293 751.851 471.481 735.985L472.701 709.543C472.498 709.543 449.107 707.916 440.157 723.375Z" fill="#56403D"/>
<path d="M512.568 702.628C512.568 702.628 511.957 740.664 504.635 745.342C497.313 750.02 476.566 743.105 475.752 732.528C474.939 721.951 512.568 702.628 512.568 702.628Z" fill="#FBB5AD"/>
<path d="M491.618 684.322C491.618 684.322 478.6 679.237 459.277 690.017C439.954 700.797 446.463 736.392 468.633 743.715C490.804 751.037 496.703 729.273 500.771 720.324C504.839 711.374 512.161 708.526 512.161 704.458C512.161 700.39 511.958 683.712 491.618 684.322Z" fill="#56403D"/>
<path d="M811.362 910.909V1020.75C811.362 1020.75 916.927 1026.64 916.927 1020.75V910.909" fill="#68E1FD"/>
<path d="M864.043 1044.14C893.25 1044.14 916.927 1033.3 916.927 1019.93C916.927 1006.56 893.25 995.727 864.043 995.727C834.836 995.727 811.159 1006.56 811.159 1019.93C811.159 1033.3 834.836 1044.14 864.043 1044.14Z" fill="#68E1FD"/>
<path d="M864.043 935.113C893.25 935.113 916.927 924.277 916.927 910.909C916.927 897.541 893.25 886.704 864.043 886.704C834.836 886.704 811.159 897.541 811.159 910.909C811.159 924.277 834.836 935.113 864.043 935.113Z" fill="#311E69"/>
<path d="M831.093 929.622L831.5 929.825C833.534 930.639 835.568 931.249 837.602 931.656L823.16 811.446C823.16 811.446 820.109 809.819 815.838 812.87L830.483 929.418C830.889 929.622 831.093 929.622 831.093 929.622Z" fill="#FBB5AD"/>
<path d="M847.568 933.487L852.042 820.6C852.042 820.6 849.398 818.566 844.517 820.803L840.855 932.673C843.093 933.08 845.33 933.283 847.568 933.487Z" fill="#FBB5AD"/>
<path d="M864.043 935.113L878.688 817.345L907.977 832.803L896.18 931.656C885.807 934.707 874.823 935.927 864.043 935.113Z" fill="#F7931E"/>
<path d="M2346.07 1107.18H1311.25V1145.14H2346.07V1107.18Z" fill="#A2A5A8"/>
<path d="M2099.32 1112.94C2110.17 1085.04 2132.78 1046.02 2143.63 1018.12C2148.69 1005.11 2154.45 991.292 2166.28 983.748C2174.25 978.681 2183.94 977.32 2193.31 976.047L2240 969.642C2252.52 967.968 2262.61 972.075 2272.79 979.574C2282.99 987.051 2290.58 997.564 2297.16 1008.39C2312.43 1033.41 2323.28 1060.89 2329.19 1089.61C2330.49 1095.95 2331.25 1103.49 2326.63 1108.05C2323.28 1111.4 2318.12 1112 2313.39 1112.24C2245.83 1116.06 2167.08 1109.43 2099.3 1112.98L2099.32 1112.94Z" fill="#68C7FD"/>
<path d="M2099.32 1112.94C2110.17 1085.04 2132.78 1046.02 2143.63 1018.12C2148.69 1005.11 2154.45 991.292 2166.28 983.748C2174.25 978.681 2183.94 977.32 2193.31 976.047L2240 969.642C2252.52 967.968 2262.61 972.075 2272.79 979.574C2282.99 987.051 2290.58 997.564 2297.16 1008.39C2312.43 1033.41 2323.28 1060.89 2329.19 1089.61C2330.49 1095.95 2331.25 1103.49 2326.63 1108.05C2323.28 1111.4 2318.12 1112 2313.39 1112.24C2245.83 1116.06 2167.08 1109.43 2099.3 1112.98L2099.32 1112.94Z" fill="url(#paint0_linear_84_4155)"/>
<path d="M2226.72 984.574C2221.5 991.448 2212.59 994.439 2204.29 992.073C2203.04 991.739 2201.88 991.158 2200.88 990.31C2199.96 989.35 2199.22 988.234 2198.76 986.984C2195.07 978.458 2194.89 968.883 2194.76 959.598C2194.43 955.826 2194.94 952.031 2196.28 948.482C2200.83 938.528 2222.37 928.528 2229.29 940.67C2235.11 950.915 2233.55 975.199 2226.72 984.529V984.574Z" fill="#C14834"/>
<path d="M2258.66 1054.01C2256.23 1057.89 2250.65 1058.23 2245.98 1058.23C2225.56 1058.32 2205.21 1060.55 2185.25 1064.88C2177.89 1066.15 2170.79 1068.63 2164.23 1072.2C2157.62 1075.82 2152.8 1082 2150.86 1089.28C2149.32 1096.6 2152.46 1105.03 2159.14 1108.32C2163.29 1109.94 2167.75 1110.59 2172.17 1110.21L2304.93 1108.78C2307.97 1108.96 2311.03 1108.52 2313.88 1107.49C2320.47 1104.59 2323.3 1096.35 2322.9 1089.17C2318.37 1003.03 2275.11 978.503 2267.93 979.596C2262.17 980.444 2261.23 1024.91 2259.62 1031.27C2257.79 1038.48 2263.24 1047 2258.64 1054.03L2258.66 1054.01Z" fill="#68C5FB"/>
<path d="M2143.94 1090.84C2138.54 1090.08 2133.05 1090.37 2127.76 1091.71C2117.06 1094.23 2107.27 1099.61 2099.39 1107.27C2098.47 1108.05 2097.74 1109.05 2097.27 1110.17C2096.71 1112.89 2098.18 1115.61 2100.77 1116.6C2103.32 1117.49 2106.04 1117.74 2108.69 1117.33L2133.63 1115.57C2137.31 1115.53 2140.95 1114.83 2144.41 1113.52C2148.54 1111.69 2152.04 1108.05 2156.59 1107.87C2157.91 1107.98 2159.25 1107.89 2160.54 1107.6C2164.52 1106.11 2163.49 1099.72 2161.24 1097.36C2157.78 1093.74 2148.65 1091.51 2143.96 1090.82L2143.94 1090.84Z" fill="#C14834"/>
<path d="M2166.97 923.083C2166.24 932.122 2167.8 942.59 2175.28 947.612C2180.65 951.273 2187.69 951.139 2194.23 950.871C2203.4 950.514 2212.88 950.045 2221.05 946.005C2233.55 939.912 2241.03 926.877 2246.7 914.132C2251.01 905.45 2253.8 896.098 2254.91 886.456C2255.65 876.702 2253.24 866.569 2246.61 859.493C2242.37 855.23 2237.12 852.083 2231.37 850.364C2190.81 837.017 2169.43 891.589 2166.97 923.06V923.083Z" fill="#C14834"/>
<path d="M2193.8 836.726C2193.96 833.445 2194.87 830.253 2196.48 827.396C2198.47 824.562 2201.39 822.486 2204.72 821.526C2214.92 818.312 2225.7 823.111 2235.29 827.821L2260.16 840.007C2269.62 843.11 2277.05 850.542 2280.13 860.028C2281.63 863.064 2282.59 866.323 2283.04 869.693C2283.1 874.201 2282.03 878.643 2279.89 882.616C2278.55 886.12 2276.27 889.201 2273.3 891.5C2275.87 892.66 2276.59 896.008 2276.27 898.82C2275.56 903.753 2273.26 908.329 2269.73 911.855C2266.21 915.36 2262.32 918.462 2258.15 921.141L2250.11 926.698C2248.71 927.68 2246.92 928.707 2245.25 927.993C2244.07 927.323 2243.37 926.029 2243.46 924.667C2243.57 923.35 2243.93 922.033 2244.51 920.85C2248.69 910.293 2250.56 898.977 2249.98 887.638C2249.98 885.674 2249.6 883.732 2248.86 881.902C2247.99 880.362 2246.88 878.978 2245.58 877.773L2233.98 866.144C2231.1 862.975 2227.82 860.207 2224.22 857.908C2217.3 853.957 2208.93 853.489 2201.61 856.636C2200.01 857.35 2197.13 859.225 2195.3 858.734C2192.86 858.086 2193.51 855.765 2193.38 853.377C2193.04 847.842 2193.2 842.262 2193.82 836.749L2193.8 836.726Z" fill="#231F20"/>
<path d="M2255.87 919.399C2256.25 922.435 2255.38 925.515 2253.44 927.881C2251.45 930.537 2248.82 932.59 2245.76 933.885C2244.4 934.599 2242.79 934.778 2241.3 934.398C2239.22 933.327 2237.97 931.162 2238.06 928.84C2237.91 923.64 2240.38 918.707 2244.62 915.694C2248.78 912.993 2254.87 913.685 2255.9 919.399H2255.87Z" fill="#C14834"/>
<path d="M2166.1 906.074C2168.45 905.338 2170.86 904.869 2173.29 904.646C2174.92 904.423 2176.55 904.423 2178.15 904.646C2180.19 905.092 2182.13 905.807 2183.98 906.744C2188.85 908.976 2194.16 911.61 2196.5 916.498C2197.13 918.172 2197.84 919.801 2198.64 921.364C2200.74 923.93 2203.58 925.783 2206.79 926.653C2209.4 927.658 2209.69 931.162 2211.88 932.881C2214.51 934.934 2218.33 934.108 2221.3 932.613C2224.62 930.984 2227.55 928.64 2229.91 925.783C2231.34 923.618 2233.15 921.721 2235.25 920.203C2237.5 918.752 2240.52 919.399 2241.97 921.631C2242.44 923.395 2242.12 925.27 2241.14 926.81C2237.57 934.041 2232.73 940.559 2226.83 946.049C2224.92 947.947 2222.73 949.598 2220.38 950.915C2216.79 952.567 2212.93 953.616 2208.98 953.995C2201.1 955.111 2193.18 955.736 2185.23 955.826C2180.63 956.116 2176.01 955.491 2171.68 953.951C2170.34 953.393 2169.12 952.656 2168.02 951.719C2165.41 948.951 2163.69 945.447 2163.16 941.675C2160.21 928.841 2161.86 918.328 2166.1 906.097V906.074Z" fill="#231F20"/>
<path d="M2191.35 933.215C2191.52 934.733 2191.21 936.251 2190.5 937.612C2188.91 940.045 2185.48 940.425 2182.57 940.045C2179.9 939.666 2177.28 938.862 2174.87 937.612C2173.94 937.166 2173.09 936.497 2172.44 935.693C2171.57 934.22 2171.19 932.524 2171.37 930.827C2171.39 928.439 2171.57 926.051 2171.86 923.685C2172.02 921.922 2172.44 920.181 2173.13 918.551C2174.25 916.118 2176.1 914.31 2178.73 915.382C2181.1 916.386 2183.24 917.815 2185.05 919.623C2188.76 923.238 2191.01 928.082 2191.37 933.26L2191.35 933.215Z" fill="#C14834"/>
<path d="M1920.89 1014.13C1908.95 1026.96 1902.03 1043.54 1895.31 1059.75L1876.25 1106.06C1874.98 1108.2 1874.74 1110.79 1875.61 1113.14C1877.08 1114.99 1879.29 1116.11 1881.66 1116.19C1891.41 1117.67 1901.25 1118.65 1911.12 1119.12C1960.73 1122.22 2010.42 1123.36 2060.13 1122.53C2066.09 1122.53 2072.31 1122.24 2077.58 1119.57C2091.28 1112.62 2092.38 1093.58 2089.95 1078.41C2087.13 1060.8 2082.18 1043.61 2075.17 1027.2C2072.71 1020.69 2069.12 1014.66 2064.55 1009.42C2053.18 997.519 2035.13 995.622 2018.68 995.153C1987.21 994.171 1944.46 988.814 1920.92 1014.15L1920.89 1014.13Z" fill="#70CC40"/>
<path d="M1884.4 1003.52C1883.84 1001.67 1882.73 1000.04 1881.21 998.858C1879.89 998.189 1878.4 997.854 1876.92 997.876C1872.59 997.698 1868.26 997.854 1863.96 998.345C1861.19 998.434 1858.55 999.439 1856.41 1001.2C1854.87 1003.05 1853.91 1005.33 1853.69 1007.74C1850.21 1026.65 1854.2 1045.98 1855.76 1065.1C1856.81 1078.14 1856.92 1091.93 1863.98 1103.05C1870.43 1112.91 1881.45 1118.85 1893.24 1118.78C1898.11 1118.78 1903.73 1116.98 1905.6 1112.47C1906.34 1110.19 1906.54 1107.78 1906.21 1105.39C1903.93 1071.04 1899 1035.13 1884.4 1003.52Z" fill="#70CC40"/>
<path d="M1881.95 986.694C1884.27 981.694 1887.39 977.141 1890.14 972.364C1890.92 971.181 1891.43 969.842 1891.63 968.436C1891.81 966.985 1891.05 965.579 1889.76 964.932C1887.01 963.883 1884.89 967.677 1881.92 968.28C1878.95 968.882 1877.06 966.606 1875.14 964.664C1866.99 956.539 1857.35 950.044 1846.77 945.558C1845.7 944.888 1844.38 944.732 1843.15 945.067C1841.99 945.558 1841.66 947.5 1842.86 947.946C1841.72 948.035 1840.61 947.745 1839.65 947.12C1838.6 946.674 1837.08 946.651 1836.64 947.678C1836.19 948.705 1837.53 950.111 1837.19 951.473C1835.92 951.517 1834.65 951.339 1833.44 950.915C1832.19 950.669 1830.56 951.093 1830.32 952.343C1830.27 952.812 1830.32 953.303 1830.48 953.749C1830.65 955.669 1830.65 957.588 1830.48 959.508C1830.48 964.597 1833.58 969.262 1836.59 973.279C1843.02 982.029 1850.09 990.354 1855.09 1000.11C1856.43 1003.17 1858.17 1006.02 1860.27 1008.61C1863.29 1011.8 1874.47 1016.42 1877.35 1010.8C1878.73 1008.17 1877.59 1002.38 1878.08 999.282C1878.8 994.93 1880.12 990.689 1881.99 986.671L1881.95 986.694Z" fill="#FFB4A3"/>
<path d="M2033.19 1064.14C2034.17 1068.88 2034.3 1074.28 2031.24 1078.05C2028.16 1081.8 2022.47 1082.71 2017.45 1082.92C1993.08 1084.19 1968.06 1079.99 1944.31 1085.55C1940.87 1086 1937.72 1087.63 1935.36 1090.15C1932.92 1093.43 1933.24 1097.98 1933.73 1102.07L1935.78 1119.57L1911.97 1115.24C1909.4 1115.15 1907.41 1112.98 1907.52 1110.44C1907.52 1110.37 1907.52 1110.3 1907.52 1110.21C1905.63 1101.08 1904.8 1091.78 1905.09 1082.47C1905.4 1073.14 1909.04 1064.26 1915.36 1057.38C1921.09 1051.73 1928.86 1048.72 1936.58 1046.51C1955 1041.27 1974.24 1039.7 1993.3 1038.16C2001.56 1037.52 2015.24 1035.73 2022.38 1041.29C2028.19 1045.78 2031.73 1057.11 2033.21 1064.14H2033.19Z" fill="url(#paint1_linear_84_4155)"/>
<path d="M1953.77 929.51C1950.94 934.8 1948.86 940.491 1947.66 946.384C1946.14 957.164 1949.93 968.012 1957.83 975.489C1963.53 980.868 1971.31 984.841 1973.77 992.296C1976 999.104 1972.99 1006.92 1975.89 1013.57C1978.79 1020.22 1986.72 1022.92 1993.55 1021.49C2000.33 1019.66 2006.16 1015.31 2009.84 1009.3C2013.39 1003.3 2016.38 996.961 2018.74 990.376C2022.34 981.783 2026.51 973.458 2031.24 965.467C2034.79 960.021 2037.92 954.307 2040.64 948.393C2043.41 941.362 2044.84 933.884 2044.88 926.318C2045.22 908.864 2038.86 890.45 2024.79 880.116C2011.54 870.585 1993.63 870.741 1980.53 880.495C1974.02 885.361 1971.81 891.878 1968.35 899.088C1963.48 909.154 1958.64 919.31 1953.79 929.487L1953.77 929.51Z" fill="#FFB4A3"/>
<path d="M1984.31 840.609C1981.87 838.333 1978.55 835.744 1975.78 837.485C1974.75 838.221 1973.99 839.27 1973.59 840.453C1971.81 844.761 1971.56 849.515 1972.88 853.979C1970.15 852.64 1967.03 852.35 1964.11 853.153C1959.69 855.028 1959.02 861.144 1960.42 865.742C1961.83 870.34 1964.57 874.625 1964.6 879.402C1964.6 881.834 1963.86 884.267 1963.82 886.856C1963.57 889.401 1964.82 891.879 1967.03 893.173C1970.02 894.512 1973.26 892.146 1975.98 890.294C1990.47 880.54 2012.56 885.049 2022.09 899.757C2031.62 914.466 2028.05 933.394 2024.26 950.357C2025.22 951.83 2027 949.598 2028.16 948.281C2030.6 945.469 2035.86 947.768 2036.6 951.428C2036.96 955.223 2035.15 958.883 2031.91 960.914C2028.9 963.102 2025.28 964.352 2022.16 966.36C2021.29 966.784 2020.64 967.543 2020.33 968.458C2020.24 969.262 2020.4 970.065 2020.8 970.78C2021.8 973.079 2022.94 975.311 2024.21 977.476C2025.04 979.351 2026.62 980.801 2028.59 981.449C2030.02 981.56 2031.42 981.248 2032.65 980.511C2042.63 975.645 2049.39 966.093 2054.99 956.495C2060.57 946.897 2065.04 935.402 2059.59 926.14C2058.52 924.309 2057.16 922.702 2056.11 920.85C2054.57 917.301 2053.68 913.507 2053.43 909.645C2050.66 891.968 2042 875.741 2028.86 863.599C2022.63 857.841 2016.02 852.818 2007.63 851.412C1998.1 849.872 1991.54 847.752 1984.35 840.632L1984.31 840.609Z" fill="#C14834"/>
<path d="M1883.55 1112.67C1882.24 1114.27 1881.12 1116.73 1882.53 1118.18C1883.53 1118.92 1884.8 1119.21 1886.01 1118.96L1929.75 1116.37C1930.47 1116.37 1931.21 1116.24 1931.88 1115.99C1934.04 1115.01 1934.31 1112.04 1934.04 1109.65C1933.79 1105.88 1933.55 1102.11 1933.28 1098.36C1933.01 1094.61 1933.86 1093.03 1929.91 1092.49C1924.44 1091.73 1917.57 1093.52 1912.37 1094.92C1901.16 1097.76 1891.12 1103.94 1883.55 1112.67Z" fill="#FFB4A3"/>
<path d="M1744.45 934.442C1745.86 956.985 1742.02 979.685 1744.12 1002.21C1744.86 1009.53 1746.2 1017.18 1743.76 1024.15C1741.51 1030.13 1737.07 1035.02 1731.33 1037.85C1717.98 1044.68 1700.66 1040.28 1690.24 1029.44C1679.82 1018.59 1675.62 1002.96 1676.47 987.988C1677.32 973.011 1682.54 958.726 1688.79 945.067C1694.39 932.88 1703.85 908.819 1717.74 903.618C1735.66 897.079 1743.7 921.653 1744.48 934.442H1744.45Z" fill="#231F20"/>
<path d="M1720.77 893.597C1715.19 883.508 1699.75 879.29 1688.61 884.825C1685.31 886.901 1681.87 888.731 1678.3 890.338C1674.1 891.745 1669.55 891.387 1665.15 891.834C1651.05 893.307 1638.52 904.288 1636.4 917.078C1635.2 924.399 1637.05 931.697 1635.89 939.018C1633.15 956.272 1614.28 969.307 1612.39 986.627C1611.78 992.252 1613.03 997.876 1613.53 1003.48C1614.37 1014.01 1612.54 1024.59 1608.21 1034.21C1605.11 1041.11 1600.76 1047.69 1599.6 1055.04C1597.32 1069.66 1609.6 1083.72 1624.95 1088.21C1640.31 1092.69 1657.59 1089.16 1672.14 1082.25C1688.19 1074.63 1702.47 1062.18 1707.29 1046.4C1714.86 1021.8 1698.25 995.644 1705.71 971.003C1707.78 965.289 1710.22 959.709 1713.03 954.307C1720.35 938.304 1729.77 909.958 1720.75 893.597H1720.77Z" fill="#231F20"/>
<path d="M1658.57 987.452C1658.75 980.801 1657.7 972.833 1662.76 968.614C1663.19 968.213 1663.75 967.945 1664.33 967.855C1664.91 967.878 1665.44 968.056 1665.93 968.369C1671.47 971.404 1676.42 975.4 1680.55 980.198C1685.62 986.069 1689.57 993.189 1696.11 997.273C1698.74 998.947 1701.69 1000.09 1704.41 1001.54C1710.06 1004.59 1714.79 1009.06 1718.16 1014.53C1719.17 1015.84 1719.57 1017.52 1719.3 1019.12C1718.7 1021.2 1716.31 1022.09 1714.19 1022.52C1708.1 1023.54 1701.89 1023.88 1695.71 1023.5C1687.29 1023.28 1678.88 1022.94 1670.46 1022.47C1665.04 1022.36 1659.66 1021.65 1654.39 1020.35C1652.16 1019.73 1648.03 1018.16 1647.47 1015.49C1646.92 1012.81 1650.6 1010.08 1652.07 1007.81C1656.04 1001.74 1658.28 994.706 1658.52 987.475L1658.57 987.452Z" fill="url(#paint2_linear_84_4155)"/>
<path d="M1747.38 1048.92L1755.26 1114.19C1698.56 1117.09 1641.76 1116.6 1585.13 1112.71C1583.86 1100.99 1588.19 1089.43 1592.7 1078.58C1603.91 1051.58 1619.66 1022.65 1647.54 1013.81C1668.86 1007.03 1687.56 1015.49 1708.5 1017.58C1718.88 1018.63 1730.26 1015.15 1738.5 1023.41C1744.79 1029.75 1746.37 1040.33 1747.42 1048.92H1747.38Z" fill="#68C7FD"/>
<path d="M1747.38 1048.92L1755.26 1114.19C1698.56 1117.09 1641.76 1116.6 1585.13 1112.71C1583.86 1100.99 1588.19 1089.43 1592.7 1078.58C1603.91 1051.58 1619.66 1022.65 1647.54 1013.81C1668.86 1007.03 1687.56 1015.49 1708.5 1017.58C1718.88 1018.63 1730.26 1015.15 1738.5 1023.41C1744.79 1029.75 1746.37 1040.33 1747.42 1048.92H1747.38Z" fill="#F56132"/>
<path d="M1680.42 1096.08C1685.35 1095.99 1690.26 1096.57 1695.04 1097.76C1699.86 1099.03 1703.77 1102.58 1705.48 1107.27C1707.31 1113.81 1702.54 1120.7 1696.42 1123.6C1690.31 1126.51 1683.25 1126.42 1676.47 1126.26L1621.85 1124.97C1615.49 1125.12 1609.15 1124.36 1603.01 1122.76C1596.81 1121.06 1591.61 1116.84 1588.68 1111.11C1584.73 1102.29 1589.49 1091.26 1597.63 1086.02C1610 1078.09 1623.17 1082.07 1635.6 1086.75C1649.95 1092.2 1665.09 1095.35 1680.44 1096.08H1680.42Z" fill="#F56132"/>
<path d="M1732.02 1011.65C1733.96 1005.11 1736.96 998.925 1740.88 993.345L1753.76 972.743C1754.1 972.029 1754.66 971.449 1755.37 971.114C1756.22 970.958 1757.11 971.159 1757.8 971.694C1763.81 975.422 1765.26 983.569 1764.52 990.599C1763.78 997.63 1761.44 1004.57 1762.09 1011.58C1762.87 1015.37 1763.45 1019.21 1763.78 1023.05C1763.54 1028.83 1760.77 1034.23 1756.24 1037.85C1750.75 1042.45 1738.38 1048.77 1733.76 1040.48C1729.88 1033.34 1730.3 1019.15 1732 1011.65H1732.02Z" fill="#FFB4A3"/>
<path d="M1745.64 1033.01C1739.32 1034.7 1732.71 1037.76 1730.01 1043.72C1728.9 1046.69 1728.32 1049.82 1728.34 1052.98C1727.4 1069.5 1727.05 1086.02 1727.27 1102.58C1726.98 1105.95 1727.76 1109.3 1729.5 1112.18C1731.93 1115.32 1736.35 1116.11 1740.35 1116.22C1747.87 1116.44 1755.35 1115.08 1762.29 1112.2C1764.5 1111.53 1766.4 1110.1 1767.62 1108.16C1768.29 1106.49 1768.49 1104.68 1768.25 1102.89C1767.4 1086.49 1763.56 1069.93 1763.38 1053.59C1763.14 1042.03 1761.28 1028.77 1745.64 1033.01Z" fill="#F56132"/>
<path d="M1701.2 1106.37C1700.24 1106.37 1699.3 1106.62 1698.48 1107.11C1697.61 1107.96 1697.07 1109.1 1696.96 1110.3C1696.09 1114.79 1695.64 1120.23 1699.17 1123.09C1700.95 1124.32 1703.01 1125.08 1705.15 1125.3C1710.33 1126.28 1715.51 1127.18 1720.68 1128.05C1722.36 1128.47 1724.1 1128.4 1725.73 1127.85C1726.93 1127.11 1728.09 1126.28 1729.19 1125.41C1731.24 1124.48 1733.52 1124.23 1735.73 1124.68C1741.33 1125.23 1746.93 1126.02 1752.51 1127.11C1754.39 1127.58 1756.33 1127.69 1758.25 1127.44C1760.19 1127.18 1761.82 1125.81 1762.42 1123.94C1763.11 1121.13 1760.48 1118.67 1758.03 1117.09C1740.66 1105.61 1721.22 1104.97 1701.22 1106.33L1701.2 1106.37Z" fill="#FFB4A3"/>
<path d="M1681.69 1028.28C1685.46 1032.54 1698.21 1036.49 1703.27 1033.88C1706.64 1032.14 1706.93 1022.81 1708.45 1019.26C1709.61 1016.47 1710.51 1013.57 1711.11 1010.6C1712.31 1006.51 1712.56 1002.21 1711.84 997.988C1711.04 993.725 1707.87 990.288 1703.68 989.172C1699.68 988.435 1675.4 985.712 1677.72 989.06C1687.29 1002.99 1672.67 1018.12 1681.71 1028.3L1681.69 1028.28Z" fill="#FFB4A3"/>
<path d="M1689.53 1013.3C1690.62 1016.62 1692.11 1019.82 1693.99 1022.78C1695.91 1025.78 1699.06 1027.78 1702.58 1028.28C1703.41 1028.37 1704.26 1028.23 1705.02 1027.92C1707.2 1026.89 1707.81 1024.12 1708.12 1021.74L1709.86 1008.81C1710.06 1007.83 1710.01 1006.83 1709.7 1005.89C1709.28 1005.09 1708.65 1004.42 1707.87 1003.95C1706.02 1002.56 1704.1 1001.29 1702.11 1000.13C1697.98 997.697 1692.61 995.019 1687.63 995.956C1685.95 996.18 1684.55 997.34 1683.99 998.925C1683.39 1001.05 1685.04 1003.21 1685.89 1005.02C1687.2 1007.67 1688.41 1010.49 1689.53 1013.32V1013.3Z" fill="url(#paint3_linear_84_4155)"/>
<path d="M1734.43 936.652C1734.43 936.652 1746.15 984.082 1732.85 1000.58C1719.55 1017.09 1698.21 1016.58 1689.7 1007.5C1681.2 998.434 1649.55 958.726 1661.27 934.866C1672.99 911.006 1718.81 882.303 1734.43 936.652Z" fill="#FFB4A3"/>
<path d="M1685.57 923.305C1684.68 928.818 1685.42 934.621 1683.48 939.844C1680.06 948.906 1669.44 953.638 1665.93 962.655C1665.08 964.843 1664.68 967.209 1663.66 969.329C1662.81 971.561 1660.84 973.19 1658.48 973.637C1656.09 973.682 1653.9 972.342 1652.83 970.222C1651.8 968.124 1651.22 965.825 1651.16 963.504C1649.64 947.902 1651.45 931.296 1660.15 918.283C1666.92 907.971 1678.03 901.342 1690.31 900.293C1697.63 899.914 1700.06 901.432 1694.95 906.855C1690.37 911.677 1686.71 916.408 1685.6 923.305H1685.57Z" fill="#231F20"/>
<path d="M1664.48 979.15C1663.9 979.172 1663.34 979.35 1662.88 979.685C1662.59 979.953 1662.34 980.266 1662.16 980.645C1661.18 982.14 1660.73 983.904 1660.89 985.667C1661.69 988.39 1663.97 990.399 1666.76 990.845C1669.71 991.626 1672.83 991.56 1675.75 990.667C1676.04 990.6 1676.31 990.466 1676.51 990.243C1676.8 989.729 1676.8 989.104 1676.51 988.591C1675.4 985.98 1673.86 983.569 1671.96 981.449C1670.04 979.417 1667.21 978.525 1664.48 979.15Z" fill="#FFB4A3"/>
<path d="M1497.22 1010.35C1503.84 1011.94 1510.65 1013.86 1515.99 1018.1C1520.09 1021.67 1523.53 1025.93 1526.12 1030.73C1539.15 1052.54 1547.46 1076.87 1550.49 1102.09C1550.92 1104.14 1550.76 1106.26 1550 1108.2C1548.17 1111.91 1543.15 1112.38 1539 1112.33L1346.62 1110.26L1324.91 1111.62C1329.77 1089.97 1343.97 1018.14 1374.52 1008.84C1386.75 1005.76 1399.23 1003.66 1411.8 1002.54C1424.88 1002.01 1437.98 1002.18 1451.06 1003.08C1466.59 1004.28 1482.02 1006.72 1497.19 1010.35H1497.22Z" fill="#68C7FD"/>
<path d="M1497.22 1010.35C1503.84 1011.94 1510.65 1013.86 1515.99 1018.1C1520.09 1021.67 1523.53 1025.93 1526.12 1030.73C1539.15 1052.54 1547.46 1076.87 1550.49 1102.09C1550.92 1104.14 1550.76 1106.26 1550 1108.2C1548.17 1111.91 1543.15 1112.38 1539 1112.33L1346.62 1110.26L1324.91 1111.62C1329.77 1089.97 1343.97 1018.14 1374.52 1008.84C1386.75 1005.76 1399.23 1003.66 1411.8 1002.54C1424.88 1002.01 1437.98 1002.18 1451.06 1003.08C1466.59 1004.28 1482.02 1006.72 1497.19 1010.35H1497.22Z" fill="#093F68"/>
<path d="M1467.13 1004.1C1467.2 1007.3 1466.77 1010.47 1465.9 1013.55C1463.22 1021.51 1453.96 1026.16 1445.63 1024.93C1437.22 1023.32 1430.08 1017.85 1426.33 1010.15C1422.71 1002.54 1421.04 994.171 1421.46 985.779C1421.22 981.962 1422.18 978.168 1424.21 974.932C1427 971.829 1430.97 970.066 1435.14 970.066C1442.55 969.619 1449.85 972.052 1455.5 976.896C1458.25 979.329 1463.62 981.337 1465.25 983.971C1467.26 987.609 1467.28 999.707 1467.11 1004.13L1467.13 1004.1Z" fill="#FFB4A3"/>
<path d="M1424.07 979.217C1424.07 979.217 1449.67 1019.53 1458.98 1008.05C1464.49 1001.27 1466.75 992.408 1465.12 983.815L1424.07 979.217Z" fill="url(#paint4_linear_84_4155)"/>
<path d="M1517.21 1007.14L1502.01 1017.52C1500.83 1018.23 1499.76 1019.1 1498.85 1020.13C1497.53 1022.03 1496.7 1024.21 1496.41 1026.49C1491.64 1049.75 1489.36 1073.45 1489.65 1097.2C1489.52 1099.68 1489.87 1102.18 1490.74 1104.52C1492.13 1107.24 1494.43 1109.39 1497.24 1110.59C1502.82 1113.29 1509.22 1113.52 1515.43 1113.7L1540.03 1114.34C1542.48 1114.57 1544.98 1114.3 1547.35 1113.56C1553.04 1111.37 1555.25 1104.32 1554.8 1098.25C1553.98 1091.87 1552.1 1085.64 1549.24 1079.86L1532.53 1040.66C1528.49 1030.93 1524.96 1014.48 1517.21 1007.14Z" fill="#093F68"/>
<path d="M1497.04 928.394C1497.04 950.513 1489.2 975.311 1469.2 984.707C1454.83 991.47 1437.09 988.256 1424.07 979.194C1411.06 970.132 1402.31 955.937 1396.93 940.982C1390.77 923.774 1388.7 904.69 1393.87 887.147C1399.07 869.625 1412.24 854.024 1429.63 848.444C1478.13 833.065 1497.06 891.811 1497.01 928.372L1497.04 928.394Z" fill="#FFB4A3"/>
<path d="M1425.9 880.473C1427.6 880.049 1429.23 879.424 1430.77 878.621C1433.6 876.835 1435.05 873.509 1437.64 871.3C1440.5 869.447 1443.74 868.242 1447.13 867.795C1455.99 865.697 1464.38 861.948 1471.88 856.747C1479.2 851.658 1486.03 843.087 1483.15 834.807C1481.99 831.86 1480.05 829.271 1477.53 827.352C1469.81 821.08 1459.56 818.892 1449.96 821.459C1437 825.12 1428.02 836.681 1417.18 844.583C1404.34 853.868 1387.09 859.649 1381.31 874.402C1378.18 882.393 1379.21 891.656 1375.55 899.445C1373.79 903.173 1370.88 907.012 1372.04 910.985C1373.09 914.511 1377.13 916.855 1377.29 920.538C1377.18 922.301 1376.69 923.997 1375.86 925.56C1372.67 933.55 1374.34 942.88 1378.29 950.491C1382.67 957.946 1388.12 964.687 1394.5 970.512C1401.82 977.833 1411.22 985.891 1421.53 984.016C1422.13 983.926 1422.71 983.726 1423.22 983.391C1425.32 981.806 1423.22 978.525 1421.39 976.762C1414.41 970.021 1409.23 961.651 1406.33 952.388C1405.88 951.295 1405.79 950.089 1406.06 948.929C1406.91 947.165 1408.92 946.295 1410.79 946.853C1412.6 947.456 1414.23 948.46 1415.55 949.821C1417.6 947.813 1417.98 944.621 1416.44 942.188C1413.2 936.117 1407.67 932.434 1404.81 925.761C1402.29 920.716 1401.37 915.002 1402.22 909.422C1404.34 896.521 1413.11 884.536 1425.9 880.496V880.473Z" fill="#231F20"/>
<path d="M1492.71 963.816C1486.23 963.37 1479.83 965.334 1474.74 969.329C1472.44 970.959 1470.05 973.548 1470.92 976.248C1472.04 978.503 1474.4 979.864 1476.93 979.663C1479.38 979.418 1481.84 979.574 1484.25 980.132C1479.81 986.025 1476.9 992.921 1475.79 1000.2C1474.72 1007.3 1475.79 1015.58 1481.77 1019.71C1485.99 1022.21 1490.97 1023.14 1495.81 1022.36C1499.69 1022.14 1503.49 1021.18 1506.99 1019.5C1514.6 1015.13 1519.13 1006.85 1518.67 998.077C1518.37 989.774 1514.2 982.699 1508.78 976.672C1503.98 971.383 1500.61 964.754 1492.73 963.816H1492.71Z" fill="#FFB4A3"/>
<path d="M1365.05 742.845C1368.4 742.767 1371.11 740.155 1371.25 736.897C1373.51 724.408 1357.89 702.999 1344.38 715.048C1330.87 727.072 1351.7 744.836 1365.08 742.87L1365.05 742.845Z" fill="#DDDEE0"/>
<path d="M1495.35 639.002C1498.47 633.598 1497.08 626.798 1492.08 622.971C1489.02 620.592 1484.71 620.333 1481.39 622.376C1477.85 624.936 1477.61 629.926 1477.69 634.219C1474.31 632.641 1470.09 635.796 1469.71 639.416C1469.66 643.139 1471.5 646.63 1474.63 648.776C1477.75 651.44 1481.84 652.732 1485.96 652.396C1490.14 651.931 1493.52 648.906 1494.34 644.924C1494.69 642.234 1493.6 639.468 1494.13 636.83" fill="#DDDEE0"/>
<path d="M1543.23 686.373C1539.88 684.795 1536.08 684.382 1532.46 685.183C1531.05 685.416 1529.75 686.088 1528.74 687.097C1527.78 688.467 1527.33 690.122 1527.46 691.777C1527.46 694.259 1527.78 696.715 1528.42 699.12C1528.71 700.775 1529.53 702.275 1530.76 703.438C1533.47 705.61 1537.49 704.292 1540.7 702.869C1543.18 701.758 1545.97 700.335 1546.5 697.724C1546.74 696.095 1546.42 694.44 1545.62 692.966C1544.16 689.579 1542.3 686.398 1540.04 683.451" fill="#DDDEE0"/>
<path d="M1616.8 696.25C1614.04 700.154 1614.41 705.429 1617.71 708.92C1619.14 710.523 1621.32 711.351 1623.5 711.066C1626.11 710.265 1628.03 708.067 1628.4 705.429C1629.57 698.655 1625.23 692.139 1618.4 690.406" fill="#DDDEE0"/>
<path d="M1160.1 44.5734C1143.07 55.3478 1129.65 69.8697 1121.25 86.6336C1119.55 90.4481 1116.91 93.8945 1113.59 96.8056C1105.92 102.594 1094.39 100.721 1084.33 99.6163C1018.08 92.2215 957.408 132.676 948.894 189.994C947.617 198.526 947.579 207.159 948.739 215.692C913.023 216.829 885.896 246.04 877.19 275.988C867.632 308.344 874.597 342.708 896.345 370.314C918.634 397.651 954.892 413.946 993.55 413.98C991.151 437.269 1003.34 459.721 1017.04 479.764C1026.29 493.349 1036.62 506.766 1050.86 516.738C1065.1 526.709 1083.64 532.966 1101.59 530.222C1104.3 565.055 1141.41 593.229 1181.34 598.081C1221.28 602.933 1261.91 588.076 1292.56 565.356C1309.08 579.108 1335.05 581.585 1357.06 576.064C1379.08 570.543 1397.89 558.162 1415.07 545.045C1447.19 553.009 1480.58 539.391 1510.3 526.14C1529.19 517.708 1548.96 508.607 1560.26 493.014C1571.56 477.421 1572.49 458.148 1567.77 440.514C1563.08 422.88 1553.1 406.652 1543.23 390.691C1560.34 382.058 1577.98 373.024 1589.47 359.071C1600.97 345.118 1604.57 324.74 1592.53 311.188C1589.44 307.709 1585.41 304.597 1584.37 300.213C1583.13 295.362 1586.22 290.577 1588.58 286.06C1600.23 264.143 1596.79 237.843 1584.83 216.06C1572.87 194.277 1553.29 176.342 1532.59 160.18C1517.04 148.067 1500.4 136.59 1480.97 129.932C1461.58 123.24 1438.71 121.901 1420.1 129.932C1414.92 115.845 1409.38 101.289 1397.66 90.515C1385.93 79.7406 1366.16 73.9854 1351.14 81.3468C1356.37 78.7368 1321.77 49.3248 1318.25 47.1834C1303.2 38.0151 1285.79 32.193 1267.52 30.2522C1236.8 27.2073 1186.22 28.9138 1160.02 44.4396L1160.1 44.5734Z" fill="#DDDEE0"/>
<path d="M756.351 569.264C751.563 566.446 745.392 567.196 741.482 571.1C737.785 575.031 735.817 580.228 736.03 585.554C735.844 588.657 736.535 591.76 738.025 594.501C739.594 597.268 742.6 598.974 745.845 599C748.265 598.716 750.499 597.604 752.175 595.897C759.649 588.218 759.277 576.091 751.377 568.825C751.271 568.721 751.164 568.618 751.031 568.515" fill="#DDDEE0"/>
<path d="M804.015 535.288C800.504 540.408 801.116 548.424 806.622 551.63C809.282 553.026 812.314 553.621 815.346 553.388C818.91 553.259 822.421 552.69 825.799 551.63C826.837 551.165 827.98 551.009 829.124 551.19C830.108 551.604 830.986 552.225 831.678 553.026C837.13 557.551 845.323 556.931 850.004 551.63C854.659 546.329 854.02 538.365 848.568 533.814C847.849 533.246 846.945 532.573 847.051 531.668C847.131 531.203 847.371 530.763 847.69 530.401C851.094 525.307 849.818 518.533 844.791 514.913C834.337 507.854 832.236 517.886 827.714 523.394C821.836 530.608 810.133 526.523 804.042 535.288H804.015Z" fill="#DDDEE0"/>
<path d="M931.129 483.341C935.411 483.057 940.119 481.919 942.353 478.402C943.417 476.437 943.975 474.265 943.949 472.041C944.135 468.499 943.975 464.931 943.497 461.414C941.794 449.546 924.532 443.78 918.202 455.312C911.871 466.844 914.744 484.453 931.155 483.341H931.129Z" fill="#DDDEE0"/>
<path d="M1038.67 530.375C1037.63 529.574 1036.25 530.918 1035.77 532.082C1032.71 539.167 1033.27 547.26 1037.28 553.879C1037.71 554.655 1038.32 555.327 1039.06 555.818C1039.81 556.206 1040.66 556.413 1041.51 556.387C1045.98 556.077 1049.7 552.923 1050.64 548.682C1051.43 544.467 1050.37 540.123 1047.74 536.71C1045.4 533.297 1041.96 530.737 1037.97 529.393" fill="#DDDEE0"/>
<path d="M1269.46 564.636C1272.81 564.559 1275.52 561.947 1275.66 558.689C1277.92 546.2 1262.3 524.79 1248.79 536.84C1235.28 548.863 1256.11 566.627 1269.49 564.662L1269.46 564.636Z" fill="#DDDEE0"/>
<path d="M1399.76 460.794C1402.88 455.39 1401.49 448.589 1396.49 444.762C1393.43 442.384 1389.12 442.125 1385.8 444.168C1382.26 446.728 1382.02 451.718 1382.1 456.01C1378.72 454.433 1374.5 457.587 1374.12 461.207C1374.07 464.931 1375.91 468.422 1379.04 470.568C1382.16 473.231 1386.25 474.524 1390.37 474.188C1394.55 473.722 1397.93 470.697 1398.75 466.715C1399.1 464.026 1398.01 461.259 1398.54 458.622" fill="#DDDEE0"/>
<path d="M1447.64 508.164C1444.29 506.587 1440.49 506.173 1436.87 506.975C1435.46 507.207 1434.16 507.88 1433.15 508.888C1432.19 510.258 1431.74 511.913 1431.87 513.568C1431.87 516.05 1432.19 518.507 1432.83 520.912C1433.12 522.566 1433.94 524.066 1435.17 525.23C1437.88 527.402 1441.9 526.083 1445.11 524.661C1447.59 523.549 1450.38 522.127 1450.91 519.515C1451.15 517.886 1450.83 516.231 1450.04 514.758C1448.57 511.37 1446.71 508.19 1444.45 505.242" fill="#DDDEE0"/>
<path d="M1521.21 518.041C1518.45 521.946 1518.82 527.221 1522.12 530.711C1523.55 532.315 1525.73 533.142 1527.92 532.858C1530.52 532.056 1532.44 529.858 1532.81 527.221C1533.98 520.446 1529.64 513.93 1522.81 512.198" fill="#DDDEE0"/>
<path d="M1105.51 321.011C1108.78 305.419 1105.51 289.387 1103.51 273.589C1102.5 268.365 1102.74 262.987 1104.2 257.893C1106.07 252.929 1110.93 248.637 1116.36 249.024C1122.53 249.516 1126.63 255.437 1128.62 261.126C1131.07 268.107 1131.81 275.554 1130.8 282.871C1130.24 286.75 1128.78 291.12 1125 292.594C1117.82 282.277 1119.9 268.314 1129.79 260.402C1131.79 258.721 1134.34 257.842 1136.97 257.919C1141.2 258.359 1143.94 262.599 1144.95 266.659C1146.15 271.313 1145.99 276.2 1144.53 280.777C1144.21 282.121 1143.44 283.337 1142.37 284.242C1141.2 285.095 1139.58 284.966 1138.57 283.957C1138.2 283.285 1138.01 282.535 1138.04 281.785C1137.58 272.968 1138.04 263.168 1144.34 256.782C1145.27 255.644 1146.6 254.894 1148.06 254.635C1149.26 254.532 1150.48 254.791 1151.52 255.385C1157.48 258.773 1159.42 266.452 1158.36 273.071C1157.29 279.691 1153.86 285.664 1151.34 291.87C1147.27 301.902 1145.46 312.685 1146.02 323.467" fill="#DDDEE0"/>
<path d="M1105.51 321.011C1108.78 305.419 1105.51 289.387 1103.51 273.589C1102.5 268.365 1102.74 262.987 1104.2 257.893C1106.07 252.929 1110.93 248.637 1116.36 249.024C1122.53 249.516 1126.63 255.437 1128.62 261.126C1131.07 268.107 1131.81 275.554 1130.8 282.871C1130.24 286.75 1128.78 291.12 1125 292.594C1117.82 282.277 1119.9 268.314 1129.79 260.402C1131.79 258.721 1134.34 257.842 1136.97 257.919C1141.2 258.359 1143.94 262.599 1144.95 266.659C1146.15 271.313 1145.99 276.2 1144.53 280.777C1144.21 282.121 1143.44 283.337 1142.37 284.242C1141.2 285.095 1139.58 284.966 1138.57 283.957C1138.2 283.285 1138.01 282.535 1138.04 281.785C1137.58 272.968 1138.04 263.168 1144.34 256.782C1145.27 255.644 1146.6 254.894 1148.06 254.635C1149.26 254.532 1150.48 254.791 1151.52 255.385C1157.48 258.773 1159.42 266.452 1158.36 273.071C1157.29 279.691 1153.86 285.664 1151.34 291.87C1147.27 301.902 1145.46 312.685 1146.02 323.467" stroke="white" stroke-width="0.85" stroke-miterlimit="10"/>
<path d="M1214.3 568.764V520.146C1214.3 520.146 1199.11 485.78 1190.19 471.128C1181.26 456.476 1175.93 449.55 1185.26 444.355C1194.58 439.16 1216.69 465.268 1216.69 465.268C1216.69 465.268 1218.69 383.483 1222.95 375.491C1227.22 367.499 1234.54 368.165 1235.87 372.56C1237.21 376.956 1237.87 433.166 1237.87 433.166C1237.87 433.166 1241.47 369.63 1246.8 366.966C1252.12 364.302 1256.39 365.368 1257.72 371.894C1259.05 378.421 1261.58 437.429 1261.58 437.429C1261.58 437.429 1267.71 371.495 1273.04 368.831C1278.37 366.167 1281.7 367.499 1282.89 373.759C1284.09 380.02 1285.82 445.288 1285.82 445.288C1285.82 445.288 1291.82 385.348 1297.15 384.016C1302.47 382.684 1307.14 383.083 1307.8 394.272C1308.47 405.461 1293.95 488.711 1292.88 500.299C1292.35 507.226 1289.42 513.752 1284.63 518.814V567.299" fill="#AD7972"/>
<path d="M1214.3 571.295C1212.83 571.295 1211.77 570.096 1211.77 568.764V520.679C1209.9 516.416 1196.18 485.78 1187.92 472.46L1186.06 469.397C1180.46 460.339 1176.73 454.212 1178.07 448.884C1178.73 446.22 1180.6 443.956 1183.93 442.091C1192.32 437.296 1206.7 450.616 1214.3 458.741C1214.83 438.494 1216.83 381.485 1220.69 374.292C1223.89 368.298 1228.68 366.566 1232.01 366.833C1234.94 367.099 1237.34 368.964 1238.14 371.761C1238.54 373.226 1238.94 378.954 1239.2 386.546C1240.8 374.558 1242.93 365.9 1245.46 364.702C1250.13 362.437 1253.19 362.97 1255.06 363.902C1257.59 365.101 1259.32 367.765 1259.98 371.495C1260.65 374.825 1261.58 389.876 1262.38 404.795C1264.91 384.948 1268.11 368.431 1271.71 366.7C1275.3 364.968 1277.97 364.702 1280.36 365.9C1282.76 367.099 1284.36 369.497 1285.16 373.493C1285.82 376.823 1286.62 394.538 1287.16 411.721C1291.42 383.083 1294.88 382.151 1296.21 381.884C1299.01 381.218 1302.61 380.686 1305.54 382.817C1308.47 384.948 1309.67 388.544 1310.07 394.538C1310.47 401.864 1305.14 436.097 1300.34 466.333C1297.81 482.584 1295.55 496.703 1295.15 500.965C1294.48 508.158 1291.69 514.951 1286.89 520.279V567.698C1286.89 569.03 1285.82 570.229 1284.36 570.229C1283.03 570.229 1281.83 569.164 1281.83 567.698V519.214C1281.83 518.548 1282.09 517.882 1282.63 517.349C1286.89 512.687 1289.55 506.693 1290.09 500.432C1290.49 496.037 1292.75 481.918 1295.28 465.534C1299.54 438.628 1305.4 401.731 1305.01 394.938C1304.74 389.61 1303.54 387.745 1302.61 387.079C1301.68 386.413 1300.34 386.413 1298.08 386.946C1295.28 390.942 1290.89 419.846 1288.22 446.087C1288.09 447.419 1286.89 448.484 1285.42 448.351C1284.09 448.218 1283.16 447.152 1283.16 445.954C1282.49 419.846 1281.16 379.354 1280.23 374.958C1279.7 372.694 1279.03 371.362 1278.1 370.829C1277.17 370.296 1275.83 370.696 1274.1 371.495C1271.17 375.358 1266.64 408.258 1263.85 438.095C1263.71 439.427 1262.65 440.359 1261.32 440.359C1259.98 440.359 1258.92 439.294 1258.78 437.962C1258.12 421.578 1256.12 378.022 1255.06 372.827C1254.79 371.362 1254.12 369.497 1252.79 368.831C1251.73 368.298 1249.99 368.564 1248 369.497C1245.2 373.36 1241.87 404.928 1240.27 433.699C1240.27 435.031 1239.07 436.23 1237.74 436.23C1236.41 436.23 1235.21 435.031 1235.21 433.699C1234.94 412.254 1234.14 377.089 1233.34 373.759C1233.08 372.96 1232.28 372.427 1231.48 372.427C1229.75 372.294 1227.08 373.36 1225.09 377.222C1222.15 382.684 1219.89 434.498 1219.09 465.8C1219.09 467.132 1217.89 468.331 1216.56 468.331C1215.89 468.331 1215.1 467.932 1214.7 467.399C1206.3 457.542 1191.52 444.222 1186.46 447.152C1183.79 448.618 1183.26 449.95 1182.99 450.749C1182.19 453.946 1185.66 459.54 1190.45 467.266L1192.32 470.462C1201.24 484.981 1216.03 518.414 1216.69 519.746C1216.83 520.013 1216.96 520.412 1216.96 520.812V568.764C1216.96 570.229 1215.76 571.295 1214.3 571.295Z" fill="#093F68"/>
<path d="M1290.89 528.005V565.967C1288.75 566.366 1286.62 566.766 1284.49 567.166C1271.17 569.43 1257.59 570.629 1244 570.629C1234.01 570.629 1224.15 569.963 1214.3 568.764C1212.43 568.631 1210.57 568.364 1208.83 567.965V528.005H1290.89Z" fill="#093F68"/>
<path d="M1244 573.16C1234.01 573.16 1223.89 572.494 1214.03 571.295C1212.16 571.162 1210.3 570.762 1208.43 570.496C1207.24 570.363 1206.3 569.297 1206.3 567.965V528.005C1206.3 526.54 1207.5 525.474 1208.83 525.474H1290.89C1292.22 525.474 1293.42 526.673 1293.42 528.005V565.967C1293.42 567.166 1292.62 568.231 1291.42 568.498C1289.29 568.897 1287.16 569.297 1284.89 569.697C1271.44 571.961 1257.72 573.16 1244 573.16ZM1211.37 565.834C1212.43 565.967 1213.5 566.1 1214.7 566.233C1237.87 569.164 1261.18 568.631 1284.23 564.635C1285.69 564.369 1287.02 564.102 1288.49 563.836V530.536H1211.5L1211.37 565.834Z" fill="#093F68"/>
<path d="M1302.87 221.645C1293.55 226.973 1271.44 200.733 1271.44 200.733C1271.44 200.733 1269.44 282.518 1265.18 290.51C1260.92 298.502 1253.59 297.836 1252.26 293.44C1250.93 289.044 1250.26 232.834 1250.26 232.834C1250.26 232.834 1246.66 296.37 1241.34 299.034C1236.01 301.698 1231.75 300.633 1230.41 294.106C1229.08 287.579 1226.55 228.572 1226.55 228.572C1226.55 228.572 1220.42 294.506 1215.1 297.17C1209.77 299.834 1206.57 298.502 1205.24 292.241C1203.91 285.981 1202.31 220.713 1202.31 220.713C1202.31 220.713 1196.31 280.653 1191.12 281.985C1185.92 283.317 1181.13 282.917 1180.46 271.728C1179.8 260.54 1194.32 177.29 1195.38 165.701C1195.91 158.775 1198.85 152.248 1203.64 147.186V98.8348C1217.09 96.5704 1230.55 95.3716 1244.13 95.3716C1254.12 95.3716 1263.98 96.0376 1273.84 97.2364V145.988C1273.84 145.988 1289.02 180.353 1297.95 195.005C1306.87 209.657 1312.07 216.45 1302.87 221.645Z" fill="#FFE8E1"/>
<path d="M1236.27 303.03C1235.08 303.03 1233.88 302.764 1232.81 302.231C1230.28 301.032 1228.55 298.368 1227.88 294.639C1227.22 291.442 1226.28 276.257 1225.49 261.339C1222.95 281.185 1219.76 297.702 1216.16 299.434C1212.56 301.165 1209.9 301.432 1207.5 300.233C1205.11 299.034 1203.51 296.637 1202.71 292.641C1202.04 289.311 1201.24 271.595 1200.71 254.412C1196.45 283.05 1192.98 283.983 1191.65 284.249C1188.86 284.915 1185.26 285.448 1182.33 283.317C1179.4 281.185 1178.2 277.589 1177.8 271.595C1177.4 264.269 1182.73 230.037 1187.52 199.933C1190.05 183.55 1192.32 169.431 1192.72 165.301C1193.38 158.109 1196.18 151.315 1200.98 145.987V98.8346C1200.98 97.6358 1201.91 96.5702 1203.11 96.3038C1226.55 92.3078 1250.39 91.775 1274.1 94.7054C1275.44 94.8386 1276.37 95.9042 1276.37 97.2362V145.455C1278.23 149.717 1291.95 180.353 1300.21 193.673L1302.08 196.737C1307.67 205.794 1311.4 211.921 1310.07 217.249C1309.4 219.913 1307.4 222.178 1304.21 224.043C1295.81 228.838 1281.43 215.518 1273.84 207.393C1273.3 227.639 1271.31 284.649 1267.44 291.841C1264.25 297.835 1259.45 299.567 1256.12 299.301C1253.19 299.034 1250.79 297.169 1249.99 294.372C1249.59 292.907 1249.19 287.179 1248.93 279.587C1247.33 291.442 1245.2 300.233 1242.67 301.432C1240.54 302.497 1238.41 303.03 1236.27 303.03ZM1226.55 226.174C1227.88 226.174 1228.95 227.239 1229.08 228.571C1229.75 244.955 1231.75 288.511 1232.81 293.706C1233.08 295.171 1233.74 297.036 1235.08 297.702C1236.14 298.235 1237.87 297.969 1239.87 297.036C1242.67 293.173 1246 261.605 1247.6 232.834C1247.73 231.502 1248.8 230.436 1250.13 230.436C1251.46 230.436 1252.52 231.502 1252.66 232.967C1252.92 254.412 1253.72 289.577 1254.52 292.907C1254.79 293.706 1255.59 294.239 1256.39 294.239C1257.99 294.372 1260.78 293.307 1262.78 289.444C1265.71 283.983 1267.98 232.301 1268.78 200.866C1268.78 199.534 1269.97 198.335 1271.31 198.335C1271.97 198.335 1272.77 198.735 1273.17 199.267C1281.56 209.124 1296.35 222.444 1301.41 219.514C1304.07 218.049 1304.61 216.717 1304.87 215.917C1305.67 212.721 1302.21 207.126 1297.55 199.401L1295.55 196.204C1286.62 181.685 1271.84 148.385 1271.17 146.92C1271.04 146.653 1270.91 146.254 1270.91 145.854V99.5006C1249.19 96.9698 1227.35 97.5026 1205.77 100.966V147.186C1205.77 147.852 1205.51 148.518 1204.97 149.051C1200.71 153.713 1198.05 159.707 1197.51 165.967C1197.11 170.363 1194.85 184.482 1192.32 200.999C1188.06 227.905 1182.2 264.802 1182.59 271.595C1182.86 276.923 1184.06 278.788 1184.99 279.454C1185.92 280.12 1187.26 280.12 1189.52 279.587C1192.32 275.591 1196.71 246.687 1199.38 220.446C1199.51 219.114 1200.71 218.049 1202.04 218.182C1203.37 218.182 1204.44 219.381 1204.44 220.713C1204.84 238.828 1206.3 286.78 1207.37 291.708C1207.77 293.973 1208.57 295.305 1209.5 295.837C1210.43 296.37 1211.77 295.971 1213.5 295.038C1216.43 291.175 1220.96 258.275 1223.75 228.438C1224.02 227.106 1225.22 226.041 1226.55 226.174Z" fill="#093F68"/>
<path d="M1273.7 97.2364C1263.85 96.0376 1253.99 95.3716 1244 95.3716C1230.41 95.3716 1216.83 96.5704 1203.51 98.8348C1201.38 99.2344 1199.24 99.634 1197.11 100.034V137.996H1279.16V98.0356C1277.43 97.636 1275.57 97.3696 1273.7 97.2364Z" fill="#70CC40"/>
<path d="M1279.17 140.526H1197.11C1195.78 140.526 1194.58 139.327 1194.58 137.995V100.033C1194.58 98.8346 1195.38 97.769 1196.58 97.5026C1198.71 97.103 1200.84 96.7034 1203.11 96.3038C1226.55 92.3078 1250.39 91.775 1273.97 94.7054C1275.84 94.9718 1277.7 95.105 1279.56 95.5046C1280.76 95.6378 1281.7 96.7034 1281.7 98.0354V137.995C1281.83 139.327 1280.63 140.526 1279.17 140.526ZM1199.64 135.465H1276.63V100.167C1275.57 100.033 1274.5 99.9002 1273.3 99.767C1250.26 96.8366 1226.82 97.3694 1203.91 101.365C1202.44 101.632 1201.11 101.898 1199.64 102.165V135.465Z" fill="#093F68"/>
<path d="M1205.24 346.72C1198.58 348.052 1139.71 350.583 1139.71 350.583C1139.71 350.583 1205.64 356.71 1208.3 362.038C1210.97 367.366 1209.64 370.696 1203.37 372.028C1197.11 373.36 1131.85 374.958 1131.85 374.958C1131.85 374.958 1191.79 380.952 1193.12 386.28C1194.45 391.608 1194.05 396.27 1182.86 396.936C1171.67 397.602 1088.56 383.083 1076.97 382.018C1070.04 381.352 1063.51 378.555 1058.45 373.759H1009.84C1007.57 360.306 1006.37 346.853 1006.37 333.267C1006.37 323.277 1007.04 313.42 1008.24 303.563H1056.99C1056.99 303.563 1091.35 288.378 1106.01 279.454C1120.66 270.529 1127.58 265.201 1132.78 274.525C1137.97 283.849 1112 305.961 1112 305.961C1112 305.961 1193.78 307.959 1201.78 312.221C1209.77 316.483 1209.1 323.809 1204.71 325.141C1200.31 326.473 1144.1 327.139 1144.1 327.139C1144.1 327.139 1207.64 330.736 1210.3 336.064C1212.97 341.392 1211.9 345.388 1205.24 346.72Z" fill="#FFC9B0"/>
<path d="M1181.93 399.2C1173.01 399.2 1140.24 394.006 1111.2 389.477C1094.82 386.946 1080.7 384.682 1076.57 384.282C1069.38 383.616 1062.58 380.819 1057.25 376.024H1009.84C1008.64 376.024 1007.57 375.091 1007.3 373.892C1003.31 350.449 1002.78 326.606 1005.71 302.897C1005.84 301.565 1006.91 300.632 1008.24 300.632H1056.46C1060.72 298.768 1091.35 285.048 1104.67 276.79L1107.74 274.925C1116.93 269.33 1122.92 265.601 1128.25 266.933C1130.91 267.599 1133.18 269.464 1135.04 272.794C1139.84 281.185 1126.52 295.571 1118.39 303.163C1138.64 303.696 1195.78 305.694 1202.84 309.557C1208.84 312.754 1210.57 317.549 1210.3 320.879C1210.04 323.809 1208.17 326.207 1205.37 327.006C1203.91 327.406 1198.18 327.805 1190.59 328.072C1202.44 329.67 1211.23 331.801 1212.43 334.332C1214.7 338.994 1214.16 342.058 1213.23 343.922C1212.03 346.453 1209.37 348.185 1205.64 348.851C1202.31 349.517 1187.26 350.449 1172.34 351.248C1192.19 353.779 1208.7 356.976 1210.43 360.572C1212.17 364.169 1212.43 366.833 1211.37 369.23C1210.3 371.628 1207.64 373.226 1203.77 374.026C1200.44 374.692 1182.73 375.491 1165.55 376.024C1194.18 380.286 1195.12 383.749 1195.38 385.081C1196.05 387.878 1196.58 391.475 1194.45 394.405C1192.32 397.336 1188.72 398.534 1182.73 398.934L1181.93 399.2ZM1011.97 370.962H1058.19C1058.85 370.962 1059.52 371.228 1060.05 371.761C1064.71 376.024 1070.71 378.688 1076.97 379.22C1081.36 379.62 1095.48 381.884 1112 384.415C1138.91 388.678 1175.8 394.538 1182.6 394.139C1187.92 393.872 1189.79 392.674 1190.45 391.741C1191.12 390.809 1191.12 389.477 1190.59 387.212C1186.59 384.415 1157.69 380.02 1131.45 377.356C1130.12 377.222 1129.05 376.024 1129.18 374.558C1129.32 373.226 1130.38 372.294 1131.58 372.294C1157.69 371.628 1198.18 370.296 1202.58 369.364C1204.84 368.831 1206.17 368.165 1206.71 367.232C1207.24 366.3 1206.84 364.968 1206.04 363.236C1202.18 360.306 1169.28 355.777 1139.44 352.98C1138.11 352.847 1137.04 351.648 1137.17 350.183C1137.31 348.984 1138.37 347.918 1139.57 347.918C1155.96 347.252 1199.51 345.254 1204.71 344.189C1206.17 343.922 1208.04 343.256 1208.7 341.924C1209.24 340.859 1208.97 339.127 1208.04 337.129C1204.17 334.332 1172.47 331.002 1143.83 329.27C1142.5 329.137 1141.44 327.938 1141.57 326.473C1141.7 325.274 1142.77 324.209 1143.97 324.209C1165.41 323.942 1200.58 323.143 1203.77 322.344C1204.57 322.078 1205.11 321.278 1205.11 320.479C1205.24 318.748 1204.17 316.084 1200.31 314.086C1194.85 311.155 1143.17 308.891 1111.73 308.092C1110.67 308.092 1109.74 307.426 1109.34 306.36C1108.94 305.428 1109.34 304.229 1110.14 303.563C1119.99 295.171 1133.31 280.386 1130.38 275.324C1128.92 272.66 1127.58 272.128 1126.79 271.861C1123.59 271.062 1117.99 274.525 1110.27 279.32L1107.2 281.185C1092.69 290.11 1059.25 304.895 1057.92 305.561C1057.65 305.694 1057.25 305.827 1056.86 305.827H1010.5C1007.97 327.539 1008.5 349.384 1011.97 370.962Z" fill="#093F68"/>
<path d="M1009.04 297.835C1008.77 299.7 1008.5 301.565 1008.24 303.429C1007.04 313.286 1006.37 323.143 1006.37 333.133C1006.37 346.719 1007.57 360.306 1009.84 373.626C1010.23 375.757 1010.63 377.888 1011.03 380.019H1049V297.968H1009.04V297.835Z" fill="#FFBC0E"/>
<path d="M1049 382.417H1011.03C1009.83 382.417 1008.77 381.618 1008.5 380.419C1008.1 378.288 1007.7 376.157 1007.3 373.892C1005.04 360.439 1003.84 346.719 1003.84 333C1003.84 323.01 1004.51 312.887 1005.71 303.03C1005.97 301.165 1006.24 299.3 1006.5 297.435C1006.64 296.237 1007.7 295.304 1009.04 295.304H1049C1050.33 295.304 1051.53 296.503 1051.53 297.835V380.019C1051.53 381.218 1050.33 382.417 1049 382.417ZM1013.03 377.355H1046.33V300.233H1011.17C1011.03 301.298 1010.9 302.364 1010.77 303.563C1009.57 313.286 1008.9 323.143 1008.9 333C1008.9 346.453 1010.1 359.773 1012.37 373.093C1012.5 374.558 1012.77 375.89 1013.03 377.355Z" fill="#093F68"/>
<path d="M1478.17 292.507H1429.81C1424.75 287.712 1418.23 284.782 1411.3 284.249C1399.71 283.183 1316.59 268.664 1305.41 269.33C1294.22 269.996 1293.82 274.658 1295.15 279.986C1296.48 285.314 1356.42 291.175 1356.42 291.175C1356.42 291.175 1291.15 292.774 1284.89 294.106C1278.63 295.438 1277.3 298.768 1279.96 303.962C1282.63 309.157 1348.56 315.418 1348.56 315.418C1348.56 315.418 1289.69 317.948 1283.03 319.28C1276.37 320.612 1275.44 324.875 1278.1 330.203C1280.76 335.531 1344.3 339.127 1344.3 339.127C1344.3 339.127 1288.09 339.793 1283.69 341.125C1279.3 342.457 1278.77 349.783 1286.62 354.046C1294.48 358.308 1376.4 360.306 1376.4 360.306C1376.4 360.306 1350.29 382.55 1355.62 391.741C1360.95 400.932 1367.88 395.737 1382.39 386.813C1396.91 377.888 1431.41 362.704 1431.41 362.704H1479.76" fill="#E28362"/>
<path d="M1362.15 399.2C1361.35 399.2 1360.55 399.067 1359.88 398.934C1357.22 398.268 1354.96 396.27 1353.09 393.073C1348.3 384.682 1361.62 370.296 1369.74 362.704C1349.49 362.171 1292.49 360.173 1285.29 356.31C1279.3 353.113 1277.57 348.318 1277.83 344.988C1278.1 342.058 1279.96 339.66 1282.76 338.861C1284.23 338.461 1289.95 338.062 1297.55 337.795C1285.69 336.197 1276.9 334.066 1275.7 331.535C1273.44 326.873 1273.97 323.809 1274.9 321.944C1276.1 319.414 1278.77 317.682 1282.5 317.016C1285.83 316.35 1300.88 315.418 1315.8 314.618C1295.95 312.088 1279.43 308.891 1277.7 305.294C1275.97 301.698 1275.7 299.034 1276.77 296.636C1277.83 294.239 1280.5 292.64 1284.36 291.841C1287.69 291.175 1305.41 290.376 1322.59 289.843C1293.95 285.581 1293.02 282.118 1292.75 280.786C1292.09 277.988 1291.55 274.392 1293.68 271.462C1295.82 268.531 1299.41 267.332 1305.41 266.933C1312.73 266.533 1346.96 271.861 1377.07 276.656C1393.45 279.187 1407.57 281.452 1411.7 281.851C1418.89 282.517 1425.69 285.314 1431.01 290.11H1478.43C1479.76 290.11 1480.96 291.308 1480.96 292.64C1480.96 293.972 1479.76 295.171 1478.43 295.171H1430.08C1429.41 295.171 1428.75 294.905 1428.22 294.372C1423.55 290.11 1417.56 287.446 1411.3 286.913C1406.9 286.513 1392.78 284.249 1376.27 281.718C1349.36 277.456 1312.6 271.595 1305.67 271.994C1300.48 272.261 1298.48 273.46 1297.81 274.392C1297.15 275.324 1297.15 276.656 1297.68 278.921C1301.68 281.718 1330.58 286.114 1356.82 288.778C1358.15 288.911 1359.22 290.11 1359.09 291.575C1358.95 292.907 1357.89 293.839 1356.69 293.839C1330.58 294.505 1290.09 295.837 1285.69 296.77C1283.43 297.302 1282.1 297.968 1281.56 298.901C1281.03 299.833 1281.43 301.165 1282.23 302.897C1286.09 305.827 1318.99 310.356 1348.83 313.153C1350.16 313.286 1351.23 314.485 1351.09 315.95C1350.96 317.149 1349.89 318.215 1348.7 318.215C1332.31 318.881 1288.76 320.879 1283.56 321.944C1282.1 322.211 1280.23 322.877 1279.56 324.209C1279.03 325.274 1279.3 327.006 1280.23 329.004C1284.09 331.801 1315.8 335.131 1344.43 336.863C1345.77 336.863 1346.96 338.062 1346.96 339.394C1346.96 340.726 1345.77 341.924 1344.43 341.924C1322.99 342.191 1287.82 342.857 1284.49 343.789C1283.69 344.056 1283.16 344.855 1283.16 345.654C1283.03 347.252 1284.09 350.05 1287.96 352.048C1293.42 354.978 1345.23 357.242 1376.53 358.042C1377.87 358.042 1379.07 359.24 1379.07 360.572C1379.07 361.238 1378.67 362.038 1378.13 362.437C1368.28 370.962 1354.96 385.747 1357.89 390.809C1359.35 393.473 1360.68 394.006 1361.48 394.272C1364.81 395.071 1370.27 391.608 1378 386.813L1381.2 384.815C1395.72 375.89 1429.02 361.105 1430.48 360.439C1430.75 360.306 1431.15 360.173 1431.55 360.173H1479.76C1481.1 360.173 1482.3 361.238 1482.3 362.704C1482.3 364.036 1481.23 365.234 1479.76 365.234H1431.68C1427.42 367.099 1396.78 380.819 1383.46 389.077L1380.4 390.942C1372.41 395.737 1366.94 399.2 1362.15 399.2Z" fill="#093F68"/>
<path d="M1481.63 333C1481.63 342.857 1480.96 352.847 1479.76 362.704C1479.5 364.569 1479.23 366.433 1478.96 368.298H1439V286.114H1476.97C1477.37 288.245 1477.77 290.376 1478.17 292.507C1480.43 305.827 1481.63 319.414 1481.63 333Z" fill="#F56132"/>
<path d="M1479.1 370.696H1439.14C1437.81 370.696 1436.61 369.497 1436.61 368.165V285.98C1436.61 284.648 1437.81 283.45 1439.14 283.45H1477.1C1478.3 283.45 1479.36 284.249 1479.63 285.448C1480.03 287.579 1480.43 289.71 1480.83 291.974C1484.83 315.418 1485.36 339.26 1482.43 362.97C1482.16 364.835 1481.9 366.7 1481.63 368.565C1481.36 369.897 1480.3 370.829 1479.1 370.696ZM1441.54 365.634H1476.83C1476.97 364.568 1477.1 363.503 1477.23 362.304C1478.43 352.58 1479.1 342.724 1479.1 332.867C1479.1 319.414 1477.9 305.961 1475.64 292.774C1475.37 291.309 1475.1 289.977 1474.84 288.511H1441.54V365.634Z" fill="#093F68"/>
<defs>
<linearGradient id="paint0_linear_84_4155" x1="2236.61" y1="1032.25" x2="2186.88" y2="1202.04" gradientUnits="userSpaceOnUse">
<stop stop-color="#231F20" stop-opacity="0"/>
<stop offset="1" stop-color="#231F20"/>
</linearGradient>
<linearGradient id="paint1_linear_84_4155" x1="1954.82" y1="1028.48" x2="2009.55" y2="1236.61" gradientUnits="userSpaceOnUse">
<stop stop-color="#231F20" stop-opacity="0"/>
<stop offset="1" stop-color="#231F20"/>
</linearGradient>
<linearGradient id="paint2_linear_84_4155" x1="1675.33" y1="1046.02" x2="1699.03" y2="959.977" gradientUnits="userSpaceOnUse">
<stop stop-color="#231F20" stop-opacity="0"/>
<stop offset="1" stop-color="#231F20"/>
</linearGradient>
<linearGradient id="paint3_linear_84_4155" x1="1683.5" y1="1030.82" x2="1722.65" y2="970.333" gradientUnits="userSpaceOnUse">
<stop stop-color="#231F20" stop-opacity="0"/>
<stop offset="1" stop-color="#231F20"/>
</linearGradient>
<linearGradient id="paint4_linear_84_4155" x1="1441.33" y1="1024.82" x2="1449.59" y2="931.318" gradientUnits="userSpaceOnUse">
<stop stop-color="#231F20" stop-opacity="0"/>
<stop offset="1" stop-color="#231F20"/>
</linearGradient>
</defs>
</svg>
